<svg width="174" height="100" viewBox="0 0 174 100" fill="none" xmlns="http://www.w3.org/2000/svg">
<path d="M3.536 61.544C3.808 61.408 4.488 60.728 4.488 60.524C4.488 60.32 4.76 59.504 5.032 58.96C5.168 58.688 5.372 58.144 5.372 57.804C5.508 56.988 5.984 54.676 6.052 54.268C6.12 54.132 6.12 53.724 6.12 53.452C6.12 53.18 6.256 52.704 6.392 52.364C6.596 51.82 6.664 51.548 6.664 51.004C6.664 50.528 6.664 50.12 6.8 49.712C7.004 49.236 7.004 48.964 7.004 48.488C6.936 48.08 6.936 47.876 7.004 47.808C7.208 47.672 8.228 47.536 9.18 47.4C9.724 47.4 10.404 47.264 10.744 47.264C11.084 47.196 11.628 47.128 12.036 47.128C12.376 47.06 12.92 47.06 13.192 46.992C13.532 46.924 13.804 46.856 13.872 46.924L14.008 47.536C14.008 47.808 14.212 48.42 14.348 48.896C14.552 49.372 14.688 49.984 14.756 50.256C14.756 50.596 14.892 51.072 14.96 51.412C15.096 51.82 15.164 52.296 15.164 52.5C15.164 53.044 15.64 55.424 15.912 55.9C15.98 56.104 16.252 56.512 16.456 56.716C16.796 57.056 16.864 57.26 16.932 57.736C17 58.008 17.204 58.552 17.408 58.892C17.544 59.232 17.748 59.708 17.816 59.98C18.156 61 18.768 61.544 19.788 61.544C20.536 61.544 20.944 61.34 21.352 60.932C21.964 60.184 22.032 59.912 22.1 57.736C22.168 55.832 22.168 55.832 22.508 54.744C22.984 53.384 23.12 51.956 22.848 51.004C22.712 50.732 22.644 49.984 22.576 49.304C22.44 47.06 22.168 47.672 22.304 46.176C22.44 44.612 22.372 43.796 22.1 42.844C21.76 41.688 21.556 40.124 21.556 38.9C21.556 37.88 21.556 37.676 21.284 36.928C21.148 36.384 20.944 35.636 20.876 35.228C20.808 34.208 20.536 33.528 19.992 32.576C19.72 32.1 19.516 31.556 19.38 30.944C18.904 29.244 18.224 28.088 16.796 26.592C15.572 25.3 14.348 25.028 12.58 25.504C10.948 25.912 9.792 26.66 9.248 27.68C9.112 28.02 8.636 28.7 8.364 29.108C8.024 29.584 7.616 30.264 7.48 30.604C7.344 30.944 7.072 31.42 6.936 31.692C6.8 31.896 6.528 32.508 6.324 33.052C6.188 33.596 5.916 34.276 5.78 34.548C5.644 34.888 5.44 35.364 5.372 35.704C5.236 36.044 5.1 36.52 4.964 36.656C4.556 37.336 4.42 37.608 4.352 38.492C4.284 39.376 4.216 39.58 3.672 40.464C3.4 40.804 3.4 41.008 3.332 41.756C3.264 42.504 3.264 42.708 3.06 42.98C2.788 43.388 2.584 43.864 2.516 44.612C2.448 45.428 2.312 45.632 1.564 46.108C0.884 46.584 0.68 46.788 0.68 47.264C0.68 47.672 0.884 47.944 1.428 48.216L1.7 48.352C1.496 49.372 1.156 50.936 1.156 52.908C1.156 53.588 1.088 53.996 0.952 54.608C0.612 55.56 0.612 56.376 1.02 57.6C1.156 58.076 1.292 58.892 1.36 59.368C1.428 60.116 1.496 60.388 1.7 60.796C2.176 61.612 2.856 61.884 3.536 61.544ZM7.48 44.952C7.48 44.408 7.412 44 7.616 43.524C7.752 43.252 7.888 42.912 7.888 42.776C7.956 42.572 8.092 42.096 8.228 41.756C8.364 41.416 8.568 40.872 8.568 40.532C8.772 39.648 9.452 37.676 9.996 36.452C10.268 35.908 10.54 35.228 10.54 35.024C10.608 34.82 10.88 34.14 11.22 33.596C11.9 32.168 12.308 31.692 12.376 32.032C12.852 33.664 12.852 33.596 12.852 35.432C12.784 36.86 12.852 37.608 13.056 39.104C13.192 40.124 13.396 41.212 13.464 41.552C13.804 42.572 13.872 42.98 13.804 43.728C13.736 44.612 13.736 44.612 11.968 44.68C11.288 44.68 10.404 44.748 10.064 44.816C9.248 44.884 8.16 44.884 7.48 44.952ZM39.2992 65.012C40.8632 64.74 40.9312 64.264 42.0872 63.516C42.4952 63.176 43.1752 62.36 43.1752 62.088C43.1752 62.02 43.3112 61.816 43.5152 61.544C43.9912 60.932 44.0592 60.728 44.1952 60.116C44.2632 59.776 44.3992 59.3 44.5352 59.028C44.6712 58.756 44.8072 58.212 44.8752 57.872C44.9432 57.464 45.0792 56.852 45.2152 56.512C45.3512 56.104 45.4872 55.696 45.4872 55.288V54.54C45.4872 54.472 45.6232 54.404 45.8272 54.336C45.9632 54.2 46.3032 53.996 46.5072 53.792C47.2552 52.976 48.9552 51.412 49.4992 50.664C50.5872 49.304 51.6752 47.74 51.6752 47.672L51.5392 47.4C51.2672 46.992 51.0632 47.128 48.7512 49.44C46.7112 51.48 45.4872 52.568 45.2152 52.568C45.0792 52.568 44.9432 52.092 44.8752 51.344C44.8752 50.936 44.7392 50.46 44.3992 49.78C44.1272 49.236 43.8552 48.488 43.7192 48.148C43.5832 47.74 43.3792 47.264 43.1072 46.924C42.4952 46.176 42.0872 45.428 41.8152 45.224C41.4752 44.952 40.7952 44.612 40.1832 44.476C38.2792 44 37.8712 43.728 36.3752 44.204C35.2192 44.476 34.8112 44.68 34.4712 45.224C34.1312 45.7 33.7912 45.972 33.6552 45.836C33.5192 45.768 33.6552 44.816 33.9272 44C34.0632 43.66 34.1992 42.912 34.2672 42.436C34.3352 41.756 34.4032 41.416 34.6752 40.872C35.0832 39.92 35.1512 39.444 35.2872 37.744C35.2872 36.452 35.3552 36.18 35.5592 35.704C35.7632 35.364 35.8992 34.82 35.9672 34.48C35.9672 34.208 36.1032 33.664 36.2392 33.324C36.4432 32.508 36.5112 30.74 36.2392 29.992C36.0352 29.244 35.5592 28.632 35.0152 28.36C34.4712 28.088 33.5192 27.952 33.1792 28.224C32.8392 28.36 31.0712 30.332 30.7992 30.808L29.8472 32.916C28.4192 36.52 27.7392 36.656 27.5352 38.968C27.5352 39.512 27.3992 40.26 27.3312 40.668C27.1952 41.144 27.1272 41.824 27.1952 42.3C27.1952 43.728 26.9232 43.456 26.5152 45.7C26.3112 47.128 26.3112 47.264 26.4472 50.324C26.5152 50.8 26.5832 51.48 26.6512 51.752C26.9232 52.568 26.7872 53.86 26.9912 55.56C27.0592 56.376 27.1272 56.58 27.5352 57.396C27.8072 57.94 28.0112 58.416 28.0112 58.484C28.0112 58.688 28.4192 59.436 28.6912 59.708C29.0312 60.048 29.4392 60.184 29.9832 60.048C30.7992 59.912 31.6832 58.416 31.8192 56.92C31.8192 56.444 31.9552 55.832 32.0232 55.424C32.2952 54.744 32.4992 53.588 32.6352 52.5C32.7712 51.412 32.9072 51.072 33.7232 50.188C34.8792 48.828 35.5592 48.284 36.5112 48.08C36.9872 47.944 36.9872 47.944 37.4632 48.284C38.0752 48.76 38.5512 49.304 38.6872 49.984L39.0952 50.936C39.2312 51.208 39.3672 51.684 39.4352 52.092C39.4352 52.5 39.5712 52.908 39.7752 53.316C39.9792 53.792 40.1152 54.132 40.1832 54.676C40.1832 55.152 40.2512 55.56 40.3192 55.628C40.3872 55.764 40.1152 56.036 39.5712 56.376C38.8232 56.852 38.2112 57.532 37.5312 58.008C37.0552 58.348 36.5112 58.96 36.3072 59.368C36.2392 59.504 36.1032 59.708 35.9672 59.844C35.6272 60.184 35.4232 60.864 35.4232 61.952C35.4232 62.836 35.4912 63.108 35.6272 63.448C35.9672 64.196 36.2392 64.468 36.9872 64.808C37.7352 65.216 38.2112 65.284 39.2992 65.012ZM38.0752 62.36C37.8712 62.36 37.8032 62.156 37.8032 61.612C37.8032 61.136 37.9392 60.728 38.5512 59.844C39.0272 59.232 39.9112 58.28 40.0472 58.348L39.9112 59.164C39.7072 60.524 38.6192 62.36 38.0752 62.36ZM59.3295 59.164C59.8055 59.164 60.4855 59.096 60.7575 59.028L61.5735 58.892C61.9815 58.824 62.9335 58.28 63.4775 57.804C64.0895 57.328 64.9735 56.104 65.5175 55.22C66.6055 53.18 66.4695 52.636 67.1495 50.936C67.2855 50.528 67.4215 49.984 67.4895 49.644L67.6935 48.488C67.8295 47.876 67.8975 46.584 67.8295 44.952C67.8295 44.136 67.3535 42.232 66.9455 41.552C66.8095 41.212 66.6735 40.94 66.6735 40.872C66.6735 40.804 66.5375 40.464 66.3335 40.056C65.8575 39.036 64.6335 38.152 63.5455 37.812C63.4095 37.812 63.2735 37.676 63.2055 37.54C62.8655 36.656 62.7295 36.452 62.1175 35.976L61.0975 35.228C60.5535 35.024 59.7375 35.024 58.8535 35.296L57.5615 35.636C57.0175 35.772 56.8135 35.908 56.4055 36.316C55.3855 37.336 54.6375 38.288 54.2975 39.036C54.0935 39.444 53.6855 40.056 53.4815 40.396C52.7335 41.348 52.2575 42.232 51.9855 43.116C51.7135 43.796 51.7135 44 51.6455 45.7C51.5775 48.148 51.7135 47.876 52.0535 50.732L52.2575 52.296C52.3255 53.044 53.0735 53.792 54.2975 55.9C55.5895 57.94 55.9975 58.348 57.4935 58.824C58.3095 59.096 58.5815 59.164 59.3295 59.164ZM60.8255 54.744C60.6895 54.744 60.4175 54.54 60.2135 54.268L59.8055 53.86L59.6015 52.5C59.5335 51.616 59.4655 50.732 59.4655 49.916C59.4655 49.168 59.4655 48.352 59.3975 47.944C59.3295 47.332 59.3295 47.128 59.6015 46.516C59.7375 46.176 59.8735 45.428 59.9415 45.02C60.1455 44 60.2815 43.66 60.7575 42.912C61.1655 42.232 61.4375 41.552 61.5735 40.804C61.6415 39.92 61.7775 39.92 62.1175 40.668L62.5255 41.552C63.0015 42.3 63.4775 43.388 63.4775 43.524L63.7495 44.748C64.0215 45.7 64.0215 45.972 64.0215 46.992C63.9535 47.672 64.0215 48.352 64.0215 48.556C64.0895 48.692 64.0215 49.168 63.9535 49.644L63.6815 50.868C63.6815 51.072 63.6135 51.412 63.4775 51.548L63.2055 52.432C63.0695 52.908 62.8655 53.18 62.5255 53.52C62.3215 53.792 62.0495 54.064 61.9815 54.2C61.8455 54.472 61.0975 54.812 60.8255 54.744ZM75.2128 61.544C75.6888 61.68 75.8248 61.68 76.7768 61.544C77.4568 61.476 77.9328 61.34 78.2728 61.136C78.7488 60.932 79.5648 60.048 79.8368 59.504L80.2448 58.824C80.3808 58.688 80.6528 58.212 80.8568 57.804C81.4688 56.376 81.4008 56.988 82.8968 53.724L83.5768 52.16C83.9168 51.548 83.9848 51.48 83.9848 51.684C83.9848 52.16 84.1888 52.84 84.5288 53.248C84.7328 53.52 84.8688 53.928 84.9368 54.336C85.0728 54.676 85.2088 55.152 85.2768 55.424L85.6848 56.512C86.0248 57.532 87.5208 59.028 88.4728 59.232C89.0168 59.368 89.4928 59.232 90.5808 58.552C91.9408 57.668 93.1648 56.58 93.7088 55.764L94.5928 54.404L95.0688 53.52C95.1368 53.316 95.3408 52.976 95.4768 52.704C95.6808 52.5 95.8168 52.228 95.8168 52.092C95.8168 52.024 95.9528 51.616 96.2248 51.208C97.1088 49.44 97.2448 49.236 97.3808 48.76C97.7208 47.808 97.5848 47.332 97.0408 47.332C96.7008 47.332 96.2928 47.808 95.2728 49.304C94.4568 50.664 94.1168 51.14 93.5048 51.82C93.3008 52.024 93.0288 52.432 92.9608 52.636C92.8928 52.84 92.6888 53.18 92.4848 53.316C92.2808 53.52 92.0088 53.928 91.8048 54.268C91.5328 54.608 91.1928 54.948 90.9208 55.084L90.1728 55.628C89.7648 55.968 89.4928 55.9 89.2208 55.628C89.0168 55.356 89.0168 55.288 89.0848 54.404L89.2208 52.636C89.2208 52.16 89.2888 51.684 89.2888 51.548C89.3568 51.344 89.4248 50.936 89.4928 50.596C89.4928 50.188 89.6288 49.576 89.7648 49.168C89.9008 48.692 89.9688 48.08 90.0368 47.672C90.1728 45.904 90.3768 46.244 90.3088 44.068C90.1728 42.776 90.1728 42.64 89.8328 42.028C89.1528 40.532 88.6088 39.988 87.8608 39.784C87.1808 39.648 86.5008 39.92 85.6168 40.872C84.6648 41.756 84.4608 42.3 84.3928 44.136C84.3248 45.02 84.2568 45.428 84.1208 45.836C83.9848 46.108 83.8488 46.652 83.7128 46.992C83.4408 48.148 83.3728 48.352 83.1008 48.896C82.9648 49.168 82.8288 49.508 82.8288 49.576C82.8288 49.644 82.6928 49.984 82.4888 50.324C82.2848 50.664 82.0808 51.072 82.0808 51.14C82.0808 51.276 81.9448 51.616 81.7408 51.956C80.9928 53.044 80.7208 53.588 80.3128 54.268C79.8368 55.152 78.6808 56.376 78.5448 56.172C78.3408 55.9 78.3408 55.016 78.5448 54.472C78.6128 54.268 78.8848 52.364 79.0208 51.072C79.0888 50.8 79.2248 50.188 79.2928 49.712C79.4288 49.236 79.5648 48.284 79.6328 47.672C79.7008 46.788 79.7688 46.38 79.9728 45.836C80.5168 44.408 80.6528 43.456 80.3128 42.232C80.1768 41.892 80.1088 41.28 80.1088 41.008C80.1088 40.26 79.8368 39.58 79.3608 39.172C78.7488 38.628 78.4768 38.56 77.5248 38.492C76.7768 38.492 76.6408 38.492 76.1648 38.696C75.2128 39.172 74.1248 40.328 73.4448 41.62C73.1048 42.164 73.0368 42.436 72.4928 45.02C72.3568 45.564 72.1528 46.176 72.0168 46.448C71.5408 47.332 71.4728 47.672 71.4048 48.896L71.2008 50.8C71.2008 51.412 71.2008 52.024 71.3368 52.84C71.6768 55.968 71.5408 56.444 72.2208 57.532C72.3568 57.804 72.6288 58.28 72.6968 58.62C72.9688 59.232 73.9888 60.728 74.4648 61.204C74.6008 61.34 74.9408 61.476 75.2128 61.544ZM104.872 62.02C105.348 62.02 106.572 61.544 107.184 61.136C107.864 60.728 108.204 60.388 108.476 60.184C108.952 59.708 110.72 57.056 111.332 56.172C111.808 55.492 112.42 54.404 113.032 53.18C113.372 52.364 113.508 51.888 113.644 51.14C113.848 49.916 113.916 49.712 114.188 49.032C114.528 48.284 114.528 47.808 114.256 47.604C113.916 47.264 113.576 47.4 112.964 48.012L112.216 48.828C112.012 49.1 111.672 49.576 111.06 50.256C110.72 50.664 109.564 52.704 109.564 52.908C109.564 52.976 109.428 53.18 109.292 53.384C109.156 53.52 108.952 53.86 108.952 53.996C108.816 54.404 108.068 55.832 107.796 56.172L107.184 56.92C106.844 57.464 105.756 58.552 105.28 58.824C104.736 59.096 104.804 58.484 104.124 57.396C103.648 56.716 103.308 54.812 103.24 52.636C103.172 51.82 103.104 50.936 103.036 50.664C102.832 49.712 103.104 45.088 102.968 41.62C102.9 40.26 103.444 39.988 103.308 38.832C103.24 38.016 103.376 37.268 103.648 37.132C103.784 37.064 104.056 37.064 104.532 37.2L105.484 37.404C105.756 37.404 106.232 37.88 106.436 38.22C106.708 38.696 106.912 38.9 107.252 38.9C107.66 38.9 107.932 38.628 108 38.152C108.136 37.676 108 36.792 107.796 36.452C107.524 35.976 106.232 34.956 105.552 34.684C104.396 34.276 104.736 34.276 103.92 34.072L103.988 33.256C104.124 31.284 104.124 28.564 104.056 28.156C103.784 27.272 102.492 26.66 101.744 27C101.404 27.136 101.132 27.476 100.588 28.768C99.9079 30.128 99.5679 31.148 99.4999 31.964C99.3639 32.576 99.1599 33.256 98.9559 33.46C98.8879 33.528 98.3439 33.528 97.1879 33.528C95.7599 33.528 95.4879 33.596 95.1479 33.732C94.9439 33.868 94.6039 33.936 94.3999 34.004L93.5839 34.208C93.3119 34.344 92.5639 34.48 91.8839 34.616C90.6599 34.888 90.4559 34.956 90.2519 35.5C89.8439 36.452 90.5239 37.472 91.6799 37.812C92.5639 38.084 92.7679 37.88 95.6239 37.812C96.7799 37.812 97.1199 37.812 97.6639 37.608C98.6159 37.268 98.5479 37.268 98.5479 38.356C98.5479 38.968 98.5479 39.512 98.4119 39.852C98.2759 40.192 98.2759 40.532 98.3439 41.416C98.4119 42.98 98.4119 43.116 98.3439 43.66C98.2759 44 98.3439 44.272 98.4119 44.612C98.6159 45.088 98.6159 45.564 98.6839 50.392C98.7519 51.82 98.7519 52.296 98.8879 52.772C99.0239 53.18 99.0919 53.588 99.0919 54.064C99.0239 54.472 99.0919 55.152 99.1599 55.56L99.3639 56.648C99.4319 57.192 100.248 58.824 100.86 59.572C101.54 60.388 102.424 61.34 102.764 61.544C103.172 61.748 104.396 62.02 104.872 62.02ZM143.224 61.544C143.768 61.816 144.38 61.748 146.624 61.204C147.032 61.136 147.304 60.932 148.324 60.184C149.208 59.504 150.364 57.668 150.908 56.24C151.044 55.764 151.316 55.152 151.452 54.88C151.86 54.132 152.404 52.5 152.404 51.956C152.404 51.684 152.472 51.208 152.54 50.936C152.812 49.848 153.084 48.488 153.084 47.808L153.152 43.728C153.22 39.308 153.084 35.976 152.744 34.956C152.54 34.276 152.268 32.916 152.336 32.576C152.404 32.44 152.336 32.1 152.268 31.76L152.064 30.672C151.996 29.924 151.724 28.972 151.588 28.564C151.52 28.428 151.384 28.088 151.384 27.816C151.248 27.204 151.112 26.932 150.704 26.66C150.092 26.32 149.412 26.524 149.14 27.204C148.936 27.68 149.208 27.748 149.276 29.38C149.276 29.856 149.344 30.468 149.412 30.74C149.616 31.42 149.82 33.46 149.82 35.092C149.82 35.772 149.888 37.064 149.956 37.948C150.228 41.756 150.092 46.108 149.616 47.876C149.548 48.216 149.48 48.556 149.48 48.76C149.48 48.964 149.412 49.372 149.276 49.644L148.936 50.8C148.868 51.14 148.596 51.752 148.392 52.296C148.12 52.772 147.848 53.452 147.78 53.792C147.576 54.336 146.42 56.376 146.012 56.784C145.332 57.532 144.584 56.988 143.904 55.152C143.292 53.656 143.156 52.84 142.748 49.304L142.476 47.128C142.408 46.584 142.34 45.496 142.34 44.544C142.34 42.912 142.34 42.844 142.612 41.96C143.088 40.668 143.156 39.716 143.02 38.084C142.748 35.772 142.884 33.868 143.292 32.576C143.632 31.692 143.564 30.468 143.224 29.72C143.088 29.38 142.952 28.836 142.884 28.428C142.816 27.544 142.544 26.932 141.796 26.252C140.98 25.368 140.096 25.096 139.144 25.368C138.328 25.64 137.512 26.592 136.764 28.088C136.628 28.36 136.356 28.768 136.152 28.972C135.676 29.584 135.404 30.264 135.268 31.216C135.064 32.44 134.52 34.888 134.248 35.568C133.5 37.54 133.364 38.56 133.704 39.784C133.908 40.464 133.908 40.736 133.84 41.62L133.704 43.32C133.5 44.272 133.636 45.632 133.908 46.312C134.044 46.72 134.112 47.196 134.18 48.556C134.384 50.528 134.452 50.936 135.132 52.024C135.472 52.568 135.608 52.908 135.744 53.588C135.88 54.268 136.084 54.744 136.628 55.832C137.24 57.056 137.376 57.192 138.124 57.94C138.532 58.348 139.212 58.96 139.62 59.164L140.912 60.116C141.456 60.524 142.408 61.136 143.224 61.544ZM163.514 63.856C163.854 63.788 164.194 63.652 164.806 63.244C165.826 62.564 166.846 61.408 167.526 60.116C168.002 59.232 168.002 59.164 168.002 58.484C168.002 58.076 168.07 57.532 168.138 57.26C168.274 56.716 168.274 56.648 168.07 55.764C167.662 53.996 167.662 54.132 168.546 53.316C169.022 52.908 169.498 52.5 169.702 52.432L170.586 51.616C171.538 50.596 173.85 48.216 173.918 48.08C173.986 47.944 173.986 47.536 173.85 47.4C173.578 47.128 173.306 47.332 171.878 48.624C169.77 50.528 169.634 50.528 168.546 51.412C168.274 51.684 167.866 52.024 167.662 52.092C167.322 52.296 167.254 52.296 167.186 52.16L166.71 51.548C166.37 51.14 165.962 50.46 165.078 48.828L164.67 47.876C164.398 47.196 164.33 46.992 164.262 45.632C164.126 42.844 164.126 42.572 164.874 41.892C165.282 41.484 165.35 41.484 165.826 41.484C167.39 41.484 168.478 39.716 167.662 38.288C167.254 37.608 166.574 36.928 166.03 36.656C165.622 36.384 165.486 36.384 164.194 36.384C163.242 36.384 162.766 36.452 162.494 36.52C162.086 36.724 161.474 37.2 161.066 37.472C160.522 37.744 160.046 38.152 159.706 38.832C159.57 39.172 159.23 39.648 158.958 39.92C158.754 40.124 158.414 40.668 158.278 41.076C157.326 43.456 156.918 42.98 157.666 45.768C157.87 46.72 158.142 47.604 158.21 47.74C158.414 48.148 159.094 48.896 160.114 49.984C160.454 50.324 160.794 50.8 160.93 51.072C160.998 51.276 161.406 51.82 161.746 52.228C162.086 52.636 162.562 53.248 162.698 53.52C162.902 53.86 163.174 54.268 163.31 54.54C163.854 55.22 163.786 55.424 162.766 56.444C160.998 58.144 160.114 59.572 159.842 60.932C159.57 62.292 159.706 62.836 160.658 63.448C161.542 64.06 161.882 64.06 163.514 63.856ZM161.746 61.68C161.474 61.68 161.542 61.476 161.814 60.592C162.018 60.048 162.222 59.64 162.562 59.164C163.446 58.076 163.854 57.6 163.922 57.6C163.99 57.6 163.99 57.94 163.99 58.552C163.922 59.3 163.854 59.572 163.65 60.048L163.174 60.932C162.834 61.204 162.018 61.68 161.746 61.68Z" fill="#FFC501"/>
<path d="M31.476 98H29.955V94.217H25.444V98H23.923V89.329H25.444V92.878H29.955V89.329H31.476V98ZM40.8055 96.895C39.9735 97.7357 38.9119 98.156 37.6205 98.156C36.3292 98.156 35.2675 97.7357 34.4355 96.895C33.6035 96.0457 33.1875 94.971 33.1875 93.671C33.1875 92.371 33.6035 91.3007 34.4355 90.46C35.2675 89.6107 36.3292 89.186 37.6205 89.186C38.9119 89.186 39.9735 89.6107 40.8055 90.46C41.6375 91.3007 42.0535 92.371 42.0535 93.671C42.0535 94.971 41.6375 96.0457 40.8055 96.895ZM37.6205 96.804C38.4785 96.804 39.1719 96.5093 39.7005 95.92C40.2292 95.322 40.4935 94.5723 40.4935 93.671C40.4935 92.761 40.2292 92.0113 39.7005 91.422C39.1719 90.8327 38.4785 90.538 37.6205 90.538C36.7539 90.538 36.0562 90.8327 35.5275 91.422C35.0075 92.0113 34.7475 92.761 34.7475 93.671C34.7475 94.581 35.0075 95.3307 35.5275 95.92C36.0562 96.5093 36.7539 96.804 37.6205 96.804ZM52.787 98H51.266V91.565L48.601 98H47.951L45.299 91.565V98H43.778V89.329H45.923L48.276 95.036L50.642 89.329H52.787V98ZM60.8335 98H54.8925V89.329H60.8335V90.668H56.4135V92.917H60.7425V94.256H56.4135V96.661H60.8335V98Z" fill="#ADB4B5"/>
<path d="M91.723 98H89.994L89.357 96.336H85.379L84.742 98H83.013L86.419 89.329H88.317L91.723 98ZM88.928 94.997L87.368 90.863L85.808 94.997H88.928ZM97.3111 98H92.9301V89.329H97.1941C97.9654 89.329 98.5677 89.5413 99.0011 89.966C99.4431 90.382 99.6641 90.9063 99.6641 91.539C99.6641 92.059 99.5167 92.501 99.2221 92.865C98.9361 93.2203 98.5807 93.4413 98.1561 93.528C98.6241 93.5973 99.0184 93.84 99.3391 94.256C99.6684 94.6633 99.8331 95.1313 99.8331 95.66C99.8331 96.3533 99.6077 96.9167 99.1571 97.35C98.7151 97.7833 98.0997 98 97.3111 98ZM96.8821 92.917C97.2634 92.917 97.5624 92.813 97.7791 92.605C97.9957 92.397 98.1041 92.1283 98.1041 91.799C98.1041 91.461 97.9957 91.188 97.7791 90.98C97.5624 90.772 97.2634 90.668 96.8821 90.668H94.4511V92.917H96.8821ZM96.9471 96.661C97.3631 96.661 97.6881 96.557 97.9221 96.349C98.1561 96.1323 98.2731 95.8333 98.2731 95.452C98.2731 95.114 98.1561 94.8323 97.9221 94.607C97.6881 94.373 97.3631 94.256 96.9471 94.256H94.4511V96.661H96.9471ZM108.848 96.895C108.016 97.7357 106.954 98.156 105.663 98.156C104.371 98.156 103.31 97.7357 102.478 96.895C101.646 96.0457 101.23 94.971 101.23 93.671C101.23 92.371 101.646 91.3007 102.478 90.46C103.31 89.6107 104.371 89.186 105.663 89.186C106.954 89.186 108.016 89.6107 108.848 90.46C109.68 91.3007 110.096 92.371 110.096 93.671C110.096 94.971 109.68 96.0457 108.848 96.895ZM105.663 96.804C106.521 96.804 107.214 96.5093 107.743 95.92C108.271 95.322 108.536 94.5723 108.536 93.671C108.536 92.761 108.271 92.0113 107.743 91.422C107.214 90.8327 106.521 90.538 105.663 90.538C104.796 90.538 104.098 90.8327 103.57 91.422C103.05 92.0113 102.79 92.761 102.79 93.671C102.79 94.581 103.05 95.3307 103.57 95.92C104.098 96.5093 104.796 96.804 105.663 96.804ZM115.577 98.156C114.347 98.156 113.411 97.8353 112.769 97.194C112.137 96.5527 111.82 95.6817 111.82 94.581V89.329H113.354V94.529C113.354 95.231 113.545 95.7857 113.926 96.193C114.316 96.6003 114.867 96.804 115.577 96.804C116.288 96.804 116.834 96.6003 117.215 96.193C117.597 95.7857 117.787 95.231 117.787 94.529V89.329H119.321V94.568C119.321 95.6773 119.001 96.5527 118.359 97.194C117.727 97.8353 116.799 98.156 115.577 98.156ZM125.012 98H123.491V90.668H120.865V89.329H127.638V90.668H125.012V98ZM136.543 98.156C135.312 98.156 134.376 97.8353 133.735 97.194C133.102 96.5527 132.786 95.6817 132.786 94.581V89.329H134.32V94.529C134.32 95.231 134.51 95.7857 134.892 96.193C135.282 96.6003 135.832 96.804 136.543 96.804C137.253 96.804 137.799 96.6003 138.181 96.193C138.562 95.7857 138.753 95.231 138.753 94.529V89.329H140.287V94.568C140.287 95.6773 139.966 96.5527 139.325 97.194C138.692 97.8353 137.765 98.156 136.543 98.156ZM145.353 98.156C143.863 98.156 142.688 97.6967 141.83 96.778L142.675 95.608C143.421 96.4053 144.335 96.804 145.418 96.804C145.999 96.804 146.432 96.687 146.718 96.453C147.013 96.219 147.16 95.9417 147.16 95.621C147.16 95.2917 146.987 95.0317 146.64 94.841C146.294 94.6417 145.873 94.4857 145.379 94.373C144.885 94.2603 144.387 94.126 143.884 93.97C143.39 93.814 142.97 93.5497 142.623 93.177C142.277 92.8043 142.103 92.3233 142.103 91.734C142.103 91.006 142.394 90.4037 142.974 89.927C143.564 89.4417 144.326 89.199 145.262 89.199C146.597 89.199 147.68 89.602 148.512 90.408L147.641 91.539C146.983 90.8803 146.146 90.551 145.132 90.551C144.682 90.551 144.322 90.6507 144.053 90.85C143.793 91.0407 143.663 91.3007 143.663 91.63C143.663 91.8467 143.754 92.0287 143.936 92.176C144.127 92.3233 144.37 92.4447 144.664 92.54C144.959 92.6267 145.284 92.7133 145.639 92.8C146.003 92.8867 146.363 92.995 146.718 93.125C147.082 93.2463 147.412 93.398 147.706 93.58C148.001 93.762 148.239 94.0133 148.421 94.334C148.612 94.6547 148.707 95.036 148.707 95.478C148.707 96.258 148.426 96.8993 147.862 97.402C147.299 97.9047 146.463 98.156 145.353 98.156Z" fill="#ADB4B5"/>
<line x1="73.5" y1="88" x2="73.5" y2="99" stroke="#ADB4B5"/>
</svg>
