<svg width="174" height="41" viewBox="0 0 174 41" fill="none" xmlns="http://www.w3.org/2000/svg">
<path d="M3.536 36.544C3.808 36.408 4.488 35.728 4.488 35.524C4.488 35.32 4.76 34.504 5.032 33.96C5.168 33.688 5.372 33.144 5.372 32.804C5.508 31.988 5.984 29.676 6.052 29.268C6.12 29.132 6.12 28.724 6.12 28.452C6.12 28.18 6.256 27.704 6.392 27.364C6.596 26.82 6.664 26.548 6.664 26.004C6.664 25.528 6.664 25.12 6.8 24.712C7.004 24.236 7.004 23.964 7.004 23.488C6.936 23.08 6.936 22.876 7.004 22.808C7.208 22.672 8.228 22.536 9.18 22.4C9.724 22.4 10.404 22.264 10.744 22.264C11.084 22.196 11.628 22.128 12.036 22.128C12.376 22.06 12.92 22.06 13.192 21.992C13.532 21.924 13.804 21.856 13.872 21.924L14.008 22.536C14.008 22.808 14.212 23.42 14.348 23.896C14.552 24.372 14.688 24.984 14.756 25.256C14.756 25.596 14.892 26.072 14.96 26.412C15.096 26.82 15.164 27.296 15.164 27.5C15.164 28.044 15.64 30.424 15.912 30.9C15.98 31.104 16.252 31.512 16.456 31.716C16.796 32.056 16.864 32.26 16.932 32.736C17 33.008 17.204 33.552 17.408 33.892C17.544 34.232 17.748 34.708 17.816 34.98C18.156 36 18.768 36.544 19.788 36.544C20.536 36.544 20.944 36.34 21.352 35.932C21.964 35.184 22.032 34.912 22.1 32.736C22.168 30.832 22.168 30.832 22.508 29.744C22.984 28.384 23.12 26.956 22.848 26.004C22.712 25.732 22.644 24.984 22.576 24.304C22.44 22.06 22.168 22.672 22.304 21.176C22.44 19.612 22.372 18.796 22.1 17.844C21.76 16.688 21.556 15.124 21.556 13.9C21.556 12.88 21.556 12.676 21.284 11.928C21.148 11.384 20.944 10.636 20.876 10.228C20.808 9.208 20.536 8.528 19.992 7.576C19.72 7.1 19.516 6.556 19.38 5.944C18.904 4.244 18.224 3.088 16.796 1.592C15.572 0.299998 14.348 0.027997 12.58 0.503999C10.948 0.911998 9.792 1.66 9.248 2.68C9.112 3.02 8.636 3.7 8.364 4.108C8.024 4.584 7.616 5.264 7.48 5.604C7.344 5.944 7.072 6.42 6.936 6.692C6.8 6.896 6.528 7.508 6.324 8.052C6.188 8.596 5.916 9.276 5.78 9.548C5.644 9.888 5.44 10.364 5.372 10.704C5.236 11.044 5.1 11.52 4.964 11.656C4.556 12.336 4.42 12.608 4.352 13.492C4.284 14.376 4.216 14.58 3.672 15.464C3.4 15.804 3.4 16.008 3.332 16.756C3.264 17.504 3.264 17.708 3.06 17.98C2.788 18.388 2.584 18.864 2.516 19.612C2.448 20.428 2.312 20.632 1.564 21.108C0.884 21.584 0.68 21.788 0.68 22.264C0.68 22.672 0.884 22.944 1.428 23.216L1.7 23.352C1.496 24.372 1.156 25.936 1.156 27.908C1.156 28.588 1.088 28.996 0.952 29.608C0.612 30.56 0.612 31.376 1.02 32.6C1.156 33.076 1.292 33.892 1.36 34.368C1.428 35.116 1.496 35.388 1.7 35.796C2.176 36.612 2.856 36.884 3.536 36.544ZM7.48 19.952C7.48 19.408 7.412 19 7.616 18.524C7.752 18.252 7.888 17.912 7.888 17.776C7.956 17.572 8.092 17.096 8.228 16.756C8.364 16.416 8.568 15.872 8.568 15.532C8.772 14.648 9.452 12.676 9.996 11.452C10.268 10.908 10.54 10.228 10.54 10.024C10.608 9.82 10.88 9.14 11.22 8.596C11.9 7.168 12.308 6.692 12.376 7.032C12.852 8.664 12.852 8.596 12.852 10.432C12.784 11.86 12.852 12.608 13.056 14.104C13.192 15.124 13.396 16.212 13.464 16.552C13.804 17.572 13.872 17.98 13.804 18.728C13.736 19.612 13.736 19.612 11.968 19.68C11.288 19.68 10.404 19.748 10.064 19.816C9.248 19.884 8.16 19.884 7.48 19.952ZM39.2992 40.012C40.8632 39.74 40.9312 39.264 42.0872 38.516C42.4952 38.176 43.1752 37.36 43.1752 37.088C43.1752 37.02 43.3112 36.816 43.5152 36.544C43.9912 35.932 44.0592 35.728 44.1952 35.116C44.2632 34.776 44.3992 34.3 44.5352 34.028C44.6712 33.756 44.8072 33.212 44.8752 32.872C44.9432 32.464 45.0792 31.852 45.2152 31.512C45.3512 31.104 45.4872 30.696 45.4872 30.288V29.54C45.4872 29.472 45.6232 29.404 45.8272 29.336C45.9632 29.2 46.3032 28.996 46.5072 28.792C47.2552 27.976 48.9552 26.412 49.4992 25.664C50.5872 24.304 51.6752 22.74 51.6752 22.672L51.5392 22.4C51.2672 21.992 51.0632 22.128 48.7512 24.44C46.7112 26.48 45.4872 27.568 45.2152 27.568C45.0792 27.568 44.9432 27.092 44.8752 26.344C44.8752 25.936 44.7392 25.46 44.3992 24.78C44.1272 24.236 43.8552 23.488 43.7192 23.148C43.5832 22.74 43.3792 22.264 43.1072 21.924C42.4952 21.176 42.0872 20.428 41.8152 20.224C41.4752 19.952 40.7952 19.612 40.1832 19.476C38.2792 19 37.8712 18.728 36.3752 19.204C35.2192 19.476 34.8112 19.68 34.4712 20.224C34.1312 20.7 33.7912 20.972 33.6552 20.836C33.5192 20.768 33.6552 19.816 33.9272 19C34.0632 18.66 34.1992 17.912 34.2672 17.436C34.3352 16.756 34.4032 16.416 34.6752 15.872C35.0832 14.92 35.1512 14.444 35.2872 12.744C35.2872 11.452 35.3552 11.18 35.5592 10.704C35.7632 10.364 35.8992 9.82 35.9672 9.48C35.9672 9.208 36.1032 8.664 36.2392 8.324C36.4432 7.508 36.5112 5.74 36.2392 4.992C36.0352 4.244 35.5592 3.632 35.0152 3.36C34.4712 3.088 33.5192 2.952 33.1792 3.224C32.8392 3.36 31.0712 5.332 30.7992 5.808L29.8472 7.916C28.4192 11.52 27.7392 11.656 27.5352 13.968C27.5352 14.512 27.3992 15.26 27.3312 15.668C27.1952 16.144 27.1272 16.824 27.1952 17.3C27.1952 18.728 26.9232 18.456 26.5152 20.7C26.3112 22.128 26.3112 22.264 26.4472 25.324C26.5152 25.8 26.5832 26.48 26.6512 26.752C26.9232 27.568 26.7872 28.86 26.9912 30.56C27.0592 31.376 27.1272 31.58 27.5352 32.396C27.8072 32.94 28.0112 33.416 28.0112 33.484C28.0112 33.688 28.4192 34.436 28.6912 34.708C29.0312 35.048 29.4392 35.184 29.9832 35.048C30.7992 34.912 31.6832 33.416 31.8192 31.92C31.8192 31.444 31.9552 30.832 32.0232 30.424C32.2952 29.744 32.4992 28.588 32.6352 27.5C32.7712 26.412 32.9072 26.072 33.7232 25.188C34.8792 23.828 35.5592 23.284 36.5112 23.08C36.9872 22.944 36.9872 22.944 37.4632 23.284C38.0752 23.76 38.5512 24.304 38.6872 24.984L39.0952 25.936C39.2312 26.208 39.3672 26.684 39.4352 27.092C39.4352 27.5 39.5712 27.908 39.7752 28.316C39.9792 28.792 40.1152 29.132 40.1832 29.676C40.1832 30.152 40.2512 30.56 40.3192 30.628C40.3872 30.764 40.1152 31.036 39.5712 31.376C38.8232 31.852 38.2112 32.532 37.5312 33.008C37.0552 33.348 36.5112 33.96 36.3072 34.368C36.2392 34.504 36.1032 34.708 35.9672 34.844C35.6272 35.184 35.4232 35.864 35.4232 36.952C35.4232 37.836 35.4912 38.108 35.6272 38.448C35.9672 39.196 36.2392 39.468 36.9872 39.808C37.7352 40.216 38.2112 40.284 39.2992 40.012ZM38.0752 37.36C37.8712 37.36 37.8032 37.156 37.8032 36.612C37.8032 36.136 37.9392 35.728 38.5512 34.844C39.0272 34.232 39.9112 33.28 40.0472 33.348L39.9112 34.164C39.7072 35.524 38.6192 37.36 38.0752 37.36ZM59.3295 34.164C59.8055 34.164 60.4855 34.096 60.7575 34.028L61.5735 33.892C61.9815 33.824 62.9335 33.28 63.4775 32.804C64.0895 32.328 64.9735 31.104 65.5175 30.22C66.6055 28.18 66.4695 27.636 67.1495 25.936C67.2855 25.528 67.4215 24.984 67.4895 24.644L67.6935 23.488C67.8295 22.876 67.8975 21.584 67.8295 19.952C67.8295 19.136 67.3535 17.232 66.9455 16.552C66.8095 16.212 66.6735 15.94 66.6735 15.872C66.6735 15.804 66.5375 15.464 66.3335 15.056C65.8575 14.036 64.6335 13.152 63.5455 12.812C63.4095 12.812 63.2735 12.676 63.2055 12.54C62.8655 11.656 62.7295 11.452 62.1175 10.976L61.0975 10.228C60.5535 10.024 59.7375 10.024 58.8535 10.296L57.5615 10.636C57.0175 10.772 56.8135 10.908 56.4055 11.316C55.3855 12.336 54.6375 13.288 54.2975 14.036C54.0935 14.444 53.6855 15.056 53.4815 15.396C52.7335 16.348 52.2575 17.232 51.9855 18.116C51.7135 18.796 51.7135 19 51.6455 20.7C51.5775 23.148 51.7135 22.876 52.0535 25.732L52.2575 27.296C52.3255 28.044 53.0735 28.792 54.2975 30.9C55.5895 32.94 55.9975 33.348 57.4935 33.824C58.3095 34.096 58.5815 34.164 59.3295 34.164ZM60.8255 29.744C60.6895 29.744 60.4175 29.54 60.2135 29.268L59.8055 28.86L59.6015 27.5C59.5335 26.616 59.4655 25.732 59.4655 24.916C59.4655 24.168 59.4655 23.352 59.3975 22.944C59.3295 22.332 59.3295 22.128 59.6015 21.516C59.7375 21.176 59.8735 20.428 59.9415 20.02C60.1455 19 60.2815 18.66 60.7575 17.912C61.1655 17.232 61.4375 16.552 61.5735 15.804C61.6415 14.92 61.7775 14.92 62.1175 15.668L62.5255 16.552C63.0015 17.3 63.4775 18.388 63.4775 18.524L63.7495 19.748C64.0215 20.7 64.0215 20.972 64.0215 21.992C63.9535 22.672 64.0215 23.352 64.0215 23.556C64.0895 23.692 64.0215 24.168 63.9535 24.644L63.6815 25.868C63.6815 26.072 63.6135 26.412 63.4775 26.548L63.2055 27.432C63.0695 27.908 62.8655 28.18 62.5255 28.52C62.3215 28.792 62.0495 29.064 61.9815 29.2C61.8455 29.472 61.0975 29.812 60.8255 29.744ZM75.2128 36.544C75.6888 36.68 75.8248 36.68 76.7768 36.544C77.4568 36.476 77.9328 36.34 78.2728 36.136C78.7488 35.932 79.5648 35.048 79.8368 34.504L80.2448 33.824C80.3808 33.688 80.6528 33.212 80.8568 32.804C81.4688 31.376 81.4008 31.988 82.8968 28.724L83.5768 27.16C83.9168 26.548 83.9848 26.48 83.9848 26.684C83.9848 27.16 84.1888 27.84 84.5288 28.248C84.7328 28.52 84.8688 28.928 84.9368 29.336C85.0728 29.676 85.2088 30.152 85.2768 30.424L85.6848 31.512C86.0248 32.532 87.5208 34.028 88.4728 34.232C89.0168 34.368 89.4928 34.232 90.5808 33.552C91.9408 32.668 93.1648 31.58 93.7088 30.764L94.5928 29.404L95.0688 28.52C95.1368 28.316 95.3408 27.976 95.4768 27.704C95.6808 27.5 95.8168 27.228 95.8168 27.092C95.8168 27.024 95.9528 26.616 96.2248 26.208C97.1088 24.44 97.2448 24.236 97.3808 23.76C97.7208 22.808 97.5848 22.332 97.0408 22.332C96.7008 22.332 96.2928 22.808 95.2728 24.304C94.4568 25.664 94.1168 26.14 93.5048 26.82C93.3008 27.024 93.0288 27.432 92.9608 27.636C92.8928 27.84 92.6888 28.18 92.4848 28.316C92.2808 28.52 92.0088 28.928 91.8048 29.268C91.5328 29.608 91.1928 29.948 90.9208 30.084L90.1728 30.628C89.7648 30.968 89.4928 30.9 89.2208 30.628C89.0168 30.356 89.0168 30.288 89.0848 29.404L89.2208 27.636C89.2208 27.16 89.2888 26.684 89.2888 26.548C89.3568 26.344 89.4248 25.936 89.4928 25.596C89.4928 25.188 89.6288 24.576 89.7648 24.168C89.9008 23.692 89.9688 23.08 90.0368 22.672C90.1728 20.904 90.3768 21.244 90.3088 19.068C90.1728 17.776 90.1728 17.64 89.8328 17.028C89.1528 15.532 88.6088 14.988 87.8608 14.784C87.1808 14.648 86.5008 14.92 85.6168 15.872C84.6648 16.756 84.4608 17.3 84.3928 19.136C84.3248 20.02 84.2568 20.428 84.1208 20.836C83.9848 21.108 83.8488 21.652 83.7128 21.992C83.4408 23.148 83.3728 23.352 83.1008 23.896C82.9648 24.168 82.8288 24.508 82.8288 24.576C82.8288 24.644 82.6928 24.984 82.4888 25.324C82.2848 25.664 82.0808 26.072 82.0808 26.14C82.0808 26.276 81.9448 26.616 81.7408 26.956C80.9928 28.044 80.7208 28.588 80.3128 29.268C79.8368 30.152 78.6808 31.376 78.5448 31.172C78.3408 30.9 78.3408 30.016 78.5448 29.472C78.6128 29.268 78.8848 27.364 79.0208 26.072C79.0888 25.8 79.2248 25.188 79.2928 24.712C79.4288 24.236 79.5648 23.284 79.6328 22.672C79.7008 21.788 79.7688 21.38 79.9728 20.836C80.5168 19.408 80.6528 18.456 80.3128 17.232C80.1768 16.892 80.1088 16.28 80.1088 16.008C80.1088 15.26 79.8368 14.58 79.3608 14.172C78.7488 13.628 78.4768 13.56 77.5248 13.492C76.7768 13.492 76.6408 13.492 76.1648 13.696C75.2128 14.172 74.1248 15.328 73.4448 16.62C73.1048 17.164 73.0368 17.436 72.4928 20.02C72.3568 20.564 72.1528 21.176 72.0168 21.448C71.5408 22.332 71.4728 22.672 71.4048 23.896L71.2008 25.8C71.2008 26.412 71.2008 27.024 71.3368 27.84C71.6768 30.968 71.5408 31.444 72.2208 32.532C72.3568 32.804 72.6288 33.28 72.6968 33.62C72.9688 34.232 73.9888 35.728 74.4648 36.204C74.6008 36.34 74.9408 36.476 75.2128 36.544ZM104.872 37.02C105.348 37.02 106.572 36.544 107.184 36.136C107.864 35.728 108.204 35.388 108.476 35.184C108.952 34.708 110.72 32.056 111.332 31.172C111.808 30.492 112.42 29.404 113.032 28.18C113.372 27.364 113.508 26.888 113.644 26.14C113.848 24.916 113.916 24.712 114.188 24.032C114.528 23.284 114.528 22.808 114.256 22.604C113.916 22.264 113.576 22.4 112.964 23.012L112.216 23.828C112.012 24.1 111.672 24.576 111.06 25.256C110.72 25.664 109.564 27.704 109.564 27.908C109.564 27.976 109.428 28.18 109.292 28.384C109.156 28.52 108.952 28.86 108.952 28.996C108.816 29.404 108.068 30.832 107.796 31.172L107.184 31.92C106.844 32.464 105.756 33.552 105.28 33.824C104.736 34.096 104.804 33.484 104.124 32.396C103.648 31.716 103.308 29.812 103.24 27.636C103.172 26.82 103.104 25.936 103.036 25.664C102.832 24.712 103.104 20.088 102.968 16.62C102.9 15.26 103.444 14.988 103.308 13.832C103.24 13.016 103.376 12.268 103.648 12.132C103.784 12.064 104.056 12.064 104.532 12.2L105.484 12.404C105.756 12.404 106.232 12.88 106.436 13.22C106.708 13.696 106.912 13.9 107.252 13.9C107.66 13.9 107.932 13.628 108 13.152C108.136 12.676 108 11.792 107.796 11.452C107.524 10.976 106.232 9.956 105.552 9.684C104.396 9.276 104.736 9.276 103.92 9.072L103.988 8.256C104.124 6.284 104.124 3.564 104.056 3.156C103.784 2.272 102.492 1.66 101.744 2C101.404 2.136 101.132 2.476 100.588 3.768C99.9079 5.128 99.5679 6.148 99.4999 6.964C99.3639 7.576 99.1599 8.256 98.9559 8.46C98.8879 8.528 98.3439 8.528 97.1879 8.528C95.7599 8.528 95.4879 8.596 95.1479 8.732C94.9439 8.868 94.6039 8.936 94.3999 9.004L93.5839 9.208C93.3119 9.344 92.5639 9.48 91.8839 9.616C90.6599 9.888 90.4559 9.956 90.2519 10.5C89.8439 11.452 90.5239 12.472 91.6799 12.812C92.5639 13.084 92.7679 12.88 95.6239 12.812C96.7799 12.812 97.1199 12.812 97.6639 12.608C98.6159 12.268 98.5479 12.268 98.5479 13.356C98.5479 13.968 98.5479 14.512 98.4119 14.852C98.2759 15.192 98.2759 15.532 98.3439 16.416C98.4119 17.98 98.4119 18.116 98.3439 18.66C98.2759 19 98.3439 19.272 98.4119 19.612C98.6159 20.088 98.6159 20.564 98.6839 25.392C98.7519 26.82 98.7519 27.296 98.8879 27.772C99.0239 28.18 99.0919 28.588 99.0919 29.064C99.0239 29.472 99.0919 30.152 99.1599 30.56L99.3639 31.648C99.4319 32.192 100.248 33.824 100.86 34.572C101.54 35.388 102.424 36.34 102.764 36.544C103.172 36.748 104.396 37.02 104.872 37.02ZM143.224 36.544C143.768 36.816 144.38 36.748 146.624 36.204C147.032 36.136 147.304 35.932 148.324 35.184C149.208 34.504 150.364 32.668 150.908 31.24C151.044 30.764 151.316 30.152 151.452 29.88C151.86 29.132 152.404 27.5 152.404 26.956C152.404 26.684 152.472 26.208 152.54 25.936C152.812 24.848 153.084 23.488 153.084 22.808L153.152 18.728C153.22 14.308 153.084 10.976 152.744 9.956C152.54 9.276 152.268 7.916 152.336 7.576C152.404 7.44 152.336 7.1 152.268 6.76L152.064 5.672C151.996 4.924 151.724 3.972 151.588 3.564C151.52 3.428 151.384 3.088 151.384 2.816C151.248 2.204 151.112 1.932 150.704 1.66C150.092 1.32 149.412 1.524 149.14 2.204C148.936 2.68 149.208 2.748 149.276 4.38C149.276 4.856 149.344 5.468 149.412 5.74C149.616 6.42 149.82 8.46 149.82 10.092C149.82 10.772 149.888 12.064 149.956 12.948C150.228 16.756 150.092 21.108 149.616 22.876C149.548 23.216 149.48 23.556 149.48 23.76C149.48 23.964 149.412 24.372 149.276 24.644L148.936 25.8C148.868 26.14 148.596 26.752 148.392 27.296C148.12 27.772 147.848 28.452 147.78 28.792C147.576 29.336 146.42 31.376 146.012 31.784C145.332 32.532 144.584 31.988 143.904 30.152C143.292 28.656 143.156 27.84 142.748 24.304L142.476 22.128C142.408 21.584 142.34 20.496 142.34 19.544C142.34 17.912 142.34 17.844 142.612 16.96C143.088 15.668 143.156 14.716 143.02 13.084C142.748 10.772 142.884 8.868 143.292 7.576C143.632 6.692 143.564 5.468 143.224 4.72C143.088 4.38 142.952 3.836 142.884 3.428C142.816 2.544 142.544 1.932 141.796 1.252C140.98 0.367997 140.096 0.0960002 139.144 0.367997C138.328 0.639997 137.512 1.592 136.764 3.088C136.628 3.36 136.356 3.768 136.152 3.972C135.676 4.584 135.404 5.264 135.268 6.216C135.064 7.44 134.52 9.888 134.248 10.568C133.5 12.54 133.364 13.56 133.704 14.784C133.908 15.464 133.908 15.736 133.84 16.62L133.704 18.32C133.5 19.272 133.636 20.632 133.908 21.312C134.044 21.72 134.112 22.196 134.18 23.556C134.384 25.528 134.452 25.936 135.132 27.024C135.472 27.568 135.608 27.908 135.744 28.588C135.88 29.268 136.084 29.744 136.628 30.832C137.24 32.056 137.376 32.192 138.124 32.94C138.532 33.348 139.212 33.96 139.62 34.164L140.912 35.116C141.456 35.524 142.408 36.136 143.224 36.544ZM163.514 38.856C163.854 38.788 164.194 38.652 164.806 38.244C165.826 37.564 166.846 36.408 167.526 35.116C168.002 34.232 168.002 34.164 168.002 33.484C168.002 33.076 168.07 32.532 168.138 32.26C168.274 31.716 168.274 31.648 168.07 30.764C167.662 28.996 167.662 29.132 168.546 28.316C169.022 27.908 169.498 27.5 169.702 27.432L170.586 26.616C171.538 25.596 173.85 23.216 173.918 23.08C173.986 22.944 173.986 22.536 173.85 22.4C173.578 22.128 173.306 22.332 171.878 23.624C169.77 25.528 169.634 25.528 168.546 26.412C168.274 26.684 167.866 27.024 167.662 27.092C167.322 27.296 167.254 27.296 167.186 27.16L166.71 26.548C166.37 26.14 165.962 25.46 165.078 23.828L164.67 22.876C164.398 22.196 164.33 21.992 164.262 20.632C164.126 17.844 164.126 17.572 164.874 16.892C165.282 16.484 165.35 16.484 165.826 16.484C167.39 16.484 168.478 14.716 167.662 13.288C167.254 12.608 166.574 11.928 166.03 11.656C165.622 11.384 165.486 11.384 164.194 11.384C163.242 11.384 162.766 11.452 162.494 11.52C162.086 11.724 161.474 12.2 161.066 12.472C160.522 12.744 160.046 13.152 159.706 13.832C159.57 14.172 159.23 14.648 158.958 14.92C158.754 15.124 158.414 15.668 158.278 16.076C157.326 18.456 156.918 17.98 157.666 20.768C157.87 21.72 158.142 22.604 158.21 22.74C158.414 23.148 159.094 23.896 160.114 24.984C160.454 25.324 160.794 25.8 160.93 26.072C160.998 26.276 161.406 26.82 161.746 27.228C162.086 27.636 162.562 28.248 162.698 28.52C162.902 28.86 163.174 29.268 163.31 29.54C163.854 30.22 163.786 30.424 162.766 31.444C160.998 33.144 160.114 34.572 159.842 35.932C159.57 37.292 159.706 37.836 160.658 38.448C161.542 39.06 161.882 39.06 163.514 38.856ZM161.746 36.68C161.474 36.68 161.542 36.476 161.814 35.592C162.018 35.048 162.222 34.64 162.562 34.164C163.446 33.076 163.854 32.6 163.922 32.6C163.99 32.6 163.99 32.94 163.99 33.552C163.922 34.3 163.854 34.572 163.65 35.048L163.174 35.932C162.834 36.204 162.018 36.68 161.746 36.68Z" fill="#FFC501"/>
</svg>
