<svg width="41" height="40" viewBox="0 0 41 40" fill="none" xmlns="http://www.w3.org/2000/svg">
<circle cx="20.9902" cy="20" r="20" fill="#FFC501"/>
<path d="M16.0101 21.5199L16.0101 21.5199C16.743 20.787 17.5976 20.219 18.5285 19.8344C17.5362 18.993 16.9043 17.7372 16.9043 16.3359C16.9043 13.807 18.9613 11.75 21.4902 11.75C24.0191 11.75 26.0762 13.807 26.0762 16.3359C26.0762 17.7372 25.4443 18.993 24.4519 19.8344C25.3828 20.219 26.2374 20.787 26.9703 21.5199L26.7935 21.6967L26.9703 21.5199C28.4337 22.9834 29.2402 24.9304 29.2402 27V27.25H28.9902H27.8184H27.5684V27C27.5684 23.6487 24.8415 20.9219 21.4902 20.9219C18.139 20.9219 15.4121 23.6487 15.4121 27V27.25H15.1621H13.9902H13.7402V27C13.7402 24.9304 14.5467 22.9834 16.0101 21.5199ZM21.4902 19.25C23.0968 19.25 24.4043 17.9426 24.4043 16.3359C24.4043 14.7293 23.0968 13.4219 21.4902 13.4219C19.8836 13.4219 18.5762 14.7293 18.5762 16.3359C18.5762 17.9426 19.8836 19.25 21.4902 19.25Z" fill="black" stroke="black" stroke-width="0.5"/>
</svg>
