<svg width="10" height="12" viewBox="0 0 10 12" fill="none" xmlns="http://www.w3.org/2000/svg">
<path d="M7.77839 5.53176L3.32826 0.191706C3.22534 0.068097 3.08794 0 2.94144 0C2.79493 0 2.65754 0.068097 2.55461 0.191706L2.22689 0.584873C2.01364 0.841066 2.01364 1.25745 2.22689 1.51326L5.96377 5.99751L2.22274 10.4867C2.11982 10.6104 2.06299 10.7751 2.06299 10.9508C2.06299 11.1267 2.11982 11.2915 2.22274 11.4152L2.55046 11.8083C2.65347 11.9319 2.79079 12 2.93729 12C3.08379 12 3.22119 11.9319 3.32412 11.8083L7.77839 6.46336C7.88156 6.33936 7.93823 6.1738 7.9379 5.99781C7.93823 5.82112 7.88156 5.65566 7.77839 5.53176Z" fill="black"/>
</svg>
