<svg width="22" height="18" viewBox="0 0 22 18" fill="none" xmlns="http://www.w3.org/2000/svg">
<path d="M0.351645 8.15935L8.29662 0.345477C8.52341 0.12243 8.82569 0 9.14799 0C9.47066 0 9.77275 0.122606 9.99955 0.345477L10.7209 1.05508C10.9475 1.27777 11.0724 1.57523 11.0724 1.89239C11.0724 2.20937 10.9475 2.51685 10.7209 2.73954L6.08591 7.30797H20.8115C21.4754 7.30797 22 7.81915 22 8.47229V9.47547C22 10.1286 21.4754 10.6913 20.8115 10.6913H6.03332L10.7207 15.2853C10.9473 15.5083 11.0722 15.7977 11.0722 16.1148C11.0722 16.4316 10.9473 16.7252 10.7207 16.9481L9.99937 17.6554C9.77257 17.8785 9.47048 18 9.14781 18C8.82551 18 8.52323 17.8769 8.29644 17.6538L0.351465 9.84012C0.124134 9.61637 -0.000888824 9.31769 5.72205e-06 9.00018C-0.000709534 8.68161 0.124134 8.38275 0.351645 8.15935Z" fill="#FFC501"/>
</svg>
