<svg width="8" height="5" viewBox="0 0 8 5" fill="none" xmlns="http://www.w3.org/2000/svg">
<path d="M7.87213 0.409735L7.61008 0.135971C7.52761 0.0504747 7.41788 0.00337405 7.30061 0.00337405C7.18341 0.00337405 7.07355 0.0504747 6.99108 0.135971L4.00179 3.23746L1.00905 0.13253C0.926707 0.0470332 0.816852 0 0.699648 0C0.582444 0 0.472524 0.0470332 0.390117 0.13253L0.128001 0.404606C-0.042667 0.581537 -0.042667 0.869742 0.128001 1.04667L3.69122 4.75676C3.77356 4.84218 3.88328 4.90238 4.00153 4.90238H4.00289C4.12016 4.90238 4.22989 4.84212 4.31223 4.75676L7.87213 1.05673C7.9546 0.971298 7.99987 0.854019 8 0.732421C8 0.610756 7.9546 0.495096 7.87213 0.409735Z" fill="#011E50"/>
</svg>
