<svg width="16" height="14" viewBox="0 0 16 14" fill="none" xmlns="http://www.w3.org/2000/svg">
<path d="M15.7442 6.37825L9.96609 0.59996C9.80115 0.435018 9.58131 0.344482 9.34691 0.344482C9.11224 0.344482 8.89254 0.435148 8.7276 0.59996L8.20298 1.1247C8.03817 1.28939 7.94738 1.50935 7.94738 1.74389C7.94738 1.97829 8.03817 2.20567 8.20298 2.37035L11.5739 5.74867L0.864383 5.74867C0.381525 5.74867 0 6.12668 0 6.60967L0 7.35151C0 7.8345 0.381525 8.25063 0.864383 8.25063L11.6121 8.25063L8.20311 11.6478C8.0383 11.8127 7.94751 12.0267 7.94751 12.2613C7.94751 12.4955 8.0383 12.7126 8.20311 12.8775L8.72773 13.4005C8.89267 13.5654 9.11237 13.6553 9.34704 13.6553C9.58144 13.6553 9.80128 13.5643 9.96622 13.3993L15.7444 7.62117C15.9097 7.45571 16.0006 7.23483 16 7.00004C16.0005 6.76446 15.9097 6.54346 15.7442 6.37825Z" fill="#FFC501"/>
</svg>
