<svg width="24" height="21" viewBox="0 0 24 21" fill="none" xmlns="http://www.w3.org/2000/svg">
<path d="M23.5986 9.69429L15.2361 1.18857C14.9974 0.94577 14.6792 0.8125 14.34 0.8125C14.0003 0.8125 13.6824 0.945961 13.4437 1.18857L12.6844 1.961C12.4459 2.20341 12.3145 2.5272 12.3145 2.87244C12.3145 3.21749 12.4459 3.55219 12.6844 3.79461L17.563 8.76753H2.06349C1.36467 8.76753 0.8125 9.32397 0.8125 10.0349V11.1269C0.8125 11.8379 1.36467 12.4505 2.06349 12.4505H17.6183L12.6846 17.4511C12.4461 17.6939 12.3147 18.0089 12.3147 18.3542C12.3147 18.699 12.4461 19.0186 12.6846 19.2612L13.4438 20.0311C13.6826 20.2739 14.0005 20.4062 14.3402 20.4062C14.6794 20.4062 14.9976 20.2722 15.2363 20.0294L23.5988 11.5239C23.8381 11.2803 23.9697 10.9552 23.9687 10.6096C23.9695 10.2628 23.8381 9.93747 23.5986 9.69429Z" fill="black"/>
</svg>
