<svg width="24" height="21" viewBox="0 0 24 21" fill="none" xmlns="http://www.w3.org/2000/svg">
<path d="M0.401375 9.69429L8.76391 1.18857C9.00263 0.94577 9.32079 0.8125 9.66003 0.8125C9.99965 0.8125 10.3176 0.945961 10.5563 1.18857L11.3156 1.961C11.5541 2.20341 11.6855 2.5272 11.6855 2.87244C11.6855 3.21749 11.5541 3.55219 11.3156 3.79461L6.43701 8.76753H21.9365C22.6353 8.76753 23.1875 9.32397 23.1875 10.0349V11.1269C23.1875 11.8379 22.6353 12.4505 21.9365 12.4505H6.38166L11.3154 17.4511C11.5539 17.6939 11.6853 18.0089 11.6853 18.3542C11.6853 18.699 11.5539 19.0186 11.3154 19.2612L10.5562 20.0311C10.3174 20.2739 9.99947 20.4062 9.65984 20.4062C9.3206 20.4062 9.00244 20.2722 8.76372 20.0294L0.401186 11.5239C0.161907 11.2803 0.0303135 10.9552 0.0312557 10.6096C0.0305023 10.2628 0.161907 9.93747 0.401375 9.69429Z" fill="black"/>
</svg>
