<svg width="22" height="18" viewBox="0 0 22 18" fill="none" xmlns="http://www.w3.org/2000/svg">
<path d="M21.6484 8.15935L13.7034 0.345477C13.4766 0.12243 13.1743 0 12.852 0C12.5293 0 12.2272 0.122606 12.0005 0.345477L11.2791 1.05508C11.0525 1.27777 10.9276 1.57523 10.9276 1.89239C10.9276 2.20937 11.0525 2.51685 11.2791 2.73954L15.9141 7.30797H1.18853C0.524597 7.30797 0 7.81915 0 8.47229V9.47547C0 10.1286 0.524597 10.6913 1.18853 10.6913H15.9667L11.2793 15.2853C11.0527 15.5083 10.9278 15.7977 10.9278 16.1148C10.9278 16.4316 11.0527 16.7252 11.2793 16.9481L12.0006 17.6554C12.2274 17.8785 12.5295 18 12.8522 18C13.1745 18 13.4768 17.8769 13.7036 17.6538L21.6485 9.84012C21.8759 9.61637 22.0009 9.31769 22 9.00018C22.0007 8.68161 21.8759 8.38275 21.6484 8.15935Z" fill="#F7F7F7"/>
</svg>
