<svg width="13" height="11" viewBox="0 0 13 11" fill="none" xmlns="http://www.w3.org/2000/svg">
<path d="M12.7922 4.98627L8.09745 0.211125C7.96344 0.0748182 7.78482 0 7.59437 0C7.4037 0 7.22519 0.0749257 7.09118 0.211125L6.66493 0.64477C6.53102 0.780861 6.45725 0.96264 6.45725 1.15646C6.45725 1.35017 6.53102 1.53807 6.66493 1.67417L9.40378 4.46598H0.702311C0.309989 4.46598 0 4.77837 0 5.17751V5.79057C0 6.1897 0.309989 6.53359 0.702311 6.53359H9.43486L6.66503 9.34099C6.53112 9.4773 6.45735 9.65413 6.45735 9.84795C6.45735 10.0416 6.53112 10.221 6.66503 10.3572L7.09128 10.7894C7.2253 10.9257 7.40381 11 7.59447 11C7.78493 11 7.96354 10.9248 8.09756 10.7884L12.7923 6.01341C12.9266 5.87667 13.0005 5.69414 13 5.50011C13.0004 5.30543 12.9266 5.12279 12.7922 4.98627Z" fill="black"/>
</svg>
