<svg width="173" height="120" viewBox="0 0 173 120" fill="none" xmlns="http://www.w3.org/2000/svg">
<path d="M9.86 59.136C10.35 59.136 10.742 59.038 10.938 58.94C11.428 58.548 12.016 57.666 12.212 56.882C12.408 56 12.604 55.412 12.8 55.412C12.898 55.412 13.486 55.804 13.976 56.196C15.152 56.98 15.74 57.274 17.798 57.666C19.072 57.862 19.562 57.96 20.64 57.862C21.326 57.862 22.208 57.764 22.404 57.666C23.482 57.47 24.07 58.058 25.246 57.862C26.324 57.666 28.578 56.588 29.068 56.098L30.44 54.726C31.42 53.746 32.4 51.982 32.694 50.904L33.086 49.042C33.478 47.572 33.576 44.534 33.282 43.652C33.086 43.26 32.988 42.672 32.988 42.28C32.89 41.398 32.008 39.242 31.322 38.36C30.244 37.086 28.97 36.106 27.01 35.224C22.992 33.46 22.208 33.166 21.326 33.068C20.836 33.068 20.444 32.97 20.444 32.97C20.444 32.676 21.522 31.794 22.11 31.5C22.698 31.108 23.384 30.52 23.776 29.834C23.972 29.638 24.364 29.344 24.854 29.05C25.54 28.756 26.128 28.266 27.402 27.09C28.284 26.208 29.068 25.326 29.264 25.13C29.46 24.738 29.656 24.15 30.734 20.328C31.42 17.976 31.42 17.388 30.93 15.722C30.342 13.37 31.028 12.782 29.852 9.744C29.362 8.666 29.166 8.372 28.382 7.588C27.108 6.314 26.226 5.628 23.972 4.354C21.816 3.276 19.268 2.198 18.386 2.198C18.092 2.1 17.504 2.198 17.112 2.296C16.72 2.394 16.23 2.394 16.132 2.394C15.74 2.198 12.506 1.904 11.134 1.708C10.742 1.61 10.35 1.61 10.252 1.708C9.664 1.806 7.214 2.88399 5.842 3.08C4.862 3.178 1.922 4.452 1.236 5.04C0.55 5.628 0.0599999 6.314 0.0599999 6.902C-0.0380001 8.176 1.04 8.568 2.51 7.784C3.686 7.098 6.528 6.51 6.528 6.902L6.43 7.49C6.234 7.882 5.842 12.096 5.646 14.84C5.548 16.506 5.744 20.328 5.548 21.112L4.96 25.326C4.862 25.914 4.862 26.6 4.96 27.286C5.156 28.266 5.156 28.462 4.862 29.736C4.764 30.52 4.568 31.892 4.568 32.676C4.47 33.95 4.568 34.244 4.764 34.93C5.058 35.616 5.058 35.91 4.96 37.184C4.862 38.066 4.862 38.85 4.96 39.34L5.254 41.202C5.352 41.79 5.548 42.672 5.744 43.26C6.136 44.142 6.136 44.534 6.136 45.22C6.136 45.71 6.136 46.592 6.332 47.082C6.724 49.042 6.234 53.06 6.724 54.53L7.116 56.196C7.312 57.372 7.9 58.352 8.586 58.842C9.076 59.136 9.272 59.234 9.86 59.136ZM15.642 27.286C15.446 27.188 15.25 25.326 15.348 24.346C15.348 23.856 15.544 23.268 15.642 22.876C16.034 21.994 16.132 20.916 15.936 19.936C15.838 19.348 15.838 18.466 15.838 17.878C15.936 17.192 15.838 16.31 15.74 15.82C15.642 15.036 15.642 14.35 15.838 12.978C15.936 11.214 15.936 11.116 15.642 9.94C15.152 8.274 15.152 8.176 15.838 8.274C16.132 8.372 16.622 8.568 16.916 8.862C17.21 9.058 17.798 9.45 18.19 9.646C18.974 10.136 19.954 11.41 20.444 12.684C20.836 13.468 20.836 13.664 20.738 14.35C20.64 14.84 20.64 15.624 20.738 16.408C20.836 17.29 20.836 18.27 20.738 19.25C20.64 20.622 20.64 20.622 19.856 21.994L18.778 24.052C18.582 24.444 18.19 25.032 17.896 25.326L16.524 26.698C16.132 27.09 15.74 27.384 15.642 27.286ZM15.25 51.982L13.388 51.884L13.78 45.906C14.858 43.26 14.956 43.064 15.152 41.006C15.348 39.732 15.446 39.046 15.642 38.458C15.838 38.066 16.034 37.576 16.034 37.282C16.034 36.596 16.72 36.694 18.778 37.772C19.562 38.262 20.248 38.752 20.248 38.85C20.346 39.046 21.228 39.732 22.012 40.026C22.992 40.516 23.384 41.006 23.776 41.986C23.972 42.476 24.364 43.162 24.658 43.456L25.148 44.142C25.05 47.18 25.148 48.062 23.384 49.924C22.6 50.708 22.306 51.002 21.424 51.296C20.052 51.884 17.7 52.178 15.25 51.982ZM47.3764 50.512C50.1204 50.218 51.9824 49.63 54.1384 48.356L56.4904 46.788C57.0784 46.494 57.9604 45.71 58.5484 45.22C59.5284 44.24 59.6264 44.142 60.9984 42.378C61.4884 41.79 62.0764 41.006 62.4684 40.712C63.1544 39.928 64.7224 38.164 65.1144 37.576C65.5064 37.184 65.5064 36.694 65.2124 36.4C64.5264 35.812 63.9384 36.204 60.4104 39.634C59.9204 40.026 59.5284 40.418 59.4304 40.418C59.3324 40.418 58.8424 40.81 58.3524 41.3C56.5884 42.966 55.2164 44.24 54.6284 44.632L53.5504 45.416C52.7664 46.102 50.4144 46.886 49.1404 46.886C48.7484 46.886 48.2584 46.788 47.4744 46.396C46.2004 45.71 45.3184 44.73 45.1224 43.75L44.7304 42.476C44.4364 41.888 44.4364 41.496 44.3384 40.026V37.968C44.2404 37.282 45.0244 36.4 46.5924 35.42C48.6504 34.048 48.6504 33.852 50.1204 32.774C50.6104 32.48 51.1004 31.99 51.1984 31.794C51.3944 31.5 51.6884 31.206 51.9824 30.912C52.6684 30.422 52.8644 30.226 53.4524 29.246C54.6284 27.482 54.0404 29.442 56.4904 24.15C56.5884 23.856 56.8824 23.17 56.9804 22.68L57.3724 20.916C57.5684 20.328 57.6664 19.348 57.6664 18.466C57.6664 17.094 57.6664 16.996 57.2744 16.408C56.7844 15.722 55.1184 14.35 54.2364 13.86C53.6484 13.566 53.0604 13.566 51.9824 13.664C51.2964 13.762 49.4344 14.35 48.3564 14.938C47.8664 15.232 46.9844 15.526 46.4944 15.722C45.4164 16.016 43.5544 17.192 42.8684 17.878C42.5744 18.172 42.1824 18.662 41.9864 19.152C41.0064 20.916 39.5364 22.092 39.2424 23.758C39.1444 24.052 38.8504 24.64 38.5564 25.13C38.2624 25.62 37.8704 26.502 37.6744 26.992C37.5764 27.482 37.1844 28.168 36.9884 28.56C36.4984 29.344 35.5184 32.97 35.4204 34.44C35.3224 35.714 35.6164 36.106 36.0084 38.85C36.2044 40.516 36.9884 43.064 37.5764 44.338C38.2624 45.514 39.3404 47.278 39.7324 47.572C40.1244 48.062 41.8884 49.14 42.8684 49.63C43.2604 49.826 44.1424 50.12 44.8284 50.316C46.0044 50.708 46.1024 50.708 47.3764 50.512ZM46.8864 31.01C46.6904 31.01 46.6904 31.01 46.9844 29.932C47.2784 28.364 47.9644 26.894 48.5524 26.012C49.1404 25.228 49.6304 24.15 49.6304 23.66C49.6304 23.17 50.2184 22.484 50.9044 22.092C51.7864 21.504 52.3744 20.916 53.1584 19.838C53.7464 19.054 54.1384 18.956 54.3344 19.446C54.4324 19.544 54.4324 20.034 54.4324 20.622C54.4324 21.406 54.2364 21.7 53.4524 23.366C52.5704 25.228 51.5904 26.6 50.2184 27.972C47.5724 30.52 47.0824 31.01 46.8864 31.01ZM92.2734 62.958C93.5474 63.056 93.6454 62.86 95.4094 62.37C96.3894 62.076 97.2714 61.782 97.2714 61.684C97.2714 61.586 97.6634 61.39 97.9574 61.292C98.8394 60.998 100.211 59.43 100.701 58.548C100.995 58.058 101.387 57.568 101.681 57.372C102.269 56.98 104.425 51.296 104.915 50.414C105.111 50.022 105.405 49.532 105.601 49.336C105.895 49.042 106.385 47.768 106.581 47.376C106.777 47.082 107.757 43.848 107.953 43.554C108.149 43.26 108.345 42.77 108.443 42.378C108.541 42.084 108.835 41.398 109.031 40.81L109.423 39.83L109.815 38.654C110.109 38.164 110.305 37.38 110.403 36.988C110.501 36.4 110.403 36.302 110.109 36.204C109.913 36.106 109.619 36.106 109.521 36.106C109.031 36.106 108.149 37.478 107.855 38.262C107.659 38.752 106.875 39.83 106.287 40.712C105.699 41.594 105.013 43.946 104.817 44.338C103.739 46.2 102.759 48.16 102.563 48.552C101.191 50.806 100.799 52.668 100.505 53.256C100.211 53.844 99.7214 54.53 98.7414 55.412C96.9774 56.98 95.6054 58.156 94.4294 58.352C93.1554 58.548 92.7634 58.45 91.8814 57.568C91.1954 56.882 91.0974 56.686 90.9014 55.804C90.8034 55.216 90.8034 54.138 90.7054 53.452C90.5094 52.276 90.7054 51.982 90.3134 51.198L89.9214 50.316L90.0194 47.474C90.1174 45.122 90.0194 44.436 89.8234 43.848C89.6274 43.358 89.6274 42.868 89.7254 42.28C89.8234 41.79 89.7254 40.908 89.6274 40.418C89.4314 39.536 89.5294 39.242 89.7254 38.36C89.9214 37.38 89.9214 36.694 89.4314 34.538C89.2354 33.656 89.3334 33.362 89.4314 32.676C89.5294 32.186 89.6274 31.01 89.7254 30.226C89.8234 29.344 89.9214 28.168 90.1174 27.678C90.5094 26.6 90.4114 25.13 90.1174 23.954C89.9214 23.17 89.8234 22.876 90.1174 21.994C90.3134 21.308 90.2154 20.72 90.1174 20.23C90.0194 19.74 90.0194 18.76 90.0194 18.074C90.0194 16.408 90.1174 16.212 91.3914 16.212C91.8814 16.212 92.6654 16.114 93.1554 15.918C93.6454 15.722 94.5274 15.722 95.1154 15.624C97.3694 15.232 98.7414 14.742 99.6234 13.37C100.309 12.292 100.015 10.626 99.0354 9.548C98.5454 8.96 97.8594 9.156 97.3694 9.94C97.1734 10.234 96.6834 10.626 95.8994 11.116C94.8214 11.802 94.6254 11.704 93.6454 11.802C90.9994 12.096 90.8034 11.802 90.8034 10.626C90.8034 10.234 90.7054 9.548 90.5094 8.96C90.1174 7.784 90.2154 7.196 90.5094 5.726C91.0974 2.982 88.2554 -0.448003 86.0994 0.335998C85.0214 0.727999 83.9434 2.002 83.6494 3.472C83.5514 3.962 83.1594 4.648 82.9634 5.13799C82.7674 5.628 82.5714 6.216 82.5714 6.608C82.5714 7 82.4734 7.49 82.2774 7.882L81.7874 9.254C81.5914 9.94 81.1014 9.646 81.0034 10.136C80.7094 11.508 80.5134 11.508 80.4154 11.508C80.3174 11.508 79.7294 11.312 78.9454 11.312C78.1614 11.312 77.0834 10.92 76.4954 10.724C75.4174 10.332 75.3194 10.332 72.1834 10.332C69.4394 10.332 68.9494 10.332 67.2834 10.724C66.4014 10.92 65.3234 11.116 65.0294 11.116C64.3434 11.116 63.3634 11.802 62.3834 12.488L61.1094 13.468C58.7574 15.036 60.4234 17.78 62.9714 16.506C63.5594 16.212 63.8534 16.114 66.8914 16.31C68.7534 16.408 70.8114 16.212 71.4974 16.212C72.3794 16.212 72.9674 16.114 73.2614 16.212C73.5554 16.31 74.5354 16.408 75.6134 16.506C76.6914 16.604 78.3574 16.604 79.1414 16.604C80.4154 16.604 80.7094 16.8 81.0034 15.722C81.1014 15.33 81.2974 16.016 81.1014 16.996C81.0034 17.584 81.0034 18.662 81.0034 19.446C81.0034 20.72 80.9054 22.288 80.6114 22.974C80.4154 23.366 79.9254 24.052 79.4354 24.542C79.0434 24.934 78.4554 25.62 78.2594 25.914C77.5734 26.992 76.4954 28.364 76.0054 29.05C75.8094 29.344 75.2214 29.834 75.1234 30.226C75.0254 30.52 74.6334 30.912 74.3394 31.206C73.9474 31.598 73.6534 31.892 73.5554 32.186C73.3594 32.774 71.6934 34.93 71.3014 35.224C71.0074 35.42 70.9094 35.322 70.5174 34.832C69.4394 33.558 69.2434 33.264 69.1454 31.99C69.0474 30.716 68.8514 30.226 68.0674 29.148C67.3814 28.266 67.1854 27.678 67.1854 26.6C67.1854 25.914 67.1854 25.718 67.4794 25.424L67.8714 25.032L68.1654 25.326L69.1454 26.012C69.8314 26.502 70.3214 27.286 70.3214 27.874C70.3214 28.07 70.5174 28.462 70.7134 28.658C71.3014 29.246 71.9874 29.344 72.3794 28.952C72.7714 28.56 73.2614 27.286 73.3594 26.208C73.4574 25.326 73.4574 25.228 72.7714 23.954C71.5954 21.798 69.8314 20.426 67.2834 20.132C65.8134 19.936 65.4214 20.034 63.8534 20.72C62.6774 21.21 62.1874 21.994 61.6974 22.974L61.0114 24.346C60.8154 24.738 60.5214 25.522 60.3254 26.208C60.1294 26.796 59.9334 27.678 59.7374 28.168C59.3454 29.246 59.4434 30.226 59.9334 31.402L60.8154 33.656C61.1094 34.538 61.6974 36.106 62.1874 37.184L63.2654 39.438C63.2654 39.536 63.6574 40.124 64.0494 40.614C64.5394 41.202 64.8334 41.888 64.9314 42.182C65.1274 42.672 65.0294 42.77 64.6374 43.554L63.6574 45.416L62.6774 47.278L62.0894 48.454C61.9914 48.65 61.8934 48.944 61.8934 49.042L61.6974 49.728C61.4034 50.708 61.1094 54.236 61.3054 56.098C61.4034 56.98 62.0894 57.96 63.2654 58.842C64.5394 59.822 64.7354 59.92 66.8914 59.92C68.9494 59.92 69.6354 59.822 71.4974 58.842C73.1634 57.96 73.9474 57.274 74.5354 56C75.6134 53.55 76.4954 50.708 76.2014 49.336C76.1034 48.944 76.0054 48.258 75.8094 47.866C75.6134 47.474 75.3194 46.788 75.3194 46.298C75.3194 45.71 74.9274 45.024 74.7314 44.73C73.3594 42.672 72.6734 40.908 72.4774 39.536C72.3794 38.948 73.0654 38.164 74.5354 36.4L76.1034 34.538C76.3974 34.146 76.6914 33.656 76.9854 33.558C77.2794 33.46 77.5734 32.97 77.8674 32.578C78.1614 32.186 78.8474 31.304 79.4354 30.618L80.6114 29.148C80.8074 28.854 80.6114 28.854 81.0034 27.678C81.1014 27.384 81.1994 28.756 81.1994 32.088C81.1994 35.518 81.3954 36.498 81.4934 37.282C81.5914 37.87 81.6894 38.752 81.6894 39.438C81.6894 42.182 81.5914 44.436 81.9834 45.514C82.1794 46.102 82.2774 47.082 82.2774 47.768C82.2774 48.552 82.3754 49.14 82.5714 49.63C82.7674 50.022 82.8654 50.61 82.8654 50.904C82.8654 51.688 83.2574 53.158 83.6494 53.942C83.8454 54.334 84.1394 55.02 84.2374 55.412C84.4334 56.392 84.7274 56.588 85.6094 58.254C86.2954 59.528 87.9614 61.194 88.5494 61.488C88.7454 61.586 89.3334 61.88 89.9214 62.272C90.9014 62.958 91.0974 62.86 92.2734 62.958ZM65.1274 55.608C64.3434 55.608 64.1474 53.158 64.5394 51.786L65.0294 50.12C65.2254 49.434 66.7934 46.69 67.0874 46.69C67.0874 46.69 67.2834 46.886 67.3814 47.082C67.4794 47.278 67.6754 47.768 67.7734 48.258L68.0674 50.022C68.2634 50.512 68.2634 51.002 68.2634 51.1L68.0674 52.57C67.9694 53.256 67.9694 53.942 67.7734 54.138C67.6754 54.236 67.1854 54.53 66.7934 54.726C66.3034 54.922 65.8134 55.216 65.6174 55.412C65.4214 55.608 65.2254 55.608 65.1274 55.608ZM11.918 116.764C14.466 117.254 14.662 117.352 16.426 117.156C17.308 117.058 18.484 116.862 19.072 116.666C22.306 115.686 22.306 116.764 27.206 112.158C28.578 110.982 30.538 108.434 31.224 107.062C31.616 106.376 32.106 105.69 32.596 105.298C33.576 104.318 33.87 103.632 34.262 101.378C34.752 98.732 34.654 97.36 33.772 94.714C32.694 91.382 31.812 90.01 29.95 88.932C28.382 87.952 28.284 87.462 27.108 87.266C26.226 87.07 22.992 86.874 22.208 86.874C21.914 86.972 21.326 86.874 20.934 86.874C20.444 86.776 19.856 86.776 19.17 86.874C18.288 87.07 18.092 87.07 16.818 86.776C15.054 86.384 14.662 86.286 14.466 85.992C14.27 85.6 14.466 84.424 14.956 82.954C15.348 81.876 15.838 81.288 17.406 79.72C17.798 79.23 18.68 78.152 19.17 77.368C20.542 75.212 20.836 74.918 22.404 73.742C23.286 73.154 23.972 72.566 23.972 72.468C24.07 72.174 24.952 71.684 26.226 71.292C28.872 70.606 29.852 69.136 29.068 66.784C28.284 64.53 27.108 63.746 24.364 63.942C23.874 63.942 23.09 64.04 22.698 64.236C22.306 64.432 21.522 64.628 20.934 64.628C20.346 64.726 19.758 64.824 19.366 65.118C18.974 65.314 18.386 65.608 17.896 65.804C16.72 66.294 16.034 66.686 15.348 67.47C14.368 68.548 13.094 69.724 12.506 69.92C9.958 71.292 10.546 71.39 7.508 75.604C5.156 79.132 6.038 78.446 5.254 82.366C4.862 84.13 4.96 84.62 5.548 86.286C6.136 87.854 6.822 88.834 7.998 89.618C8.782 90.304 10.644 91.088 11.134 90.99C11.33 90.99 11.918 91.186 12.604 91.382C13.682 91.676 13.878 91.774 14.564 91.676C15.054 91.578 15.544 91.578 15.838 91.676C16.132 91.774 17.014 91.774 17.7 91.676C20.346 91.578 21.032 91.676 22.404 91.97C24.07 92.362 24.364 92.558 24.854 93.244C25.54 94.322 25.148 96.282 23.58 99.124L22.6 101.084C22.502 101.378 22.11 101.966 21.718 102.456C21.424 102.848 21.032 103.436 20.836 103.828C20.542 104.514 19.758 105.004 18.19 105.494C17.602 105.69 16.72 106.18 16.23 106.474C14.662 107.65 14.76 107.65 11.82 106.964L9.272 106.474C8.292 104.808 8.096 104.514 8.292 103.436C8.586 101.672 7.606 100.398 6.332 100.888C4.96 101.476 3.882 103.926 3.98 106.866C3.98 108.826 4.176 109.904 4.862 110.688C5.548 111.57 5.646 112.844 7.998 114.118C8.586 114.412 9.664 115.098 10.448 115.686L11.918 116.764ZM48.6205 109.512C51.3645 109.218 53.2265 108.63 55.3825 107.356L57.7345 105.788C58.3225 105.494 59.2045 104.71 59.7925 104.22C60.7725 103.24 60.8705 103.142 62.2425 101.378C62.7325 100.79 63.3205 100.006 63.7125 99.712C64.3985 98.928 65.9665 97.164 66.3585 96.576C66.7505 96.184 66.7505 95.694 66.4565 95.4C65.7705 94.812 65.1825 95.204 61.6545 98.634C61.1645 99.026 60.7725 99.418 60.6745 99.418C60.5765 99.418 60.0865 99.81 59.5965 100.3C57.8325 101.966 56.4605 103.24 55.8725 103.632L54.7945 104.416C54.0105 105.102 51.6585 105.886 50.3845 105.886C49.9925 105.886 49.5025 105.788 48.7185 105.396C47.4445 104.71 46.5625 103.73 46.3665 102.75L45.9745 101.476C45.6805 100.888 45.6805 100.496 45.5825 99.026V96.968C45.4845 96.282 46.2685 95.4 47.8365 94.42C49.8945 93.048 49.8945 92.852 51.3645 91.774C51.8545 91.48 52.3445 90.99 52.4425 90.794C52.6385 90.5 52.9325 90.206 53.2265 89.912C53.9125 89.422 54.1085 89.226 54.6965 88.246C55.8725 86.482 55.2845 88.442 57.7345 83.15C57.8325 82.856 58.1265 82.17 58.2245 81.68L58.6165 79.916C58.8125 79.328 58.9105 78.348 58.9105 77.466C58.9105 76.094 58.9105 75.996 58.5185 75.408C58.0285 74.722 56.3625 73.35 55.4805 72.86C54.8925 72.566 54.3045 72.566 53.2265 72.664C52.5405 72.762 50.6785 73.35 49.6005 73.938C49.1105 74.232 48.2285 74.526 47.7385 74.722C46.6605 75.016 44.7985 76.192 44.1125 76.878C43.8185 77.172 43.4265 77.662 43.2305 78.152C42.2505 79.916 40.7805 81.092 40.4865 82.758C40.3885 83.052 40.0945 83.64 39.8005 84.13C39.5065 84.62 39.1145 85.502 38.9185 85.992C38.8205 86.482 38.4285 87.168 38.2325 87.56C37.7425 88.344 36.7625 91.97 36.6645 93.44C36.5665 94.714 36.8605 95.106 37.2525 97.85C37.4485 99.516 38.2325 102.064 38.8205 103.338C39.5065 104.514 40.5845 106.278 40.9765 106.572C41.3685 107.062 43.1325 108.14 44.1125 108.63C44.5045 108.826 45.3865 109.12 46.0725 109.316C47.2485 109.708 47.3465 109.708 48.6205 109.512ZM48.1305 90.01C47.9345 90.01 47.9345 90.01 48.2285 88.932C48.5225 87.364 49.2085 85.894 49.7965 85.012C50.3845 84.228 50.8745 83.15 50.8745 82.66C50.8745 82.17 51.4625 81.484 52.1485 81.092C53.0305 80.504 53.6185 79.916 54.4025 78.838C54.9905 78.054 55.3825 77.956 55.5785 78.446C55.6765 78.544 55.6765 79.034 55.6765 79.622C55.6765 80.406 55.4805 80.7 54.6965 82.366C53.8145 84.228 52.8345 85.6 51.4625 86.972C48.8165 89.52 48.3265 90.01 48.1305 90.01ZM95.4775 115.784C96.4575 115.49 97.3395 114.902 97.6335 114.216L98.1235 113.334C98.6135 112.648 99.1035 109.218 98.9075 107.944C98.8095 107.454 98.7115 107.258 98.4175 107.16C97.6335 106.768 97.3395 107.258 96.5555 110.982C96.3595 111.864 95.4775 113.04 95.0855 113.04L93.9095 112.844C93.1255 112.55 93.0275 112.55 92.6355 111.962C92.2435 111.178 91.4595 108.434 91.4595 107.65L91.7535 101.672C91.9495 98.928 92.0475 95.694 91.9495 95.008C91.8515 94.224 92.0475 93.636 92.6355 91.676C93.0275 90.402 93.0275 89.814 93.1255 86.188C93.1255 85.208 93.2235 84.424 93.3215 84.032C93.4195 83.64 93.5175 82.856 93.4195 80.504C93.3215 77.76 93.3215 77.564 93.0275 76.878L92.4395 75.604C92.1455 74.82 91.7535 74.33 91.0675 74.036C89.4015 73.448 87.8335 74.428 86.3635 76.976C85.6775 78.152 85.5795 78.642 85.5795 79.524C85.6775 80.112 85.5795 80.504 85.2855 81.288C84.9915 82.072 84.7955 82.66 84.7955 83.64C84.6975 85.208 83.8155 88.344 82.9335 90.304L82.3455 91.774C82.2475 92.166 81.9535 92.656 81.8555 92.95C81.4635 93.538 80.6795 95.204 80.6795 95.4C80.6795 95.498 80.4835 95.89 80.2875 96.282C79.9935 96.576 79.6995 97.164 79.6015 97.458C79.0135 98.928 78.0335 100.496 77.1515 101.672C76.0735 102.848 76.0735 102.946 75.4855 102.946H74.7995C74.0155 100.986 73.9175 100.986 74.0155 99.908C74.0155 99.32 73.9175 98.242 73.9175 97.458C73.8195 96.184 73.8195 95.89 74.0155 95.008C74.3095 94.224 74.3095 93.832 74.2115 92.558C74.1135 90.206 74.5055 90.108 74.6035 87.56C74.6035 86.874 74.7015 86.188 74.7015 86.09L75.0935 84.522C75.4855 82.366 75.7795 81.092 75.9755 80.21C76.1715 79.818 76.2695 79.034 76.2695 78.446C76.3675 77.858 76.5635 76.584 76.8575 75.506L77.4455 72.664C77.5435 72.076 77.7395 71.194 77.9355 70.704C78.3275 69.822 78.3275 69.626 78.3275 67.764C78.3275 66.686 78.2295 65.608 78.1315 65.314C77.7395 64.04 76.5635 62.864 75.1915 62.57C74.4075 62.374 74.3095 62.374 73.4275 62.668C72.6435 63.06 71.7615 63.942 70.3895 65.902C69.2135 67.568 68.9195 68.156 68.7235 69.528C68.5275 70.606 68.5275 70.704 67.8415 71.782C67.3515 72.566 67.0575 73.644 67.0575 74.232C67.0575 74.428 66.9595 74.918 66.7635 75.408C65.5875 77.858 65.2935 79.622 65.5875 80.994C65.7835 81.68 65.7835 81.974 65.5875 83.052C65.4895 83.738 65.2935 84.718 65.0975 85.208C64.9015 85.992 64.8035 86.482 64.9015 87.462C64.9015 88.246 64.9015 89.128 64.8035 89.618C64.6075 90.5 64.6075 90.696 65.2935 92.95C65.4895 93.734 65.4895 94.028 65.4895 94.91C65.3915 96.086 65.4895 96.772 66.0775 97.752C66.2735 98.046 66.5675 98.83 66.7635 99.418C67.1555 100.986 67.9395 102.554 69.2135 104.318C70.8795 106.67 71.7615 107.258 73.9175 107.356C76.2695 107.552 76.2695 106.866 77.9355 105.788C78.6215 105.298 79.8955 103.632 80.3855 102.554C80.5815 102.064 80.8755 101.476 81.0715 101.28C81.5615 100.594 82.3455 98.83 82.6395 97.752L83.1295 96.086L83.4235 95.596L83.9135 101.77C84.0115 103.828 84.2075 104.71 85.0895 106.768L85.5795 108.238C85.7755 109.12 87.5395 112.158 88.3235 113.236C88.9115 113.922 90.1855 114.902 91.0675 115.294C91.4595 115.392 92.3415 115.686 93.1255 115.784C94.4975 116.078 94.4975 116.078 95.4775 115.784ZM108.914 109.512C111.658 109.218 113.52 108.63 115.676 107.356L118.028 105.788C118.616 105.494 119.498 104.71 120.086 104.22C121.066 103.24 121.164 103.142 122.536 101.378C123.026 100.79 123.614 100.006 124.006 99.712C124.692 98.928 126.26 97.164 126.652 96.576C127.044 96.184 127.044 95.694 126.749 95.4C126.064 94.812 125.476 95.204 121.948 98.634C121.458 99.026 121.066 99.418 120.968 99.418C120.87 99.418 120.38 99.81 119.89 100.3C118.126 101.966 116.754 103.24 116.166 103.632L115.088 104.416C114.304 105.102 111.952 105.886 110.678 105.886C110.286 105.886 109.796 105.788 109.012 105.396C107.738 104.71 106.856 103.73 106.66 102.75L106.268 101.476C105.974 100.888 105.974 100.496 105.876 99.026V96.968C105.778 96.282 106.562 95.4 108.13 94.42C110.188 93.048 110.188 92.852 111.658 91.774C112.148 91.48 112.638 90.99 112.736 90.794C112.932 90.5 113.226 90.206 113.52 89.912C114.206 89.422 114.402 89.226 114.99 88.246C116.166 86.482 115.578 88.442 118.028 83.15C118.126 82.856 118.42 82.17 118.518 81.68L118.91 79.916C119.106 79.328 119.204 78.348 119.204 77.466C119.204 76.094 119.204 75.996 118.812 75.408C118.322 74.722 116.656 73.35 115.774 72.86C115.186 72.566 114.598 72.566 113.52 72.664C112.834 72.762 110.972 73.35 109.894 73.938C109.404 74.232 108.522 74.526 108.032 74.722C106.954 75.016 105.092 76.192 104.405 76.878C104.112 77.172 103.72 77.662 103.524 78.152C102.544 79.916 101.074 81.092 100.78 82.758C100.682 83.052 100.388 83.64 100.094 84.13C99.7995 84.62 99.4075 85.502 99.2115 85.992C99.1135 86.482 98.7215 87.168 98.5255 87.56C98.0355 88.344 97.0555 91.97 96.9575 93.44C96.8595 94.714 97.1535 95.106 97.5455 97.85C97.7415 99.516 98.5255 102.064 99.1135 103.338C99.7995 104.514 100.878 106.278 101.27 106.572C101.662 107.062 103.426 108.14 104.405 108.63C104.798 108.826 105.68 109.12 106.366 109.316C107.542 109.708 107.64 109.708 108.914 109.512ZM108.424 90.01C108.228 90.01 108.228 90.01 108.522 88.932C108.816 87.364 109.502 85.894 110.09 85.012C110.678 84.228 111.168 83.15 111.168 82.66C111.168 82.17 111.756 81.484 112.442 81.092C113.324 80.504 113.912 79.916 114.696 78.838C115.284 78.054 115.676 77.956 115.872 78.446C115.97 78.544 115.97 79.034 115.97 79.622C115.97 80.406 115.774 80.7 114.99 82.366C114.108 84.228 113.128 85.6 111.756 86.972C109.11 89.52 108.62 90.01 108.424 90.01ZM130.781 111.08C131.957 110.982 132.839 110.394 133.329 109.414C134.505 107.062 134.799 106.376 134.799 106.18L134.995 104.71C135.191 104.122 135.387 102.946 135.387 102.162C135.485 101.182 135.583 100.594 135.877 100.006C136.269 99.124 136.269 99.124 136.367 96.086V93.048C136.661 92.558 137.053 91.97 137.641 90.696C137.935 90.206 138.425 89.226 138.817 88.736C139.503 87.756 141.169 85.992 141.365 85.992C141.463 85.992 141.757 85.894 141.953 85.796C142.345 85.404 143.913 84.816 144.599 84.718C144.893 84.718 145.383 84.522 145.775 84.326C146.461 83.934 146.559 83.934 147.931 84.032C149.401 84.13 149.499 84.13 149.989 83.836C150.577 83.444 150.871 83.052 150.871 82.366C150.871 81.582 150.283 81.092 149.009 80.602C148.225 80.308 147.931 80.308 146.167 80.308C141.953 80.308 141.953 81.386 140.189 82.17C139.405 82.66 138.425 83.542 137.347 84.816C136.857 85.404 136.465 85.894 136.465 85.796C136.269 85.698 136.073 84.62 135.975 83.15C135.877 81.876 135.779 81.484 135.485 80.896C135.093 79.916 133.525 78.348 132.741 77.956C131.957 77.564 130.879 77.466 130.193 77.564C128.723 77.956 127.743 79.034 126.861 81.092C126.077 83.052 125.293 85.502 125.293 86.09L125.391 88.442C125.587 90.206 125.587 90.304 125.293 91.48C124.705 93.93 125.195 93.734 125.587 99.124C125.587 100.692 125.783 102.064 125.979 102.75C126.077 103.338 126.273 104.22 126.273 104.71C126.567 107.552 127.057 108.728 128.135 109.904C129.017 110.786 129.703 111.08 130.781 111.08ZM156.983 119.116C157.473 119.018 157.963 118.822 158.845 118.234C160.315 117.254 161.785 115.588 162.765 113.726C163.451 112.452 163.451 112.354 163.451 111.374C163.451 110.786 163.549 110.002 163.647 109.61C163.843 108.826 163.843 108.728 163.549 107.454C162.961 104.906 162.961 105.102 164.235 103.926C164.921 103.338 165.607 102.75 165.901 102.652L167.175 101.476C168.547 100.006 171.879 96.576 171.977 96.38C172.075 96.184 172.075 95.596 171.879 95.4C171.487 95.008 171.095 95.302 169.037 97.164C165.999 99.908 165.803 99.908 164.235 101.182C163.843 101.574 163.255 102.064 162.961 102.162C162.471 102.456 162.373 102.456 162.275 102.26L161.589 101.378C161.099 100.79 160.511 99.81 159.237 97.458L158.649 96.086C158.257 95.106 158.159 94.812 158.061 92.852C157.865 88.834 157.865 88.442 158.943 87.462C159.531 86.874 159.629 86.874 160.315 86.874C162.569 86.874 164.137 84.326 162.961 82.268C162.373 81.288 161.393 80.308 160.609 79.916C160.021 79.524 159.825 79.524 157.963 79.524C156.591 79.524 155.905 79.622 155.513 79.72C154.925 80.014 154.043 80.7 153.455 81.092C152.671 81.484 151.985 82.072 151.495 83.052C151.299 83.542 150.809 84.228 150.417 84.62C150.123 84.914 149.633 85.698 149.437 86.286C148.065 89.716 147.477 89.03 148.555 93.048C148.849 94.42 149.241 95.694 149.339 95.89C149.633 96.478 150.613 97.556 152.083 99.124C152.573 99.614 153.063 100.3 153.259 100.692C153.357 100.986 153.945 101.77 154.435 102.358C154.925 102.946 155.611 103.828 155.807 104.22C156.101 104.71 156.493 105.298 156.689 105.69C157.473 106.67 157.375 106.964 155.905 108.434C153.357 110.884 152.083 112.942 151.691 114.902C151.299 116.862 151.495 117.646 152.867 118.528C154.141 119.41 154.631 119.41 156.983 119.116ZM154.435 115.98C154.043 115.98 154.141 115.686 154.533 114.412C154.827 113.628 155.121 113.04 155.611 112.354C156.885 110.786 157.473 110.1 157.571 110.1C157.669 110.1 157.669 110.59 157.669 111.472C157.571 112.55 157.473 112.942 157.179 113.628L156.493 114.902C156.003 115.294 154.827 115.98 154.435 115.98Z" fill="black"/>
</svg>
