<svg width="289" height="289" viewBox="0 0 289 289" fill="none" xmlns="http://www.w3.org/2000/svg">
<g opacity="0.16">
<path d="M144.658 18.7666L149.247 14.1778L144.5 9.39915L149.247 4.62046L144.658 0L139.88 4.77869L135.101 0L130.48 4.62046L135.259 9.39915L130.48 14.1778L135.101 18.7666L139.88 13.988L144.658 18.7666Z" fill="#011E50"/>
<path d="M167.95 42.0586L172.539 37.4698L167.792 32.6911L172.539 27.9124L167.95 23.292L163.172 28.0707L158.393 23.292L153.772 27.9124L158.551 32.6595L153.772 37.4698L158.393 42.0586L163.172 37.2799L167.95 42.0586Z" fill="#011E50"/>
<path d="M191.242 65.3509L195.831 60.7304L191.052 55.9517L195.831 51.2047L191.242 46.5842L186.464 51.3629L181.685 46.5842L177.064 51.2047L181.843 55.9517L177.064 60.7304L181.685 65.3509L186.464 60.5722L191.242 65.3509Z" fill="#011E50"/>
<path d="M214.535 88.6431L219.124 84.0227L214.345 79.244L219.124 74.4653L214.535 69.8765L209.756 74.6552L204.977 69.8765L200.357 74.4653L205.136 79.244L200.357 84.0227L204.977 88.6431L209.756 83.8644L214.535 88.6431Z" fill="#011E50"/>
<path d="M237.795 111.935L242.416 107.315L237.637 102.536L242.416 97.7575L237.795 93.1687L233.048 97.9474L228.269 93.1687L223.649 97.7575L228.428 102.536L223.649 107.315L228.269 111.935L233.048 107.157L237.795 111.935Z" fill="#011E50"/>
<path d="M261.088 135.227L265.708 130.607L260.929 125.828L265.708 121.05L261.088 116.461L256.309 121.208L251.53 116.461L246.941 121.05L251.72 125.828L246.941 130.607L251.53 135.227L256.309 130.449L261.088 135.227Z" fill="#011E50"/>
<path d="M284.38 158.52L289 153.899L284.221 149.121L289 144.342L284.38 139.721L279.601 144.5L274.822 139.721L270.233 144.342L275.012 149.121L270.233 153.899L274.822 158.52L279.601 153.741L284.38 158.52Z" fill="#011E50"/>
<path d="M118.549 44.8753L123.17 40.2548L118.391 35.4761L123.17 30.6975L118.549 26.1086L113.771 30.8873L108.992 26.1086L104.403 30.6975L109.182 35.4761L104.403 40.2548L108.992 44.8753L113.771 40.0966L118.549 44.8753Z" fill="#011E50"/>
<path d="M141.842 68.1675L146.462 63.5471L141.683 58.7684L146.462 53.9897L141.842 49.4009L137.063 54.1479L132.284 49.4009L127.695 53.9897L132.442 58.7684L127.695 63.5471L132.284 68.1675L137.063 63.3888L141.842 68.1675Z" fill="#011E50"/>
<path d="M165.134 91.4599L169.754 86.8395L164.976 82.0608L169.754 77.2821L165.134 72.6616L160.355 77.472L155.577 72.6616L150.956 77.2821L155.735 82.0608L150.956 86.8395L155.577 91.4599L160.355 86.6812L165.134 91.4599Z" fill="#011E50"/>
<path d="M188.426 114.752L193.015 110.131L188.268 105.353L193.015 100.574L188.426 95.9536L183.647 100.732L178.869 95.9536L174.248 100.574L179.027 105.353L174.248 110.131L178.869 114.752L183.647 109.973L188.426 114.752Z" fill="#011E50"/>
<path d="M211.718 138.044L216.339 133.423L211.528 128.645L216.339 123.866L211.718 119.246L206.94 124.024L202.161 119.246L197.541 123.866L202.319 128.645L197.541 133.423L202.161 138.044L206.94 133.234L211.718 138.044Z" fill="#011E50"/>
<path d="M235.01 161.304L239.599 156.716L234.82 151.937L239.599 147.158L235.01 142.538L230.232 147.317L225.453 142.538L220.833 147.158L225.611 151.937L220.833 156.716L225.453 161.304L230.232 156.557L235.01 161.304Z" fill="#011E50"/>
<path d="M258.302 184.597L262.891 180.008L258.112 175.229L262.891 170.451L258.302 165.83L253.524 170.609L248.745 165.83L244.125 170.451L248.903 175.229L244.125 180.008L248.745 184.597L253.524 179.818L258.302 184.597Z" fill="#011E50"/>
<path d="M92.4411 83.7859L97.0616 79.1405L92.2829 74.3359L97.0616 69.5314L92.4411 64.886L87.6941 69.6905L82.9154 64.886L78.2949 69.5314L83.0736 74.3359L78.2949 79.1405L82.9154 83.7859L87.6941 78.9814L92.4411 83.7859Z" fill="#011E50"/>
<path d="M115.765 107.204L120.354 102.559L115.575 97.754L120.354 92.9494L115.733 88.304L110.954 93.1085L106.207 88.304L101.587 92.9494L106.366 97.754L101.587 102.559L106.207 107.204L110.954 102.368L115.765 107.204Z" fill="#011E50"/>
<path d="M139.025 117.537L143.646 112.948L138.867 108.169L143.646 103.391L139.025 98.7703L134.246 103.549L129.468 98.7703L124.879 103.391L129.658 108.169L124.879 112.948L129.468 117.537L134.246 112.758L139.025 117.537Z" fill="#011E50"/>
<path d="M162.317 140.829L166.938 136.24L162.159 131.461L166.938 126.683L162.317 122.062L157.538 126.841L152.76 122.062L148.171 126.683L152.95 131.461L148.171 136.24L152.76 140.829L157.538 136.05L162.317 140.829Z" fill="#011E50"/>
<path d="M185.61 164.121L190.23 159.532L185.451 154.754L190.23 149.975L185.61 145.354L180.831 150.133L176.052 145.354L171.463 149.975L176.242 154.754L171.463 159.532L176.052 164.121L180.831 159.342L185.61 164.121Z" fill="#011E50"/>
<path d="M208.901 187.413L213.522 182.793L208.743 178.046L213.522 173.267L208.901 168.646L204.123 173.425L199.344 168.646L194.724 173.235L199.502 178.046L194.724 182.793L199.344 187.413L204.123 182.634L208.901 187.413Z" fill="#011E50"/>
<path d="M232.194 210.706L236.814 206.085L232.036 201.306L236.814 196.528L232.194 191.939L227.415 196.718L222.637 191.939L218.016 196.528L222.795 201.306L218.016 206.085L222.637 210.706L227.415 205.927L232.194 210.706Z" fill="#011E50"/>
<path d="M66.3634 110.004L70.9838 105.39L66.2051 100.586L70.9838 95.7813L66.3634 91.1357L61.5847 95.9403L56.806 91.1357L52.1855 95.7813L56.9642 100.586L52.1855 105.39L56.806 110.004L61.5847 105.2L66.3634 110.004Z" fill="#011E50"/>
<path d="M89.6554 133.422L94.2442 128.777L89.4655 123.972L94.2442 119.199L89.6554 114.554L84.8767 119.359L80.098 114.554L75.4775 119.199L80.2562 123.972L75.4775 128.777L80.098 133.422L84.8767 128.618L89.6554 133.422Z" fill="#011E50"/>
<path d="M112.948 156.84L117.537 152.195L112.758 147.39L117.537 142.586L112.948 137.972L108.17 142.777L103.391 137.972L98.7705 142.586L103.549 147.39L98.7705 152.195L103.391 156.84L108.17 152.036L112.948 156.84Z" fill="#011E50"/>
<path d="M136.24 166.938L140.829 162.317L136.05 157.539L140.829 152.76L136.24 148.171L131.461 152.95L126.682 148.171L122.062 152.76L126.841 157.539L122.062 162.317L126.682 166.938L131.461 162.159L136.24 166.938Z" fill="#011E50"/>
<path d="M159.532 190.23L164.121 185.609L159.342 180.831L164.121 176.052L159.532 171.463L154.754 176.242L149.975 171.463L145.354 176.052L150.133 180.831L145.354 185.609L149.975 190.23L154.754 185.451L159.532 190.23Z" fill="#011E50"/>
<path d="M182.793 213.522L187.414 208.902L182.635 204.123L187.414 199.344L182.793 194.755L178.014 199.534L173.236 194.755L168.647 199.344L173.426 204.123L168.647 208.902L173.236 213.522L178.014 208.743L182.793 213.522Z" fill="#011E50"/>
<path d="M206.085 236.814L210.706 232.194L205.927 227.415L210.706 222.636L206.085 218.016L201.306 222.795L196.528 218.016L191.939 222.636L196.718 227.415L191.939 232.194L196.528 236.814L201.306 232.035L206.085 236.814Z" fill="#011E50"/>
<path d="M40.2546 136.254L44.875 131.608L40.0964 126.804L44.875 121.999L40.2546 117.386L35.4759 122.19L30.6972 117.386L26.1084 121.999L30.8871 126.804L26.1084 131.608L30.6972 136.254L35.4759 131.449L40.2546 136.254Z" fill="#011E50"/>
<path d="M63.5466 159.672L68.167 155.026L63.3883 150.222L68.167 145.417L63.5466 140.804L58.7679 145.576L53.9892 140.804L49.4004 145.417L54.1474 150.222L49.4004 155.026L53.9892 159.672L58.7679 154.867L63.5466 159.672Z" fill="#011E50"/>
<path d="M86.839 183.09L91.4594 178.445L86.6807 173.64L91.4594 168.836L86.839 164.19L82.0603 169.027L77.2816 164.19L72.6611 168.836L77.4398 173.64L72.6611 178.445L77.2816 183.09L82.0603 178.286L86.839 183.09Z" fill="#011E50"/>
<path d="M110.131 206.508L114.751 201.863L109.973 197.058L114.751 192.254L110.131 187.608L105.352 192.413L100.574 187.608L95.9531 192.254L100.732 197.058L95.9531 201.863L100.574 206.476L105.352 201.704L110.131 206.508Z" fill="#011E50"/>
<path d="M133.424 216.339L138.013 211.718L133.234 206.939L138.044 202.161L133.424 197.54L128.645 202.319L123.867 197.54L119.246 202.161L124.025 206.939L119.246 211.718L123.867 216.339L128.645 211.56L133.424 216.339Z" fill="#011E50"/>
<path d="M156.716 239.599L161.305 235.01L156.526 230.232L161.305 225.453L156.716 220.833L151.937 225.611L147.159 220.833L142.538 225.453L147.317 230.232L142.538 235.01L147.159 239.599L151.937 234.82L156.716 239.599Z" fill="#011E50"/>
<path d="M180.008 262.891L184.597 258.302L179.818 253.524L184.597 248.745L180.008 244.125L175.229 248.903L170.451 244.125L165.83 248.745L170.609 253.524L165.83 258.302L170.451 262.891L175.229 258.112L180.008 262.891Z" fill="#011E50"/>
<path d="M14.1778 162.504L18.7666 157.858L13.988 153.054L18.7666 148.249L14.1462 143.604L9.39915 148.409L4.62046 143.604L0 148.249L4.77869 153.054L0 157.858L4.62046 162.504L9.39915 157.699L14.1778 162.504Z" fill="#011E50"/>
<path d="M37.4382 185.89L42.0586 181.277L37.2799 176.472L42.0586 171.668L37.4382 167.022L32.6595 171.827L27.8808 167.022L23.292 171.668L28.0707 176.472L23.292 181.277L27.8808 185.89L32.6595 181.118L37.4382 185.89Z" fill="#011E50"/>
<path d="M60.7302 209.308L65.3506 204.695L60.5719 199.89L65.3506 195.086L60.7302 190.44L55.9515 195.245L51.1728 190.44L46.584 195.086L51.3627 199.89L46.584 204.695L51.1728 209.308L55.9515 204.504L60.7302 209.308Z" fill="#011E50"/>
<path d="M84.0222 232.727L88.6426 228.113L83.8639 223.308L88.6426 218.504L84.0222 213.858L79.2435 218.663L74.4648 213.858L69.876 218.504L74.6547 223.308L69.876 228.113L74.4648 232.727L79.2435 227.922L84.0222 232.727Z" fill="#011E50"/>
<path d="M107.314 256.145L111.935 251.531L107.156 246.726L111.935 241.922L107.314 237.276L102.535 242.081L97.7568 237.276L93.168 241.922L97.9467 246.726L93.168 251.531L97.7568 256.145L102.535 251.34L107.314 256.145Z" fill="#011E50"/>
<path d="M130.607 265.708L135.228 261.087L130.449 256.34L135.228 251.562L130.607 246.941L125.828 251.72L121.05 246.941L116.461 251.53L121.208 256.309L116.461 261.087L121.05 265.708L125.828 260.929L130.607 265.708Z" fill="#011E50"/>
<path d="M153.899 289L158.519 284.38L153.741 279.601L158.519 274.822L153.899 270.233L149.12 275.012L144.342 270.233L139.721 274.822L144.5 279.601L139.721 284.38L144.342 289L149.12 284.221L153.899 289Z" fill="#011E50"/>
</g>
</svg>
