<svg width="503" height="308" viewBox="0 0 503 308" fill="none" xmlns="http://www.w3.org/2000/svg">
<g opacity="0.08">
<path d="M21.0217 41.983C16.8703 41.994 12.809 40.7708 9.3526 38.4684C5.89622 36.166 3.20033 32.8882 1.60657 29.0502C0.01282 25.2123 -0.407047 20.987 0.400184 16.9099C1.20742 12.8328 3.2054 9.08734 6.14094 6.14829C9.07648 3.20924 12.8174 1.20886 16.8897 0.400663C20.9619 -0.407534 25.1821 0.0128353 29.0155 1.6085C32.8489 3.20416 36.1228 5.90328 38.4224 9.3638C40.722 12.8243 41.9438 16.8904 41.9329 21.0469C41.9183 26.595 39.7104 31.9117 35.792 35.8348C31.8736 39.758 26.5632 41.9684 21.0217 41.983ZM21.0217 5.59399C17.9667 5.58303 14.9772 6.48 12.4318 8.1713C9.88635 9.86261 7.89948 12.2722 6.7228 15.0948C5.54612 17.9175 5.23256 21.0263 5.82184 24.0275C6.41112 27.0287 7.87672 29.7873 10.033 31.954C12.1894 34.1206 14.9394 35.5979 17.9349 36.1987C20.9304 36.7994 24.0365 36.4966 26.86 35.3287C29.6835 34.1608 32.0973 32.1802 33.7957 29.6378C35.4942 27.0954 36.4008 24.1055 36.4008 21.0469C36.4008 16.9581 34.7823 13.036 31.8998 10.1396C29.0172 7.24318 25.1056 5.60865 21.0217 5.59399Z" fill="black"/>
<path d="M86.7423 41.9836C82.5932 41.9836 78.5373 40.751 75.0882 38.442C71.6391 36.133 68.9518 32.8513 67.3666 29.0123C65.7813 25.1734 65.3693 20.9499 66.1828 16.8764C66.9963 12.8029 68.9987 9.06269 71.9364 6.12919C74.8742 3.19568 78.6152 1.20081 82.6859 0.397114C86.7567 -0.406584 90.9741 0.0170291 94.8042 1.61433C98.6344 3.21162 101.905 5.91078 104.202 9.3701C106.499 12.8294 107.72 16.8934 107.709 21.0474C107.694 26.6051 105.479 31.9302 101.548 35.8549C97.6179 39.7796 92.2934 41.9836 86.7423 41.9836ZM86.7423 5.59455C83.6896 5.59455 80.7056 6.50085 78.1674 8.19883C75.6292 9.89682 73.6509 12.3102 72.4827 15.1339C71.3145 17.9575 71.0089 21.0646 71.6044 24.0621C72.2 27.0597 73.67 29.8132 75.8285 31.9743C77.987 34.1354 80.7372 35.6071 83.7312 36.2034C86.7252 36.7997 89.8285 36.4936 92.6488 35.324C95.469 34.1544 97.8796 32.1738 99.5755 29.6326C101.271 27.0914 102.177 24.1037 102.177 21.0474C102.177 16.9491 100.551 13.0186 97.6561 10.1206C94.7615 7.22262 90.8357 5.59455 86.7423 5.59455Z" fill="black"/>
<path d="M152.464 41.9836C148.315 41.9836 144.259 40.751 140.81 38.442C137.361 36.133 134.673 32.8513 133.088 29.0123C131.503 25.1734 131.091 20.9499 131.904 16.8764C132.718 12.8029 134.72 9.06269 137.658 6.12919C140.596 3.19568 144.337 1.20081 148.408 0.397114C152.478 -0.406584 156.696 0.0170291 160.526 1.61433C164.356 3.21162 167.627 5.91078 169.924 9.3701C172.221 12.8294 173.441 16.8934 173.43 21.0474C173.416 26.6051 171.2 31.9302 167.27 35.8549C163.34 39.7796 158.015 41.9836 152.464 41.9836ZM152.464 5.59455C149.411 5.59455 146.427 6.50085 143.889 8.19883C141.351 9.89682 139.373 12.3102 138.204 15.1339C137.036 17.9575 136.731 21.0646 137.326 24.0621C137.922 27.0597 139.392 29.8132 141.55 31.9743C143.709 34.1354 146.459 35.6071 149.453 36.2034C152.447 36.7997 155.55 36.4936 158.37 35.324C161.191 34.1544 163.601 32.1738 165.297 29.6326C166.993 27.0914 167.898 24.1037 167.898 21.0474C167.898 16.9491 166.272 13.0186 163.378 10.1206C160.483 7.22262 156.557 5.59455 152.464 5.59455Z" fill="black"/>
<path d="M218.239 41.9835C214.088 41.9945 210.026 40.7713 206.57 38.4689C203.114 36.1665 200.418 32.8887 198.824 29.0507C197.23 25.2128 196.81 20.9875 197.617 16.9104C198.425 12.8332 200.423 9.08783 203.358 6.14878C206.294 3.20973 210.035 1.20935 214.107 0.401151C218.179 -0.407046 222.399 0.0133236 226.233 1.60899C230.066 3.20465 233.34 5.90377 235.64 9.36428C237.939 12.8248 239.161 16.8909 239.15 21.0474C239.136 26.5955 236.928 31.9122 233.009 35.8353C229.091 39.7584 223.78 41.9689 218.239 41.9835ZM218.239 5.59448C215.184 5.58352 212.195 6.48048 209.649 8.17179C207.104 9.8631 205.117 12.2727 203.94 15.0953C202.763 17.918 202.45 21.0268 203.039 24.028C203.628 27.0292 205.094 29.7878 207.25 31.9545C209.407 34.1211 212.157 35.5984 215.152 36.1991C218.148 36.7999 221.254 36.4971 224.077 35.3292C226.901 34.1612 229.315 32.1807 231.013 29.6383C232.711 27.0959 233.618 24.106 233.618 21.0474C233.618 16.9586 232 13.0364 229.117 10.1401C226.234 7.24367 222.323 5.60913 218.239 5.59448Z" fill="black"/>
<path d="M283.961 41.9836C279.811 41.9836 275.756 40.751 272.306 38.442C268.857 36.133 266.17 32.8513 264.585 29.0123C263 25.1734 262.588 20.9499 263.401 16.8764C264.215 12.8029 266.217 9.06269 269.155 6.12919C272.092 3.19568 275.833 1.20081 279.904 0.397114C283.975 -0.406584 288.192 0.0170291 292.022 1.61433C295.853 3.21162 299.123 5.91078 301.42 9.3701C303.718 12.8294 304.938 16.8934 304.927 21.0474C304.912 26.6051 302.697 31.9302 298.767 35.8549C294.836 39.7796 289.512 41.9836 283.961 41.9836ZM283.961 5.59455C280.908 5.59455 277.924 6.50085 275.386 8.19883C272.847 9.89682 270.869 12.3102 269.701 15.1339C268.533 17.9575 268.227 21.0646 268.823 24.0621C269.418 27.0597 270.888 29.8132 273.047 31.9743C275.205 34.1354 277.955 35.6071 280.949 36.2034C283.943 36.7997 287.047 36.4936 289.867 35.324C292.687 34.1544 295.098 32.1738 296.794 29.6326C298.49 27.0914 299.395 24.1037 299.395 21.0474C299.395 16.9491 297.769 13.0186 294.874 10.1206C291.98 7.22262 288.054 5.59455 283.961 5.59455Z" fill="black"/>
<path d="M349.736 41.9836C345.587 41.9836 341.531 40.751 338.082 38.442C334.633 36.133 331.945 32.8513 330.36 29.0123C328.775 25.1734 328.363 20.9499 329.176 16.8764C329.99 12.8029 331.992 9.06269 334.93 6.12919C337.868 3.19568 341.609 1.20081 345.68 0.397114C349.75 -0.406584 353.968 0.0170291 357.798 1.61433C361.628 3.21162 364.899 5.91078 367.196 9.3701C369.493 12.8294 370.713 16.8934 370.702 21.0474C370.688 26.6051 368.472 31.9302 364.542 35.8549C360.612 39.7796 355.287 41.9836 349.736 41.9836ZM349.736 5.59455C346.683 5.59455 343.699 6.50085 341.161 8.19883C338.623 9.89682 336.645 12.3102 335.476 15.1339C334.308 17.9575 334.003 21.0646 334.598 24.0621C335.194 27.0597 336.664 29.8132 338.822 31.9743C340.981 34.1354 343.731 35.6071 346.725 36.2034C349.719 36.7997 352.822 36.4936 355.642 35.324C358.463 34.1544 360.873 32.1738 362.569 29.6326C364.265 27.0914 365.17 24.1037 365.17 21.0474C365.17 16.9491 363.544 13.0186 360.65 10.1206C357.755 7.22262 353.829 5.59455 349.736 5.59455Z" fill="black"/>
<path d="M415.458 41.9836C411.308 41.9836 407.253 40.751 403.804 38.442C400.354 36.133 397.667 32.8513 396.082 29.0123C394.497 25.1734 394.085 20.9499 394.898 16.8764C395.712 12.8029 397.714 9.06269 400.652 6.12919C403.589 3.19568 407.331 1.20081 411.401 0.397114C415.472 -0.406584 419.689 0.0170291 423.52 1.61433C427.35 3.21162 430.62 5.91078 432.918 9.3701C435.215 12.8294 436.435 16.8934 436.424 21.0474C436.424 23.8015 435.881 26.5285 434.827 29.0722C433.773 31.6159 432.227 33.9263 430.28 35.8712C428.332 37.816 426.02 39.357 423.477 40.4059C420.933 41.4547 418.208 41.9909 415.458 41.9836ZM415.458 5.59455C412.405 5.59455 409.421 6.50085 406.883 8.19883C404.345 9.89682 402.366 12.3102 401.198 15.1339C400.03 17.9575 399.724 21.0646 400.32 24.0621C400.915 27.0597 402.385 29.8131 404.544 31.9743C406.702 34.1354 409.453 35.6071 412.447 36.2034C415.44 36.7996 418.544 36.4936 421.364 35.324C424.184 34.1544 426.595 32.1738 428.291 29.6326C429.987 27.0914 430.892 24.1037 430.892 21.0474C430.892 16.9491 429.266 13.0186 426.371 10.1206C423.477 7.22262 419.551 5.59455 415.458 5.59455Z" fill="black"/>
<path d="M481.343 49.0955C477.192 49.1065 473.131 47.8767 469.674 45.5619C466.218 43.2471 463.522 39.9515 461.928 36.0928C460.335 32.2341 459.915 27.986 460.722 23.8868C461.529 19.7876 463.527 16.022 466.463 13.067C469.398 10.1121 473.139 8.10089 477.211 7.28833C481.284 6.47576 485.504 6.8984 489.337 8.50269C493.171 10.107 496.445 12.8207 498.744 16.2999C501.044 19.7791 502.266 23.8673 502.255 28.0462C502.24 33.6243 500.032 38.9697 496.114 42.9141C492.195 46.8584 486.885 49.0808 481.343 49.0955ZM481.343 12.5097C478.288 12.4987 475.299 13.4005 472.754 15.101C470.208 16.8014 468.221 19.224 467.045 22.0619C465.868 24.8999 465.554 28.0255 466.144 31.0429C466.733 34.0603 468.198 36.8338 470.355 39.0122C472.511 41.1906 475.261 42.6758 478.257 43.2799C481.252 43.8839 484.358 43.5795 487.182 42.4052C490.005 41.2309 492.419 39.2396 494.117 36.6835C495.816 34.1273 496.723 31.1213 496.723 28.0462C496.723 23.9353 495.104 19.9919 492.221 17.0799C489.339 14.1678 485.427 12.5245 481.343 12.5097Z" fill="black"/>
<path d="M21.0223 106.177C16.8732 106.188 12.8141 104.966 9.3589 102.666C5.90372 100.366 3.20779 97.0914 1.6124 93.2567C0.0170094 89.4219 -0.406097 85.1995 0.39664 81.1239C1.19938 77.0483 3.19186 73.3028 6.12186 70.3615C9.05186 67.4203 12.7876 65.4155 16.8562 64.601C20.9248 63.7866 25.1433 64.199 28.9776 65.7862C32.812 67.3733 36.0898 70.0638 38.3961 73.5171C40.7023 76.9703 41.9334 81.031 41.9334 85.1851C41.9334 90.7428 39.7321 96.0737 35.8121 100.009C31.892 103.944 26.5733 106.162 21.0223 106.177ZM21.0223 69.7876C17.965 69.7766 14.9733 70.675 12.4266 72.3688C9.87999 74.0626 7.89315 76.4754 6.71811 79.3013C5.54306 82.1272 5.23275 85.2388 5.82652 88.2415C6.4203 91.2442 7.89141 94.0028 10.0533 96.1672C12.2151 98.3317 14.9704 99.8046 17.9695 100.399C20.9686 100.994 24.0765 100.683 26.899 99.5064C29.7216 98.3299 32.1315 96.3407 33.8233 93.791C35.515 91.2413 36.4123 88.2461 36.4014 85.1851C36.3868 81.1059 34.7618 77.198 31.8808 74.3135C28.9998 71.4291 25.0966 69.8022 21.0223 69.7876Z" fill="black"/>
<path d="M86.7424 106.176C82.5956 106.176 78.5419 104.945 75.094 102.639C71.6461 100.332 68.9588 97.0537 67.3719 93.218C65.785 89.3823 65.3698 85.1616 66.1788 81.0897C66.9877 77.0177 68.9846 73.2774 71.9168 70.3417C74.849 67.4059 78.5849 65.4067 82.652 64.5967C86.7191 63.7868 90.9348 64.2025 94.7659 65.7913C98.597 67.3801 101.872 70.0706 104.175 73.5226C106.479 76.9747 107.709 81.0332 107.709 85.1849C107.709 90.7522 105.5 96.0915 101.568 100.028C97.6359 103.965 92.303 106.176 86.7424 106.176ZM86.7424 69.7874C83.6874 69.7874 80.7011 70.6952 78.1617 72.3956C75.6224 74.096 73.6441 76.5127 72.4776 79.3396C71.311 82.1665 71.0086 85.2764 71.6087 88.2754C72.2087 91.2745 73.6842 94.0278 75.8483 96.1867C78.0124 98.3456 80.7677 99.813 83.7653 100.403C86.7629 100.993 89.868 100.679 92.6873 99.5009C95.5066 98.3229 97.9132 96.3336 99.6025 93.7851C101.292 91.2366 102.188 88.2435 102.177 85.1849C102.162 81.0962 100.53 77.1799 97.6366 74.2939C94.7437 71.4079 90.8263 69.7874 86.7424 69.7874Z" fill="black"/>
<path d="M152.464 106.176C148.317 106.176 144.264 104.945 140.816 102.639C137.368 100.332 134.68 97.0537 133.094 93.218C131.507 89.3823 131.091 85.1616 131.9 81.0897C132.709 77.0177 134.706 73.2774 137.638 70.3417C140.571 67.4059 144.307 65.4067 148.374 64.5967C152.441 63.7868 156.656 64.2025 160.488 65.7913C164.319 67.3801 167.593 70.0706 169.897 73.5226C172.201 76.9747 173.43 81.0332 173.43 85.1849C173.43 90.7522 171.222 96.0915 167.29 100.028C163.358 103.965 158.025 106.176 152.464 106.176ZM152.464 69.7874C149.409 69.7874 146.423 70.6952 143.883 72.3956C141.344 74.096 139.366 76.5127 138.199 79.3396C137.033 82.1665 136.73 85.2764 137.33 88.2754C137.93 91.2745 139.406 94.0278 141.57 96.1867C143.734 98.3456 146.489 99.813 149.487 100.403C152.485 100.993 155.59 100.679 158.409 99.5009C161.228 98.3229 163.635 96.3336 165.324 93.7851C167.013 91.2366 167.909 88.2435 167.898 85.1849C167.884 81.0962 166.251 77.1799 163.358 74.2939C160.465 71.4079 156.548 69.7874 152.464 69.7874Z" fill="black"/>
<path d="M218.239 106.177C214.09 106.188 210.031 104.966 206.576 102.666C203.121 100.366 200.425 97.0914 198.829 93.2567C197.234 89.4219 196.811 85.1995 197.613 81.1239C198.416 77.0483 200.409 73.3028 203.339 70.3615C206.269 67.4203 210.004 65.4155 214.073 64.601C218.142 63.7866 222.36 64.199 226.194 65.7862C230.029 67.3733 233.307 70.0638 235.613 73.5171C237.919 76.9703 239.15 81.031 239.15 85.1851C239.15 90.7428 236.949 96.0737 233.029 100.009C229.109 103.944 223.79 106.162 218.239 106.177ZM218.239 69.7876C215.182 69.7766 212.19 70.675 209.643 72.3688C207.097 74.0626 205.11 76.4754 203.935 79.3013C202.76 82.1272 202.45 85.2388 203.043 88.2415C203.637 91.2442 205.108 94.0028 207.27 96.1672C209.432 98.3317 212.187 99.8046 215.186 100.399C218.185 100.994 221.293 100.683 224.116 99.5064C226.938 98.3299 229.348 96.3407 231.04 93.791C232.732 91.2413 233.629 88.2461 233.618 85.1851C233.604 81.1059 231.979 77.198 229.098 74.3135C226.217 71.4291 222.313 69.8022 218.239 69.7876Z" fill="black"/>
<path d="M283.961 106.176C279.814 106.176 275.76 104.945 272.312 102.639C268.864 100.332 266.177 97.0537 264.59 93.218C263.003 89.3823 262.588 85.1616 263.397 81.0897C264.206 77.0177 266.203 73.2774 269.135 70.3417C272.067 67.4059 275.803 65.4067 279.87 64.5967C283.937 63.7868 288.153 64.2025 291.984 65.7913C295.815 67.3801 299.09 70.0706 301.394 73.5226C303.697 76.9747 304.927 81.0332 304.927 85.1849C304.927 90.7522 302.718 96.0915 298.786 100.028C294.854 103.965 289.521 106.176 283.961 106.176ZM283.961 69.7874C280.906 69.7874 277.919 70.6952 275.38 72.3956C272.841 74.096 270.862 76.5127 269.696 79.3396C268.529 82.1665 268.227 85.2764 268.827 88.2754C269.427 91.2745 270.902 94.0278 273.067 96.1867C275.231 98.3456 277.986 99.813 280.984 100.403C283.981 100.993 287.086 100.679 289.906 99.5009C292.725 98.3229 295.132 96.3336 296.821 93.7851C298.51 91.2366 299.406 88.2435 299.395 85.1849C299.38 81.0962 297.748 77.1799 294.855 74.2939C291.962 71.4079 288.045 69.7874 283.961 69.7874Z" fill="black"/>
<path d="M349.736 106.176C345.589 106.176 341.536 104.945 338.088 102.639C334.64 100.332 331.952 97.0537 330.366 93.218C328.779 89.3823 328.363 85.1616 329.172 81.0897C329.981 77.0177 331.978 73.2774 334.91 70.3417C337.843 67.4059 341.579 65.4067 345.646 64.5967C349.713 63.7868 353.928 64.2025 357.759 65.7913C361.591 67.3801 364.865 70.0706 367.169 73.5226C369.473 76.9747 370.702 81.0332 370.702 85.1849C370.702 90.7522 368.493 96.0915 364.561 100.028C360.63 103.965 355.297 106.176 349.736 106.176ZM349.736 69.7874C346.681 69.7874 343.695 70.6952 341.155 72.3956C338.616 74.096 336.638 76.5127 335.471 79.3396C334.305 82.1665 334.002 85.2764 334.602 88.2754C335.202 91.2745 336.678 94.0278 338.842 96.1867C341.006 98.3456 343.761 99.813 346.759 100.403C349.757 100.993 352.862 100.679 355.681 99.5009C358.5 98.3229 360.907 96.3336 362.596 93.7851C364.285 91.2366 365.181 88.2435 365.17 85.1849C365.156 81.0962 363.523 77.1799 360.63 74.2939C357.737 71.4079 353.82 69.7874 349.736 69.7874Z" fill="black"/>
<path d="M415.458 106.176C411.311 106.176 407.257 104.945 403.809 102.639C400.361 100.332 397.674 97.0537 396.087 93.218C394.5 89.3823 394.085 85.1616 394.894 81.0897C395.703 77.0177 397.7 73.2774 400.632 70.3417C403.564 67.4059 407.3 65.4067 411.367 64.5967C415.434 63.7868 419.65 64.2025 423.481 65.7913C427.312 67.3801 430.587 70.0706 432.891 73.5226C435.194 76.9747 436.424 81.0332 436.424 85.1849C436.424 90.7522 434.215 96.0915 430.283 100.028C426.351 103.965 421.018 106.176 415.458 106.176ZM415.458 69.7874C412.403 69.7874 409.416 70.6952 406.877 72.3956C404.338 74.096 402.359 76.5127 401.193 79.3396C400.026 82.1665 399.724 85.2764 400.324 88.2754C400.924 91.2745 402.4 94.0278 404.564 96.1867C406.728 98.3456 409.483 99.813 412.481 100.403C415.478 100.993 418.583 100.679 421.403 99.5009C424.222 98.3229 426.629 96.3336 428.318 93.7851C430.007 91.2366 430.903 88.2435 430.892 85.1849C430.877 81.0962 429.245 77.1799 426.352 74.2939C423.459 71.4079 419.542 69.7874 415.458 69.7874Z" fill="black"/>
<path d="M481.344 113.636C477.194 113.647 473.135 112.419 469.68 110.106C466.225 107.794 463.529 104.502 461.934 100.646C460.338 96.7906 459.915 92.5453 460.718 88.4477C461.521 84.35 463.513 80.5842 466.443 77.6271C469.373 74.6699 473.109 72.6543 477.178 71.8354C481.246 71.0165 485.465 71.4312 489.299 73.027C493.133 74.6227 496.411 77.3278 498.717 80.7997C501.024 84.2716 502.255 88.3543 502.255 92.5308C502.255 98.1186 500.053 103.478 496.133 107.435C492.213 111.391 486.895 113.621 481.344 113.636ZM481.344 77.05C478.286 77.039 475.295 77.9423 472.748 79.6452C470.201 81.3481 468.214 83.774 467.039 86.6152C465.864 89.4564 465.554 92.5848 466.148 95.6038C466.742 98.6227 468.213 101.396 470.375 103.572C472.536 105.749 475.292 107.229 478.291 107.827C481.29 108.425 484.398 108.112 487.22 106.93C490.043 105.747 492.453 103.747 494.145 101.183C495.836 98.6198 496.734 95.6084 496.723 92.5308C496.708 88.4296 495.083 84.5005 492.202 81.6005C489.321 78.7004 485.418 77.0647 481.344 77.05Z" fill="black"/>
<path d="M21.0219 170.314C16.8611 170.325 12.7912 169.096 9.33026 166.784C5.86931 164.471 3.17381 161.18 1.58686 157.329C-0.000104591 153.478 -0.406759 149.242 0.418651 145.159C1.24406 141.076 3.26421 137.331 6.22196 134.401C9.17972 131.471 12.9413 129.488 17.028 128.705C21.1147 127.923 25.3417 128.375 29.1709 130.004C33.0001 131.634 36.2584 134.368 38.531 137.857C40.8037 141.347 41.9879 145.434 41.9331 149.6C41.8605 155.109 39.6271 160.37 35.7149 164.245C31.8027 168.12 26.5254 170.3 21.0219 170.314ZM21.0219 133.925C17.9764 133.915 14.9959 134.806 12.4555 136.488C9.91509 138.17 7.9284 140.567 6.74552 143.376C5.56265 146.186 5.23646 149.283 5.80803 152.278C6.37959 155.273 7.82336 158.032 9.95758 160.207C12.0918 162.382 14.8211 163.877 17.8018 164.502C20.7825 165.128 23.8814 164.857 26.7085 163.723C29.5355 162.589 31.9643 160.643 33.689 158.13C35.4137 155.616 36.3573 152.649 36.401 149.6C36.4303 147.557 36.0545 145.528 35.2954 143.631C34.5364 141.734 33.4091 140.007 31.9788 138.549C30.5485 137.091 28.8437 135.932 26.9629 135.139C25.0822 134.345 23.0629 133.933 21.0219 133.925Z" fill="black"/>
<path d="M86.743 170.314C82.5845 170.314 78.52 169.076 75.0664 166.757C71.6127 164.438 68.9259 161.143 67.3474 157.291C65.769 153.439 65.3702 149.204 66.2019 145.125C67.0336 141.045 69.0581 137.306 72.018 134.381C74.978 131.457 78.7397 129.48 82.8248 128.701C86.91 127.923 91.134 128.378 94.96 130.01C98.786 131.641 102.041 134.375 104.311 137.863C106.581 141.351 107.764 145.437 107.709 149.6C107.637 155.119 105.396 160.387 101.472 164.264C97.5474 168.141 92.256 170.315 86.743 170.314ZM86.743 133.925C83.6998 133.926 80.7247 134.827 78.1915 136.515C75.6584 138.203 73.6802 140.604 72.5058 143.415C71.3314 146.225 71.0131 149.321 71.5909 152.312C72.1687 155.304 73.6169 158.057 75.7534 160.227C77.8898 162.397 80.6192 163.886 83.5985 164.507C86.5778 165.128 89.6739 164.853 92.4978 163.717C95.3216 162.582 97.7471 160.636 99.4693 158.124C101.192 155.612 102.134 152.646 102.177 149.6C102.207 147.552 101.829 145.519 101.067 143.618C100.304 141.718 99.1719 139.988 97.7357 138.529C96.2996 137.071 94.5882 135.913 92.701 135.122C90.8139 134.332 88.7886 133.925 86.743 133.925Z" fill="black"/>
<path d="M152.463 170.314C148.305 170.314 144.24 169.076 140.787 166.757C137.333 164.438 134.646 161.143 133.068 157.291C131.489 153.439 131.09 149.204 131.922 145.125C132.754 141.045 134.778 137.306 137.738 134.381C140.698 131.457 144.46 129.48 148.545 128.701C152.63 127.923 156.854 128.378 160.68 130.01C164.506 131.641 167.761 134.375 170.031 137.863C172.302 141.351 173.485 145.437 173.43 149.6C173.371 155.124 171.135 160.4 167.208 164.28C163.28 168.16 157.981 170.329 152.463 170.314ZM152.463 133.925C149.42 133.926 146.445 134.827 143.912 136.515C141.379 138.203 139.4 140.604 138.226 143.415C137.052 146.225 136.733 149.321 137.311 152.312C137.889 155.304 139.337 158.057 141.474 160.227C143.61 162.397 146.339 163.886 149.319 164.507C152.298 165.128 155.394 164.853 158.218 163.717C161.042 162.582 163.467 160.636 165.19 158.124C166.912 155.612 167.854 152.646 167.898 149.6C167.927 147.552 167.549 145.519 166.787 143.618C166.024 141.718 164.892 139.988 163.456 138.529C162.02 137.071 160.308 135.913 158.421 135.122C156.534 134.332 154.509 133.925 152.463 133.925Z" fill="black"/>
<path d="M218.24 170.314C214.079 170.325 210.009 169.096 206.548 166.784C203.087 164.471 200.392 161.18 198.805 157.329C197.218 153.478 196.811 149.242 197.636 145.159C198.462 141.076 200.482 137.331 203.44 134.401C206.397 131.471 210.159 129.488 214.246 128.705C218.332 127.923 222.559 128.375 226.389 130.004C230.218 131.634 233.476 134.368 235.749 137.857C238.021 141.347 239.206 145.434 239.151 149.6C239.078 155.109 236.845 160.37 232.933 164.245C229.02 168.12 223.743 170.3 218.24 170.314ZM218.24 133.925C215.194 133.915 212.214 134.806 209.673 136.488C207.133 138.17 205.146 140.567 203.963 143.376C202.78 146.186 202.454 149.283 203.026 152.278C203.597 155.273 205.041 158.032 207.175 160.207C209.31 162.382 212.039 163.877 215.02 164.502C218 165.128 221.099 164.857 223.926 163.723C226.753 162.589 229.182 160.643 230.907 158.13C232.632 155.616 233.575 152.649 233.619 149.6C233.648 147.557 233.272 145.528 232.513 143.631C231.754 141.734 230.627 140.007 229.197 138.549C227.766 137.091 226.061 135.932 224.181 135.139C222.3 134.345 220.281 133.933 218.24 133.925Z" fill="black"/>
<path d="M283.96 170.314C279.802 170.314 275.737 169.076 272.284 166.757C268.83 164.438 266.143 161.143 264.565 157.291C262.986 153.439 262.588 149.204 263.419 145.125C264.251 141.045 266.275 137.306 269.235 134.381C272.195 131.457 275.957 129.48 280.042 128.701C284.127 127.923 288.351 128.378 292.177 130.01C296.003 131.641 299.258 134.375 301.528 137.863C303.799 141.351 304.982 145.437 304.927 149.6C304.868 155.124 302.632 160.4 298.705 164.28C294.777 168.16 289.478 170.329 283.96 170.314ZM283.96 133.925C280.917 133.926 277.942 134.827 275.409 136.515C272.876 138.203 270.898 140.604 269.723 143.415C268.549 146.225 268.23 149.321 268.808 152.312C269.386 155.304 270.834 158.057 272.971 160.227C275.107 162.397 277.837 163.886 280.816 164.507C283.795 165.128 286.891 164.853 289.715 163.717C292.539 162.582 294.964 160.636 296.687 158.124C298.409 155.612 299.351 152.646 299.395 149.6C299.424 147.552 299.046 145.519 298.284 143.618C297.521 141.718 296.389 139.988 294.953 138.529C293.517 137.071 291.805 135.913 289.918 135.122C288.031 134.332 286.006 133.925 283.96 133.925Z" fill="black"/>
<path d="M349.737 170.314C345.579 170.314 341.514 169.076 338.061 166.757C334.607 164.438 331.92 161.143 330.342 157.291C328.763 153.439 328.364 149.204 329.196 145.125C330.028 141.045 332.052 137.306 335.012 134.381C337.972 131.457 341.734 129.48 345.819 128.701C349.904 127.923 354.128 128.378 357.954 130.01C361.78 131.641 365.035 134.375 367.305 137.863C369.576 141.351 370.758 145.437 370.704 149.6C370.631 155.119 368.39 160.387 364.466 164.264C360.542 168.141 355.25 170.315 349.737 170.314ZM349.737 133.925C346.694 133.926 343.719 134.827 341.186 136.515C338.652 138.203 336.674 140.604 335.5 143.415C334.326 146.225 334.007 149.321 334.585 152.312C335.163 155.304 336.611 158.057 338.748 160.227C340.884 162.397 343.613 163.886 346.593 164.507C349.572 165.128 352.668 164.853 355.492 163.717C358.316 162.582 360.741 160.636 362.463 158.124C364.186 155.612 365.128 152.646 365.172 149.6C365.201 147.552 364.823 145.519 364.061 143.618C363.298 141.718 362.166 139.988 360.73 138.529C359.294 137.071 357.582 135.913 355.695 135.122C353.808 134.332 351.783 133.925 349.737 133.925Z" fill="black"/>
<path d="M415.457 170.314C411.299 170.314 407.234 169.076 403.781 166.757C400.327 164.438 397.64 161.143 396.062 157.291C394.483 153.439 394.085 149.204 394.916 145.125C395.748 141.045 397.772 137.306 400.732 134.381C403.692 131.457 407.454 129.48 411.539 128.701C415.624 127.923 419.848 128.378 423.674 130.01C427.5 131.641 430.755 134.375 433.025 137.863C435.296 141.351 436.479 145.437 436.424 149.6C436.365 155.124 434.129 160.4 430.202 164.28C426.274 168.16 420.975 170.329 415.457 170.314ZM415.457 133.925C412.414 133.926 409.439 134.827 406.906 136.515C404.373 138.203 402.395 140.604 401.22 143.415C400.046 146.225 399.727 149.321 400.305 152.312C400.883 155.304 402.331 158.057 404.468 160.227C406.604 162.397 409.334 163.886 412.313 164.507C415.292 165.128 418.388 164.853 421.212 163.717C424.036 162.582 426.461 160.636 428.184 158.124C429.906 155.612 430.848 152.646 430.892 149.6C430.921 147.552 430.543 145.519 429.781 143.618C429.018 141.718 427.886 139.988 426.45 138.529C425.014 137.071 423.303 135.913 421.415 135.122C419.528 134.332 417.503 133.925 415.457 133.925Z" fill="black"/>
<path d="M481.344 178.121C477.179 178.153 473.098 176.937 469.623 174.625C466.147 172.314 463.435 169.013 461.831 165.143C460.227 161.273 459.804 157.01 460.617 152.898C461.43 148.785 463.441 145.01 466.394 142.053C469.348 139.096 473.109 137.091 477.199 136.295C481.289 135.499 485.521 135.947 489.357 137.582C493.193 139.217 496.457 141.966 498.735 145.476C501.013 148.987 502.2 153.101 502.145 157.294C502.073 162.814 499.855 168.086 495.966 171.979C492.078 175.873 486.829 178.077 481.344 178.121ZM481.344 141.535C478.294 141.502 475.303 142.38 472.748 144.057C470.194 145.734 468.19 148.136 466.99 150.959C465.79 153.782 465.448 156.899 466.007 159.917C466.566 162.936 468.001 165.72 470.131 167.918C472.26 170.116 474.989 171.63 477.973 172.268C480.956 172.906 484.061 172.64 486.894 171.503C489.728 170.366 492.163 168.41 493.893 165.881C495.622 163.352 496.569 160.364 496.613 157.294C496.642 155.249 496.27 153.218 495.518 151.318C494.766 149.419 493.648 147.687 492.23 146.223C490.811 144.759 489.119 143.591 487.251 142.786C485.383 141.982 483.376 141.556 481.344 141.535Z" fill="black"/>
<path d="M21.0223 234.508C16.8732 234.519 12.8141 233.297 9.3589 230.997C5.90372 228.697 3.20779 225.422 1.6124 221.588C0.0170094 217.753 -0.406097 213.53 0.39664 209.455C1.19938 205.379 3.19186 201.634 6.12186 198.692C9.05186 195.751 12.7876 193.746 16.8562 192.932C20.9248 192.117 25.1433 192.53 28.9776 194.117C32.812 195.704 36.0898 198.395 38.3961 201.848C40.7023 205.301 41.9334 209.362 41.9334 213.516C41.9334 219.074 39.7321 224.405 35.8121 228.34C31.892 232.275 26.5733 234.493 21.0223 234.508ZM21.0223 198.119C17.965 198.108 14.9733 199.006 12.4266 200.7C9.87999 202.393 7.89315 204.806 6.71811 207.632C5.54306 210.458 5.23275 213.57 5.82652 216.572C6.4203 219.575 7.89141 222.334 10.0533 224.498C12.2151 226.663 14.9704 228.135 17.9695 228.73C20.9686 229.324 24.0765 229.014 26.899 227.837C29.7216 226.661 32.1315 224.672 33.8233 222.122C35.515 219.572 36.4123 216.577 36.4014 213.516C36.3868 209.437 34.7618 205.529 31.8808 202.644C28.9998 199.76 25.0966 198.133 21.0223 198.119Z" fill="black"/>
<path d="M86.7424 234.508C82.5956 234.508 78.5419 233.276 75.094 230.97C71.6461 228.663 68.9588 225.385 67.3719 221.549C65.785 217.713 65.3698 213.493 66.1788 209.421C66.9877 205.349 68.9846 201.608 71.9168 198.673C74.849 195.737 78.5849 193.738 82.652 192.928C86.7191 192.118 90.9348 192.534 94.7659 194.122C98.597 195.711 101.872 198.402 104.175 201.854C106.479 205.306 107.709 209.364 107.709 213.516C107.709 219.083 105.5 224.423 101.568 228.359C97.6359 232.296 92.303 234.508 86.7424 234.508ZM86.7424 198.118C83.6874 198.118 80.7011 199.026 78.1617 200.727C75.6224 202.427 73.6441 204.844 72.4776 207.671C71.311 210.498 71.0086 213.607 71.6087 216.607C72.2087 219.606 73.6842 222.359 75.8483 224.518C78.0124 226.677 80.7677 228.144 83.7653 228.734C86.7629 229.324 89.868 229.01 92.6873 227.832C95.5066 226.654 97.9132 224.665 99.6025 222.116C101.292 219.568 102.188 216.575 102.177 213.516C102.162 209.427 100.53 205.511 97.6366 202.625C94.7437 199.739 90.8263 198.118 86.7424 198.118Z" fill="black"/>
<path d="M152.464 234.508C148.317 234.508 144.264 233.276 140.816 230.97C137.368 228.663 134.68 225.385 133.094 221.549C131.507 217.713 131.091 213.493 131.9 209.421C132.709 205.349 134.706 201.608 137.638 198.673C140.571 195.737 144.307 193.738 148.374 192.928C152.441 192.118 156.656 192.534 160.488 194.122C164.319 195.711 167.593 198.402 169.897 201.854C172.201 205.306 173.43 209.364 173.43 213.516C173.43 219.083 171.222 224.423 167.29 228.359C163.358 232.296 158.025 234.508 152.464 234.508ZM152.464 198.118C149.409 198.118 146.423 199.026 143.883 200.727C141.344 202.427 139.366 204.844 138.199 207.671C137.033 210.498 136.73 213.607 137.33 216.607C137.93 219.606 139.406 222.359 141.57 224.518C143.734 226.677 146.489 228.144 149.487 228.734C152.485 229.324 155.59 229.01 158.409 227.832C161.228 226.654 163.635 224.665 165.324 222.116C167.013 219.568 167.909 216.575 167.898 213.516C167.884 209.427 166.251 205.511 163.358 202.625C160.465 199.739 156.548 198.118 152.464 198.118Z" fill="black"/>
<path d="M218.239 234.508C214.09 234.519 210.031 233.297 206.576 230.997C203.121 228.697 200.425 225.422 198.829 221.588C197.234 217.753 196.811 213.53 197.613 209.455C198.416 205.379 200.409 201.634 203.339 198.692C206.269 195.751 210.004 193.746 214.073 192.932C218.142 192.117 222.36 192.53 226.194 194.117C230.029 195.704 233.307 198.395 235.613 201.848C237.919 205.301 239.15 209.362 239.15 213.516C239.15 219.074 236.949 224.405 233.029 228.34C229.109 232.275 223.79 234.493 218.239 234.508ZM218.239 198.119C215.182 198.108 212.19 199.006 209.643 200.7C207.097 202.393 205.11 204.806 203.935 207.632C202.76 210.458 202.45 213.57 203.043 216.572C203.637 219.575 205.108 222.334 207.27 224.498C209.432 226.663 212.187 228.135 215.186 228.73C218.185 229.324 221.293 229.014 224.116 227.837C226.938 226.661 229.348 224.672 231.04 222.122C232.732 219.572 233.629 216.577 233.618 213.516C233.604 209.437 231.979 205.529 229.098 202.644C226.217 199.76 222.313 198.133 218.239 198.119Z" fill="black"/>
<path d="M283.961 234.508C279.814 234.508 275.76 233.276 272.312 230.97C268.864 228.663 266.177 225.385 264.59 221.549C263.003 217.713 262.588 213.493 263.397 209.421C264.206 205.349 266.203 201.608 269.135 198.673C272.067 195.737 275.803 193.738 279.87 192.928C283.937 192.118 288.153 192.534 291.984 194.122C295.815 195.711 299.09 198.402 301.394 201.854C303.697 205.306 304.927 209.364 304.927 213.516C304.927 219.083 302.718 224.423 298.786 228.359C294.854 232.296 289.521 234.508 283.961 234.508ZM283.961 198.118C280.906 198.118 277.919 199.026 275.38 200.727C272.841 202.427 270.862 204.844 269.696 207.671C268.529 210.498 268.227 213.607 268.827 216.607C269.427 219.606 270.902 222.359 273.067 224.518C275.231 226.677 277.986 228.144 280.984 228.734C283.981 229.324 287.086 229.01 289.906 227.832C292.725 226.654 295.132 224.665 296.821 222.116C298.51 219.568 299.406 216.575 299.395 213.516C299.38 209.427 297.748 205.511 294.855 202.625C291.962 199.739 288.045 198.118 283.961 198.118Z" fill="black"/>
<path d="M349.736 234.508C345.589 234.508 341.536 233.276 338.088 230.97C334.64 228.663 331.952 225.385 330.366 221.549C328.779 217.713 328.363 213.493 329.172 209.421C329.981 205.349 331.978 201.608 334.91 198.673C337.843 195.737 341.579 193.738 345.646 192.928C349.713 192.118 353.928 192.534 357.759 194.122C361.591 195.711 364.865 198.402 367.169 201.854C369.473 205.306 370.702 209.364 370.702 213.516C370.702 219.083 368.493 224.423 364.561 228.359C360.63 232.296 355.297 234.508 349.736 234.508ZM349.736 198.118C346.681 198.118 343.695 199.026 341.155 200.727C338.616 202.427 336.638 204.844 335.471 207.671C334.305 210.498 334.002 213.607 334.602 216.607C335.202 219.606 336.678 222.359 338.842 224.518C341.006 226.677 343.761 228.144 346.759 228.734C349.757 229.324 352.862 229.01 355.681 227.832C358.5 226.654 360.907 224.665 362.596 222.116C364.285 219.568 365.181 216.575 365.17 213.516C365.156 209.427 363.523 205.511 360.63 202.625C357.737 199.739 353.82 198.118 349.736 198.118Z" fill="black"/>
<path d="M415.458 234.508C411.311 234.508 407.257 233.276 403.809 230.97C400.361 228.663 397.674 225.385 396.087 221.549C394.5 217.713 394.085 213.493 394.894 209.421C395.703 205.349 397.7 201.608 400.632 198.673C403.564 195.737 407.3 193.738 411.367 192.928C415.434 192.118 419.65 192.534 423.481 194.122C427.312 195.711 430.587 198.402 432.891 201.854C435.194 205.306 436.424 209.364 436.424 213.516C436.424 219.083 434.215 224.423 430.283 228.359C426.351 232.296 421.018 234.508 415.458 234.508ZM415.458 198.118C412.403 198.118 409.416 199.026 406.877 200.727C404.338 202.427 402.359 204.844 401.193 207.671C400.026 210.498 399.724 213.607 400.324 216.607C400.924 219.606 402.4 222.359 404.564 224.518C406.728 226.677 409.483 228.144 412.481 228.734C415.478 229.324 418.583 229.01 421.403 227.832C424.222 226.654 426.629 224.665 428.318 222.116C430.007 219.568 430.903 216.575 430.892 213.516C430.877 209.427 429.245 205.511 426.352 202.625C423.459 199.739 419.542 198.118 415.458 198.118Z" fill="black"/>
<path d="M481.344 242.661C477.194 242.672 473.135 241.443 469.68 239.131C466.225 236.819 463.529 233.526 461.934 229.671C460.338 225.816 459.915 221.57 460.718 217.473C461.521 213.375 463.513 209.609 466.443 206.652C469.373 203.695 473.109 201.679 477.178 200.86C481.246 200.042 485.465 200.456 489.299 202.052C493.133 203.648 496.411 206.353 498.717 209.825C501.024 213.297 502.255 217.379 502.255 221.556C502.255 227.144 500.053 232.503 496.133 236.46C492.213 240.416 486.895 242.646 481.344 242.661ZM481.344 206.075C478.286 206.064 475.295 206.967 472.748 208.67C470.201 210.373 468.214 212.799 467.039 215.64C465.864 218.481 465.554 221.61 466.148 224.629C466.742 227.648 468.213 230.421 470.375 232.597C472.536 234.773 475.292 236.254 478.291 236.852C481.29 237.45 484.398 237.137 487.22 235.954C490.043 234.772 492.453 232.772 494.145 230.208C495.836 227.645 496.734 224.633 496.723 221.556C496.708 217.455 495.083 213.525 492.202 210.625C489.321 207.725 485.418 206.09 481.344 206.075Z" fill="black"/>
<path d="M21.0223 298.701C16.8732 298.712 12.8141 297.49 9.3589 295.19C5.90372 292.89 3.20779 289.616 1.6124 285.781C0.0170094 281.946 -0.406097 277.724 0.39664 273.648C1.19938 269.572 3.19186 265.827 6.12186 262.886C9.05186 259.944 12.7876 257.94 16.8562 257.125C20.9248 256.311 25.1433 256.723 28.9776 258.31C32.812 259.898 36.0898 262.588 38.3961 266.041C40.7023 269.494 41.9334 273.555 41.9334 277.709C41.9334 283.267 39.7321 288.598 35.8121 292.533C31.892 296.468 26.5733 298.686 21.0223 298.701ZM21.0223 262.312C17.965 262.301 14.9733 263.199 12.4266 264.893C9.87999 266.587 7.89315 269 6.71811 271.825C5.54306 274.651 5.23275 277.763 5.82652 280.766C6.4203 283.768 7.89141 286.527 10.0533 288.691C12.2151 290.856 14.9704 292.329 17.9695 292.923C20.9686 293.518 24.0765 293.207 26.899 292.031C29.7216 290.854 32.1315 288.865 33.8233 286.315C35.515 283.766 36.4123 280.77 36.4014 277.709C36.3868 273.63 34.7618 269.722 31.8808 266.838C28.9998 263.953 25.0966 262.326 21.0223 262.312Z" fill="black"/>
<path d="M86.7424 298.701C82.5956 298.701 78.5419 297.47 75.094 295.163C71.6461 292.856 68.9588 289.578 67.3719 285.742C65.785 281.907 65.3698 277.686 66.1788 273.614C66.9877 269.542 68.9846 265.802 71.9168 262.866C74.849 259.93 78.5849 257.931 82.652 257.121C86.7191 256.311 90.9348 256.727 94.7659 258.315C98.597 259.904 101.872 262.595 104.175 266.047C106.479 269.499 107.709 273.557 107.709 277.709C107.709 283.276 105.5 288.616 101.568 292.552C97.6359 296.489 92.303 298.701 86.7424 298.701ZM86.7424 262.312C83.6874 262.312 80.7011 263.219 78.1617 264.92C75.6224 266.62 73.6441 269.037 72.4776 271.864C71.311 274.691 71.0086 277.801 71.6087 280.8C72.2087 283.799 73.6842 286.552 75.8483 288.711C78.0124 290.87 80.7677 292.337 83.7653 292.927C86.7629 293.517 89.868 293.203 92.6873 292.025C95.5066 290.847 97.9132 288.858 99.6025 286.309C101.292 283.761 102.188 280.768 102.177 277.709C102.162 273.62 100.53 269.704 97.6366 266.818C94.7437 263.932 90.8263 262.312 86.7424 262.312Z" fill="black"/>
<path d="M152.464 298.701C148.317 298.701 144.264 297.47 140.816 295.163C137.368 292.856 134.68 289.578 133.094 285.742C131.507 281.907 131.091 277.686 131.9 273.614C132.709 269.542 134.706 265.802 137.638 262.866C140.571 259.93 144.307 257.931 148.374 257.121C152.441 256.311 156.656 256.727 160.488 258.315C164.319 259.904 167.593 262.595 169.897 266.047C172.201 269.499 173.43 273.557 173.43 277.709C173.43 283.276 171.222 288.616 167.29 292.552C163.358 296.489 158.025 298.701 152.464 298.701ZM152.464 262.312C149.409 262.312 146.423 263.219 143.883 264.92C141.344 266.62 139.366 269.037 138.199 271.864C137.033 274.691 136.73 277.801 137.33 280.8C137.93 283.799 139.406 286.552 141.57 288.711C143.734 290.87 146.489 292.337 149.487 292.927C152.485 293.517 155.59 293.203 158.409 292.025C161.228 290.847 163.635 288.858 165.324 286.309C167.013 283.761 167.909 280.768 167.898 277.709C167.884 273.62 166.251 269.704 163.358 266.818C160.465 263.932 156.548 262.312 152.464 262.312Z" fill="black"/>
<path d="M218.239 298.701C214.09 298.712 210.031 297.49 206.576 295.19C203.121 292.89 200.425 289.616 198.829 285.781C197.234 281.946 196.811 277.724 197.613 273.648C198.416 269.572 200.409 265.827 203.339 262.886C206.269 259.944 210.004 257.94 214.073 257.125C218.142 256.311 222.36 256.723 226.194 258.31C230.029 259.898 233.307 262.588 235.613 266.041C237.919 269.494 239.15 273.555 239.15 277.709C239.15 283.267 236.949 288.598 233.029 292.533C229.109 296.468 223.79 298.686 218.239 298.701ZM218.239 262.312C215.182 262.301 212.19 263.199 209.643 264.893C207.097 266.587 205.11 269 203.935 271.825C202.76 274.651 202.45 277.763 203.043 280.766C203.637 283.768 205.108 286.527 207.27 288.691C209.432 290.856 212.187 292.329 215.186 292.923C218.185 293.518 221.293 293.207 224.116 292.031C226.938 290.854 229.348 288.865 231.04 286.315C232.732 283.766 233.629 280.77 233.618 277.709C233.604 273.63 231.979 269.722 229.098 266.838C226.217 263.953 222.313 262.326 218.239 262.312Z" fill="black"/>
<path d="M283.961 298.701C279.814 298.701 275.76 297.47 272.312 295.163C268.864 292.856 266.177 289.578 264.59 285.742C263.003 281.907 262.588 277.686 263.397 273.614C264.206 269.542 266.203 265.802 269.135 262.866C272.067 259.93 275.803 257.931 279.87 257.121C283.937 256.311 288.153 256.727 291.984 258.315C295.815 259.904 299.09 262.595 301.394 266.047C303.697 269.499 304.927 273.557 304.927 277.709C304.927 283.276 302.718 288.616 298.786 292.552C294.854 296.489 289.521 298.701 283.961 298.701ZM283.961 262.312C280.906 262.312 277.919 263.219 275.38 264.92C272.841 266.62 270.862 269.037 269.696 271.864C268.529 274.691 268.227 277.801 268.827 280.8C269.427 283.799 270.902 286.552 273.067 288.711C275.231 290.87 277.986 292.337 280.984 292.927C283.981 293.517 287.086 293.203 289.906 292.025C292.725 290.847 295.132 288.858 296.821 286.309C298.51 283.761 299.406 280.768 299.395 277.709C299.38 273.62 297.748 269.704 294.855 266.818C291.962 263.932 288.045 262.312 283.961 262.312Z" fill="black"/>
<path d="M349.736 298.701C345.589 298.701 341.536 297.47 338.088 295.163C334.64 292.856 331.952 289.578 330.366 285.742C328.779 281.907 328.363 277.686 329.172 273.614C329.981 269.542 331.978 265.802 334.91 262.866C337.843 259.93 341.579 257.931 345.646 257.121C349.713 256.311 353.928 256.727 357.759 258.315C361.591 259.904 364.865 262.595 367.169 266.047C369.473 269.499 370.702 273.557 370.702 277.709C370.702 283.276 368.493 288.616 364.561 292.552C360.63 296.489 355.297 298.701 349.736 298.701ZM349.736 262.312C346.681 262.312 343.695 263.219 341.155 264.92C338.616 266.62 336.638 269.037 335.471 271.864C334.305 274.691 334.002 277.801 334.602 280.8C335.202 283.799 336.678 286.552 338.842 288.711C341.006 290.87 343.761 292.337 346.759 292.927C349.757 293.517 352.862 293.203 355.681 292.025C358.5 290.847 360.907 288.858 362.596 286.309C364.285 283.761 365.181 280.768 365.17 277.709C365.156 273.62 363.523 269.704 360.63 266.818C357.737 263.932 353.82 262.312 349.736 262.312Z" fill="black"/>
<path d="M415.458 298.701C411.311 298.701 407.257 297.47 403.809 295.163C400.361 292.856 397.674 289.578 396.087 285.742C394.5 281.907 394.085 277.686 394.894 273.614C395.703 269.542 397.7 265.802 400.632 262.866C403.564 259.93 407.3 257.931 411.367 257.121C415.434 256.311 419.65 256.727 423.481 258.315C427.312 259.904 430.587 262.595 432.891 266.047C435.194 269.499 436.424 273.557 436.424 277.709C436.424 283.276 434.215 288.616 430.283 292.552C426.351 296.489 421.018 298.701 415.458 298.701ZM415.458 262.312C412.403 262.312 409.416 263.219 406.877 264.92C404.338 266.62 402.359 269.037 401.193 271.864C400.026 274.691 399.724 277.801 400.324 280.8C400.924 283.799 402.4 286.552 404.564 288.711C406.728 290.87 409.483 292.337 412.481 292.927C415.478 293.517 418.583 293.203 421.403 292.025C424.222 290.847 426.629 288.858 428.318 286.309C430.007 283.761 430.903 280.768 430.892 277.709C430.877 273.62 429.245 269.704 426.352 266.818C423.459 263.932 419.542 262.312 415.458 262.312Z" fill="black"/>
<path d="M481.344 307.201C477.194 307.212 473.135 305.984 469.68 303.671C466.225 301.359 463.529 298.067 461.934 294.211C460.338 290.356 459.915 286.111 460.718 282.013C461.521 277.915 463.513 274.15 466.443 271.192C469.373 268.235 473.109 266.22 477.178 265.401C481.246 264.582 485.465 264.997 489.299 266.592C493.133 268.188 496.411 270.893 498.717 274.365C501.024 277.837 502.255 281.92 502.255 286.096C502.255 291.684 500.053 297.044 496.133 301C492.213 304.956 486.895 307.186 481.344 307.201ZM481.344 270.615C478.286 270.604 475.295 271.508 472.748 273.211C470.201 274.913 468.214 277.339 467.039 280.18C465.864 283.022 465.554 286.15 466.148 289.169C466.742 292.188 468.213 294.961 470.375 297.138C472.536 299.314 475.292 300.795 478.291 301.392C481.29 301.99 484.398 301.678 487.22 300.495C490.043 299.312 492.453 297.312 494.145 294.749C495.836 292.185 496.734 289.174 496.723 286.096C496.708 281.995 495.083 278.066 492.202 275.166C489.321 272.266 485.418 270.63 481.344 270.615Z" fill="black"/>
</g>
</svg>
