<svg width="347" height="51" viewBox="0 0 347 51" fill="none" xmlns="http://www.w3.org/2000/svg">
<path d="M11.628 43.476C13.532 43.544 13.804 43.476 14.62 42.864C16.048 41.912 17.816 39.668 18.156 38.512C18.224 38.172 18.496 37.628 18.632 37.288C18.972 36.54 19.312 34.976 19.244 34.296C19.244 34.024 19.312 33.752 19.448 33.276C19.652 32.8 19.72 32.256 19.788 31.712C19.788 31.304 19.924 30.624 19.992 30.352C20.128 29.876 20.196 29.536 20.128 28.38C20.128 27.156 20.06 26.952 19.788 26.136C19.448 25.048 19.244 24.708 18.768 24.368C18.36 24.096 18.088 24.096 17.68 24.368C16.592 25.048 17.884 25.32 16.932 30.216C16.592 31.848 16.524 32.324 16.32 32.732C16.184 32.936 16.048 33.344 15.98 33.616C15.912 34.16 15.572 35.316 15.436 35.588C15.368 35.656 15.232 35.996 15.164 36.336C15.028 36.812 14.892 36.948 14.144 37.764C13.668 38.24 13.26 38.648 13.192 38.648C12.852 38.648 12.512 38.308 11.968 37.492C11.56 36.948 11.356 36.472 11.288 36.2C11.152 35.588 11.016 35.316 10.54 34.5C9.18 32.256 9.656 31.848 9.18 30.216C8.908 29.128 8.84 28.516 9.044 27.836C9.18 27.292 9.248 26.748 9.248 24.436C9.248 21.716 9.248 21.648 9.52 20.9C9.656 20.424 9.792 19.812 9.792 19.268C9.86 18.86 9.928 18.248 10.064 17.908L10.268 16.956C10.336 16.752 10.54 16.208 10.812 15.732C11.084 15.256 11.356 14.644 11.424 14.236C11.492 13.896 11.628 13.488 11.696 13.352C11.832 13.148 12.58 12.876 13.124 12.876C14.348 12.876 15.98 14.916 16.592 17.296C16.864 18.248 17 18.52 17.272 18.792C17.612 19.064 17.748 19.064 18.088 18.928C18.36 18.86 18.496 18.656 18.632 18.248C18.972 17.636 18.904 17.704 18.904 14.236C18.7 13.76 17.884 11.788 17.68 11.448C17.544 11.312 17.408 11.04 17.34 10.768C17.204 10.428 17.068 10.156 16.796 9.952L15.844 9.068C15.096 8.32 14.96 8.252 13.6 7.844C12.104 7.436 11.9 7.368 10.676 7.64C9.248 7.98 8.432 8.252 7.48 8.864C6.052 9.748 5.644 10.156 5.236 11.244C5.1 11.516 4.828 11.992 4.624 12.264C4.08 12.808 3.808 13.42 3.604 14.304C3.536 14.712 3.332 15.256 3.128 15.596C2.924 16.004 2.652 16.82 2.448 17.5L1.836 19.608C1.7 20.152 1.564 20.832 1.564 21.172C1.496 21.512 1.36 22.124 1.156 22.532C0.952 23.28 0.884 23.552 0.816 25.116L0.68 27.7C0.612 28.516 0.68 28.788 0.884 29.604L1.156 31.032C1.292 31.712 1.496 32.188 1.972 33.004C2.244 33.412 2.448 34.024 2.584 34.364C2.856 35.52 2.992 35.928 3.4 36.608C4.216 38.172 3.808 38.376 5.1 39.464C5.44 39.804 5.848 40.28 6.052 40.688C6.528 41.436 6.8 41.708 7.684 42.116C7.956 42.252 8.364 42.524 8.568 42.66C9.384 43.34 9.656 43.408 11.628 43.476ZM31.7677 41.504C32.4477 41.504 32.5837 41.504 33.5357 41.232C34.2157 40.96 34.6237 40.756 34.8277 40.552C35.0317 40.348 35.4397 40.076 35.7117 39.94C36.5957 39.396 37.7517 38.172 38.5677 36.88C40.8117 33.548 40.8117 33.548 41.0157 32.528C41.3557 31.032 42.1717 29.536 41.5597 29.264C40.9477 28.924 40.7437 29.604 40.0637 30.352C39.8597 30.556 39.6557 30.828 39.5197 31.032L38.7717 31.984C38.4317 32.324 38.0917 32.868 37.8877 33.208C37.5477 33.956 36.6637 35.384 36.3237 35.656L35.8477 36.268C35.5077 36.88 35.1677 37.152 34.2837 37.696C32.7877 38.58 32.8557 38.512 32.4477 38.444C31.9037 38.24 30.9517 37.288 30.7477 36.676C30.6797 36.404 30.4077 35.928 30.2037 35.588C29.5237 34.568 29.3877 33.956 29.3197 32.256C29.1157 29.672 28.9797 28.516 28.9797 26.136C28.9797 24.3 28.9797 24.232 29.2517 23.484C29.4557 22.736 29.5237 22.6 29.4557 21.716C29.3877 20.832 29.3877 20.696 29.5917 20.22C29.7277 19.88 29.8637 19.472 29.9317 19.2C29.9317 18.996 30.0677 18.452 30.2037 18.112C30.3397 17.568 30.4757 17.092 30.5437 16.208C30.6117 15.188 30.6117 14.984 30.8837 14.576C31.4957 13.42 31.5637 13.284 31.6317 12.196C31.9037 9.068 31.9717 8.524 32.4477 7.3C32.8557 6.144 32.9237 5.94 32.9237 5.056C32.9237 4.512 33.0597 3.696 33.1277 3.22C33.2637 2.54 33.2637 2.336 33.1957 1.996C32.9917 1.384 32.5837 0.771996 32.0397 0.363998C31.6317 0.0919971 31.5637 0.023998 30.9517 0.023998C30.4757 0.023998 30.2037 0.023998 29.9997 0.159996C29.5917 0.363998 29.3877 0.5 28.8437 1.316C28.2997 2.064 27.7557 3.084 27.3477 4.172C27.2117 4.512 26.8717 5.056 26.6677 5.328C26.2597 5.804 25.9877 6.552 25.9877 7.096C25.9877 7.232 25.8517 7.64 25.7157 8.048C25.1717 9.068 25.1037 9.612 25.1037 10.564C25.1037 11.38 25.0357 11.516 24.6957 12.332C24.2877 13.352 23.8797 15.188 23.8797 16.004C23.8797 16.752 23.6077 18.384 23.4037 18.996C23.2677 19.268 23.1997 19.608 23.1997 19.812C23.1997 20.016 23.1317 20.424 23.0637 20.764C22.9277 21.24 22.9277 21.648 22.9277 22.6C22.9957 23.416 22.9957 24.232 22.9277 24.776C22.8597 25.592 22.8597 25.796 22.9957 26.748C23.2677 27.972 23.3357 29.332 23.4717 31.032C23.6077 32.8 23.9477 32.256 24.0157 33.684C24.0157 34.568 24.2197 35.18 24.6957 35.792C24.8317 35.996 25.1037 36.404 25.2397 36.676C25.3757 37.016 25.7157 37.492 25.9877 37.764L27.0077 38.988C27.8237 39.94 28.3677 40.348 29.3877 40.824C30.6797 41.368 30.8837 41.436 31.7677 41.504ZM48.7709 41.164C49.2469 41.164 49.9269 41.096 50.1989 41.028L51.0149 40.892C51.4229 40.824 52.3749 40.28 52.9189 39.804C53.5309 39.328 54.4149 38.104 54.9589 37.22C56.0469 35.18 55.9109 34.636 56.5909 32.936C56.7269 32.528 56.8629 31.984 56.9309 31.644L57.1349 30.488C57.2709 29.876 57.3389 28.584 57.2709 26.952C57.2709 26.136 56.7949 24.232 56.3869 23.552C56.2509 23.212 56.1149 22.94 56.1149 22.872C56.1149 22.804 55.9789 22.464 55.7749 22.056C55.2989 21.036 54.0749 20.152 52.9869 19.812C52.8509 19.812 52.7149 19.676 52.6469 19.54C52.3069 18.656 52.1709 18.452 51.5589 17.976L50.5389 17.228C49.9949 17.024 49.1789 17.024 48.2949 17.296L47.0029 17.636C46.4589 17.772 46.2549 17.908 45.8469 18.316C44.8269 19.336 44.0789 20.288 43.7389 21.036C43.5349 21.444 43.1269 22.056 42.9229 22.396C42.1749 23.348 41.6989 24.232 41.4269 25.116C41.1549 25.796 41.1549 26 41.0869 27.7C41.0189 30.148 41.1549 29.876 41.4949 32.732L41.6989 34.296C41.7669 35.044 42.5149 35.792 43.7389 37.9C45.0309 39.94 45.4389 40.348 46.9349 40.824C47.7509 41.096 48.0229 41.164 48.7709 41.164ZM50.2669 36.744C50.1309 36.744 49.8589 36.54 49.6549 36.268L49.2469 35.86L49.0429 34.5C48.9749 33.616 48.9069 32.732 48.9069 31.916C48.9069 31.168 48.9069 30.352 48.8389 29.944C48.7709 29.332 48.7709 29.128 49.0429 28.516C49.1789 28.176 49.3149 27.428 49.3829 27.02C49.5869 26 49.7229 25.66 50.1989 24.912C50.6069 24.232 50.8789 23.552 51.0149 22.804C51.0829 21.92 51.2189 21.92 51.5589 22.668L51.9669 23.552C52.4429 24.3 52.9189 25.388 52.9189 25.524L53.1909 26.748C53.4629 27.7 53.4629 27.972 53.4629 28.992C53.3949 29.672 53.4629 30.352 53.4629 30.556C53.5309 30.692 53.4629 31.168 53.3949 31.644L53.1229 32.868C53.1229 33.072 53.0549 33.412 52.9189 33.548L52.6469 34.432C52.5109 34.908 52.3069 35.18 51.9669 35.52C51.7629 35.792 51.4909 36.064 51.4229 36.2C51.2869 36.472 50.5389 36.812 50.2669 36.744ZM66.8982 45.856C67.2382 45.788 67.5782 45.652 68.1902 45.244C69.2102 44.564 70.2302 43.408 70.9102 42.116C71.3862 41.232 71.3862 41.164 71.3862 40.484C71.3862 40.076 71.4542 39.532 71.5222 39.26C71.6582 38.716 71.6582 38.648 71.4542 37.764C71.0462 35.996 71.0462 36.132 71.9302 35.316C72.4062 34.908 72.8822 34.5 73.0862 34.432L73.9702 33.616C74.9222 32.596 77.2342 30.216 77.3022 30.08C77.3702 29.944 77.3702 29.536 77.2342 29.4C76.9622 29.128 76.6902 29.332 75.2622 30.624C73.1542 32.528 73.0182 32.528 71.9302 33.412C71.6582 33.684 71.2502 34.024 71.0462 34.092C70.7062 34.296 70.6382 34.296 70.5702 34.16L70.0942 33.548C69.7542 33.14 69.3462 32.46 68.4622 30.828L68.0542 29.876C67.7822 29.196 67.7142 28.992 67.6462 27.632C67.5102 24.844 67.5102 24.572 68.2582 23.892C68.6662 23.484 68.7342 23.484 69.2102 23.484C70.7742 23.484 71.8622 21.716 71.0462 20.288C70.6382 19.608 69.9582 18.928 69.4142 18.656C69.0062 18.384 68.8702 18.384 67.5782 18.384C66.6262 18.384 66.1502 18.452 65.8782 18.52C65.4702 18.724 64.8582 19.2 64.4502 19.472C63.9062 19.744 63.4302 20.152 63.0902 20.832C62.9542 21.172 62.6142 21.648 62.3422 21.92C62.1382 22.124 61.7982 22.668 61.6622 23.076C60.7102 25.456 60.3022 24.98 61.0502 27.768C61.2542 28.72 61.5262 29.604 61.5942 29.74C61.7982 30.148 62.4782 30.896 63.4982 31.984C63.8382 32.324 64.1782 32.8 64.3142 33.072C64.3822 33.276 64.7902 33.82 65.1302 34.228C65.4702 34.636 65.9462 35.248 66.0822 35.52C66.2862 35.86 66.5582 36.268 66.6942 36.54C67.2382 37.22 67.1702 37.424 66.1502 38.444C64.3822 40.144 63.4982 41.572 63.2262 42.932C62.9542 44.292 63.0902 44.836 64.0422 45.448C64.9262 46.06 65.2662 46.06 66.8982 45.856ZM65.1302 43.68C64.8582 43.68 64.9262 43.476 65.1982 42.592C65.4022 42.048 65.6062 41.64 65.9462 41.164C66.8302 40.076 67.2382 39.6 67.3062 39.6C67.3742 39.6 67.3742 39.94 67.3742 40.552C67.3062 41.3 67.2382 41.572 67.0342 42.048L66.5582 42.932C66.2182 43.204 65.4022 43.68 65.1302 43.68ZM85.638 39.192C87.542 38.988 88.834 38.58 90.33 37.696L91.962 36.608C92.37 36.404 92.982 35.86 93.39 35.52C94.07 34.84 94.138 34.772 95.09 33.548C95.43 33.14 95.838 32.596 96.11 32.392C96.586 31.848 97.674 30.624 97.946 30.216C98.218 29.944 98.218 29.604 98.014 29.4C97.538 28.992 97.13 29.264 94.682 31.644C94.342 31.916 94.07 32.188 94.002 32.188C93.934 32.188 93.594 32.46 93.254 32.8C92.03 33.956 91.078 34.84 90.67 35.112L89.922 35.656C89.378 36.132 87.746 36.676 86.862 36.676C86.59 36.676 86.25 36.608 85.706 36.336C84.822 35.86 84.21 35.18 84.074 34.5L83.802 33.616C83.598 33.208 83.598 32.936 83.53 31.916V30.488C83.462 30.012 84.006 29.4 85.094 28.72C86.522 27.768 86.522 27.632 87.542 26.884C87.882 26.68 88.222 26.34 88.29 26.204C88.426 26 88.63 25.796 88.834 25.592C89.31 25.252 89.446 25.116 89.854 24.436C90.67 23.212 90.262 24.572 91.962 20.9C92.03 20.696 92.234 20.22 92.302 19.88L92.574 18.656C92.71 18.248 92.778 17.568 92.778 16.956C92.778 16.004 92.778 15.936 92.506 15.528C92.166 15.052 91.01 14.1 90.398 13.76C89.99 13.556 89.582 13.556 88.834 13.624C88.358 13.692 87.066 14.1 86.318 14.508C85.978 14.712 85.366 14.916 85.026 15.052C84.278 15.256 82.986 16.072 82.51 16.548C82.306 16.752 82.034 17.092 81.898 17.432C81.218 18.656 80.198 19.472 79.994 20.628C79.926 20.832 79.722 21.24 79.518 21.58C79.314 21.92 79.042 22.532 78.906 22.872C78.838 23.212 78.566 23.688 78.43 23.96C78.09 24.504 77.41 27.02 77.342 28.04C77.274 28.924 77.478 29.196 77.75 31.1C77.886 32.256 78.43 34.024 78.838 34.908C79.314 35.724 80.062 36.948 80.334 37.152C80.606 37.492 81.83 38.24 82.51 38.58C82.782 38.716 83.394 38.92 83.87 39.056C84.686 39.328 84.754 39.328 85.638 39.192ZM85.298 25.66C85.162 25.66 85.162 25.66 85.366 24.912C85.57 23.824 86.046 22.804 86.454 22.192C86.862 21.648 87.202 20.9 87.202 20.56C87.202 20.22 87.61 19.744 88.086 19.472C88.698 19.064 89.106 18.656 89.65 17.908C90.058 17.364 90.33 17.296 90.466 17.636C90.534 17.704 90.534 18.044 90.534 18.452C90.534 18.996 90.398 19.2 89.854 20.356C89.242 21.648 88.562 22.6 87.61 23.552C85.774 25.32 85.434 25.66 85.298 25.66ZM104.415 45.856C104.755 45.788 105.095 45.652 105.707 45.244C106.727 44.564 107.747 43.408 108.427 42.116C108.903 41.232 108.903 41.164 108.903 40.484C108.903 40.076 108.971 39.532 109.039 39.26C109.175 38.716 109.175 38.648 108.971 37.764C108.563 35.996 108.563 36.132 109.447 35.316C109.923 34.908 110.399 34.5 110.603 34.432L111.487 33.616C112.439 32.596 114.751 30.216 114.819 30.08C114.887 29.944 114.887 29.536 114.751 29.4C114.479 29.128 114.207 29.332 112.779 30.624C110.671 32.528 110.535 32.528 109.447 33.412C109.175 33.684 108.767 34.024 108.563 34.092C108.223 34.296 108.155 34.296 108.087 34.16L107.611 33.548C107.271 33.14 106.863 32.46 105.979 30.828L105.571 29.876C105.299 29.196 105.231 28.992 105.163 27.632C105.027 24.844 105.027 24.572 105.775 23.892C106.183 23.484 106.251 23.484 106.727 23.484C108.291 23.484 109.379 21.716 108.563 20.288C108.155 19.608 107.475 18.928 106.931 18.656C106.523 18.384 106.387 18.384 105.095 18.384C104.143 18.384 103.667 18.452 103.395 18.52C102.987 18.724 102.375 19.2 101.967 19.472C101.423 19.744 100.947 20.152 100.607 20.832C100.471 21.172 100.131 21.648 99.8591 21.92C99.6551 22.124 99.3151 22.668 99.1791 23.076C98.2271 25.456 97.8191 24.98 98.5671 27.768C98.7711 28.72 99.0431 29.604 99.1111 29.74C99.3151 30.148 99.9951 30.896 101.015 31.984C101.355 32.324 101.695 32.8 101.831 33.072C101.899 33.276 102.307 33.82 102.647 34.228C102.987 34.636 103.463 35.248 103.599 35.52C103.803 35.86 104.075 36.268 104.211 36.54C104.755 37.22 104.687 37.424 103.667 38.444C101.899 40.144 101.015 41.572 100.743 42.932C100.471 44.292 100.607 44.836 101.559 45.448C102.443 46.06 102.783 46.06 104.415 45.856ZM102.647 43.68C102.375 43.68 102.443 43.476 102.715 42.592C102.919 42.048 103.123 41.64 103.463 41.164C104.347 40.076 104.755 39.6 104.823 39.6C104.891 39.6 104.891 39.94 104.891 40.552C104.823 41.3 104.755 41.572 104.551 42.048L104.075 42.932C103.735 43.204 102.919 43.68 102.647 43.68ZM152.935 39.532C153.343 39.6 154.431 39.26 154.907 38.92C155.315 38.716 155.859 37.9 156.199 37.016C156.539 36.064 156.403 36.608 157.083 34.976L157.559 33.888C157.695 34.228 157.899 34.772 158.171 35.316C158.307 35.52 158.443 35.792 158.443 35.86C158.443 36.2 158.987 37.016 159.599 37.628C160.143 38.24 160.347 38.308 161.707 38.784C162.999 39.192 164.155 38.92 165.175 37.968C165.583 37.628 165.923 36.88 165.991 36.336C165.991 35.996 166.127 35.656 166.535 34.568C166.875 33.82 166.875 33.14 166.603 29.808C166.331 26.884 166.331 26.612 165.991 25.184C165.515 23.416 165.175 22.736 164.427 22.056C164.019 21.716 163.883 21.648 163.611 21.716C163.339 21.716 163.203 21.784 163.067 21.988C162.863 22.192 162.863 22.26 162.999 23.688C163.203 25.524 163.339 29.128 163.203 29.876C163.203 30.216 163.135 30.624 163.203 30.828C163.203 30.964 163.067 31.44 162.931 31.848C162.795 32.324 162.659 32.936 162.591 33.48C162.523 34.704 162.455 34.908 162.319 34.976C162.115 35.044 161.095 32.868 160.687 31.236C160.483 30.692 159.939 29.944 159.395 29.74C158.987 29.604 158.375 29.672 157.967 29.944C157.559 30.216 157.355 30.76 157.355 31.508C157.287 32.188 156.879 33.072 155.995 34.636C155.655 35.112 154.159 36.812 154.091 36.744C154.091 36.676 154.091 36.404 154.159 36.064C154.363 34.908 154.159 34.092 154.431 33.208C154.771 32.392 154.771 31.984 154.703 31.168C154.635 30.556 154.703 30.284 154.839 29.808C155.111 28.992 155.111 28.584 155.315 27.428C155.587 26.068 155.655 25.184 155.519 24.776C155.451 24.436 155.519 24.164 155.587 23.892C155.723 23.348 155.655 22.532 155.451 22.124C155.179 21.648 154.567 21.036 154.159 20.968C153.751 20.832 153.139 20.9 152.799 21.036C152.323 21.308 152.051 21.716 151.099 23.552C150.147 25.388 149.943 25.796 149.807 26.408C149.739 26.612 149.603 27.088 149.467 27.36C149.331 27.768 149.195 28.244 149.195 28.856L148.991 30.624C148.923 31.168 148.923 31.576 148.991 31.848C149.195 32.732 149.263 33.888 149.671 34.908C149.875 35.316 150.079 35.86 150.079 36.2C150.147 36.472 150.351 36.948 150.487 37.288C150.691 37.9 150.759 37.968 151.643 38.716C152.323 39.328 152.663 39.532 152.935 39.532ZM174.625 15.868C174.965 16.072 175.577 16.004 176.053 15.8C176.325 15.664 176.597 15.528 176.733 15.528C177.073 15.528 177.345 15.324 177.481 15.052C177.549 14.916 177.617 14.508 177.617 14.168C177.685 13.556 177.685 13.556 177.345 13.08C177.005 12.536 176.325 11.924 175.917 11.72C175.577 11.516 174.761 11.584 174.421 11.788C174.013 11.992 173.809 12.264 173.605 12.876C173.333 13.76 173.265 14.372 173.333 14.644C173.469 14.848 174.285 15.664 174.625 15.868ZM175.781 43.816C176.393 43.816 176.937 43.544 177.345 43C177.753 42.388 177.821 42.116 177.685 40.416C177.617 38.988 177.685 37.22 177.821 35.792C177.889 35.384 177.821 34.976 177.753 34.5C177.345 32.596 177.957 32.664 177.957 30.148C177.957 29.536 178.025 28.788 178.025 28.584C178.161 28.108 178.229 26.952 178.365 24.64C178.501 23.484 178.297 23.008 177.209 21.58C176.393 20.492 175.917 20.084 175.305 19.88C174.693 19.744 174.489 19.744 173.945 19.88C172.993 20.152 172.585 20.9 171.497 22.328L171.021 23.144C170.885 23.688 170.613 25.116 170.545 26.408L170.341 28.244C170.137 29.264 170.137 33.616 170.273 34.84C170.341 35.86 171.021 38.58 171.361 39.192C171.497 39.464 171.837 39.94 172.109 40.212C172.517 40.62 172.653 40.824 172.789 41.368C172.993 41.912 173.061 42.048 173.741 42.728C174.625 43.612 175.033 43.816 175.781 43.816ZM191.856 44.02C192.332 44.02 193.556 43.544 194.168 43.136C194.848 42.728 195.188 42.388 195.46 42.184C195.936 41.708 197.704 39.056 198.316 38.172C198.792 37.492 199.404 36.404 200.016 35.18C200.356 34.364 200.492 33.888 200.628 33.14C200.832 31.916 200.9 31.712 201.172 31.032C201.512 30.284 201.512 29.808 201.24 29.604C200.9 29.264 200.56 29.4 199.948 30.012L199.2 30.828C198.996 31.1 198.656 31.576 198.044 32.256C197.704 32.664 196.548 34.704 196.548 34.908C196.548 34.976 196.412 35.18 196.276 35.384C196.14 35.52 195.936 35.86 195.936 35.996C195.8 36.404 195.052 37.832 194.78 38.172L194.168 38.92C193.828 39.464 192.74 40.552 192.264 40.824C191.72 41.096 191.788 40.484 191.108 39.396C190.632 38.716 190.292 36.812 190.224 34.636C190.156 33.82 190.088 32.936 190.02 32.664C189.816 31.712 190.088 27.088 189.952 23.62C189.884 22.26 190.428 21.988 190.292 20.832C190.224 20.016 190.36 19.268 190.632 19.132C190.768 19.064 191.04 19.064 191.516 19.2L192.468 19.404C192.74 19.404 193.216 19.88 193.42 20.22C193.692 20.696 193.896 20.9 194.236 20.9C194.644 20.9 194.916 20.628 194.984 20.152C195.12 19.676 194.984 18.792 194.78 18.452C194.508 17.976 193.216 16.956 192.536 16.684C191.38 16.276 191.72 16.276 190.904 16.072L190.972 15.256C191.108 13.284 191.108 10.564 191.04 10.156C190.768 9.272 189.476 8.66 188.728 9C188.388 9.136 188.116 9.476 187.572 10.768C186.892 12.128 186.552 13.148 186.484 13.964C186.348 14.576 186.144 15.256 185.94 15.46C185.872 15.528 185.328 15.528 184.172 15.528C182.744 15.528 182.472 15.596 182.132 15.732C181.928 15.868 181.588 15.936 181.384 16.004L180.568 16.208C180.296 16.344 179.548 16.48 178.868 16.616C177.644 16.888 177.44 16.956 177.236 17.5C176.828 18.452 177.508 19.472 178.664 19.812C179.548 20.084 179.752 19.88 182.608 19.812C183.764 19.812 184.104 19.812 184.648 19.608C185.6 19.268 185.532 19.268 185.532 20.356C185.532 20.968 185.532 21.512 185.396 21.852C185.26 22.192 185.26 22.532 185.328 23.416C185.396 24.98 185.396 25.116 185.328 25.66C185.26 26 185.328 26.272 185.396 26.612C185.6 27.088 185.6 27.564 185.668 32.392C185.736 33.82 185.736 34.296 185.872 34.772C186.008 35.18 186.076 35.588 186.076 36.064C186.008 36.472 186.076 37.152 186.144 37.56L186.348 38.648C186.416 39.192 187.232 40.824 187.844 41.572C188.524 42.388 189.408 43.34 189.748 43.544C190.156 43.748 191.38 44.02 191.856 44.02ZM218.973 45.924C219.857 45.788 221.625 44.972 222.237 44.36L222.849 43.884C223.053 43.68 224.073 42.524 224.345 42.116L224.889 41.368C225.705 40.348 226.453 39.192 226.453 38.92C226.453 38.852 226.657 38.444 226.861 38.172C227.065 37.832 227.337 37.424 227.337 37.22C227.405 37.016 227.473 36.744 227.541 36.608C227.609 36.472 227.677 36.2 227.745 35.996C227.745 35.792 228.085 35.044 228.425 34.364C228.765 33.616 229.105 32.936 229.105 32.8L229.241 31.508C229.513 30.08 229.513 29.944 229.241 29.672C228.833 29.4 228.493 29.4 228.153 29.808C227.881 30.148 226.657 32.528 225.977 34.092C225.773 34.568 225.433 35.18 225.297 35.384C225.161 35.656 225.025 35.996 224.957 36.2C224.685 36.948 223.529 38.92 222.713 40.076C221.625 41.504 220.061 42.66 219.109 42.796C218.701 42.864 218.633 42.864 218.565 42.66C218.429 42.524 218.293 42.048 218.225 41.64C218.089 40.892 218.089 40.824 218.293 40.28C218.497 39.6 218.497 38.58 218.565 36.268C219.449 34.092 219.449 34.364 219.517 32.664C219.721 28.312 220.537 26.34 219.313 23.416L218.973 22.464C218.905 22.056 218.293 21.172 217.749 20.628C217.273 20.152 216.729 19.812 215.913 19.676C215.369 19.608 215.301 19.608 213.941 19.948C212.921 20.22 211.493 21.24 210.881 22.192C210.609 22.6 209.657 23.824 209.453 24.028L209.181 24.436C209.045 24.708 208.841 24.776 208.909 24.572C209.045 24.164 209.113 22.94 208.977 22.056C208.841 21.172 208.841 21.036 209.045 20.288C209.249 19.404 209.317 18.792 209.181 17.976C209.113 17.636 209.113 16.888 209.181 15.46C209.249 13.148 209.181 12.332 208.705 10.836C208.365 9.816 208.093 9.34 207.481 8.728C206.801 7.98 206.053 7.708 205.237 7.98C204.285 8.252 203.809 9.544 202.789 11.516C202.381 12.332 202.245 12.876 202.381 13.964C202.517 14.78 202.517 14.984 202.313 15.596C202.177 16.004 202.109 16.412 202.109 16.616C202.109 16.752 202.041 17.16 201.905 17.5C201.633 18.384 201.497 19.88 201.497 20.9C201.565 21.716 201.565 21.852 201.293 22.532C201.021 23.28 201.021 23.144 201.089 25.388C201.089 25.66 201.021 26.34 200.953 26.952C200.817 27.836 200.749 28.448 200.749 30.216C200.749 31.44 200.817 32.596 200.885 32.868C201.225 34.432 201.293 34.5 201.157 35.316C201.089 35.724 201.021 36.404 201.021 36.812C201.021 37.628 201.021 37.628 201.565 38.648C202.245 39.94 202.585 40.348 203.061 40.552C203.537 40.824 204.285 40.824 204.761 40.62C205.237 40.484 206.121 39.6 206.393 39.124C206.529 38.92 206.665 38.512 206.733 38.24C206.801 37.968 206.937 37.492 207.073 37.22C207.209 36.88 207.345 36.336 207.413 35.86C207.481 35.384 207.617 34.84 207.821 34.432C208.161 33.752 208.161 33.752 208.161 32.732C208.025 30.148 208.025 30.148 208.365 29.332C209.249 27.36 210.405 25.524 211.833 24.164C212.717 23.28 213.465 22.872 213.737 23.076C213.873 23.212 213.941 25.116 213.737 25.66C213.737 25.796 213.601 26.408 213.601 26.884C213.533 27.428 213.397 28.108 213.261 28.38L212.989 29.604C212.921 30.012 212.717 30.488 212.581 30.828C212.309 31.576 212.241 31.916 212.377 32.868C212.445 33.684 212.445 33.684 212.241 34.432C211.901 35.384 211.833 36.336 212.173 37.424C212.241 37.832 212.377 38.648 212.445 39.26C212.581 40.484 212.785 41.436 213.125 42.184C213.533 43.136 214.757 44.972 215.165 45.244C215.369 45.312 215.913 45.584 216.457 45.788C217.477 46.196 217.477 46.196 218.973 45.924ZM249.986 50.072C250.598 50.072 250.734 50.072 251.074 49.8C251.278 49.664 251.686 49.256 251.89 48.916C252.298 48.304 252.366 48.236 252.434 47.42C252.57 45.72 252.774 44.156 252.91 43.612C253.114 42.728 253.182 40.348 253.046 39.668C252.978 39.124 252.978 38.988 253.114 38.512C253.25 37.968 253.318 36.404 253.25 32.664C253.25 31.032 253.25 30.896 253.522 30.08C253.862 28.924 254.474 27.632 254.882 27.088C255.086 26.884 255.358 26.476 255.494 26.272C255.63 26 256.038 25.388 256.514 24.912C257.194 24.164 257.398 23.96 257.942 23.756C258.69 23.416 259.03 23.348 259.642 23.62C260.186 23.824 260.662 24.572 260.934 25.592L261.41 27.088C261.818 28.244 261.818 29.4 261.478 30.216C261.342 30.556 261.138 31.372 261.002 32.12C260.866 32.8 260.662 33.48 260.594 33.616C260.526 33.752 260.254 34.16 259.914 34.5L259.302 35.18C258.078 35.18 257.874 35.18 257.262 34.908C256.718 34.636 256.242 34.16 256.242 33.752C256.242 33.344 256.038 32.868 255.766 32.732C255.29 32.596 254.746 32.936 254.406 33.616C254.134 34.228 254.134 34.5 254.406 35.248C254.95 36.54 256.446 37.9 257.942 38.376L258.894 38.784C259.166 38.988 259.37 38.988 260.458 39.056C261.954 39.056 262.498 38.988 263.518 38.376C264.538 37.832 265.218 37.084 265.966 35.792C266.782 34.5 267.122 33.684 267.258 32.868C267.394 31.984 267.666 31.1 267.802 29.06C267.802 28.448 267.802 28.312 267.598 27.836C267.462 27.564 267.326 27.088 267.326 26.816C267.19 25.932 266.986 25.388 266.578 24.844C266.374 24.572 266.034 24.028 265.83 23.62C265.49 23.008 265.286 22.736 264.402 21.92C262.498 20.152 262.362 20.628 260.798 20.152C259.846 19.88 259.438 19.948 258.554 20.356C258.146 20.56 257.806 20.696 257.738 20.696C257.602 20.696 257.33 20.968 256.99 21.24L256.106 22.124C255.834 22.328 255.562 22.668 255.426 22.872C255.018 23.552 254.542 24.096 254.134 24.912L253.726 25.592C253.386 26 253.386 25.32 253.658 23.756C253.93 22.6 253.93 22.532 253.862 21.172C253.726 19.608 253.59 18.996 252.91 17.908C252.23 16.616 251.21 16.14 250.122 16.548C249.442 16.752 249.102 17.16 248.626 18.112L248.082 19.132C247.742 19.472 247.47 20.22 247.47 21.036C247.47 21.512 247.402 22.124 247.334 22.396L247.198 23.28C247.198 23.552 246.994 24.164 246.858 24.64C246.45 26.136 245.906 28.584 245.906 29.332C245.906 29.74 245.974 30.284 246.042 30.624C246.314 31.712 246.042 31.508 245.838 34.432C245.77 35.588 245.77 35.792 245.906 36.404C245.974 36.948 246.042 37.152 245.906 37.764C245.838 38.376 245.838 38.58 246.042 39.396L246.178 40.756C246.178 41.028 246.314 41.504 246.45 41.912C246.586 42.456 246.722 43 246.79 43.816C246.858 44.768 246.858 45.04 247.13 45.584C247.334 45.992 247.47 46.4 247.538 46.944C247.606 47.624 247.674 47.828 248.082 48.644C248.354 49.256 248.626 49.596 248.898 49.8C249.238 50.072 249.306 50.072 249.986 50.072ZM275.181 40.28C275.997 40.212 276.609 39.804 276.949 39.124C277.765 37.492 277.969 37.016 277.969 36.88L278.105 35.86C278.241 35.452 278.377 34.636 278.377 34.092C278.445 33.412 278.513 33.004 278.717 32.596C278.989 31.984 278.989 31.984 279.057 29.876V27.768C279.261 27.428 279.533 27.02 279.941 26.136C280.145 25.796 280.485 25.116 280.757 24.776C281.233 24.096 282.389 22.872 282.525 22.872C282.593 22.872 282.797 22.804 282.933 22.736C283.205 22.464 284.293 22.056 284.769 21.988C284.973 21.988 285.313 21.852 285.585 21.716C286.061 21.444 286.129 21.444 287.081 21.512C288.101 21.58 288.169 21.58 288.509 21.376C288.917 21.104 289.121 20.832 289.121 20.356C289.121 19.812 288.713 19.472 287.829 19.132C287.285 18.928 287.081 18.928 285.857 18.928C282.933 18.928 282.933 19.676 281.709 20.22C281.165 20.56 280.485 21.172 279.737 22.056C279.397 22.464 279.125 22.804 279.125 22.736C278.989 22.668 278.853 21.92 278.785 20.9C278.717 20.016 278.649 19.744 278.445 19.336C278.173 18.656 277.085 17.568 276.541 17.296C275.997 17.024 275.249 16.956 274.773 17.024C273.753 17.296 273.073 18.044 272.461 19.472C271.917 20.832 271.373 22.532 271.373 22.94L271.441 24.572C271.577 25.796 271.577 25.864 271.373 26.68C270.965 28.38 271.305 28.244 271.577 31.984C271.577 33.072 271.713 34.024 271.849 34.5C271.917 34.908 272.053 35.52 272.053 35.86C272.257 37.832 272.597 38.648 273.345 39.464C273.957 40.076 274.433 40.28 275.181 40.28ZM293.55 15.868C293.89 16.072 294.502 16.004 294.978 15.8C295.25 15.664 295.522 15.528 295.658 15.528C295.998 15.528 296.27 15.324 296.406 15.052C296.474 14.916 296.542 14.508 296.542 14.168C296.61 13.556 296.61 13.556 296.27 13.08C295.93 12.536 295.25 11.924 294.842 11.72C294.502 11.516 293.686 11.584 293.346 11.788C292.938 11.992 292.734 12.264 292.53 12.876C292.258 13.76 292.19 14.372 292.258 14.644C292.394 14.848 293.21 15.664 293.55 15.868ZM294.706 43.816C295.318 43.816 295.862 43.544 296.27 43C296.678 42.388 296.746 42.116 296.61 40.416C296.542 38.988 296.61 37.22 296.746 35.792C296.814 35.384 296.746 34.976 296.678 34.5C296.27 32.596 296.882 32.664 296.882 30.148C296.882 29.536 296.95 28.788 296.95 28.584C297.086 28.108 297.154 26.952 297.29 24.64C297.426 23.484 297.222 23.008 296.134 21.58C295.318 20.492 294.842 20.084 294.23 19.88C293.618 19.744 293.414 19.744 292.87 19.88C291.918 20.152 291.51 20.9 290.422 22.328L289.946 23.144C289.81 23.688 289.538 25.116 289.47 26.408L289.266 28.244C289.062 29.264 289.062 33.616 289.198 34.84C289.266 35.86 289.946 38.58 290.286 39.192C290.422 39.464 290.762 39.94 291.034 40.212C291.442 40.62 291.578 40.824 291.714 41.368C291.918 41.912 291.986 42.048 292.666 42.728C293.55 43.612 293.958 43.816 294.706 43.816ZM318.175 45.04C318.787 45.04 319.739 44.836 320.215 44.632C320.759 44.428 321.779 43.544 322.595 42.728C323.071 42.184 324.431 40.484 324.431 40.348C324.431 40.28 324.839 39.736 325.451 38.852C325.655 38.512 325.927 38.172 325.995 38.104C326.063 38.104 326.335 37.696 326.539 37.22L328.103 34.636L328.443 33.684C328.919 32.392 328.783 32.8 329.599 30.76C329.667 30.42 329.803 30.08 329.735 29.876C329.667 29.06 328.987 29.468 328.171 30.828C327.763 31.508 327.287 32.256 326.947 32.664C326.539 33.14 325.927 34.296 325.791 34.636C325.723 35.112 325.247 35.996 324.907 36.268C324.635 36.676 323.615 38.308 323.275 38.648C323.071 38.784 322.731 39.192 322.527 39.6C321.983 40.28 321.371 40.892 320.351 41.776C320.011 42.116 319.739 42.184 319.467 42.252C318.855 42.388 318.583 42.116 318.515 41.232L318.311 39.668C318.107 37.9 318.447 38.376 318.379 36.2C318.311 35.18 318.311 34.908 318.447 34.296C318.855 33.004 318.991 32.052 318.923 31.44C318.923 30.964 318.923 30.624 319.059 30.08C319.399 28.652 319.467 27.768 319.467 25.388C319.467 23.076 319.467 23.076 319.195 22.464C319.059 22.056 318.923 21.716 318.855 21.716L318.379 20.696C317.903 19.812 317.563 19.472 316.747 19.064C316.135 18.792 315.523 18.656 315.115 18.86C314.707 18.996 314.639 19.064 313.551 20.016C312.055 21.24 309.811 23.96 308.995 25.524C308.451 26.408 307.771 27.292 307.703 27.224C307.635 27.224 307.567 26.612 307.567 26C307.499 25.252 307.431 24.572 307.295 24.3L307.091 23.076C307.023 22.328 306.819 21.784 306.207 21.036C305.731 20.492 305.187 20.22 304.575 20.152C303.759 20.084 303.419 20.356 302.875 21.24C301.991 22.872 302.059 22.804 301.923 24.096C301.719 27.7 301.311 26.952 301.515 28.448C301.515 28.856 301.583 29.74 301.651 30.352C301.651 31.304 301.651 31.644 301.855 32.12C302.195 32.936 302.875 35.86 303.079 36.2C303.555 37.016 304.167 37.356 304.983 37.288C305.663 37.288 306.207 36.948 306.479 36.336L306.955 35.316C307.091 34.976 307.295 34.296 307.431 33.752C307.499 33.208 307.703 32.664 307.771 32.46C307.907 32.256 307.975 31.916 308.043 31.712C308.111 31.304 308.655 30.08 308.995 29.468L309.335 28.72C309.471 28.244 310.151 27.088 310.627 26.476C310.831 26.204 311.035 25.864 311.171 25.592C311.579 24.776 314.027 22.6 314.231 22.804C314.299 22.872 313.891 24.776 313.687 25.456C313.551 25.796 313.415 26.34 313.347 26.612L313.211 27.768C313.075 28.244 313.075 28.516 313.143 29.06C313.279 29.672 313.211 29.808 313.075 30.352C312.871 31.032 312.667 32.936 312.667 34.364C312.667 34.704 312.667 35.384 312.599 35.724C312.599 36.268 312.599 36.54 312.667 36.812C312.735 36.948 312.803 37.56 312.871 38.104C312.939 39.464 313.007 39.26 313.755 40.824C313.891 41.164 314.163 41.572 314.367 41.776C314.571 42.048 314.843 42.456 314.979 42.728C315.591 43.816 317.223 45.04 318.175 45.04ZM337.044 44.02C337.52 44.02 338.744 43.544 339.356 43.136C340.036 42.728 340.376 42.388 340.648 42.184C341.124 41.708 342.892 39.056 343.504 38.172C343.98 37.492 344.592 36.404 345.204 35.18C345.544 34.364 345.68 33.888 345.816 33.14C346.02 31.916 346.088 31.712 346.36 31.032C346.7 30.284 346.7 29.808 346.428 29.604C346.088 29.264 345.748 29.4 345.136 30.012L344.388 30.828C344.184 31.1 343.844 31.576 343.232 32.256C342.892 32.664 341.736 34.704 341.736 34.908C341.736 34.976 341.6 35.18 341.464 35.384C341.328 35.52 341.124 35.86 341.124 35.996C340.988 36.404 340.24 37.832 339.968 38.172L339.356 38.92C339.016 39.464 337.928 40.552 337.452 40.824C336.908 41.096 336.976 40.484 336.296 39.396C335.82 38.716 335.48 36.812 335.412 34.636C335.344 33.82 335.276 32.936 335.208 32.664C335.004 31.712 335.276 27.088 335.14 23.62C335.072 22.26 335.616 21.988 335.48 20.832C335.412 20.016 335.548 19.268 335.82 19.132C335.956 19.064 336.228 19.064 336.704 19.2L337.656 19.404C337.928 19.404 338.404 19.88 338.608 20.22C338.88 20.696 339.084 20.9 339.424 20.9C339.832 20.9 340.104 20.628 340.172 20.152C340.308 19.676 340.172 18.792 339.968 18.452C339.696 17.976 338.404 16.956 337.724 16.684C336.568 16.276 336.908 16.276 336.092 16.072L336.16 15.256C336.296 13.284 336.296 10.564 336.228 10.156C335.956 9.272 334.664 8.66 333.916 9C333.576 9.136 333.304 9.476 332.76 10.768C332.08 12.128 331.74 13.148 331.672 13.964C331.536 14.576 331.332 15.256 331.128 15.46C331.06 15.528 330.516 15.528 329.36 15.528C327.932 15.528 327.66 15.596 327.32 15.732C327.116 15.868 326.776 15.936 326.572 16.004L325.756 16.208C325.484 16.344 324.736 16.48 324.056 16.616C322.832 16.888 322.628 16.956 322.424 17.5C322.016 18.452 322.696 19.472 323.852 19.812C324.736 20.084 324.94 19.88 327.796 19.812C328.952 19.812 329.292 19.812 329.836 19.608C330.788 19.268 330.72 19.268 330.72 20.356C330.72 20.968 330.72 21.512 330.584 21.852C330.448 22.192 330.448 22.532 330.516 23.416C330.584 24.98 330.584 25.116 330.516 25.66C330.448 26 330.516 26.272 330.584 26.612C330.788 27.088 330.788 27.564 330.856 32.392C330.924 33.82 330.924 34.296 331.06 34.772C331.196 35.18 331.264 35.588 331.264 36.064C331.196 36.472 331.264 37.152 331.332 37.56L331.536 38.648C331.604 39.192 332.42 40.824 333.032 41.572C333.712 42.388 334.596 43.34 334.936 43.544C335.344 43.748 336.568 44.02 337.044 44.02Z" fill="#FFC501"/>
</svg>
