<svg width="20" height="20" viewBox="0 0 20 20" fill="none" xmlns="http://www.w3.org/2000/svg">
<path d="M13.3 10.0006L19.4873 3.81337C20.1709 3.12974 20.1709 2.0214 19.4873 1.33884L18.6624 0.514003C17.9786 -0.169839 16.8702 -0.169839 16.1877 0.514003L10.0006 6.70105L3.81337 0.512721C3.12974 -0.170907 2.0214 -0.170907 1.33884 0.512721L0.512721 1.33756C-0.170907 2.0214 -0.170907 3.12974 0.512721 3.8123L6.70105 10.0006L0.514003 16.1877C-0.169839 16.8715 -0.169839 17.9799 0.514003 18.6624L1.33884 19.4873C2.02247 20.1709 3.13081 20.1709 3.81337 19.4873L10.0006 13.3L16.1877 19.4873C16.8715 20.1709 17.9799 20.1709 18.6624 19.4873L19.4873 18.6624C20.1709 17.9786 20.1709 16.8702 19.4873 16.1877L13.3 10.0006Z" fill="#020202"/>
</svg>
