<svg width="144" height="45" viewBox="0 0 144 45" fill="none" xmlns="http://www.w3.org/2000/svg">
<path d="M11.421 39.476C13.325 39.544 13.597 39.476 14.413 38.864C15.841 37.912 17.609 35.668 17.949 34.512C18.017 34.172 18.289 33.628 18.425 33.288C18.765 32.54 19.105 30.976 19.037 30.296C19.037 30.024 19.105 29.752 19.241 29.276C19.445 28.8 19.513 28.256 19.581 27.712C19.581 27.304 19.717 26.624 19.785 26.352C19.921 25.876 19.989 25.536 19.921 24.38C19.921 23.156 19.853 22.952 19.581 22.136C19.241 21.048 19.037 20.708 18.561 20.368C18.153 20.096 17.881 20.096 17.473 20.368C16.385 21.048 17.677 21.32 16.725 26.216C16.385 27.848 16.317 28.324 16.113 28.732C15.977 28.936 15.841 29.344 15.773 29.616C15.705 30.16 15.365 31.316 15.229 31.588C15.161 31.656 15.025 31.996 14.957 32.336C14.821 32.812 14.685 32.948 13.937 33.764C13.461 34.24 13.053 34.648 12.985 34.648C12.645 34.648 12.305 34.308 11.761 33.492C11.353 32.948 11.149 32.472 11.081 32.2C10.945 31.588 10.809 31.316 10.333 30.5C8.97297 28.256 9.44897 27.848 8.97297 26.216C8.70097 25.128 8.63297 24.516 8.83697 23.836C8.97297 23.292 9.04097 22.748 9.04097 20.436C9.04097 17.716 9.04097 17.648 9.31297 16.9C9.44897 16.424 9.58497 15.812 9.58497 15.268C9.65297 14.86 9.72097 14.248 9.85697 13.908L10.061 12.956C10.129 12.752 10.333 12.208 10.605 11.732C10.877 11.256 11.149 10.644 11.217 10.236C11.285 9.896 11.421 9.488 11.489 9.352C11.625 9.148 12.373 8.876 12.917 8.876C14.141 8.876 15.773 10.916 16.385 13.296C16.657 14.248 16.793 14.52 17.065 14.792C17.405 15.064 17.541 15.064 17.881 14.928C18.153 14.86 18.289 14.656 18.425 14.248C18.765 13.636 18.697 13.704 18.697 10.236C18.493 9.76 17.677 7.788 17.473 7.448C17.337 7.312 17.201 7.04 17.133 6.768C16.997 6.428 16.861 6.156 16.589 5.952L15.637 5.068C14.889 4.32 14.753 4.252 13.393 3.844C11.897 3.436 11.693 3.368 10.469 3.64C9.04097 3.98 8.22497 4.252 7.27297 4.864C5.84497 5.748 5.43697 6.156 5.02897 7.244C4.89297 7.516 4.62097 7.992 4.41697 8.264C3.87297 8.808 3.60097 9.42 3.39697 10.304C3.32897 10.712 3.12497 11.256 2.92097 11.596C2.71697 12.004 2.44497 12.82 2.24097 13.5L1.62897 15.608C1.49297 16.152 1.35697 16.832 1.35697 17.172C1.28897 17.512 1.15297 18.124 0.948969 18.532C0.744969 19.28 0.676969 19.552 0.608969 21.116L0.472969 23.7C0.404969 24.516 0.472969 24.788 0.676969 25.604L0.948969 27.032C1.08497 27.712 1.28897 28.188 1.76497 29.004C2.03697 29.412 2.24097 30.024 2.37697 30.364C2.64897 31.52 2.78497 31.928 3.19297 32.608C4.00897 34.172 3.60097 34.376 4.89297 35.464C5.23297 35.804 5.64097 36.28 5.84497 36.688C6.32097 37.436 6.59297 37.708 7.47697 38.116C7.74897 38.252 8.15697 38.524 8.36097 38.66C9.17697 39.34 9.44897 39.408 11.421 39.476ZM30.3367 37.164C30.8127 37.164 31.4927 37.096 31.7647 37.028L32.5807 36.892C32.9887 36.824 33.9407 36.28 34.4847 35.804C35.0967 35.328 35.9807 34.104 36.5247 33.22C37.6127 31.18 37.4767 30.636 38.1567 28.936C38.2927 28.528 38.4287 27.984 38.4967 27.644L38.7007 26.488C38.8367 25.876 38.9047 24.584 38.8367 22.952C38.8367 22.136 38.3607 20.232 37.9527 19.552C37.8167 19.212 37.6807 18.94 37.6807 18.872C37.6807 18.804 37.5447 18.464 37.3407 18.056C36.8647 17.036 35.6407 16.152 34.5527 15.812C34.4167 15.812 34.2807 15.676 34.2127 15.54C33.8727 14.656 33.7367 14.452 33.1247 13.976L32.1047 13.228C31.5607 13.024 30.7447 13.024 29.8607 13.296L28.5687 13.636C28.0247 13.772 27.8207 13.908 27.4127 14.316C26.3927 15.336 25.6447 16.288 25.3047 17.036C25.1007 17.444 24.6927 18.056 24.4887 18.396C23.7407 19.348 23.2647 20.232 22.9927 21.116C22.7207 21.796 22.7207 22 22.6527 23.7C22.5847 26.148 22.7207 25.876 23.0607 28.732L23.2647 30.296C23.3327 31.044 24.0807 31.792 25.3047 33.9C26.5967 35.94 27.0047 36.348 28.5007 36.824C29.3167 37.096 29.5887 37.164 30.3367 37.164ZM31.8327 32.744C31.6967 32.744 31.4247 32.54 31.2207 32.268L30.8127 31.86L30.6087 30.5C30.5407 29.616 30.4727 28.732 30.4727 27.916C30.4727 27.168 30.4727 26.352 30.4047 25.944C30.3367 25.332 30.3367 25.128 30.6087 24.516C30.7447 24.176 30.8807 23.428 30.9487 23.02C31.1527 22 31.2887 21.66 31.7647 20.912C32.1727 20.232 32.4447 19.552 32.5807 18.804C32.6487 17.92 32.7847 17.92 33.1247 18.668L33.5327 19.552C34.0087 20.3 34.4847 21.388 34.4847 21.524L34.7567 22.748C35.0287 23.7 35.0287 23.972 35.0287 24.992C34.9607 25.672 35.0287 26.352 35.0287 26.556C35.0967 26.692 35.0287 27.168 34.9607 27.644L34.6887 28.868C34.6887 29.072 34.6207 29.412 34.4847 29.548L34.2127 30.432C34.0767 30.908 33.8727 31.18 33.5327 31.52C33.3287 31.792 33.0567 32.064 32.9887 32.2C32.8527 32.472 32.1047 32.812 31.8327 32.744ZM58.936 41.04C59.548 41.04 60.5 40.836 60.976 40.632C61.52 40.428 62.54 39.544 63.356 38.728C63.832 38.184 65.192 36.484 65.192 36.348C65.192 36.28 65.6 35.736 66.212 34.852C66.416 34.512 66.688 34.172 66.756 34.104C66.824 34.104 67.096 33.696 67.3 33.22L68.864 30.636L69.204 29.684C69.68 28.392 69.544 28.8 70.36 26.76C70.428 26.42 70.564 26.08 70.496 25.876C70.428 25.06 69.748 25.468 68.932 26.828C68.524 27.508 68.048 28.256 67.708 28.664C67.3 29.14 66.688 30.296 66.552 30.636C66.484 31.112 66.008 31.996 65.668 32.268C65.396 32.676 64.376 34.308 64.036 34.648C63.832 34.784 63.492 35.192 63.288 35.6C62.744 36.28 62.132 36.892 61.112 37.776C60.772 38.116 60.5 38.184 60.228 38.252C59.616 38.388 59.344 38.116 59.276 37.232L59.072 35.668C58.868 33.9 59.208 34.376 59.14 32.2C59.072 31.18 59.072 30.908 59.208 30.296C59.616 29.004 59.752 28.052 59.684 27.44C59.684 26.964 59.684 26.624 59.82 26.08C60.16 24.652 60.228 23.768 60.228 21.388C60.228 19.076 60.228 19.076 59.956 18.464C59.82 18.056 59.684 17.716 59.616 17.716L59.14 16.696C58.664 15.812 58.324 15.472 57.508 15.064C56.896 14.792 56.284 14.656 55.876 14.86C55.468 14.996 55.4 15.064 54.312 16.016C52.816 17.24 50.572 19.96 49.756 21.524C49.212 22.408 48.532 23.292 48.464 23.224C48.396 23.224 48.328 22.612 48.328 22C48.26 21.252 48.192 20.572 48.056 20.3L47.852 19.076C47.784 18.328 47.58 17.784 46.968 17.036C46.492 16.492 45.948 16.22 45.336 16.152C44.52 16.084 44.18 16.356 43.636 17.24C42.752 18.872 42.82 18.804 42.684 20.096C42.48 23.7 42.072 22.952 42.276 24.448C42.276 24.856 42.344 25.74 42.412 26.352C42.412 27.304 42.412 27.644 42.616 28.12C42.956 28.936 43.636 31.86 43.84 32.2C44.316 33.016 44.928 33.356 45.744 33.288C46.424 33.288 46.968 32.948 47.24 32.336L47.716 31.316C47.852 30.976 48.056 30.296 48.192 29.752C48.26 29.208 48.464 28.664 48.532 28.46C48.668 28.256 48.736 27.916 48.804 27.712C48.872 27.304 49.416 26.08 49.756 25.468L50.096 24.72C50.232 24.244 50.912 23.088 51.388 22.476C51.592 22.204 51.796 21.864 51.932 21.592C52.34 20.776 54.788 18.6 54.992 18.804C55.06 18.872 54.652 20.776 54.448 21.456C54.312 21.796 54.176 22.34 54.108 22.612L53.972 23.768C53.836 24.244 53.836 24.516 53.904 25.06C54.04 25.672 53.972 25.808 53.836 26.352C53.632 27.032 53.428 28.936 53.428 30.364C53.428 30.704 53.428 31.384 53.36 31.724C53.36 32.268 53.36 32.54 53.428 32.812C53.496 32.948 53.564 33.56 53.632 34.104C53.7 35.464 53.768 35.26 54.516 36.824C54.652 37.164 54.924 37.572 55.128 37.776C55.332 38.048 55.604 38.456 55.74 38.728C56.352 39.816 57.984 41.04 58.936 41.04ZM77.8049 40.02C78.2809 40.02 79.5049 39.544 80.1169 39.136C80.7969 38.728 81.1369 38.388 81.4089 38.184C81.8849 37.708 83.6529 35.056 84.2649 34.172C84.7409 33.492 85.3529 32.404 85.9649 31.18C86.3049 30.364 86.4409 29.888 86.5769 29.14C86.7809 27.916 86.8489 27.712 87.1209 27.032C87.4609 26.284 87.4609 25.808 87.1889 25.604C86.8489 25.264 86.5089 25.4 85.8969 26.012L85.1489 26.828C84.9449 27.1 84.6049 27.576 83.9929 28.256C83.6529 28.664 82.4969 30.704 82.4969 30.908C82.4969 30.976 82.3609 31.18 82.2249 31.384C82.0889 31.52 81.8849 31.86 81.8849 31.996C81.7489 32.404 81.0009 33.832 80.7289 34.172L80.1169 34.92C79.7769 35.464 78.6889 36.552 78.2129 36.824C77.6689 37.096 77.7369 36.484 77.0569 35.396C76.5809 34.716 76.2409 32.812 76.1729 30.636C76.1049 29.82 76.0369 28.936 75.9689 28.664C75.7649 27.712 76.0369 23.088 75.9009 19.62C75.8329 18.26 76.3769 17.988 76.2409 16.832C76.1729 16.016 76.3089 15.268 76.5809 15.132C76.7169 15.064 76.9889 15.064 77.4649 15.2L78.4169 15.404C78.6889 15.404 79.1649 15.88 79.3689 16.22C79.6409 16.696 79.8449 16.9 80.1849 16.9C80.5929 16.9 80.8649 16.628 80.9329 16.152C81.0689 15.676 80.9329 14.792 80.7289 14.452C80.4569 13.976 79.1649 12.956 78.4849 12.684C77.3289 12.276 77.6689 12.276 76.8529 12.072L76.9209 11.256C77.0569 9.284 77.0569 6.564 76.9889 6.156C76.7169 5.272 75.4249 4.66 74.6769 5C74.3369 5.136 74.0649 5.476 73.5209 6.768C72.8409 8.128 72.5009 9.148 72.4329 9.964C72.2969 10.576 72.0929 11.256 71.8889 11.46C71.8209 11.528 71.2769 11.528 70.1209 11.528C68.6929 11.528 68.4209 11.596 68.0809 11.732C67.8769 11.868 67.5369 11.936 67.3329 12.004L66.5169 12.208C66.2449 12.344 65.4969 12.48 64.8169 12.616C63.5929 12.888 63.3889 12.956 63.1849 13.5C62.7769 14.452 63.4569 15.472 64.6129 15.812C65.4969 16.084 65.7009 15.88 68.5569 15.812C69.7129 15.812 70.0529 15.812 70.5969 15.608C71.5489 15.268 71.4809 15.268 71.4809 16.356C71.4809 16.968 71.4809 17.512 71.3449 17.852C71.2089 18.192 71.2089 18.532 71.2769 19.416C71.3449 20.98 71.3449 21.116 71.2769 21.66C71.2089 22 71.2769 22.272 71.3449 22.612C71.5489 23.088 71.5489 23.564 71.6169 28.392C71.6849 29.82 71.6849 30.296 71.8209 30.772C71.9569 31.18 72.0249 31.588 72.0249 32.064C71.9569 32.472 72.0249 33.152 72.0929 33.56L72.2969 34.648C72.3649 35.192 73.1809 36.824 73.7929 37.572C74.4729 38.388 75.3569 39.34 75.6969 39.544C76.1049 39.748 77.3289 40.02 77.8049 40.02ZM103.274 39.476C103.682 39.272 105.45 37.776 105.79 37.3L106.674 36.212C107.49 35.26 108.034 34.512 108.17 34.104C108.238 33.9 108.51 33.424 108.782 33.016C109.054 32.608 109.598 31.792 109.87 31.18L110.754 29.616C111.298 28.936 111.434 28.528 111.706 27.44C112.046 26.08 112.114 25.876 111.91 25.604C111.774 25.468 111.706 25.4 111.434 25.4C111.162 25.4 111.026 25.468 110.482 26.08C110.006 26.556 109.734 26.964 109.258 28.052L108.306 29.956L107.898 30.772L107.286 31.724C107.082 32.064 106.674 32.676 106.402 33.016L105.45 34.308C104.906 34.988 104.158 35.736 104.022 35.736C103.954 35.736 103.886 35.532 103.818 35.056C103.818 34.648 103.682 34.172 103.614 33.9C103.546 33.628 103.478 33.016 103.478 32.608L103.546 30.772V29.208C103.546 28.732 103.478 28.528 103.274 28.12C103.138 27.78 103.002 27.508 103.002 27.236C103.002 26.556 102.39 25.536 101.914 25.4C101.846 25.332 101.778 24.924 101.778 24.312C101.778 22.884 101.642 21.116 101.438 20.708L101.098 19.688C100.962 19.348 100.69 18.804 100.486 18.532L99.8736 17.58C99.5336 16.968 99.1936 16.696 98.1736 16.356C97.2216 15.948 96.6776 15.88 95.2496 16.22C94.7056 16.356 94.1616 16.56 94.0256 16.628C92.5296 17.444 90.8296 19.144 90.3536 20.164C90.2176 20.504 89.9456 20.98 89.7416 21.252C89.5376 21.524 89.2656 22.068 89.1296 22.476C88.9936 22.952 88.7216 23.564 88.5176 23.904C88.3136 24.244 88.1096 24.788 88.0416 25.06C88.0416 25.4 87.8376 25.876 87.6336 26.216C87.2936 26.896 87.2256 27.576 87.4976 28.664C87.5656 29.14 87.6336 29.548 87.5656 30.364C87.4976 31.724 87.5656 32.132 88.3136 33.152L89.1296 34.376C89.4696 34.988 89.8776 35.396 90.3536 35.668L91.1696 36.144C92.3936 36.96 93.4136 37.028 94.9096 36.28C95.4536 36.008 95.7256 35.804 96.1336 35.26C96.6776 34.58 98.0376 33.152 98.0376 33.288L98.1736 33.832L98.3776 35.464C98.5136 36.688 98.5136 36.688 99.2616 37.708C99.8736 38.592 100.35 39.068 101.03 39.34C101.71 39.544 102.866 39.612 103.274 39.476ZM93.8216 32.132C93.6176 31.996 93.4816 31.52 93.4136 30.84C93.4136 30.432 93.2776 29.956 93.2096 29.752C92.9376 29.14 93.0736 27.236 93.4136 26.352C93.5496 26.012 93.6856 25.4 93.7536 24.992C93.8216 24.38 93.8896 24.108 94.0936 23.836C94.5016 23.224 94.7736 22.544 94.7736 22.068C94.7736 21.864 94.8416 21.592 94.9096 21.388C95.0456 20.98 96.3376 19.756 96.6096 19.756C96.6776 19.756 96.9496 19.892 97.1536 20.028C97.3576 20.164 97.6296 20.436 97.6976 20.572C97.9016 20.844 98.3096 21.796 98.6496 22.952C98.9896 23.972 99.0576 24.108 99.1936 24.652C99.1936 24.924 99.3296 25.196 99.3976 25.4C99.4656 25.536 99.5336 25.74 99.5336 25.808C99.5336 26.08 98.9896 27.032 98.3776 27.712C98.0376 28.052 97.7656 28.392 97.7656 28.46C97.7656 28.528 97.4936 28.8 97.2216 29.072C96.9496 29.344 96.6096 29.684 96.5416 29.82C96.4736 30.024 96.2696 30.228 96.1336 30.432L95.4536 31.18C95.0456 31.588 93.9576 32.2 93.8216 32.132ZM118.098 44.78C119.254 44.644 120.478 44.032 122.246 42.808C122.858 42.4 123.198 42.06 123.47 41.652C123.674 41.312 123.946 40.904 124.082 40.768C124.422 40.496 124.966 39.34 125.17 38.592C125.306 38.252 125.442 37.708 125.646 37.368C125.782 37.028 125.986 36.348 126.054 35.94C126.19 35.464 126.326 35.056 126.326 34.92C126.462 34.784 126.938 33.288 127.346 31.928C127.686 30.908 127.754 30.636 127.822 30.704C127.958 30.84 128.434 32.472 128.434 32.812C128.434 33.084 128.57 33.628 128.706 34.036L128.978 34.988C128.978 35.464 129.25 36.212 129.658 36.62L130.474 37.708C131.358 38.796 131.97 39.068 133.398 39.068C134.146 39.068 135.166 38.864 135.438 38.66L136.322 38.252C137.002 37.98 137.274 37.844 137.954 37.164C139.518 35.532 140.266 34.512 140.674 33.56C140.878 32.948 141.286 32.132 141.966 30.908L142.102 30.432C142.102 30.16 142.578 28.936 142.782 28.664C142.918 28.528 143.054 28.12 143.19 27.78C143.258 27.508 143.462 27.168 143.53 27.032C143.734 26.828 143.87 26.556 143.938 26.216C144.006 25.876 143.734 25.536 143.326 25.536C143.054 25.536 142.306 26.216 141.83 26.828C141.082 27.984 140.878 28.256 140.266 29.072C139.858 29.548 139.382 30.228 139.178 30.636C138.838 31.384 138.226 32.336 137.886 32.608C137.75 32.744 137.546 33.016 137.41 33.288C137.07 33.968 135.846 35.192 135.234 35.464C134.962 35.6 134.622 35.736 134.486 35.872C134.078 36.144 133.874 36.008 133.738 35.532C133.67 35.328 133.534 34.852 133.398 34.58C133.126 34.036 133.058 33.9 132.99 32.268C132.922 31.18 132.854 30.364 132.718 30.092C132.582 29.752 132.582 29.548 132.65 29.14C132.718 28.8 132.718 28.46 132.65 28.12C132.514 27.372 132.65 25.196 132.854 24.516C132.99 24.244 133.058 23.768 133.058 23.496C133.058 23.156 133.126 22.816 133.33 22.476C133.67 21.864 133.874 20.98 133.874 20.3C133.874 20.028 133.942 19.552 134.078 19.212C134.282 18.6 134.282 18.464 134.214 17.104C134.146 15.744 134.146 15.608 134.418 14.792L134.622 13.908L135.166 13.772C135.438 13.704 135.982 13.568 136.458 13.568C137.614 13.432 138.498 13.228 139.654 12.684C140.674 12.208 140.674 12.208 141.15 11.46C141.626 10.78 141.626 10.712 141.694 9.76C141.694 8.876 141.694 8.808 141.49 8.468C141.082 7.924 140.742 7.72 140.198 7.72C139.586 7.72 139.246 7.992 139.042 8.672C138.702 9.556 138.362 9.896 137.546 10.304C137.002 10.576 136.662 10.644 135.914 10.712L134.962 10.78C134.962 10.712 134.962 10.44 134.894 10.1L134.758 9.012C134.69 8.604 134.69 8.468 134.894 7.992C135.098 7.244 135.098 6.564 134.894 5.408L134.622 4.388L134.894 3.708C135.166 2.62 134.962 1.872 134.214 1.056C133.534 0.239996 132.65 -0.0320001 131.97 0.171997C131.426 0.308 131.154 0.511997 130.542 1.328C129.522 2.552 129.386 2.892 129.386 4.252C129.386 5.476 129.318 5.748 128.706 7.108C128.502 7.584 128.434 7.856 128.434 8.468C128.434 8.944 128.366 9.556 128.366 9.896L128.23 10.508L126.326 10.644C124.762 10.644 124.218 10.644 123.402 10.508C122.858 10.44 122.382 10.372 122.314 10.44L121.362 10.576C120.682 10.644 120.138 10.78 119.526 11.052C118.846 11.324 118.438 11.392 117.758 11.46C116.874 11.528 116.738 11.596 115.582 12.208L114.834 12.548C114.63 12.616 114.222 12.82 113.95 13.024C113.474 13.364 112.454 14.928 112.318 15.336C112.182 16.084 112.93 16.9 113.746 16.9C114.086 16.9 114.29 16.832 114.766 16.492C115.242 16.152 115.446 16.084 116.33 15.948C116.874 15.88 117.758 15.676 118.166 15.472C118.642 15.336 119.186 15.2 119.458 15.2C119.662 15.2 120.138 15.132 120.41 14.996C120.818 14.928 121.158 14.86 121.498 14.928C121.838 14.928 122.314 14.928 122.586 14.86L123.606 14.656C123.946 14.656 124.354 14.52 124.558 14.452C124.83 14.316 125.374 14.248 126.258 14.248C126.938 14.248 127.55 14.316 127.618 14.316C127.618 14.316 127.618 14.52 127.55 14.724C127.482 14.928 127.414 16.016 127.414 17.784C127.414 20.028 127.414 20.572 127.278 20.912C127.006 21.728 126.938 22.272 127.142 23.02C127.21 23.36 127.278 24.312 127.278 25.196C127.346 26.488 127.346 26.692 127.142 27.1L126.87 27.984C126.734 28.528 126.326 29.616 126.122 30.024C125.986 30.228 125.918 30.432 125.918 30.5C125.918 30.772 125.51 31.996 125.102 32.812C124.898 33.22 124.626 33.9 124.558 34.24C124.422 34.512 124.218 34.988 124.082 35.192L123.402 36.416C122.858 37.504 122.382 38.048 120.546 39.748C119.798 40.428 119.73 40.496 119.05 40.564C118.37 40.7 118.302 40.7 117.962 40.496C117.554 40.292 117.554 40.224 117.418 39.408C117.418 39.136 117.282 38.66 117.214 38.32C117.078 38.048 117.01 37.572 117.01 37.3C117.01 37.096 116.874 36.552 116.806 36.144C116.398 34.512 116.398 34.512 116.602 33.288C116.738 32.608 116.806 31.656 116.806 31.18C116.806 30.704 116.874 29.616 116.942 28.8C117.078 27.644 117.146 27.236 117.282 27.032C117.622 26.556 117.894 25.944 118.03 25.264C118.098 24.856 118.302 24.312 118.574 23.768C118.846 23.292 118.982 22.884 118.982 22.748C118.982 22.544 119.322 21.932 119.526 21.864C119.73 21.796 120.07 22.204 120.206 22.748L120.546 23.632C120.614 23.904 120.75 24.312 120.75 24.584C120.75 24.856 120.818 24.992 121.022 25.264C121.362 25.604 121.77 25.604 122.042 25.264C122.518 24.652 122.858 23.428 122.722 22.884L122.45 21.592C122.246 20.504 122.042 19.96 121.43 19.484C120.886 19.076 119.458 18.396 118.982 18.396C118.574 18.396 117.554 18.736 116.942 19.008C116.058 19.484 114.358 20.776 114.018 21.252L113.134 22.34C112.726 22.748 112.522 23.088 112.454 23.496L112.114 24.584C112.046 24.856 111.774 25.468 111.502 25.876C111.094 26.624 110.958 27.236 110.482 29.548C110.414 29.82 110.346 30.84 110.346 31.724C110.278 33.016 110.278 33.56 110.142 34.036C109.802 35.124 110.006 36.212 110.754 37.436C110.89 37.64 111.026 38.048 111.094 38.592C111.162 39.612 111.23 39.748 112.25 41.176C113.27 42.74 114.154 43.556 115.378 44.168C116.466 44.78 117.146 44.916 118.098 44.78Z" fill="#FFC501"/>
</svg>
