<svg width="444" height="57" viewBox="0 0 444 57" fill="none" xmlns="http://www.w3.org/2000/svg">
<path d="M3.74 44.564C4.284 44.564 4.828 44.088 5.1 43.476L5.508 42.728C5.576 42.66 5.712 42.456 5.712 42.32C5.712 42.048 6.256 40.348 6.528 39.94C6.732 39.464 7.072 38.512 7.752 36.608C7.956 36.132 8.092 35.588 8.092 34.908C8.16 34.228 8.228 33.684 8.364 33.14C8.772 32.188 8.704 31.1 8.5 30.352C7.956 28.992 8.704 28.448 8.976 26.612C9.112 26.272 9.248 25.796 9.316 25.592L9.928 24.164C10.54 22.464 10.676 22.396 11.152 21.308C11.22 21.036 11.424 20.764 11.492 20.696C11.56 20.628 11.628 20.492 11.628 20.356C11.764 20.016 12.58 18.724 12.784 18.452L13.192 17.772C13.464 17.432 13.736 16.956 14.756 15.8C15.232 15.188 16.32 14.372 16.796 14.168C17 14.168 17.34 14.984 17.544 16.208C17.612 16.752 17.816 17.568 17.952 17.908C18.836 20.9 18.836 20.968 18.768 23.824C18.768 24.504 18.904 25.66 18.972 26.34C19.04 27.428 19.108 30.08 18.972 31.1C18.904 32.868 18.632 34.296 18.632 34.364C18.564 34.432 18.496 34.976 18.36 35.656C18.292 36.676 18.156 36.948 17.816 37.696C17.272 38.988 16.932 39.668 16.524 39.94C16.184 40.348 15.3 40.688 15.028 40.756C14.212 40.688 11.764 38.58 11.356 37.56L10.88 36.676C10.744 36.404 10.676 35.996 10.608 35.724C10.472 35.112 10.268 34.976 9.86 35.112C9.588 35.316 9.452 35.792 9.52 36.608C9.588 37.492 9.928 38.58 10.404 39.26C10.812 39.872 11.832 40.96 12.58 41.64L13.668 42.592C14.212 43 14.756 43.272 15.708 43.476C16.66 43.748 17.136 43.612 18.496 43C19.448 42.66 19.652 42.524 20.196 41.912L21.148 40.756C21.352 40.552 21.692 40.076 21.964 39.804C22.508 39.26 22.712 38.988 23.46 37.22C23.664 36.812 23.936 36.336 24.072 36.132C24.616 35.452 24.82 34.976 24.956 33.82C25.16 32.256 25.296 31.576 25.636 30.828C26.18 29.672 26.452 28.516 26.248 27.564C26.18 27.088 26.18 25.592 26.18 23.348C26.18 21.716 26.18 21.308 25.84 20.22C25.636 19.744 25.568 19.2 25.568 18.52C25.568 17.364 25.5 17.024 25.16 16.208C24.956 15.8 24.82 15.188 24.752 14.848C24.616 14.168 24.412 13.76 23.596 12.536C23.12 11.652 22.78 11.312 22.1 10.768C21.216 10.088 20.876 9.884 19.584 9.476C18.292 9.068 17.884 9.068 17.136 9.34C16.592 9.476 16.252 9.884 15.572 10.836C15.164 11.516 14.688 12.128 14.008 12.876C13.872 13.08 13.532 13.488 13.328 13.896C13.056 14.576 12.58 15.256 12.376 15.596C12.308 15.664 12.036 16.072 11.764 16.616L11.152 17.704C11.084 17.84 10.948 18.112 10.88 18.316C10.676 18.996 9.044 22.804 8.908 22.872C8.84 22.872 8.84 22.6 8.976 21.24C8.976 20.288 9.044 19.132 9.044 18.588C8.976 17.228 8.976 14.44 9.044 12.944C9.112 11.652 9.112 11.448 8.568 10.564C8.432 10.36 8.364 10.02 8.296 9.816C8.296 8.864 7.616 7.912 6.8 7.572C6.12 7.3 5.508 7.232 5.1 7.436C4.556 7.572 4.216 7.98 3.672 8.796C3.128 9.748 3.06 10.02 2.856 11.244C2.72 11.924 2.584 12.332 2.312 12.876C1.768 13.964 1.564 14.712 1.564 16.14C1.564 16.752 1.564 17.432 1.496 17.772C1.36 18.792 1.36 19.404 1.496 19.88C1.632 20.492 1.632 20.424 1.088 23.008C0.884 24.028 0.884 24.096 0.952 25.524C1.088 27.02 1.088 27.02 0.884 27.904C0.68 28.788 0.68 28.924 0.748 30.012C0.816 31.44 0.884 32.188 1.02 33.004C1.088 33.48 1.088 33.684 0.884 34.16C0.68 34.908 0.68 35.452 0.816 36.336C0.884 36.676 1.02 37.152 0.952 37.356C0.884 37.9 1.088 38.512 1.564 39.464C1.972 40.28 2.04 40.484 2.176 41.436C2.244 41.98 2.244 42.592 2.244 42.796C2.176 43.816 2.856 44.564 3.74 44.564ZM37.3315 39.192C39.2355 38.988 40.5275 38.58 42.0235 37.696L43.6555 36.608C44.0635 36.404 44.6755 35.86 45.0835 35.52C45.7635 34.84 45.8315 34.772 46.7835 33.548C47.1235 33.14 47.5315 32.596 47.8035 32.392C48.2795 31.848 49.3675 30.624 49.6395 30.216C49.9115 29.944 49.9115 29.604 49.7075 29.4C49.2315 28.992 48.8235 29.264 46.3755 31.644C46.0355 31.916 45.7635 32.188 45.6955 32.188C45.6275 32.188 45.2875 32.46 44.9475 32.8C43.7235 33.956 42.7715 34.84 42.3635 35.112L41.6155 35.656C41.0715 36.132 39.4395 36.676 38.5555 36.676C38.2835 36.676 37.9435 36.608 37.3995 36.336C36.5155 35.86 35.9035 35.18 35.7675 34.5L35.4955 33.616C35.2915 33.208 35.2915 32.936 35.2235 31.916V30.488C35.1555 30.012 35.6995 29.4 36.7875 28.72C38.2155 27.768 38.2155 27.632 39.2355 26.884C39.5755 26.68 39.9155 26.34 39.9835 26.204C40.1195 26 40.3235 25.796 40.5275 25.592C41.0035 25.252 41.1395 25.116 41.5475 24.436C42.3635 23.212 41.9555 24.572 43.6555 20.9C43.7235 20.696 43.9275 20.22 43.9955 19.88L44.2675 18.656C44.4035 18.248 44.4715 17.568 44.4715 16.956C44.4715 16.004 44.4715 15.936 44.1995 15.528C43.8595 15.052 42.7035 14.1 42.0915 13.76C41.6835 13.556 41.2755 13.556 40.5275 13.624C40.0515 13.692 38.7595 14.1 38.0115 14.508C37.6715 14.712 37.0595 14.916 36.7195 15.052C35.9715 15.256 34.6795 16.072 34.2035 16.548C33.9995 16.752 33.7275 17.092 33.5915 17.432C32.9115 18.656 31.8915 19.472 31.6875 20.628C31.6195 20.832 31.4155 21.24 31.2115 21.58C31.0075 21.92 30.7355 22.532 30.5995 22.872C30.5315 23.212 30.2595 23.688 30.1235 23.96C29.7835 24.504 29.1035 27.02 29.0355 28.04C28.9675 28.924 29.1715 29.196 29.4435 31.1C29.5795 32.256 30.1235 34.024 30.5315 34.908C31.0075 35.724 31.7555 36.948 32.0275 37.152C32.2995 37.492 33.5235 38.24 34.2035 38.58C34.4755 38.716 35.0875 38.92 35.5635 39.056C36.3795 39.328 36.4475 39.328 37.3315 39.192ZM36.9915 25.66C36.8555 25.66 36.8555 25.66 37.0595 24.912C37.2635 23.824 37.7395 22.804 38.1475 22.192C38.5555 21.648 38.8955 20.9 38.8955 20.56C38.8955 20.22 39.3035 19.744 39.7795 19.472C40.3915 19.064 40.7995 18.656 41.3435 17.908C41.7515 17.364 42.0235 17.296 42.1595 17.636C42.2275 17.704 42.2275 18.044 42.2275 18.452C42.2275 18.996 42.0915 19.2 41.5475 20.356C40.9355 21.648 40.2555 22.6 39.3035 23.552C37.4675 25.32 37.1275 25.66 36.9915 25.66ZM58.7605 41.504C59.4405 41.504 59.5765 41.504 60.5285 41.232C61.2085 40.96 61.6165 40.756 61.8205 40.552C62.0245 40.348 62.4325 40.076 62.7045 39.94C63.5885 39.396 64.7445 38.172 65.5605 36.88C67.8045 33.548 67.8045 33.548 68.0085 32.528C68.3485 31.032 69.1645 29.536 68.5525 29.264C67.9405 28.924 67.7365 29.604 67.0565 30.352C66.8525 30.556 66.6485 30.828 66.5125 31.032L65.7645 31.984C65.4245 32.324 65.0845 32.868 64.8805 33.208C64.5405 33.956 63.6565 35.384 63.3165 35.656L62.8405 36.268C62.5005 36.88 62.1605 37.152 61.2765 37.696C59.7805 38.58 59.8485 38.512 59.4405 38.444C58.8965 38.24 57.9445 37.288 57.7405 36.676C57.6725 36.404 57.4005 35.928 57.1965 35.588C56.5165 34.568 56.3805 33.956 56.3125 32.256C56.1085 29.672 55.9725 28.516 55.9725 26.136C55.9725 24.3 55.9725 24.232 56.2445 23.484C56.4485 22.736 56.5165 22.6 56.4485 21.716C56.3805 20.832 56.3805 20.696 56.5845 20.22C56.7205 19.88 56.8565 19.472 56.9245 19.2C56.9245 18.996 57.0605 18.452 57.1965 18.112C57.3325 17.568 57.4685 17.092 57.5365 16.208C57.6045 15.188 57.6045 14.984 57.8765 14.576C58.4885 13.42 58.5565 13.284 58.6245 12.196C58.8965 9.068 58.9645 8.524 59.4405 7.3C59.8485 6.144 59.9165 5.94 59.9165 5.056C59.9165 4.512 60.0525 3.696 60.1205 3.22C60.2565 2.54 60.2565 2.336 60.1885 1.996C59.9845 1.384 59.5765 0.771996 59.0325 0.363998C58.6245 0.0919971 58.5565 0.023998 57.9445 0.023998C57.4685 0.023998 57.1965 0.023998 56.9925 0.159996C56.5845 0.363998 56.3805 0.5 55.8365 1.316C55.2925 2.064 54.7485 3.084 54.3405 4.172C54.2045 4.512 53.8645 5.056 53.6605 5.328C53.2525 5.804 52.9805 6.552 52.9805 7.096C52.9805 7.232 52.8445 7.64 52.7085 8.048C52.1645 9.068 52.0965 9.612 52.0965 10.564C52.0965 11.38 52.0285 11.516 51.6885 12.332C51.2805 13.352 50.8725 15.188 50.8725 16.004C50.8725 16.752 50.6005 18.384 50.3965 18.996C50.2605 19.268 50.1925 19.608 50.1925 19.812C50.1925 20.016 50.1245 20.424 50.0565 20.764C49.9205 21.24 49.9205 21.648 49.9205 22.6C49.9885 23.416 49.9885 24.232 49.9205 24.776C49.8525 25.592 49.8525 25.796 49.9885 26.748C50.2605 27.972 50.3285 29.332 50.4645 31.032C50.6005 32.8 50.9405 32.256 51.0085 33.684C51.0085 34.568 51.2125 35.18 51.6885 35.792C51.8245 35.996 52.0965 36.404 52.2325 36.676C52.3685 37.016 52.7085 37.492 52.9805 37.764L54.0005 38.988C54.8165 39.94 55.3605 40.348 56.3805 40.824C57.6725 41.368 57.8765 41.436 58.7605 41.504ZM72.4997 15.868C72.8397 16.072 73.4517 16.004 73.9277 15.8C74.1997 15.664 74.4717 15.528 74.6077 15.528C74.9477 15.528 75.2197 15.324 75.3557 15.052C75.4237 14.916 75.4917 14.508 75.4917 14.168C75.5597 13.556 75.5597 13.556 75.2197 13.08C74.8797 12.536 74.1997 11.924 73.7917 11.72C73.4517 11.516 72.6357 11.584 72.2957 11.788C71.8877 11.992 71.6837 12.264 71.4797 12.876C71.2077 13.76 71.1397 14.372 71.2077 14.644C71.3437 14.848 72.1597 15.664 72.4997 15.868ZM73.6557 43.816C74.2677 43.816 74.8117 43.544 75.2197 43C75.6277 42.388 75.6957 42.116 75.5597 40.416C75.4917 38.988 75.5597 37.22 75.6957 35.792C75.7637 35.384 75.6957 34.976 75.6277 34.5C75.2197 32.596 75.8317 32.664 75.8317 30.148C75.8317 29.536 75.8997 28.788 75.8997 28.584C76.0357 28.108 76.1037 26.952 76.2397 24.64C76.3757 23.484 76.1717 23.008 75.0837 21.58C74.2677 20.492 73.7917 20.084 73.1797 19.88C72.5677 19.744 72.3637 19.744 71.8197 19.88C70.8677 20.152 70.4597 20.9 69.3717 22.328L68.8957 23.144C68.7597 23.688 68.4877 25.116 68.4197 26.408L68.2157 28.244C68.0117 29.264 68.0117 33.616 68.1477 34.84C68.2157 35.86 68.8957 38.58 69.2357 39.192C69.3717 39.464 69.7117 39.94 69.9837 40.212C70.3917 40.62 70.5277 40.824 70.6637 41.368C70.8677 41.912 70.9357 42.048 71.6157 42.728C72.4997 43.612 72.9077 43.816 73.6557 43.816ZM86.5847 40.552C87.7407 40.824 88.8967 40.212 89.0327 39.124C89.1007 38.92 89.1687 38.512 89.3047 38.24C90.0527 36.676 91.4807 33.276 91.7527 32.188C91.8887 31.712 92.1607 31.236 92.2967 30.964C92.5687 30.556 93.1127 29.468 93.4527 28.584C93.6567 27.904 93.8607 27.564 94.2687 26.952C94.4727 26.68 95.0167 25.728 95.4927 24.776C95.9687 23.824 96.4447 22.872 96.5807 22.736C96.9887 22.328 97.5327 21.172 97.5327 20.832C97.5327 20.22 96.8527 19.812 96.1727 20.084C95.6287 20.288 94.5407 21.172 94.5407 21.444C94.5407 21.512 94.4047 21.716 94.2687 21.852C94.1327 22.056 93.8607 22.464 93.7247 22.736C93.5207 23.076 93.2487 23.484 93.0447 23.688L92.5007 24.64C92.2967 25.184 91.3447 26.816 91.0727 27.156C90.9367 27.292 90.8007 27.632 90.6647 27.904C90.3247 28.788 89.1687 30.964 88.9647 31.236L88.6247 31.712C88.4887 31.984 88.2847 31.848 88.0127 31.304C87.8087 30.828 87.8087 30.624 87.8087 29.876C87.8087 29.128 87.7407 28.856 87.4007 27.768L86.8567 26.272C86.7207 26.068 86.5847 25.592 86.5167 25.184C86.4487 24.776 86.2447 24.232 86.1767 24.028L85.7687 23.008C85.6327 22.464 85.4967 22.26 84.9527 21.784C84.6127 21.376 84.2047 21.036 84.0007 20.968C83.1167 20.56 81.7567 20.9 81.2127 21.648C81.0767 21.852 80.8727 22.532 80.6687 23.144C80.3967 24.164 80.3287 24.3 80.3967 25.116C80.6007 27.768 80.6007 27.972 80.8727 28.584C81.0087 28.924 81.1447 29.468 81.2127 29.944C81.2807 30.488 81.3487 30.828 81.6207 31.372C81.8247 31.712 82.0967 32.256 82.0967 32.596C82.1647 32.868 82.3687 33.344 82.5047 33.684C82.6407 33.956 82.8447 34.432 82.9127 34.704C82.9807 34.976 83.1847 35.52 83.3887 35.928C83.5247 36.336 83.8647 37.084 84.0007 37.628C84.2047 38.172 84.4767 38.784 84.6807 39.124C85.1567 39.804 85.9047 40.416 86.5847 40.552ZM107.186 39.192C109.09 38.988 110.382 38.58 111.878 37.696L113.51 36.608C113.918 36.404 114.53 35.86 114.938 35.52C115.618 34.84 115.686 34.772 116.638 33.548C116.978 33.14 117.386 32.596 117.658 32.392C118.134 31.848 119.222 30.624 119.494 30.216C119.766 29.944 119.766 29.604 119.562 29.4C119.086 28.992 118.678 29.264 116.23 31.644C115.89 31.916 115.618 32.188 115.55 32.188C115.482 32.188 115.142 32.46 114.802 32.8C113.578 33.956 112.626 34.84 112.218 35.112L111.47 35.656C110.926 36.132 109.294 36.676 108.41 36.676C108.138 36.676 107.798 36.608 107.254 36.336C106.37 35.86 105.758 35.18 105.622 34.5L105.35 33.616C105.146 33.208 105.146 32.936 105.078 31.916V30.488C105.01 30.012 105.554 29.4 106.642 28.72C108.07 27.768 108.07 27.632 109.09 26.884C109.43 26.68 109.77 26.34 109.838 26.204C109.974 26 110.178 25.796 110.382 25.592C110.858 25.252 110.994 25.116 111.402 24.436C112.218 23.212 111.81 24.572 113.51 20.9C113.578 20.696 113.782 20.22 113.85 19.88L114.122 18.656C114.258 18.248 114.326 17.568 114.326 16.956C114.326 16.004 114.326 15.936 114.054 15.528C113.714 15.052 112.558 14.1 111.946 13.76C111.538 13.556 111.13 13.556 110.382 13.624C109.906 13.692 108.614 14.1 107.866 14.508C107.526 14.712 106.914 14.916 106.574 15.052C105.826 15.256 104.534 16.072 104.058 16.548C103.854 16.752 103.582 17.092 103.446 17.432C102.766 18.656 101.746 19.472 101.542 20.628C101.474 20.832 101.27 21.24 101.066 21.58C100.862 21.92 100.59 22.532 100.454 22.872C100.386 23.212 100.114 23.688 99.9775 23.96C99.6375 24.504 98.9575 27.02 98.8895 28.04C98.8215 28.924 99.0255 29.196 99.2975 31.1C99.4335 32.256 99.9775 34.024 100.386 34.908C100.862 35.724 101.61 36.948 101.882 37.152C102.154 37.492 103.378 38.24 104.058 38.58C104.33 38.716 104.942 38.92 105.418 39.056C106.234 39.328 106.302 39.328 107.186 39.192ZM106.846 25.66C106.71 25.66 106.71 25.66 106.914 24.912C107.118 23.824 107.594 22.804 108.002 22.192C108.41 21.648 108.75 20.9 108.75 20.56C108.75 20.22 109.158 19.744 109.634 19.472C110.246 19.064 110.654 18.656 111.198 17.908C111.606 17.364 111.878 17.296 112.014 17.636C112.082 17.704 112.082 18.044 112.082 18.452C112.082 18.996 111.946 19.2 111.402 20.356C110.79 21.648 110.11 22.6 109.158 23.552C107.322 25.32 106.982 25.66 106.846 25.66ZM123.719 40.28C124.535 40.212 125.147 39.804 125.487 39.124C126.303 37.492 126.507 37.016 126.507 36.88L126.643 35.86C126.779 35.452 126.915 34.636 126.915 34.092C126.983 33.412 127.051 33.004 127.255 32.596C127.527 31.984 127.527 31.984 127.595 29.876V27.768C127.799 27.428 128.071 27.02 128.479 26.136C128.683 25.796 129.023 25.116 129.295 24.776C129.771 24.096 130.927 22.872 131.063 22.872C131.131 22.872 131.335 22.804 131.471 22.736C131.743 22.464 132.831 22.056 133.307 21.988C133.511 21.988 133.851 21.852 134.123 21.716C134.599 21.444 134.667 21.444 135.619 21.512C136.639 21.58 136.707 21.58 137.047 21.376C137.455 21.104 137.659 20.832 137.659 20.356C137.659 19.812 137.251 19.472 136.367 19.132C135.823 18.928 135.619 18.928 134.395 18.928C131.471 18.928 131.471 19.676 130.247 20.22C129.703 20.56 129.023 21.172 128.275 22.056C127.935 22.464 127.663 22.804 127.663 22.736C127.527 22.668 127.391 21.92 127.323 20.9C127.255 20.016 127.187 19.744 126.983 19.336C126.711 18.656 125.623 17.568 125.079 17.296C124.535 17.024 123.787 16.956 123.311 17.024C122.291 17.296 121.611 18.044 120.999 19.472C120.455 20.832 119.911 22.532 119.911 22.94L119.979 24.572C120.115 25.796 120.115 25.864 119.911 26.68C119.503 28.38 119.843 28.244 120.115 31.984C120.115 33.072 120.251 34.024 120.387 34.5C120.455 34.908 120.591 35.52 120.591 35.86C120.795 37.832 121.135 38.648 121.883 39.464C122.495 40.076 122.971 40.28 123.719 40.28ZM142.308 56.804C143.396 57.008 144.824 57.008 145.572 56.668C146.32 56.328 148.292 54.832 148.564 54.424C148.7 54.288 149.108 53.812 149.516 53.472C150.332 52.656 151.216 51.364 151.556 50.412C151.692 50.072 151.964 49.392 152.168 49.052C152.372 48.644 152.644 47.964 152.78 47.488C152.848 47.012 153.052 46.332 153.188 46.06C153.392 45.516 153.664 43.34 153.596 42.048C153.596 41.572 153.664 41.164 153.8 40.824C153.936 40.348 153.936 40.28 153.8 39.396C153.664 38.852 153.664 38.444 153.732 38.308C153.732 38.172 154.616 37.22 155.636 36.2C160.056 31.712 160.804 30.896 160.804 30.216C160.804 29.876 160.532 29.536 160.192 29.536C160.056 29.536 159.784 29.672 159.444 29.944L158.56 30.556C158.084 30.896 155.16 33.616 154.344 34.432C154.14 34.704 153.868 34.908 153.8 34.908C153.732 34.908 153.596 34.636 153.46 34.296C153.324 33.752 153.256 33.616 153.392 33.276C153.46 33.004 153.46 32.664 153.46 32.46C153.324 31.508 153.256 30.352 152.984 29.332C152.508 27.224 152.508 27.224 152.644 26.612C152.712 26.068 152.712 26 152.508 25.592L152.168 24.64C152.032 24.096 151.692 23.62 151.284 23.416C150.876 23.144 150.264 23.144 149.924 23.416C149.584 23.62 149.176 24.436 149.04 25.32C148.904 25.728 148.768 26.272 148.632 26.544C148.428 26.952 148.36 27.224 148.292 27.904C148.292 28.652 148.224 28.856 147.884 29.536C147.408 30.692 146.796 31.372 146.592 31.78L146.184 32.596C145.844 33.072 145.572 33.48 144.28 35.112C143.94 35.52 142.988 36.2 142.784 36.2C142.512 36.2 142.376 35.316 142.376 33.956C142.376 32.936 142.376 32.8 142.648 32.188C142.92 31.576 142.92 31.508 142.988 29.332C143.056 27.428 143.056 27.02 143.26 26.068C143.532 25.116 143.532 24.776 143.532 22.872C143.6 20.56 143.532 20.424 143.056 19.812C142.58 19.2 141.696 18.928 141.016 19.268C140.676 19.404 140.336 19.744 139.996 20.288C139.86 20.492 139.724 20.696 139.588 20.764C139.316 21.036 138.908 21.716 138.772 22.26C138.636 22.6 138.5 23.076 138.296 23.348C138.16 23.688 138.024 24.232 137.888 24.572C137.82 24.98 137.684 25.456 137.616 25.728C137.48 26 137.412 26.544 137.344 26.884C137.344 27.292 137.208 27.836 137.14 28.176C137.072 28.584 137.004 29.332 137.004 30.556C137.004 32.12 137.072 32.528 137.208 33.14L137.616 34.568C137.956 36.064 138.976 37.56 139.996 38.172C140.472 38.512 141.9 38.716 142.444 38.648C143.804 38.376 145.572 36.54 147.068 33.82L147.476 33.14C147.544 33.072 147.952 34.364 147.952 34.772C147.952 34.976 147.816 35.384 147.748 35.724C147.476 36.404 147.476 37.084 147.748 38.172C147.952 38.988 148.02 39.192 147.884 39.94C147.816 40.892 147.544 41.436 146.66 42.32C146.32 42.66 145.98 43.068 145.912 43.204C145.708 43.544 144.96 44.496 144.348 45.312C143.668 46.128 143.396 46.604 143.056 47.08C142.852 47.216 142.648 47.556 142.58 47.76C142.308 48.372 141.9 48.984 141.628 49.392C141.22 49.936 140.2 51.908 140.132 52.452C140.064 52.656 139.996 53.268 139.996 53.812C139.928 54.832 139.928 54.968 140.744 55.852C141.22 56.464 141.356 56.532 142.308 56.804ZM142.444 54.22C142.104 54.016 142.036 53.948 141.968 53.132C141.9 52.52 142.172 51.432 142.58 50.752C142.716 50.412 142.92 50.208 142.92 50.14C142.988 50.14 143.056 49.936 143.124 49.732C143.192 49.528 143.328 49.256 143.464 49.12C143.6 48.984 143.736 48.712 143.804 48.508C143.94 48.372 144.144 48.032 144.28 47.896L144.892 47.148C145.096 46.876 145.708 46.196 146.252 45.584C147.68 44.088 147.68 44.02 147.816 44.02C147.884 44.02 147.952 44.36 148.088 44.836C148.224 45.72 148.224 45.72 148.02 46.264C147.816 46.74 147.816 46.944 147.884 47.556C147.884 48.032 147.884 48.304 147.748 48.576L147.544 49.392C147.476 49.664 147.34 50.004 147.204 50.208L146.728 51.024C146.184 51.908 145.096 53.336 144.688 53.676C144.416 53.812 144.008 54.016 143.532 54.152C142.784 54.356 142.716 54.356 142.444 54.22ZM182.261 15.868C182.601 16.072 183.213 16.004 183.689 15.8C183.961 15.664 184.233 15.528 184.369 15.528C184.709 15.528 184.981 15.324 185.117 15.052C185.185 14.916 185.253 14.508 185.253 14.168C185.321 13.556 185.321 13.556 184.981 13.08C184.641 12.536 183.961 11.924 183.553 11.72C183.213 11.516 182.397 11.584 182.057 11.788C181.649 11.992 181.445 12.264 181.241 12.876C180.969 13.76 180.901 14.372 180.969 14.644C181.105 14.848 181.921 15.664 182.261 15.868ZM183.417 43.816C184.029 43.816 184.573 43.544 184.981 43C185.389 42.388 185.457 42.116 185.321 40.416C185.253 38.988 185.321 37.22 185.457 35.792C185.525 35.384 185.457 34.976 185.389 34.5C184.981 32.596 185.593 32.664 185.593 30.148C185.593 29.536 185.661 28.788 185.661 28.584C185.797 28.108 185.865 26.952 186.001 24.64C186.137 23.484 185.933 23.008 184.845 21.58C184.029 20.492 183.553 20.084 182.941 19.88C182.329 19.744 182.125 19.744 181.581 19.88C180.629 20.152 180.221 20.9 179.133 22.328L178.657 23.144C178.521 23.688 178.249 25.116 178.181 26.408L177.977 28.244C177.773 29.264 177.773 33.616 177.909 34.84C177.977 35.86 178.657 38.58 178.997 39.192C179.133 39.464 179.473 39.94 179.745 40.212C180.153 40.62 180.289 40.824 180.425 41.368C180.629 41.912 180.697 42.048 181.377 42.728C182.261 43.612 182.669 43.816 183.417 43.816ZM206.886 45.04C207.498 45.04 208.45 44.836 208.926 44.632C209.47 44.428 210.49 43.544 211.306 42.728C211.782 42.184 213.142 40.484 213.142 40.348C213.142 40.28 213.55 39.736 214.162 38.852C214.366 38.512 214.638 38.172 214.706 38.104C214.774 38.104 215.046 37.696 215.25 37.22L216.814 34.636L217.154 33.684C217.63 32.392 217.494 32.8 218.31 30.76C218.378 30.42 218.514 30.08 218.446 29.876C218.378 29.06 217.698 29.468 216.882 30.828C216.474 31.508 215.998 32.256 215.658 32.664C215.25 33.14 214.638 34.296 214.502 34.636C214.434 35.112 213.958 35.996 213.618 36.268C213.346 36.676 212.326 38.308 211.986 38.648C211.782 38.784 211.442 39.192 211.238 39.6C210.694 40.28 210.082 40.892 209.062 41.776C208.722 42.116 208.45 42.184 208.178 42.252C207.566 42.388 207.294 42.116 207.226 41.232L207.022 39.668C206.818 37.9 207.158 38.376 207.09 36.2C207.022 35.18 207.022 34.908 207.158 34.296C207.566 33.004 207.702 32.052 207.634 31.44C207.634 30.964 207.634 30.624 207.77 30.08C208.11 28.652 208.178 27.768 208.178 25.388C208.178 23.076 208.178 23.076 207.906 22.464C207.77 22.056 207.634 21.716 207.566 21.716L207.09 20.696C206.614 19.812 206.274 19.472 205.458 19.064C204.846 18.792 204.234 18.656 203.826 18.86C203.418 18.996 203.35 19.064 202.262 20.016C200.766 21.24 198.522 23.96 197.706 25.524C197.162 26.408 196.482 27.292 196.414 27.224C196.346 27.224 196.278 26.612 196.278 26C196.21 25.252 196.142 24.572 196.006 24.3L195.802 23.076C195.734 22.328 195.53 21.784 194.918 21.036C194.442 20.492 193.898 20.22 193.286 20.152C192.47 20.084 192.13 20.356 191.586 21.24C190.702 22.872 190.77 22.804 190.634 24.096C190.43 27.7 190.022 26.952 190.226 28.448C190.226 28.856 190.294 29.74 190.362 30.352C190.362 31.304 190.362 31.644 190.566 32.12C190.906 32.936 191.586 35.86 191.79 36.2C192.266 37.016 192.878 37.356 193.694 37.288C194.374 37.288 194.918 36.948 195.19 36.336L195.666 35.316C195.802 34.976 196.006 34.296 196.142 33.752C196.21 33.208 196.414 32.664 196.482 32.46C196.618 32.256 196.686 31.916 196.754 31.712C196.822 31.304 197.366 30.08 197.706 29.468L198.046 28.72C198.182 28.244 198.862 27.088 199.338 26.476C199.542 26.204 199.746 25.864 199.882 25.592C200.29 24.776 202.738 22.6 202.942 22.804C203.01 22.872 202.602 24.776 202.398 25.456C202.262 25.796 202.126 26.34 202.058 26.612L201.922 27.768C201.786 28.244 201.786 28.516 201.854 29.06C201.99 29.672 201.922 29.808 201.786 30.352C201.582 31.032 201.378 32.936 201.378 34.364C201.378 34.704 201.378 35.384 201.31 35.724C201.31 36.268 201.31 36.54 201.378 36.812C201.446 36.948 201.514 37.56 201.582 38.104C201.65 39.464 201.718 39.26 202.466 40.824C202.602 41.164 202.874 41.572 203.078 41.776C203.282 42.048 203.554 42.456 203.69 42.728C204.302 43.816 205.934 45.04 206.886 45.04ZM226.979 49.256C227.591 49.256 227.795 49.256 228.679 48.848C229.223 48.576 229.835 48.236 230.107 48.032C230.855 47.352 231.603 46.06 231.603 45.448C231.603 45.312 231.671 45.04 231.739 44.904C232.079 43.952 232.283 41.368 232.079 40.552C231.943 40.212 231.875 39.668 231.875 39.124C231.875 38.648 231.875 37.968 231.807 37.696L231.603 36.132C231.535 35.112 231.535 35.112 230.719 33.752C230.243 32.936 230.175 32.8 230.583 32.868C231.739 33.14 233.779 33.004 234.867 32.596C235.207 32.46 235.683 32.392 235.887 32.392C236.091 32.392 236.635 32.188 237.179 31.984C238.403 31.44 238.607 31.372 239.287 31.168C240.511 30.828 241.055 29.944 240.239 29.468C239.967 29.332 239.967 29.332 238.743 29.604L237.655 30.012C237.247 30.148 236.635 30.352 236.295 30.42L235.207 30.556C234.935 30.624 234.527 30.76 234.255 30.896C233.983 31.032 233.507 31.168 233.099 31.236C232.283 31.372 230.651 31.304 230.039 31.1C229.223 30.828 228.135 30.624 227.931 30.692C227.591 30.828 227.183 31.236 227.115 31.576C226.979 32.052 227.183 32.732 227.659 33.684C228.067 34.432 228.067 34.636 228.135 35.384C228.203 36.132 228.475 37.832 228.543 37.9C228.611 37.9 228.543 38.036 228.475 38.24C228.407 38.376 228.407 39.124 228.407 39.804C228.339 41.3 228.203 42.592 227.999 43.204L227.727 43.68C227.659 43.748 227.387 43.136 227.387 42.932L227.183 41.844C227.115 41.3 227.047 40.824 227.047 40.552C227.115 40.28 227.047 39.736 226.979 39.192C226.843 38.24 226.843 37.628 227.183 36.132C227.319 35.248 227.319 35.18 227.115 33.752C227.047 32.936 226.911 31.916 226.911 31.44V30.624C228.203 29.332 228.543 28.992 229.563 27.632C229.971 27.02 230.651 26 230.651 25.864L231.195 25.184C231.467 24.776 231.739 24.368 231.739 24.232L232.079 23.484C232.555 22.6 232.827 21.58 233.099 21.172C233.303 20.968 233.779 19.2 233.915 18.452C234.051 17.5 234.119 16.412 234.051 15.324C233.983 13.964 233.847 13.556 232.963 12.672C232.079 11.788 231.059 11.516 229.835 11.856C229.291 11.992 228.747 12.332 228.271 12.876L227.455 13.624C226.503 14.304 225.823 15.052 225.483 15.732C225.075 16.48 224.463 17.432 223.715 18.248C223.103 18.928 222.899 19.268 222.763 20.016C222.695 20.424 222.559 20.628 222.219 21.036C221.947 21.308 221.675 21.852 221.539 22.192C221.403 22.532 221.131 23.008 220.927 23.28C220.791 23.552 220.519 24.232 220.247 24.98C220.043 25.66 219.703 26.476 219.567 26.884C218.887 28.38 218.819 28.788 218.887 29.74L219.023 31.1C219.023 31.372 219.023 31.78 218.887 32.12C218.819 32.46 218.751 33.14 218.751 33.752L218.683 35.588C218.411 38.24 218.411 38.852 218.887 39.94C219.023 40.28 219.159 40.756 219.227 41.3C219.295 42.252 219.363 42.456 219.907 43.204C220.111 43.544 220.315 44.088 220.451 44.428C220.587 44.836 220.723 45.244 220.859 45.448C221.131 45.924 221.811 46.536 222.219 46.808C222.355 46.876 222.899 47.284 223.375 47.76C223.851 48.168 224.463 48.644 224.667 48.78C225.279 49.052 226.231 49.324 226.979 49.256ZM227.319 26.952L227.387 25.932C227.387 24.64 227.727 23.008 228.067 22.26C228.203 21.92 228.475 21.172 228.611 20.628C229.019 19.336 229.291 18.52 229.699 17.5C229.767 17.228 230.039 16.82 230.243 16.616C230.447 16.344 230.719 15.936 230.855 15.664C231.263 14.712 231.603 14.508 231.807 15.12C232.011 15.732 232.011 17.296 231.875 18.112L231.603 19.268C231.603 19.608 231.467 19.948 231.331 20.152L230.923 21.036C230.311 22.532 229.155 24.504 228.407 25.456C228.271 25.592 228.067 25.864 227.931 26.068C227.727 26.476 227.523 26.748 227.319 26.952ZM248.308 41.164C248.784 41.164 249.464 41.096 249.736 41.028L250.552 40.892C250.96 40.824 251.912 40.28 252.456 39.804C253.068 39.328 253.952 38.104 254.496 37.22C255.584 35.18 255.448 34.636 256.128 32.936C256.264 32.528 256.4 31.984 256.468 31.644L256.672 30.488C256.808 29.876 256.876 28.584 256.808 26.952C256.808 26.136 256.332 24.232 255.924 23.552C255.788 23.212 255.652 22.94 255.652 22.872C255.652 22.804 255.516 22.464 255.312 22.056C254.836 21.036 253.612 20.152 252.524 19.812C252.388 19.812 252.252 19.676 252.184 19.54C251.844 18.656 251.708 18.452 251.096 17.976L250.076 17.228C249.532 17.024 248.716 17.024 247.832 17.296L246.54 17.636C245.996 17.772 245.792 17.908 245.384 18.316C244.364 19.336 243.616 20.288 243.276 21.036C243.072 21.444 242.664 22.056 242.46 22.396C241.712 23.348 241.236 24.232 240.964 25.116C240.692 25.796 240.692 26 240.624 27.7C240.556 30.148 240.692 29.876 241.032 32.732L241.236 34.296C241.304 35.044 242.052 35.792 243.276 37.9C244.568 39.94 244.976 40.348 246.472 40.824C247.288 41.096 247.56 41.164 248.308 41.164ZM249.804 36.744C249.668 36.744 249.396 36.54 249.192 36.268L248.784 35.86L248.58 34.5C248.512 33.616 248.444 32.732 248.444 31.916C248.444 31.168 248.444 30.352 248.376 29.944C248.308 29.332 248.308 29.128 248.58 28.516C248.716 28.176 248.852 27.428 248.92 27.02C249.124 26 249.26 25.66 249.736 24.912C250.144 24.232 250.416 23.552 250.552 22.804C250.62 21.92 250.756 21.92 251.096 22.668L251.504 23.552C251.98 24.3 252.456 25.388 252.456 25.524L252.728 26.748C253 27.7 253 27.972 253 28.992C252.932 29.672 253 30.352 253 30.556C253.068 30.692 253 31.168 252.932 31.644L252.66 32.868C252.66 33.072 252.592 33.412 252.456 33.548L252.184 34.432C252.048 34.908 251.844 35.18 251.504 35.52C251.3 35.792 251.028 36.064 250.96 36.2C250.824 36.472 250.076 36.812 249.804 36.744ZM264.192 40.28C265.008 40.212 265.62 39.804 265.96 39.124C266.776 37.492 266.98 37.016 266.98 36.88L267.116 35.86C267.252 35.452 267.388 34.636 267.388 34.092C267.456 33.412 267.524 33.004 267.728 32.596C268 31.984 268 31.984 268.068 29.876V27.768C268.272 27.428 268.544 27.02 268.952 26.136C269.156 25.796 269.496 25.116 269.768 24.776C270.244 24.096 271.4 22.872 271.536 22.872C271.604 22.872 271.808 22.804 271.944 22.736C272.216 22.464 273.304 22.056 273.78 21.988C273.984 21.988 274.324 21.852 274.596 21.716C275.072 21.444 275.14 21.444 276.092 21.512C277.112 21.58 277.18 21.58 277.52 21.376C277.928 21.104 278.132 20.832 278.132 20.356C278.132 19.812 277.724 19.472 276.84 19.132C276.296 18.928 276.092 18.928 274.868 18.928C271.944 18.928 271.944 19.676 270.72 20.22C270.176 20.56 269.496 21.172 268.748 22.056C268.408 22.464 268.136 22.804 268.136 22.736C268 22.668 267.864 21.92 267.796 20.9C267.728 20.016 267.66 19.744 267.456 19.336C267.184 18.656 266.096 17.568 265.552 17.296C265.008 17.024 264.26 16.956 263.784 17.024C262.764 17.296 262.084 18.044 261.472 19.472C260.928 20.832 260.384 22.532 260.384 22.94L260.452 24.572C260.588 25.796 260.588 25.864 260.384 26.68C259.976 28.38 260.316 28.244 260.588 31.984C260.588 33.072 260.724 34.024 260.86 34.5C260.928 34.908 261.064 35.52 261.064 35.86C261.268 37.832 261.608 38.648 262.356 39.464C262.968 40.076 263.444 40.28 264.192 40.28ZM304.169 46.128C304.849 46.264 304.917 46.264 305.597 46.128C306.073 45.992 306.549 45.788 306.889 45.584L307.705 45.108C308.045 44.904 309.881 42.864 310.561 41.844L311.309 40.756C311.445 40.62 311.581 40.416 311.581 40.348C311.581 40.28 311.717 40.008 311.989 39.668L313.213 37.628C313.553 37.016 314.029 35.928 314.097 35.588C314.165 35.384 314.301 35.044 314.437 34.772C314.845 34.228 314.913 33.82 315.865 31.984C316.545 30.556 316.681 30.08 316.409 29.808C316.205 29.604 315.797 29.536 315.457 29.74C315.321 29.808 313.689 32.12 313.689 32.324C313.689 32.392 313.213 33.14 312.873 33.48L312.397 34.228C312.329 34.5 312.057 34.908 311.853 35.112C311.649 35.384 311.309 35.86 311.105 36.268C310.153 38.104 309.337 39.396 308.521 40.348C308.317 40.62 307.977 41.028 307.909 41.232C307.637 41.708 307.093 42.32 306.481 42.864C305.937 43.408 305.529 43.476 305.189 43.136C304.781 42.66 304.645 42.184 304.849 41.232C304.985 40.756 304.985 40.484 304.849 39.872C304.781 39.396 304.781 38.988 304.781 38.716C304.849 38.512 304.917 37.832 304.917 37.22C304.849 36.404 304.917 35.792 305.053 35.18C305.189 34.704 305.257 34.16 305.257 33.956C305.257 33.752 305.325 33.344 305.461 33.072C305.665 32.392 305.869 30.624 305.801 28.856C305.801 27.496 306.005 26 306.209 25.388C306.413 24.844 306.277 23.28 305.937 22.124C305.733 21.648 304.917 20.22 304.645 19.948C304.373 19.676 303.353 19.268 302.877 19.268C302.605 19.268 302.333 19.336 302.061 19.472C301.585 19.744 300.633 20.832 299.749 22.056C299.341 22.532 298.865 23.212 298.593 23.484C298.185 23.96 297.573 24.776 296.553 26.272C295.941 27.156 295.873 27.156 295.805 26.272C295.805 25.932 295.669 25.32 295.533 24.98C295.397 24.64 295.193 24.028 295.125 23.688C295.057 23.28 294.921 22.872 294.785 22.668C294.377 22.056 293.425 21.444 292.609 21.308C292.133 21.24 290.841 21.444 290.501 21.648C290.161 21.852 289.005 23.28 289.005 23.416C289.005 23.484 288.461 24.368 288.189 24.776C288.053 24.98 287.985 25.116 287.985 25.184C287.985 25.252 287.849 25.388 287.713 25.592C287.305 26.068 286.285 27.7 285.809 28.788L285.265 29.808C285.197 29.808 285.197 28.584 285.197 27.088V24.368C284.041 20.696 284.041 20.424 283.089 19.948C282.137 19.472 281.321 19.54 280.845 20.22C280.301 20.764 279.621 23.144 279.553 24.436C279.553 25.252 279.485 25.388 279.213 26C278.941 26.544 278.941 26.68 278.941 27.496V28.856C278.805 30.76 279.009 34.84 279.213 35.384C279.349 35.588 279.281 35.724 279.077 36.404C278.737 37.356 278.669 37.424 278.941 38.376L279.213 39.6C279.281 40.484 279.825 41.3 280.369 41.436C280.573 41.436 280.845 41.572 281.117 41.708C282.137 42.388 283.157 41.844 283.293 40.484C283.429 39.736 283.565 39.124 283.769 38.58C283.837 38.376 283.905 38.036 283.905 37.832C283.905 37.628 284.041 37.288 284.177 37.016C284.313 36.744 284.449 36.268 284.449 36.064C284.517 35.588 284.993 34.092 285.129 33.752L285.401 33.072C285.537 32.8 285.741 32.324 285.945 32.052C286.149 31.78 286.285 31.508 286.285 31.44C286.285 31.236 287.033 29.808 287.441 29.196L287.849 28.516C287.849 28.448 288.393 27.836 289.073 27.088L289.957 26C290.229 25.592 290.501 25.388 290.569 25.524C290.705 25.592 290.773 27.156 290.705 27.904C290.705 28.516 290.705 28.856 290.841 29.196C290.909 29.468 290.977 29.944 290.977 30.352C290.977 30.828 291.045 31.168 291.181 31.576C291.317 31.916 291.453 32.392 291.453 32.596L291.725 33.276C291.861 33.48 291.997 34.024 292.133 34.5C292.405 35.792 292.949 36.472 293.697 36.472C294.445 36.472 294.921 35.928 295.125 34.84C295.193 34.5 295.397 34.024 295.601 33.752C295.737 33.48 295.941 33.072 295.941 32.732C296.213 31.44 296.689 29.604 296.893 29.332C297.369 28.584 297.573 26.952 300.293 23.824C301.449 22.532 301.585 22.532 301.041 23.96C300.905 24.368 300.769 24.912 300.769 25.524C300.701 26.204 300.565 26.68 300.429 27.088C300.225 27.496 300.157 27.904 300.089 28.38C300.089 28.856 299.953 29.4 299.749 30.08C299.477 30.828 299.409 31.236 299.341 32.052C299.273 33.956 298.933 33.956 299.137 34.976C299.205 35.316 299.205 35.792 299.137 36.132C299.069 36.812 299.137 37.492 299.409 38.24C299.545 38.512 299.613 39.056 299.681 39.328C299.681 39.668 299.817 40.552 299.953 41.232C300.293 43 300.361 43.136 302.469 45.176C303.081 45.788 303.285 45.924 304.169 46.128ZM331.804 43.476C332.212 43.272 333.98 41.776 334.32 41.3L335.204 40.212C336.02 39.26 336.564 38.512 336.7 38.104C336.768 37.9 337.04 37.424 337.312 37.016C337.584 36.608 338.128 35.792 338.4 35.18L339.284 33.616C339.828 32.936 339.964 32.528 340.236 31.44C340.576 30.08 340.644 29.876 340.44 29.604C340.304 29.468 340.236 29.4 339.964 29.4C339.692 29.4 339.556 29.468 339.012 30.08C338.536 30.556 338.264 30.964 337.788 32.052L336.836 33.956L336.428 34.772L335.816 35.724C335.612 36.064 335.204 36.676 334.932 37.016L333.98 38.308C333.436 38.988 332.688 39.736 332.552 39.736C332.484 39.736 332.416 39.532 332.348 39.056C332.348 38.648 332.212 38.172 332.144 37.9C332.076 37.628 332.008 37.016 332.008 36.608L332.076 34.772V33.208C332.076 32.732 332.008 32.528 331.804 32.12C331.668 31.78 331.532 31.508 331.532 31.236C331.532 30.556 330.92 29.536 330.444 29.4C330.376 29.332 330.308 28.924 330.308 28.312C330.308 26.884 330.172 25.116 329.968 24.708L329.628 23.688C329.492 23.348 329.22 22.804 329.016 22.532L328.404 21.58C328.064 20.968 327.724 20.696 326.704 20.356C325.752 19.948 325.208 19.88 323.78 20.22C323.236 20.356 322.692 20.56 322.556 20.628C321.06 21.444 319.36 23.144 318.884 24.164C318.748 24.504 318.476 24.98 318.272 25.252C318.068 25.524 317.796 26.068 317.66 26.476C317.524 26.952 317.252 27.564 317.048 27.904C316.844 28.244 316.64 28.788 316.572 29.06C316.572 29.4 316.368 29.876 316.164 30.216C315.824 30.896 315.756 31.576 316.028 32.664C316.096 33.14 316.164 33.548 316.096 34.364C316.028 35.724 316.096 36.132 316.844 37.152L317.66 38.376C318 38.988 318.408 39.396 318.884 39.668L319.7 40.144C320.924 40.96 321.944 41.028 323.44 40.28C323.984 40.008 324.256 39.804 324.664 39.26C325.208 38.58 326.568 37.152 326.568 37.288L326.704 37.832L326.908 39.464C327.044 40.688 327.044 40.688 327.792 41.708C328.404 42.592 328.88 43.068 329.56 43.34C330.24 43.544 331.396 43.612 331.804 43.476ZM322.352 36.132C322.148 35.996 322.012 35.52 321.944 34.84C321.944 34.432 321.808 33.956 321.74 33.752C321.468 33.14 321.604 31.236 321.944 30.352C322.08 30.012 322.216 29.4 322.284 28.992C322.352 28.38 322.42 28.108 322.624 27.836C323.032 27.224 323.304 26.544 323.304 26.068C323.304 25.864 323.372 25.592 323.44 25.388C323.576 24.98 324.868 23.756 325.14 23.756C325.208 23.756 325.48 23.892 325.684 24.028C325.888 24.164 326.16 24.436 326.228 24.572C326.432 24.844 326.84 25.796 327.18 26.952C327.52 27.972 327.588 28.108 327.724 28.652C327.724 28.924 327.86 29.196 327.928 29.4C327.996 29.536 328.064 29.74 328.064 29.808C328.064 30.08 327.52 31.032 326.908 31.712C326.568 32.052 326.296 32.392 326.296 32.46C326.296 32.528 326.024 32.8 325.752 33.072C325.48 33.344 325.14 33.684 325.072 33.82C325.004 34.024 324.8 34.228 324.664 34.432L323.984 35.18C323.576 35.588 322.488 36.2 322.352 36.132ZM347.172 44.02C347.648 44.02 348.872 43.544 349.484 43.136C350.164 42.728 350.504 42.388 350.776 42.184C351.252 41.708 353.02 39.056 353.632 38.172C354.108 37.492 354.72 36.404 355.332 35.18C355.672 34.364 355.808 33.888 355.944 33.14C356.148 31.916 356.216 31.712 356.488 31.032C356.828 30.284 356.828 29.808 356.556 29.604C356.216 29.264 355.876 29.4 355.264 30.012L354.516 30.828C354.312 31.1 353.972 31.576 353.36 32.256C353.02 32.664 351.864 34.704 351.864 34.908C351.864 34.976 351.728 35.18 351.592 35.384C351.456 35.52 351.252 35.86 351.252 35.996C351.116 36.404 350.368 37.832 350.096 38.172L349.484 38.92C349.144 39.464 348.056 40.552 347.58 40.824C347.036 41.096 347.104 40.484 346.424 39.396C345.948 38.716 345.608 36.812 345.54 34.636C345.472 33.82 345.404 32.936 345.336 32.664C345.132 31.712 345.404 27.088 345.268 23.62C345.2 22.26 345.744 21.988 345.608 20.832C345.54 20.016 345.676 19.268 345.948 19.132C346.084 19.064 346.356 19.064 346.832 19.2L347.784 19.404C348.056 19.404 348.532 19.88 348.736 20.22C349.008 20.696 349.212 20.9 349.552 20.9C349.96 20.9 350.232 20.628 350.3 20.152C350.436 19.676 350.3 18.792 350.096 18.452C349.824 17.976 348.532 16.956 347.852 16.684C346.696 16.276 347.036 16.276 346.22 16.072L346.288 15.256C346.424 13.284 346.424 10.564 346.356 10.156C346.084 9.272 344.792 8.66 344.044 9C343.704 9.136 343.432 9.476 342.888 10.768C342.208 12.128 341.868 13.148 341.8 13.964C341.664 14.576 341.46 15.256 341.256 15.46C341.188 15.528 340.644 15.528 339.488 15.528C338.06 15.528 337.788 15.596 337.448 15.732C337.244 15.868 336.904 15.936 336.7 16.004L335.884 16.208C335.612 16.344 334.864 16.48 334.184 16.616C332.96 16.888 332.756 16.956 332.552 17.5C332.144 18.452 332.824 19.472 333.98 19.812C334.864 20.084 335.068 19.88 337.924 19.812C339.08 19.812 339.42 19.812 339.964 19.608C340.916 19.268 340.848 19.268 340.848 20.356C340.848 20.968 340.848 21.512 340.712 21.852C340.576 22.192 340.576 22.532 340.644 23.416C340.712 24.98 340.712 25.116 340.644 25.66C340.576 26 340.644 26.272 340.712 26.612C340.916 27.088 340.916 27.564 340.984 32.392C341.052 33.82 341.052 34.296 341.188 34.772C341.324 35.18 341.392 35.588 341.392 36.064C341.324 36.472 341.392 37.152 341.46 37.56L341.664 38.648C341.732 39.192 342.548 40.824 343.16 41.572C343.84 42.388 344.724 43.34 345.064 43.544C345.472 43.748 346.696 44.02 347.172 44.02ZM360.741 43.544C361.217 43.68 361.353 43.68 362.305 43.544C362.985 43.476 363.461 43.34 363.801 43.136C364.277 42.932 365.093 42.048 365.365 41.504L365.773 40.824C365.909 40.688 366.181 40.212 366.385 39.804C366.997 38.376 366.929 38.988 368.425 35.724L369.105 34.16C369.445 33.548 369.513 33.48 369.513 33.684C369.513 34.16 369.717 34.84 370.057 35.248C370.261 35.52 370.397 35.928 370.465 36.336C370.601 36.676 370.737 37.152 370.805 37.424L371.213 38.512C371.553 39.532 373.049 41.028 374.001 41.232C374.545 41.368 375.021 41.232 376.109 40.552C377.469 39.668 378.693 38.58 379.237 37.764L380.121 36.404L380.597 35.52C380.665 35.316 380.869 34.976 381.005 34.704C381.209 34.5 381.345 34.228 381.345 34.092C381.345 34.024 381.481 33.616 381.753 33.208C382.637 31.44 382.773 31.236 382.909 30.76C383.249 29.808 383.113 29.332 382.569 29.332C382.229 29.332 381.821 29.808 380.801 31.304C379.985 32.664 379.645 33.14 379.033 33.82C378.829 34.024 378.557 34.432 378.489 34.636C378.421 34.84 378.217 35.18 378.013 35.316C377.809 35.52 377.537 35.928 377.333 36.268C377.061 36.608 376.721 36.948 376.449 37.084L375.701 37.628C375.293 37.968 375.021 37.9 374.749 37.628C374.545 37.356 374.545 37.288 374.613 36.404L374.749 34.636C374.749 34.16 374.817 33.684 374.817 33.548C374.885 33.344 374.953 32.936 375.021 32.596C375.021 32.188 375.157 31.576 375.293 31.168C375.429 30.692 375.497 30.08 375.565 29.672C375.701 27.904 375.905 28.244 375.837 26.068C375.701 24.776 375.701 24.64 375.361 24.028C374.681 22.532 374.137 21.988 373.389 21.784C372.709 21.648 372.029 21.92 371.145 22.872C370.193 23.756 369.989 24.3 369.921 26.136C369.853 27.02 369.785 27.428 369.649 27.836C369.513 28.108 369.377 28.652 369.241 28.992C368.969 30.148 368.901 30.352 368.629 30.896C368.493 31.168 368.357 31.508 368.357 31.576C368.357 31.644 368.221 31.984 368.017 32.324C367.813 32.664 367.609 33.072 367.609 33.14C367.609 33.276 367.473 33.616 367.269 33.956C366.521 35.044 366.249 35.588 365.841 36.268C365.365 37.152 364.209 38.376 364.073 38.172C363.869 37.9 363.869 37.016 364.073 36.472C364.141 36.268 364.413 34.364 364.549 33.072C364.617 32.8 364.753 32.188 364.821 31.712C364.957 31.236 365.093 30.284 365.161 29.672C365.229 28.788 365.297 28.38 365.501 27.836C366.045 26.408 366.181 25.456 365.841 24.232C365.705 23.892 365.637 23.28 365.637 23.008C365.637 22.26 365.365 21.58 364.889 21.172C364.277 20.628 364.005 20.56 363.053 20.492C362.305 20.492 362.169 20.492 361.693 20.696C360.741 21.172 359.653 22.328 358.973 23.62C358.633 24.164 358.565 24.436 358.021 27.02C357.885 27.564 357.681 28.176 357.545 28.448C357.069 29.332 357.001 29.672 356.933 30.896L356.729 32.8C356.729 33.412 356.729 34.024 356.865 34.84C357.205 37.968 357.069 38.444 357.749 39.532C357.885 39.804 358.157 40.28 358.225 40.62C358.497 41.232 359.517 42.728 359.993 43.204C360.129 43.34 360.469 43.476 360.741 43.544ZM387.544 15.868C387.884 16.072 388.496 16.004 388.972 15.8C389.244 15.664 389.516 15.528 389.652 15.528C389.992 15.528 390.264 15.324 390.4 15.052C390.468 14.916 390.536 14.508 390.536 14.168C390.604 13.556 390.604 13.556 390.264 13.08C389.924 12.536 389.244 11.924 388.836 11.72C388.496 11.516 387.68 11.584 387.34 11.788C386.932 11.992 386.728 12.264 386.524 12.876C386.252 13.76 386.184 14.372 386.252 14.644C386.388 14.848 387.204 15.664 387.544 15.868ZM388.7 43.816C389.312 43.816 389.856 43.544 390.264 43C390.672 42.388 390.74 42.116 390.604 40.416C390.536 38.988 390.604 37.22 390.74 35.792C390.808 35.384 390.74 34.976 390.672 34.5C390.264 32.596 390.876 32.664 390.876 30.148C390.876 29.536 390.944 28.788 390.944 28.584C391.08 28.108 391.148 26.952 391.284 24.64C391.42 23.484 391.216 23.008 390.128 21.58C389.312 20.492 388.836 20.084 388.224 19.88C387.612 19.744 387.408 19.744 386.864 19.88C385.912 20.152 385.504 20.9 384.416 22.328L383.94 23.144C383.804 23.688 383.532 25.116 383.464 26.408L383.26 28.244C383.056 29.264 383.056 33.616 383.192 34.84C383.26 35.86 383.94 38.58 384.28 39.192C384.416 39.464 384.756 39.94 385.028 40.212C385.436 40.62 385.572 40.824 385.708 41.368C385.912 41.912 385.98 42.048 386.66 42.728C387.544 43.612 387.952 43.816 388.7 43.816ZM403.125 41.164C403.601 41.164 404.281 41.096 404.553 41.028L405.369 40.892C405.777 40.824 406.729 40.28 407.273 39.804C407.885 39.328 408.769 38.104 409.313 37.22C410.401 35.18 410.265 34.636 410.945 32.936C411.081 32.528 411.217 31.984 411.285 31.644L411.489 30.488C411.625 29.876 411.693 28.584 411.625 26.952C411.625 26.136 411.149 24.232 410.741 23.552C410.605 23.212 410.469 22.94 410.469 22.872C410.469 22.804 410.333 22.464 410.129 22.056C409.653 21.036 408.429 20.152 407.341 19.812C407.205 19.812 407.069 19.676 407.001 19.54C406.661 18.656 406.525 18.452 405.913 17.976L404.893 17.228C404.349 17.024 403.533 17.024 402.649 17.296L401.357 17.636C400.813 17.772 400.609 17.908 400.201 18.316C399.181 19.336 398.433 20.288 398.093 21.036C397.889 21.444 397.481 22.056 397.277 22.396C396.529 23.348 396.053 24.232 395.781 25.116C395.509 25.796 395.509 26 395.441 27.7C395.373 30.148 395.509 29.876 395.849 32.732L396.053 34.296C396.121 35.044 396.869 35.792 398.093 37.9C399.385 39.94 399.793 40.348 401.289 40.824C402.105 41.096 402.377 41.164 403.125 41.164ZM404.621 36.744C404.485 36.744 404.213 36.54 404.009 36.268L403.601 35.86L403.397 34.5C403.329 33.616 403.261 32.732 403.261 31.916C403.261 31.168 403.261 30.352 403.193 29.944C403.125 29.332 403.125 29.128 403.397 28.516C403.533 28.176 403.669 27.428 403.737 27.02C403.941 26 404.077 25.66 404.553 24.912C404.961 24.232 405.233 23.552 405.369 22.804C405.437 21.92 405.573 21.92 405.913 22.668L406.321 23.552C406.797 24.3 407.273 25.388 407.273 25.524L407.545 26.748C407.817 27.7 407.817 27.972 407.817 28.992C407.749 29.672 407.817 30.352 407.817 30.556C407.885 30.692 407.817 31.168 407.749 31.644L407.477 32.868C407.477 33.072 407.409 33.412 407.273 33.548L407.001 34.432C406.865 34.908 406.661 35.18 406.321 35.52C406.117 35.792 405.845 36.064 405.777 36.2C405.641 36.472 404.893 36.812 404.621 36.744ZM431.725 45.04C432.337 45.04 433.289 44.836 433.765 44.632C434.309 44.428 435.329 43.544 436.145 42.728C436.621 42.184 437.981 40.484 437.981 40.348C437.981 40.28 438.389 39.736 439.001 38.852C439.205 38.512 439.477 38.172 439.545 38.104C439.613 38.104 439.885 37.696 440.089 37.22L441.653 34.636L441.993 33.684C442.469 32.392 442.333 32.8 443.149 30.76C443.217 30.42 443.353 30.08 443.285 29.876C443.217 29.06 442.537 29.468 441.721 30.828C441.313 31.508 440.837 32.256 440.497 32.664C440.089 33.14 439.477 34.296 439.341 34.636C439.273 35.112 438.797 35.996 438.457 36.268C438.185 36.676 437.165 38.308 436.825 38.648C436.621 38.784 436.281 39.192 436.077 39.6C435.533 40.28 434.921 40.892 433.901 41.776C433.561 42.116 433.289 42.184 433.017 42.252C432.405 42.388 432.133 42.116 432.065 41.232L431.861 39.668C431.657 37.9 431.997 38.376 431.929 36.2C431.861 35.18 431.861 34.908 431.997 34.296C432.405 33.004 432.541 32.052 432.473 31.44C432.473 30.964 432.473 30.624 432.609 30.08C432.949 28.652 433.017 27.768 433.017 25.388C433.017 23.076 433.017 23.076 432.745 22.464C432.609 22.056 432.473 21.716 432.405 21.716L431.929 20.696C431.453 19.812 431.113 19.472 430.297 19.064C429.685 18.792 429.073 18.656 428.665 18.86C428.257 18.996 428.189 19.064 427.101 20.016C425.605 21.24 423.361 23.96 422.545 25.524C422.001 26.408 421.321 27.292 421.253 27.224C421.185 27.224 421.117 26.612 421.117 26C421.049 25.252 420.981 24.572 420.845 24.3L420.641 23.076C420.573 22.328 420.369 21.784 419.757 21.036C419.281 20.492 418.737 20.22 418.125 20.152C417.309 20.084 416.969 20.356 416.425 21.24C415.541 22.872 415.609 22.804 415.473 24.096C415.269 27.7 414.861 26.952 415.065 28.448C415.065 28.856 415.133 29.74 415.201 30.352C415.201 31.304 415.201 31.644 415.405 32.12C415.745 32.936 416.425 35.86 416.629 36.2C417.105 37.016 417.717 37.356 418.533 37.288C419.213 37.288 419.757 36.948 420.029 36.336L420.505 35.316C420.641 34.976 420.845 34.296 420.981 33.752C421.049 33.208 421.253 32.664 421.321 32.46C421.457 32.256 421.525 31.916 421.593 31.712C421.661 31.304 422.205 30.08 422.545 29.468L422.885 28.72C423.021 28.244 423.701 27.088 424.177 26.476C424.381 26.204 424.585 25.864 424.721 25.592C425.129 24.776 427.577 22.6 427.781 22.804C427.849 22.872 427.441 24.776 427.237 25.456C427.101 25.796 426.965 26.34 426.897 26.612L426.761 27.768C426.625 28.244 426.625 28.516 426.693 29.06C426.829 29.672 426.761 29.808 426.625 30.352C426.421 31.032 426.217 32.936 426.217 34.364C426.217 34.704 426.217 35.384 426.149 35.724C426.149 36.268 426.149 36.54 426.217 36.812C426.285 36.948 426.353 37.56 426.421 38.104C426.489 39.464 426.557 39.26 427.305 40.824C427.441 41.164 427.713 41.572 427.917 41.776C428.121 42.048 428.393 42.456 428.529 42.728C429.141 43.816 430.773 45.04 431.725 45.04Z" fill="#FFC501"/>
</svg>
