<svg width="21" height="21" viewBox="0 0 21 21" fill="none" xmlns="http://www.w3.org/2000/svg">
<g clip-path="url(#clip0)">
<path d="M15.409 0.963958L12.8315 0.894748C9.9356 0.821639 8.01567 2.69444 7.94065 5.66622L7.88371 7.92168L5.29201 7.85625C5.06805 7.85059 4.88212 8.02758 4.87646 8.25153L4.79396 11.5194C4.78831 11.7434 4.96529 11.9293 5.18904 11.935L7.78074 12.0004L7.57256 20.2464C7.56691 20.4703 7.74368 20.6563 7.96764 20.6619L11.3491 20.7473C11.573 20.7529 11.759 20.5759 11.7646 20.3522L11.9728 12.1062L15.0031 12.1827C15.227 12.1884 15.413 12.0116 15.4186 11.7877L15.5024 8.51979C15.5051 8.41226 15.4649 8.3082 15.3909 8.23018C15.3169 8.15217 15.2146 8.10675 15.1071 8.10404L12.0758 8.02751L12.124 6.11553C12.1472 5.19655 12.378 4.73556 13.5751 4.76579L15.3115 4.809C15.5353 4.81465 15.7212 4.63767 15.7269 4.41392L15.8035 1.37948C15.8091 1.15594 15.6325 0.970015 15.409 0.963958Z" fill="black"/>
</g>
<defs>
<clipPath id="clip0">
<rect width="19.8838" height="19.8836" fill="white" transform="translate(0.501831 0.583496) rotate(1.44617)"/>
</clipPath>
</defs>
</svg>
