<svg width="20" height="20" viewBox="0 0 20 20" fill="none" xmlns="http://www.w3.org/2000/svg">
<path d="M19.1424 5.86383L19.1425 5.86345C19.1426 5.8627 19.1424 5.86388 19.1443 5.85491C19.146 5.84666 19.1492 5.83119 19.1499 5.81159C19.1512 5.77298 19.1425 5.73632 19.1308 5.69902C19.1077 5.62551 19.0537 5.49223 18.9384 5.22221C18.8146 4.93249 18.6164 4.4765 18.3011 3.75099C18.0223 3.10959 17.6519 2.25754 17.1605 1.12347L17.1605 1.12343C17.0891 0.958925 16.927 0.852441 16.7476 0.852441H3.25074C3.07145 0.852441 2.9092 0.958939 2.83792 1.12347C2.83792 1.12348 2.83792 1.12348 2.83791 1.12349L0.888373 5.62243L0.88836 5.62246C0.887728 5.62392 0.886868 5.62573 0.885835 5.62789C0.879121 5.64199 0.865103 5.67141 0.858797 5.72113C0.853525 5.76268 0.851639 5.82721 0.850718 5.94067C0.84967 6.06993 0.849955 6.27474 0.850415 6.60505C0.850783 6.86886 0.851262 7.21274 0.851262 7.6621L0.851262 7.66234C0.853568 9.10901 2.03049 10.286 3.47569 10.286C4.37885 10.286 5.17686 9.82631 5.64907 9.12925C6.67996 10.6684 8.96657 10.6703 9.99919 9.13088C11.0311 10.6691 13.3168 10.6692 14.3486 9.13025C14.8206 9.82679 15.6188 10.286 16.5227 10.286C17.9699 10.286 19.1471 9.10888 19.1471 7.66161C19.1471 7.41313 18.9456 7.21168 18.6972 7.21168C18.4487 7.21168 18.2472 7.41313 18.2472 7.66161C18.2472 8.61241 17.4735 9.38618 16.5227 9.38618C15.5719 9.38618 14.7981 8.61241 14.7981 7.66161C14.7981 7.41314 14.5967 7.21168 14.3482 7.21168C14.0997 7.21168 13.8982 7.41314 13.8982 7.66161C13.8982 8.61241 13.1245 9.38618 12.1737 9.38618C11.2229 9.38618 10.4491 8.61241 10.4491 7.66161C10.4491 7.41314 10.2477 7.21168 9.99918 7.21168C9.7507 7.21168 9.54925 7.41313 9.54925 7.66161C9.54925 8.61241 8.77548 9.38618 7.82468 9.38618C6.89496 9.38618 6.10012 8.63922 6.10012 7.64662C6.10012 7.39814 5.89867 7.19669 5.65019 7.19669C5.40171 7.19669 5.20026 7.39814 5.20026 7.64662C5.20026 8.63086 4.41005 9.38618 3.47569 9.38618C2.52673 9.38618 1.75269 8.61235 1.75112 7.66153V5.8946L3.54616 1.7523H16.4523L18.0119 5.3514H3.25078C3.00226 5.3514 2.80085 5.55281 2.80085 5.80133C2.80085 6.04981 3.0023 6.25126 3.25078 6.25126C7.24322 6.25126 10.2106 6.25301 12.4172 6.25431C14.72 6.25566 16.1943 6.25653 17.1404 6.25442C18.065 6.25235 18.4894 6.24746 18.6899 6.2371C18.7831 6.23228 18.8492 6.22591 18.896 6.20833C18.9296 6.19569 18.9535 6.17791 18.9721 6.15852C18.9744 6.15618 18.9761 6.15435 18.9774 6.15295C19.0671 6.08142 19.1261 5.97924 19.1424 5.86383ZM18.971 6.15801L18.9712 6.15786L18.971 6.15801ZM18.2473 17.4986V11.1626C18.2473 10.9141 18.0459 10.7127 17.7974 10.7127C17.5489 10.7127 17.3475 10.9141 17.3475 11.1626V17.4986C17.3475 17.9119 17.011 18.2484 16.5977 18.2484H10.4491V13.6745C10.4491 13.426 10.2477 13.2246 9.99922 13.2246C9.75074 13.2246 9.54929 13.426 9.54929 13.6745V18.2484H7.41235V13.3371C7.41235 12.9238 7.74886 12.5873 8.16214 12.5873H11.8363C12.2496 12.5873 12.5861 12.9238 12.5861 13.3371V17.1987C12.5861 17.4472 12.7875 17.6486 13.036 17.6486C13.2845 17.6486 13.4859 17.4472 13.4859 17.1987V13.3371C13.4859 12.4273 12.746 11.6874 11.8363 11.6874H8.16214C7.25239 11.6874 6.51249 12.4273 6.51249 13.3371V18.2484H3.40074C2.98743 18.2484 2.65095 17.9119 2.65095 17.4986V11.1626C2.65095 10.9141 2.4495 10.7127 2.20102 10.7127C1.95254 10.7127 1.75109 10.9141 1.75109 11.1626V17.4986C1.75109 18.4084 2.49099 19.1483 3.40074 19.1483H16.5977C17.5074 19.1483 18.2473 18.4084 18.2473 17.4986Z" fill="#4F647A" stroke="#4F647A" stroke-width="0.3"/>
</svg>
