<svg width="550" height="57" viewBox="0 0 550 57" fill="none" xmlns="http://www.w3.org/2000/svg">
<path d="M9.52 44.836C10.064 44.224 9.86 44.156 10.268 42.796C10.336 42.524 10.472 41.776 10.54 41.164C10.608 40.416 10.744 39.94 10.88 39.532C11.152 39.056 11.152 38.852 11.152 37.968C11.22 37.22 11.22 36.812 11.356 36.472C11.424 36.268 11.56 35.724 11.628 35.316C11.628 34.908 11.764 34.296 11.9 33.956C12.104 33.072 12.24 30.284 12.036 29.468C11.9 28.992 11.9 28.38 11.968 25.796L12.036 22.6C12.036 22.328 12.104 22.192 12.376 22.124C12.512 22.124 12.988 21.92 13.396 21.784C14.212 21.444 15.368 21.172 16.456 21.104C17.612 20.968 17.816 20.9 17.816 20.084C17.816 19.54 17.612 19.336 16.864 18.928L16.184 18.588C15.436 18.656 13.532 18.724 12.852 18.86C12.104 19.064 11.968 18.996 11.968 18.588C11.968 18.452 11.9 17.908 11.764 17.432C11.56 16.412 11.492 14.168 11.696 12.944C11.832 11.788 11.696 10.904 11.56 10.156H12.24C12.58 10.156 13.124 10.224 13.464 10.292C13.872 10.428 14.212 10.428 14.892 10.428C15.98 10.36 17.952 10.496 18.972 10.768C19.312 10.836 19.856 10.904 20.128 10.904C20.332 10.904 20.876 10.972 21.284 11.108L22.032 11.244C22.848 10.836 23.596 10.564 23.528 9.544C23.46 8.592 22.78 7.776 21.828 7.572C16.932 6.28 18.36 6.892 15.912 6.552C13.26 6.144 12.716 6.144 11.56 6.28C10.2 6.416 10.064 6.416 9.656 6.144C9.452 6.008 9.18 5.804 8.976 5.804C8.568 5.6 7.684 5.668 7.276 5.804C6.732 6.076 6.324 6.416 5.984 6.96C5.644 7.436 5.644 7.504 4.896 7.572L4.012 7.844L2.856 8.32C1.972 8.66 1.088 9.204 0.884 9.544C0.68 9.884 0.612 10.632 0.816 11.04C1.02 11.38 1.564 11.788 1.972 11.856C2.448 11.924 3.876 11.652 4.352 11.38C4.896 11.108 4.896 11.176 4.896 12.536C4.896 13.42 4.896 13.896 4.76 14.44C4.352 15.8 4.692 15.596 4.624 24.3C4.624 26.136 4.556 26.34 4.352 26.952C4.08 27.836 4.08 28.652 4.352 29.468C4.488 29.876 4.556 30.148 4.488 30.556C4.352 32.188 4.352 32.664 4.556 33.684C4.76 34.704 4.76 34.772 4.42 35.86C4.148 36.744 4.216 37.628 4.692 38.444C5.1 39.396 5.1 39.396 4.896 39.872C4.624 40.552 4.42 41.504 4.556 41.912C4.828 43.136 4.964 43.408 5.168 43.68C5.508 43.952 6.052 44.36 6.392 44.428C6.46 44.496 6.8 44.632 7.072 44.836C8.092 45.448 8.84 45.448 9.52 44.836ZM24.149 40.28C24.965 40.212 25.577 39.804 25.917 39.124C26.733 37.492 26.937 37.016 26.937 36.88L27.073 35.86C27.209 35.452 27.345 34.636 27.345 34.092C27.413 33.412 27.481 33.004 27.685 32.596C27.957 31.984 27.957 31.984 28.025 29.876V27.768C28.229 27.428 28.501 27.02 28.909 26.136C29.113 25.796 29.453 25.116 29.725 24.776C30.201 24.096 31.357 22.872 31.493 22.872C31.561 22.872 31.765 22.804 31.901 22.736C32.173 22.464 33.261 22.056 33.737 21.988C33.941 21.988 34.281 21.852 34.553 21.716C35.029 21.444 35.097 21.444 36.049 21.512C37.069 21.58 37.137 21.58 37.477 21.376C37.885 21.104 38.089 20.832 38.089 20.356C38.089 19.812 37.681 19.472 36.797 19.132C36.253 18.928 36.049 18.928 34.825 18.928C31.901 18.928 31.901 19.676 30.677 20.22C30.133 20.56 29.453 21.172 28.705 22.056C28.365 22.464 28.093 22.804 28.093 22.736C27.957 22.668 27.821 21.92 27.753 20.9C27.685 20.016 27.617 19.744 27.413 19.336C27.141 18.656 26.053 17.568 25.509 17.296C24.965 17.024 24.217 16.956 23.741 17.024C22.721 17.296 22.041 18.044 21.429 19.472C20.885 20.832 20.341 22.532 20.341 22.94L20.409 24.572C20.545 25.796 20.545 25.864 20.341 26.68C19.933 28.38 20.273 28.244 20.545 31.984C20.545 33.072 20.681 34.024 20.817 34.5C20.885 34.908 21.021 35.52 21.021 35.86C21.225 37.832 21.565 38.648 22.313 39.464C22.925 40.076 23.401 40.28 24.149 40.28ZM45.7305 39.192C47.6345 38.988 48.9265 38.58 50.4225 37.696L52.0545 36.608C52.4625 36.404 53.0745 35.86 53.4825 35.52C54.1625 34.84 54.2305 34.772 55.1825 33.548C55.5225 33.14 55.9305 32.596 56.2025 32.392C56.6785 31.848 57.7665 30.624 58.0385 30.216C58.3105 29.944 58.3105 29.604 58.1065 29.4C57.6305 28.992 57.2225 29.264 54.7745 31.644C54.4345 31.916 54.1625 32.188 54.0945 32.188C54.0265 32.188 53.6865 32.46 53.3465 32.8C52.1225 33.956 51.1705 34.84 50.7625 35.112L50.0145 35.656C49.4705 36.132 47.8385 36.676 46.9545 36.676C46.6825 36.676 46.3425 36.608 45.7985 36.336C44.9145 35.86 44.3025 35.18 44.1665 34.5L43.8945 33.616C43.6905 33.208 43.6905 32.936 43.6225 31.916V30.488C43.5545 30.012 44.0985 29.4 45.1865 28.72C46.6145 27.768 46.6145 27.632 47.6345 26.884C47.9745 26.68 48.3145 26.34 48.3825 26.204C48.5185 26 48.7225 25.796 48.9265 25.592C49.4025 25.252 49.5385 25.116 49.9465 24.436C50.7625 23.212 50.3545 24.572 52.0545 20.9C52.1225 20.696 52.3265 20.22 52.3945 19.88L52.6665 18.656C52.8025 18.248 52.8705 17.568 52.8705 16.956C52.8705 16.004 52.8705 15.936 52.5985 15.528C52.2585 15.052 51.1025 14.1 50.4905 13.76C50.0825 13.556 49.6745 13.556 48.9265 13.624C48.4505 13.692 47.1585 14.1 46.4105 14.508C46.0705 14.712 45.4585 14.916 45.1185 15.052C44.3705 15.256 43.0785 16.072 42.6025 16.548C42.3985 16.752 42.1265 17.092 41.9905 17.432C41.3105 18.656 40.2905 19.472 40.0865 20.628C40.0185 20.832 39.8145 21.24 39.6105 21.58C39.4065 21.92 39.1345 22.532 38.9985 22.872C38.9305 23.212 38.6585 23.688 38.5225 23.96C38.1825 24.504 37.5025 27.02 37.4345 28.04C37.3665 28.924 37.5705 29.196 37.8425 31.1C37.9785 32.256 38.5225 34.024 38.9305 34.908C39.4065 35.724 40.1545 36.948 40.4265 37.152C40.6985 37.492 41.9225 38.24 42.6025 38.58C42.8745 38.716 43.4865 38.92 43.9625 39.056C44.7785 39.328 44.8465 39.328 45.7305 39.192ZM45.3905 25.66C45.2545 25.66 45.2545 25.66 45.4585 24.912C45.6625 23.824 46.1385 22.804 46.5465 22.192C46.9545 21.648 47.2945 20.9 47.2945 20.56C47.2945 20.22 47.7025 19.744 48.1785 19.472C48.7905 19.064 49.1985 18.656 49.7425 17.908C50.1505 17.364 50.4225 17.296 50.5585 17.636C50.6265 17.704 50.6265 18.044 50.6265 18.452C50.6265 18.996 50.4905 19.2 49.9465 20.356C49.3345 21.648 48.6545 22.6 47.7025 23.552C45.8665 25.32 45.5265 25.66 45.3905 25.66ZM74.9796 53.676C75.4556 53.676 76.3396 53.404 76.7476 53.064C77.7676 52.384 78.5836 50.412 79.1956 47.42C79.3316 46.808 79.3316 44.632 79.1956 43.272L79.0596 41.164C78.9236 39.26 78.7876 37.968 78.7196 37.56C78.6516 37.288 78.6516 37.22 78.8556 36.948L79.9436 36.2C80.3516 35.928 80.8956 35.52 81.0996 35.316C81.2356 35.112 81.5756 34.84 81.7796 34.636C82.5276 34.092 85.7916 30.828 85.8596 30.556C86.0636 30.148 85.9956 29.672 85.7916 29.536C85.3836 29.128 84.8396 29.4 83.3436 30.76C81.7116 32.256 80.0796 33.412 79.3316 33.752C79.0596 33.888 78.7196 34.092 78.5836 34.296C78.3796 34.432 78.1076 34.636 77.9036 34.704C77.3596 34.84 76.6116 35.384 76.3396 35.86C76.0676 36.336 75.9996 37.016 76.1356 37.492C76.1356 37.696 76.2036 38.308 76.2036 38.852C76.2036 39.396 76.2716 40.144 76.3396 40.484C76.4076 40.96 76.4756 43.136 76.5436 45.108C76.5436 45.924 76.2716 47.964 75.9996 48.576C75.9996 48.712 75.9316 48.984 75.9316 49.188C75.9316 49.528 75.5236 50.684 75.3876 50.684C75.3196 50.684 74.9116 49.392 74.7756 48.712C74.7076 48.236 74.7076 47.964 74.7756 47.488C74.9116 47.012 74.9116 46.808 74.7756 46.196C74.6396 45.516 74.5716 45.312 74.7076 44.836C74.7756 44.496 74.8436 44.02 74.7756 43.476C74.7076 42.728 74.7076 42.592 74.9116 42.252C75.0476 41.912 75.1156 41.572 75.1156 41.164C75.1156 40.756 75.1156 40.212 75.2516 39.804C75.3196 39.328 75.3196 38.852 75.3196 37.764C75.2516 36.404 75.2516 36.268 75.5916 34.704C75.8636 33.208 75.9316 32.868 75.9316 31.78C75.8636 30.624 75.9316 30.08 76.3396 28.312C76.4756 27.428 76.4756 27.36 76.3396 26.272C76.2036 25.116 75.9316 24.368 75.5236 23.892C75.2516 23.62 74.2996 23.144 73.7556 23.076C73.4836 23.076 73.2796 23.008 73.2796 22.94L73.1436 22.464C73.0756 22.26 72.8716 21.852 72.7356 21.58C72.3956 21.104 70.9676 19.88 70.3556 19.608C70.0156 19.404 67.7716 18.928 67.4316 18.928L66.2756 18.996C65.3236 19.064 65.0516 19.2 64.3036 19.744L63.3516 20.288C62.7396 20.56 62.2636 21.036 61.7876 21.716C61.3796 22.464 60.6316 23.484 60.2236 23.96C59.6116 24.708 59.0676 25.728 58.6596 26.884C58.3196 27.836 58.3196 27.972 58.3196 29.468C58.2516 30.896 58.2516 31.032 58.5236 32.052C58.6596 32.596 58.7956 33.48 58.7956 34.024C58.8636 34.772 58.9316 35.112 59.1356 35.452C59.5436 36.268 60.6996 37.492 61.8556 38.376C62.3996 38.784 63.2156 38.988 63.9636 38.988C64.7796 38.988 65.5956 38.648 66.7516 37.832C67.7036 37.22 68.2476 36.744 68.8596 35.928C69.1316 35.588 69.4036 35.316 69.4716 35.316C69.6076 35.248 69.6076 35.316 69.6076 36.948C69.6756 41.708 69.6756 42.184 69.8796 42.932C70.0156 43.34 70.0836 43.884 70.0836 44.088C70.0836 44.632 70.4236 46.876 70.6276 47.42L70.8316 48.304C70.9676 48.848 71.3756 50.072 71.7156 50.684C72.1236 51.432 72.9396 52.588 73.3476 52.928C73.8916 53.404 74.5716 53.676 74.9796 53.676ZM65.0516 34.704C64.9836 34.636 64.9156 34.228 64.8476 33.684C64.7796 32.868 64.7796 32.732 64.9156 32.188C65.0516 31.848 65.3236 30.624 65.5276 29.536C66.1396 26.068 66.2756 25.728 66.6836 25.116L67.2276 24.3C67.2956 24.096 67.4996 23.892 67.6356 23.824C67.9756 23.552 68.7916 23.484 69.1996 23.62C69.6076 23.756 69.7436 23.892 69.9476 24.708C70.0836 25.184 70.3556 25.796 70.5596 26.068L70.8996 26.612C70.5596 27.7 70.6956 27.564 69.1316 30.148C68.9276 30.488 68.4516 31.1 68.1116 31.44C67.8396 31.78 67.4316 32.188 67.2956 32.392C67.1596 32.528 67.0236 32.732 66.9556 32.732C66.8876 32.8 66.5476 33.208 66.2076 33.684C65.4596 34.568 65.1876 34.908 65.0516 34.704ZM89.9868 43.544C90.4628 43.68 90.5988 43.68 91.5508 43.544C92.2308 43.476 92.7068 43.34 93.0468 43.136C93.5228 42.932 94.3388 42.048 94.6108 41.504L95.0188 40.824C95.1548 40.688 95.4268 40.212 95.6308 39.804C96.2428 38.376 96.1748 38.988 97.6708 35.724L98.3508 34.16C98.6908 33.548 98.7588 33.48 98.7588 33.684C98.7588 34.16 98.9628 34.84 99.3028 35.248C99.5068 35.52 99.6428 35.928 99.7108 36.336C99.8468 36.676 99.9828 37.152 100.051 37.424L100.459 38.512C100.799 39.532 102.295 41.028 103.247 41.232C103.791 41.368 104.267 41.232 105.355 40.552C106.715 39.668 107.939 38.58 108.483 37.764L109.367 36.404L109.843 35.52C109.911 35.316 110.115 34.976 110.251 34.704C110.455 34.5 110.591 34.228 110.591 34.092C110.591 34.024 110.727 33.616 110.999 33.208C111.883 31.44 112.019 31.236 112.155 30.76C112.495 29.808 112.359 29.332 111.815 29.332C111.475 29.332 111.067 29.808 110.047 31.304C109.231 32.664 108.891 33.14 108.279 33.82C108.075 34.024 107.803 34.432 107.735 34.636C107.667 34.84 107.463 35.18 107.259 35.316C107.055 35.52 106.783 35.928 106.579 36.268C106.307 36.608 105.967 36.948 105.695 37.084L104.947 37.628C104.539 37.968 104.267 37.9 103.995 37.628C103.791 37.356 103.791 37.288 103.859 36.404L103.995 34.636C103.995 34.16 104.063 33.684 104.063 33.548C104.131 33.344 104.199 32.936 104.267 32.596C104.267 32.188 104.403 31.576 104.539 31.168C104.675 30.692 104.743 30.08 104.811 29.672C104.947 27.904 105.151 28.244 105.083 26.068C104.947 24.776 104.947 24.64 104.607 24.028C103.927 22.532 103.383 21.988 102.635 21.784C101.955 21.648 101.275 21.92 100.391 22.872C99.4388 23.756 99.2348 24.3 99.1668 26.136C99.0988 27.02 99.0308 27.428 98.8948 27.836C98.7588 28.108 98.6228 28.652 98.4868 28.992C98.2148 30.148 98.1468 30.352 97.8748 30.896C97.7388 31.168 97.6028 31.508 97.6028 31.576C97.6028 31.644 97.4668 31.984 97.2628 32.324C97.0588 32.664 96.8548 33.072 96.8548 33.14C96.8548 33.276 96.7188 33.616 96.5148 33.956C95.7668 35.044 95.4948 35.588 95.0868 36.268C94.6108 37.152 93.4548 38.376 93.3188 38.172C93.1148 37.9 93.1148 37.016 93.3188 36.472C93.3868 36.268 93.6588 34.364 93.7948 33.072C93.8628 32.8 93.9988 32.188 94.0668 31.712C94.2028 31.236 94.3388 30.284 94.4068 29.672C94.4748 28.788 94.5428 28.38 94.7468 27.836C95.2908 26.408 95.4268 25.456 95.0868 24.232C94.9508 23.892 94.8828 23.28 94.8828 23.008C94.8828 22.26 94.6108 21.58 94.1348 21.172C93.5228 20.628 93.2508 20.56 92.2988 20.492C91.5508 20.492 91.4148 20.492 90.9388 20.696C89.9868 21.172 88.8988 22.328 88.2188 23.62C87.8788 24.164 87.8108 24.436 87.2668 27.02C87.1308 27.564 86.9268 28.176 86.7908 28.448C86.3148 29.332 86.2468 29.672 86.1788 30.896L85.9748 32.8C85.9748 33.412 85.9748 34.024 86.1108 34.84C86.4508 37.968 86.3148 38.444 86.9948 39.532C87.1308 39.804 87.4028 40.28 87.4708 40.62C87.7428 41.232 88.7628 42.728 89.2388 43.204C89.3748 43.34 89.7148 43.476 89.9868 43.544ZM120.666 39.192C122.57 38.988 123.862 38.58 125.358 37.696L126.99 36.608C127.398 36.404 128.01 35.86 128.418 35.52C129.098 34.84 129.166 34.772 130.118 33.548C130.458 33.14 130.866 32.596 131.138 32.392C131.614 31.848 132.702 30.624 132.974 30.216C133.246 29.944 133.246 29.604 133.042 29.4C132.566 28.992 132.158 29.264 129.71 31.644C129.37 31.916 129.098 32.188 129.03 32.188C128.962 32.188 128.622 32.46 128.282 32.8C127.058 33.956 126.106 34.84 125.698 35.112L124.95 35.656C124.406 36.132 122.774 36.676 121.89 36.676C121.618 36.676 121.278 36.608 120.734 36.336C119.85 35.86 119.238 35.18 119.102 34.5L118.83 33.616C118.626 33.208 118.626 32.936 118.558 31.916V30.488C118.49 30.012 119.034 29.4 120.122 28.72C121.55 27.768 121.55 27.632 122.57 26.884C122.91 26.68 123.25 26.34 123.318 26.204C123.454 26 123.658 25.796 123.862 25.592C124.338 25.252 124.474 25.116 124.882 24.436C125.698 23.212 125.29 24.572 126.99 20.9C127.058 20.696 127.262 20.22 127.33 19.88L127.602 18.656C127.738 18.248 127.806 17.568 127.806 16.956C127.806 16.004 127.806 15.936 127.534 15.528C127.194 15.052 126.038 14.1 125.426 13.76C125.018 13.556 124.61 13.556 123.862 13.624C123.386 13.692 122.094 14.1 121.346 14.508C121.006 14.712 120.394 14.916 120.054 15.052C119.306 15.256 118.014 16.072 117.538 16.548C117.334 16.752 117.062 17.092 116.926 17.432C116.246 18.656 115.226 19.472 115.022 20.628C114.954 20.832 114.75 21.24 114.546 21.58C114.342 21.92 114.07 22.532 113.934 22.872C113.866 23.212 113.594 23.688 113.458 23.96C113.118 24.504 112.438 27.02 112.37 28.04C112.302 28.924 112.506 29.196 112.778 31.1C112.914 32.256 113.458 34.024 113.866 34.908C114.342 35.724 115.09 36.948 115.362 37.152C115.634 37.492 116.858 38.24 117.538 38.58C117.81 38.716 118.422 38.92 118.898 39.056C119.714 39.328 119.782 39.328 120.666 39.192ZM120.326 25.66C120.19 25.66 120.19 25.66 120.394 24.912C120.598 23.824 121.074 22.804 121.482 22.192C121.89 21.648 122.23 20.9 122.23 20.56C122.23 20.22 122.638 19.744 123.114 19.472C123.726 19.064 124.134 18.656 124.678 17.908C125.086 17.364 125.358 17.296 125.494 17.636C125.562 17.704 125.562 18.044 125.562 18.452C125.562 18.996 125.426 19.2 124.882 20.356C124.27 21.648 123.59 22.6 122.638 23.552C120.802 25.32 120.462 25.66 120.326 25.66ZM149.915 45.04C150.527 45.04 151.479 44.836 151.955 44.632C152.499 44.428 153.519 43.544 154.335 42.728C154.811 42.184 156.171 40.484 156.171 40.348C156.171 40.28 156.579 39.736 157.191 38.852C157.395 38.512 157.667 38.172 157.735 38.104C157.803 38.104 158.075 37.696 158.279 37.22L159.843 34.636L160.183 33.684C160.659 32.392 160.523 32.8 161.339 30.76C161.407 30.42 161.543 30.08 161.475 29.876C161.407 29.06 160.727 29.468 159.911 30.828C159.503 31.508 159.027 32.256 158.687 32.664C158.279 33.14 157.667 34.296 157.531 34.636C157.463 35.112 156.987 35.996 156.647 36.268C156.375 36.676 155.355 38.308 155.015 38.648C154.811 38.784 154.471 39.192 154.267 39.6C153.723 40.28 153.111 40.892 152.091 41.776C151.751 42.116 151.479 42.184 151.207 42.252C150.595 42.388 150.323 42.116 150.255 41.232L150.051 39.668C149.847 37.9 150.187 38.376 150.119 36.2C150.051 35.18 150.051 34.908 150.187 34.296C150.595 33.004 150.731 32.052 150.663 31.44C150.663 30.964 150.663 30.624 150.799 30.08C151.139 28.652 151.207 27.768 151.207 25.388C151.207 23.076 151.207 23.076 150.935 22.464C150.799 22.056 150.663 21.716 150.595 21.716L150.119 20.696C149.643 19.812 149.303 19.472 148.487 19.064C147.875 18.792 147.263 18.656 146.855 18.86C146.447 18.996 146.379 19.064 145.291 20.016C143.795 21.24 141.551 23.96 140.735 25.524C140.191 26.408 139.511 27.292 139.443 27.224C139.375 27.224 139.307 26.612 139.307 26C139.239 25.252 139.171 24.572 139.035 24.3L138.831 23.076C138.763 22.328 138.559 21.784 137.947 21.036C137.471 20.492 136.927 20.22 136.315 20.152C135.499 20.084 135.159 20.356 134.615 21.24C133.731 22.872 133.799 22.804 133.663 24.096C133.459 27.7 133.051 26.952 133.255 28.448C133.255 28.856 133.323 29.74 133.391 30.352C133.391 31.304 133.391 31.644 133.595 32.12C133.935 32.936 134.615 35.86 134.819 36.2C135.295 37.016 135.907 37.356 136.723 37.288C137.403 37.288 137.947 36.948 138.219 36.336L138.695 35.316C138.831 34.976 139.035 34.296 139.171 33.752C139.239 33.208 139.443 32.664 139.511 32.46C139.647 32.256 139.715 31.916 139.783 31.712C139.851 31.304 140.395 30.08 140.735 29.468L141.075 28.72C141.211 28.244 141.891 27.088 142.367 26.476C142.571 26.204 142.775 25.864 142.911 25.592C143.319 24.776 145.767 22.6 145.971 22.804C146.039 22.872 145.631 24.776 145.427 25.456C145.291 25.796 145.155 26.34 145.087 26.612L144.951 27.768C144.815 28.244 144.815 28.516 144.883 29.06C145.019 29.672 144.951 29.808 144.815 30.352C144.611 31.032 144.407 32.936 144.407 34.364C144.407 34.704 144.407 35.384 144.339 35.724C144.339 36.268 144.339 36.54 144.407 36.812C144.475 36.948 144.543 37.56 144.611 38.104C144.679 39.464 144.747 39.26 145.495 40.824C145.631 41.164 145.903 41.572 146.107 41.776C146.311 42.048 146.583 42.456 146.719 42.728C147.331 43.816 148.963 45.04 149.915 45.04ZM168.784 44.02C169.26 44.02 170.484 43.544 171.096 43.136C171.776 42.728 172.116 42.388 172.388 42.184C172.864 41.708 174.632 39.056 175.244 38.172C175.72 37.492 176.332 36.404 176.944 35.18C177.284 34.364 177.42 33.888 177.556 33.14C177.76 31.916 177.828 31.712 178.1 31.032C178.44 30.284 178.44 29.808 178.168 29.604C177.828 29.264 177.488 29.4 176.876 30.012L176.128 30.828C175.924 31.1 175.584 31.576 174.972 32.256C174.632 32.664 173.476 34.704 173.476 34.908C173.476 34.976 173.34 35.18 173.204 35.384C173.068 35.52 172.864 35.86 172.864 35.996C172.728 36.404 171.98 37.832 171.708 38.172L171.096 38.92C170.756 39.464 169.668 40.552 169.192 40.824C168.648 41.096 168.716 40.484 168.036 39.396C167.56 38.716 167.22 36.812 167.152 34.636C167.084 33.82 167.016 32.936 166.948 32.664C166.744 31.712 167.016 27.088 166.88 23.62C166.812 22.26 167.356 21.988 167.22 20.832C167.152 20.016 167.288 19.268 167.56 19.132C167.696 19.064 167.968 19.064 168.444 19.2L169.396 19.404C169.668 19.404 170.144 19.88 170.348 20.22C170.62 20.696 170.824 20.9 171.164 20.9C171.572 20.9 171.844 20.628 171.912 20.152C172.048 19.676 171.912 18.792 171.708 18.452C171.436 17.976 170.144 16.956 169.464 16.684C168.308 16.276 168.648 16.276 167.832 16.072L167.9 15.256C168.036 13.284 168.036 10.564 167.968 10.156C167.696 9.272 166.404 8.66 165.656 9C165.316 9.136 165.044 9.476 164.5 10.768C163.82 12.128 163.48 13.148 163.412 13.964C163.276 14.576 163.072 15.256 162.868 15.46C162.8 15.528 162.256 15.528 161.1 15.528C159.672 15.528 159.4 15.596 159.06 15.732C158.856 15.868 158.516 15.936 158.312 16.004L157.496 16.208C157.224 16.344 156.476 16.48 155.796 16.616C154.572 16.888 154.368 16.956 154.164 17.5C153.756 18.452 154.436 19.472 155.592 19.812C156.476 20.084 156.68 19.88 159.536 19.812C160.692 19.812 161.032 19.812 161.576 19.608C162.528 19.268 162.46 19.268 162.46 20.356C162.46 20.968 162.46 21.512 162.324 21.852C162.188 22.192 162.188 22.532 162.256 23.416C162.324 24.98 162.324 25.116 162.256 25.66C162.188 26 162.256 26.272 162.324 26.612C162.528 27.088 162.528 27.564 162.596 32.392C162.664 33.82 162.664 34.296 162.8 34.772C162.936 35.18 163.004 35.588 163.004 36.064C162.936 36.472 163.004 37.152 163.072 37.56L163.276 38.648C163.344 39.192 164.16 40.824 164.772 41.572C165.452 42.388 166.336 43.34 166.676 43.544C167.084 43.748 168.308 44.02 168.784 44.02ZM186.585 41.504C187.265 41.504 187.401 41.504 188.353 41.232C189.033 40.96 189.441 40.756 189.645 40.552C189.849 40.348 190.257 40.076 190.529 39.94C191.413 39.396 192.569 38.172 193.385 36.88C195.629 33.548 195.629 33.548 195.833 32.528C196.173 31.032 196.989 29.536 196.377 29.264C195.765 28.924 195.561 29.604 194.881 30.352C194.677 30.556 194.473 30.828 194.337 31.032L193.589 31.984C193.249 32.324 192.909 32.868 192.705 33.208C192.365 33.956 191.481 35.384 191.141 35.656L190.665 36.268C190.325 36.88 189.985 37.152 189.101 37.696C187.605 38.58 187.673 38.512 187.265 38.444C186.721 38.24 185.769 37.288 185.565 36.676C185.497 36.404 185.225 35.928 185.021 35.588C184.341 34.568 184.205 33.956 184.137 32.256C183.933 29.672 183.797 28.516 183.797 26.136C183.797 24.3 183.797 24.232 184.069 23.484C184.273 22.736 184.341 22.6 184.273 21.716C184.205 20.832 184.205 20.696 184.409 20.22C184.545 19.88 184.681 19.472 184.749 19.2C184.749 18.996 184.885 18.452 185.021 18.112C185.157 17.568 185.293 17.092 185.361 16.208C185.429 15.188 185.429 14.984 185.701 14.576C186.313 13.42 186.381 13.284 186.449 12.196C186.721 9.068 186.789 8.524 187.265 7.3C187.673 6.144 187.741 5.94 187.741 5.056C187.741 4.512 187.877 3.696 187.945 3.22C188.081 2.54 188.081 2.336 188.013 1.996C187.809 1.384 187.401 0.771996 186.857 0.363998C186.449 0.0919971 186.381 0.023998 185.769 0.023998C185.293 0.023998 185.021 0.023998 184.817 0.159996C184.409 0.363998 184.205 0.5 183.661 1.316C183.117 2.064 182.573 3.084 182.165 4.172C182.029 4.512 181.689 5.056 181.485 5.328C181.077 5.804 180.805 6.552 180.805 7.096C180.805 7.232 180.669 7.64 180.533 8.048C179.989 9.068 179.921 9.612 179.921 10.564C179.921 11.38 179.853 11.516 179.513 12.332C179.105 13.352 178.697 15.188 178.697 16.004C178.697 16.752 178.425 18.384 178.221 18.996C178.085 19.268 178.017 19.608 178.017 19.812C178.017 20.016 177.949 20.424 177.881 20.764C177.745 21.24 177.745 21.648 177.745 22.6C177.813 23.416 177.813 24.232 177.745 24.776C177.677 25.592 177.677 25.796 177.813 26.748C178.085 27.972 178.153 29.332 178.289 31.032C178.425 32.8 178.765 32.256 178.833 33.684C178.833 34.568 179.037 35.18 179.513 35.792C179.649 35.996 179.921 36.404 180.057 36.676C180.193 37.016 180.533 37.492 180.805 37.764L181.825 38.988C182.641 39.94 183.185 40.348 184.205 40.824C185.497 41.368 185.701 41.436 186.585 41.504ZM201.208 56.804C202.296 57.008 203.724 57.008 204.472 56.668C205.22 56.328 207.192 54.832 207.464 54.424C207.6 54.288 208.008 53.812 208.416 53.472C209.232 52.656 210.116 51.364 210.456 50.412C210.592 50.072 210.864 49.392 211.068 49.052C211.272 48.644 211.544 47.964 211.68 47.488C211.748 47.012 211.952 46.332 212.088 46.06C212.292 45.516 212.564 43.34 212.496 42.048C212.496 41.572 212.564 41.164 212.7 40.824C212.836 40.348 212.836 40.28 212.7 39.396C212.564 38.852 212.564 38.444 212.632 38.308C212.632 38.172 213.516 37.22 214.536 36.2C218.956 31.712 219.704 30.896 219.704 30.216C219.704 29.876 219.432 29.536 219.092 29.536C218.956 29.536 218.684 29.672 218.344 29.944L217.46 30.556C216.984 30.896 214.06 33.616 213.244 34.432C213.04 34.704 212.768 34.908 212.7 34.908C212.632 34.908 212.496 34.636 212.36 34.296C212.224 33.752 212.156 33.616 212.292 33.276C212.36 33.004 212.36 32.664 212.36 32.46C212.224 31.508 212.156 30.352 211.884 29.332C211.408 27.224 211.408 27.224 211.544 26.612C211.612 26.068 211.612 26 211.408 25.592L211.068 24.64C210.932 24.096 210.592 23.62 210.184 23.416C209.776 23.144 209.164 23.144 208.824 23.416C208.484 23.62 208.076 24.436 207.94 25.32C207.804 25.728 207.668 26.272 207.532 26.544C207.328 26.952 207.26 27.224 207.192 27.904C207.192 28.652 207.124 28.856 206.784 29.536C206.308 30.692 205.696 31.372 205.492 31.78L205.084 32.596C204.744 33.072 204.472 33.48 203.18 35.112C202.84 35.52 201.888 36.2 201.684 36.2C201.412 36.2 201.276 35.316 201.276 33.956C201.276 32.936 201.276 32.8 201.548 32.188C201.82 31.576 201.82 31.508 201.888 29.332C201.956 27.428 201.956 27.02 202.16 26.068C202.432 25.116 202.432 24.776 202.432 22.872C202.5 20.56 202.432 20.424 201.956 19.812C201.48 19.2 200.596 18.928 199.916 19.268C199.576 19.404 199.236 19.744 198.896 20.288C198.76 20.492 198.624 20.696 198.488 20.764C198.216 21.036 197.808 21.716 197.672 22.26C197.536 22.6 197.4 23.076 197.196 23.348C197.06 23.688 196.924 24.232 196.788 24.572C196.72 24.98 196.584 25.456 196.516 25.728C196.38 26 196.312 26.544 196.244 26.884C196.244 27.292 196.108 27.836 196.04 28.176C195.972 28.584 195.904 29.332 195.904 30.556C195.904 32.12 195.972 32.528 196.108 33.14L196.516 34.568C196.856 36.064 197.876 37.56 198.896 38.172C199.372 38.512 200.8 38.716 201.344 38.648C202.704 38.376 204.472 36.54 205.968 33.82L206.376 33.14C206.444 33.072 206.852 34.364 206.852 34.772C206.852 34.976 206.716 35.384 206.648 35.724C206.376 36.404 206.376 37.084 206.648 38.172C206.852 38.988 206.92 39.192 206.784 39.94C206.716 40.892 206.444 41.436 205.56 42.32C205.22 42.66 204.88 43.068 204.812 43.204C204.608 43.544 203.86 44.496 203.248 45.312C202.568 46.128 202.296 46.604 201.956 47.08C201.752 47.216 201.548 47.556 201.48 47.76C201.208 48.372 200.8 48.984 200.528 49.392C200.12 49.936 199.1 51.908 199.032 52.452C198.964 52.656 198.896 53.268 198.896 53.812C198.828 54.832 198.828 54.968 199.644 55.852C200.12 56.464 200.256 56.532 201.208 56.804ZM201.344 54.22C201.004 54.016 200.936 53.948 200.868 53.132C200.8 52.52 201.072 51.432 201.48 50.752C201.616 50.412 201.82 50.208 201.82 50.14C201.888 50.14 201.956 49.936 202.024 49.732C202.092 49.528 202.228 49.256 202.364 49.12C202.5 48.984 202.636 48.712 202.704 48.508C202.84 48.372 203.044 48.032 203.18 47.896L203.792 47.148C203.996 46.876 204.608 46.196 205.152 45.584C206.58 44.088 206.58 44.02 206.716 44.02C206.784 44.02 206.852 44.36 206.988 44.836C207.124 45.72 207.124 45.72 206.92 46.264C206.716 46.74 206.716 46.944 206.784 47.556C206.784 48.032 206.784 48.304 206.648 48.576L206.444 49.392C206.376 49.664 206.24 50.004 206.104 50.208L205.628 51.024C205.084 51.908 203.996 53.336 203.588 53.676C203.316 53.812 202.908 54.016 202.432 54.152C201.684 54.356 201.616 54.356 201.344 54.22ZM240.957 43.544C241.229 43.408 241.909 42.728 241.909 42.524C241.909 42.32 242.181 41.504 242.453 40.96C242.589 40.688 242.793 40.144 242.793 39.804C242.929 38.988 243.405 36.676 243.473 36.268C243.541 36.132 243.541 35.724 243.541 35.452C243.541 35.18 243.677 34.704 243.813 34.364C244.017 33.82 244.085 33.548 244.085 33.004C244.085 32.528 244.085 32.12 244.221 31.712C244.425 31.236 244.425 30.964 244.425 30.488C244.357 30.08 244.357 29.876 244.425 29.808C244.629 29.672 245.649 29.536 246.601 29.4C247.145 29.4 247.825 29.264 248.165 29.264C248.505 29.196 249.049 29.128 249.457 29.128C249.797 29.06 250.341 29.06 250.613 28.992C250.953 28.924 251.225 28.856 251.293 28.924L251.429 29.536C251.429 29.808 251.633 30.42 251.769 30.896C251.973 31.372 252.109 31.984 252.177 32.256C252.177 32.596 252.313 33.072 252.381 33.412C252.517 33.82 252.585 34.296 252.585 34.5C252.585 35.044 253.061 37.424 253.333 37.9C253.401 38.104 253.673 38.512 253.877 38.716C254.217 39.056 254.285 39.26 254.353 39.736C254.421 40.008 254.625 40.552 254.829 40.892C254.965 41.232 255.169 41.708 255.237 41.98C255.577 43 256.189 43.544 257.209 43.544C257.957 43.544 258.365 43.34 258.773 42.932C259.385 42.184 259.453 41.912 259.521 39.736C259.589 37.832 259.589 37.832 259.929 36.744C260.405 35.384 260.541 33.956 260.269 33.004C260.133 32.732 260.065 31.984 259.997 31.304C259.861 29.06 259.589 29.672 259.725 28.176C259.861 26.612 259.793 25.796 259.521 24.844C259.181 23.688 258.977 22.124 258.977 20.9C258.977 19.88 258.977 19.676 258.705 18.928C258.569 18.384 258.365 17.636 258.297 17.228C258.229 16.208 257.957 15.528 257.413 14.576C257.141 14.1 256.937 13.556 256.801 12.944C256.325 11.244 255.645 10.088 254.217 8.592C252.993 7.3 251.769 7.028 250.001 7.504C248.369 7.912 247.213 8.66 246.669 9.68C246.533 10.02 246.057 10.7 245.785 11.108C245.445 11.584 245.037 12.264 244.901 12.604C244.765 12.944 244.493 13.42 244.357 13.692C244.221 13.896 243.949 14.508 243.745 15.052C243.609 15.596 243.337 16.276 243.201 16.548C243.065 16.888 242.861 17.364 242.793 17.704C242.657 18.044 242.521 18.52 242.385 18.656C241.977 19.336 241.841 19.608 241.773 20.492C241.705 21.376 241.637 21.58 241.093 22.464C240.821 22.804 240.821 23.008 240.753 23.756C240.685 24.504 240.685 24.708 240.481 24.98C240.209 25.388 240.005 25.864 239.937 26.612C239.869 27.428 239.733 27.632 238.985 28.108C238.305 28.584 238.101 28.788 238.101 29.264C238.101 29.672 238.305 29.944 238.849 30.216L239.121 30.352C238.917 31.372 238.577 32.936 238.577 34.908C238.577 35.588 238.509 35.996 238.373 36.608C238.033 37.56 238.033 38.376 238.441 39.6C238.577 40.076 238.713 40.892 238.781 41.368C238.849 42.116 238.917 42.388 239.121 42.796C239.597 43.612 240.277 43.884 240.957 43.544ZM244.901 26.952C244.901 26.408 244.833 26 245.037 25.524C245.173 25.252 245.309 24.912 245.309 24.776C245.377 24.572 245.513 24.096 245.649 23.756C245.785 23.416 245.989 22.872 245.989 22.532C246.193 21.648 246.873 19.676 247.417 18.452C247.689 17.908 247.961 17.228 247.961 17.024C248.029 16.82 248.301 16.14 248.641 15.596C249.321 14.168 249.729 13.692 249.797 14.032C250.273 15.664 250.273 15.596 250.273 17.432C250.205 18.86 250.273 19.608 250.477 21.104C250.613 22.124 250.817 23.212 250.885 23.552C251.225 24.572 251.293 24.98 251.225 25.728C251.157 26.612 251.157 26.612 249.389 26.68C248.709 26.68 247.825 26.748 247.485 26.816C246.669 26.884 245.581 26.884 244.901 26.952ZM269.392 45.856C269.732 45.788 270.072 45.652 270.684 45.244C271.704 44.564 272.724 43.408 273.404 42.116C273.88 41.232 273.88 41.164 273.88 40.484C273.88 40.076 273.948 39.532 274.016 39.26C274.152 38.716 274.152 38.648 273.948 37.764C273.54 35.996 273.54 36.132 274.424 35.316C274.9 34.908 275.376 34.5 275.58 34.432L276.464 33.616C277.416 32.596 279.728 30.216 279.796 30.08C279.864 29.944 279.864 29.536 279.728 29.4C279.456 29.128 279.184 29.332 277.756 30.624C275.648 32.528 275.512 32.528 274.424 33.412C274.152 33.684 273.744 34.024 273.54 34.092C273.2 34.296 273.132 34.296 273.064 34.16L272.588 33.548C272.248 33.14 271.84 32.46 270.956 30.828L270.548 29.876C270.276 29.196 270.208 28.992 270.14 27.632C270.004 24.844 270.004 24.572 270.752 23.892C271.16 23.484 271.228 23.484 271.704 23.484C273.268 23.484 274.356 21.716 273.54 20.288C273.132 19.608 272.452 18.928 271.908 18.656C271.5 18.384 271.364 18.384 270.072 18.384C269.12 18.384 268.644 18.452 268.372 18.52C267.964 18.724 267.352 19.2 266.944 19.472C266.4 19.744 265.924 20.152 265.584 20.832C265.448 21.172 265.108 21.648 264.836 21.92C264.632 22.124 264.292 22.668 264.156 23.076C263.204 25.456 262.796 24.98 263.544 27.768C263.748 28.72 264.02 29.604 264.088 29.74C264.292 30.148 264.972 30.896 265.992 31.984C266.332 32.324 266.672 32.8 266.808 33.072C266.876 33.276 267.284 33.82 267.624 34.228C267.964 34.636 268.44 35.248 268.576 35.52C268.78 35.86 269.052 36.268 269.188 36.54C269.732 37.22 269.664 37.424 268.644 38.444C266.876 40.144 265.992 41.572 265.72 42.932C265.448 44.292 265.584 44.836 266.536 45.448C267.42 46.06 267.76 46.06 269.392 45.856ZM267.624 43.68C267.352 43.68 267.42 43.476 267.692 42.592C267.896 42.048 268.1 41.64 268.44 41.164C269.324 40.076 269.732 39.6 269.8 39.6C269.868 39.6 269.868 39.94 269.868 40.552C269.8 41.3 269.732 41.572 269.528 42.048L269.052 42.932C268.712 43.204 267.896 43.68 267.624 43.68ZM295.884 41.164C297.04 41.3 299.556 40.144 300.236 39.192C300.44 38.92 300.78 38.58 300.984 38.444C301.528 38.104 303.228 35.724 303.84 34.568L304.588 33.072C304.996 32.528 305.268 31.576 305.336 30.692C305.404 30.08 305.404 30.012 305.132 29.74C304.384 29.06 303.5 29.672 302.208 31.712C301.936 32.12 301.732 32.596 301.732 32.664C301.732 32.8 301.596 33.14 301.46 33.548C301.256 33.888 301.188 34.228 301.188 34.296C301.188 34.364 300.916 34.772 300.644 35.18C299.556 36.744 300.916 35.248 298.604 37.9C297.788 38.852 296.768 39.26 296.02 39.056C295.544 38.92 294.524 38.308 294.116 37.9C293.64 37.356 292.416 35.384 291.736 34.16C291.192 33.004 290.784 32.324 289.968 31.508C289.696 31.1 289.22 30.624 289.084 30.352L288.744 29.876C289.764 28.72 291.124 27.156 293.436 25.388C293.708 25.184 294.32 24.572 294.796 24.096C295.544 23.348 295.748 23.076 296.224 22.124C296.768 21.036 296.768 20.968 296.768 20.356C296.768 19.132 296.224 18.588 294.864 18.52C294.184 18.452 294.116 18.452 293.572 18.724C293.232 18.86 292.892 19.2 292.62 19.472C292.348 19.676 291.94 20.084 291.668 20.22C291.396 20.424 291.056 20.764 290.92 20.968C290.512 21.58 289.424 23.076 289.152 23.62C288.88 24.028 288.54 24.708 288.2 25.184C287.928 25.592 287.112 26.34 286.976 26.204C286.84 26.204 286.908 25.524 287.044 24.164C287.044 23.824 287.044 23.144 286.908 22.396C286.704 20.696 286.772 20.016 287.18 18.86C287.656 17.772 287.724 17.092 287.52 16.208C287.316 15.528 287.316 15.528 287.588 14.848C287.86 14.032 288.2 12.196 288.268 10.904C288.404 9.408 288.744 7.98 289.152 7.164C289.56 6.348 289.696 5.6 289.764 3.696C289.832 2.404 289.696 1.792 289.288 1.18C288.88 0.5 288.404 0.227999 287.656 0.159996C287.18 0.159996 286.908 0.227999 286.772 0.295999C286.16 0.567999 285.276 1.316 284.936 1.656C284.8 1.86 284.528 2.336 284.46 2.608C284.324 2.948 284.12 3.424 283.916 3.628C283.78 3.832 283.508 4.376 283.304 4.92C282.964 5.668 282.896 5.872 282.828 6.688C282.76 7.504 282.692 7.708 282.488 8.184C282.284 8.456 282.08 9 282.012 9.34C281.876 9.748 281.74 10.224 281.604 10.428C281.332 10.972 280.788 13.964 280.788 14.984C280.788 15.664 280.72 16.004 280.584 16.276C280.448 16.548 280.312 17.228 280.176 17.772C279.972 18.656 279.972 19.132 279.904 20.628C279.904 25.66 280.312 25.32 279.972 26.816C279.7 27.972 279.904 29.4 280.516 31.78C280.652 32.12 280.72 32.868 280.72 33.684C280.788 35.316 280.856 35.656 281.672 37.22C282.08 38.036 282.352 38.648 282.352 38.988C282.488 39.6 282.76 40.416 283.032 40.688C283.1 40.756 283.304 40.892 283.508 40.96C284.188 41.164 284.732 40.688 284.868 39.668C284.868 39.464 285.072 38.988 285.276 38.58C285.616 37.9 285.684 37.764 285.684 37.152C285.684 36.608 285.684 36.336 285.888 35.996C286.024 35.724 286.16 35.18 286.228 34.84C286.364 33.888 286.568 33.004 286.568 32.596C286.568 32.46 286.636 32.256 286.704 32.188C286.772 31.984 287.18 32.256 287.656 32.936L288.336 33.82C288.54 34.024 288.88 34.636 289.152 35.18C289.832 36.676 290.648 37.832 291.872 39.056C292.756 40.008 292.96 40.144 293.844 40.552C294.796 41.028 295 41.096 295.884 41.164ZM311.672 39.192C313.576 38.988 314.868 38.58 316.364 37.696L317.996 36.608C318.404 36.404 319.016 35.86 319.424 35.52C320.104 34.84 320.172 34.772 321.124 33.548C321.464 33.14 321.872 32.596 322.144 32.392C322.62 31.848 323.708 30.624 323.98 30.216C324.252 29.944 324.252 29.604 324.048 29.4C323.572 28.992 323.164 29.264 320.716 31.644C320.376 31.916 320.104 32.188 320.036 32.188C319.968 32.188 319.628 32.46 319.288 32.8C318.064 33.956 317.112 34.84 316.704 35.112L315.956 35.656C315.412 36.132 313.78 36.676 312.896 36.676C312.624 36.676 312.284 36.608 311.74 36.336C310.856 35.86 310.244 35.18 310.108 34.5L309.836 33.616C309.632 33.208 309.632 32.936 309.564 31.916V30.488C309.496 30.012 310.04 29.4 311.128 28.72C312.556 27.768 312.556 27.632 313.576 26.884C313.916 26.68 314.256 26.34 314.324 26.204C314.46 26 314.664 25.796 314.868 25.592C315.344 25.252 315.48 25.116 315.888 24.436C316.704 23.212 316.296 24.572 317.996 20.9C318.064 20.696 318.268 20.22 318.336 19.88L318.608 18.656C318.744 18.248 318.812 17.568 318.812 16.956C318.812 16.004 318.812 15.936 318.54 15.528C318.2 15.052 317.044 14.1 316.432 13.76C316.024 13.556 315.616 13.556 314.868 13.624C314.392 13.692 313.1 14.1 312.352 14.508C312.012 14.712 311.4 14.916 311.06 15.052C310.312 15.256 309.02 16.072 308.544 16.548C308.34 16.752 308.068 17.092 307.932 17.432C307.252 18.656 306.232 19.472 306.028 20.628C305.96 20.832 305.756 21.24 305.552 21.58C305.348 21.92 305.076 22.532 304.94 22.872C304.872 23.212 304.6 23.688 304.464 23.96C304.124 24.504 303.444 27.02 303.376 28.04C303.308 28.924 303.512 29.196 303.784 31.1C303.92 32.256 304.464 34.024 304.872 34.908C305.348 35.724 306.096 36.948 306.368 37.152C306.64 37.492 307.864 38.24 308.544 38.58C308.816 38.716 309.428 38.92 309.904 39.056C310.72 39.328 310.788 39.328 311.672 39.192ZM311.332 25.66C311.196 25.66 311.196 25.66 311.4 24.912C311.604 23.824 312.08 22.804 312.488 22.192C312.896 21.648 313.236 20.9 313.236 20.56C313.236 20.22 313.644 19.744 314.12 19.472C314.732 19.064 315.14 18.656 315.684 17.908C316.092 17.364 316.364 17.296 316.5 17.636C316.568 17.704 316.568 18.044 316.568 18.452C316.568 18.996 316.432 19.2 315.888 20.356C315.276 21.648 314.596 22.6 313.644 23.552C311.808 25.32 311.468 25.66 311.332 25.66ZM341.941 43.408C342.825 43.34 342.825 43.34 344.593 42.388C345.001 42.184 345.341 41.912 345.545 41.64C346.089 40.96 346.701 40.416 347.041 39.872L347.517 39.328C347.721 39.056 348.673 37.424 349.149 36.54C349.421 35.928 349.829 34.908 349.829 34.704C349.829 34.296 350.373 32.8 351.325 30.556C351.665 29.808 351.733 29.264 351.529 29.196C351.325 29.128 350.985 29.468 350.645 30.148C350.169 31.032 349.557 31.984 349.557 32.188C349.489 32.324 349.081 33.004 348.265 34.16L347.653 35.316C347.517 35.588 347.313 35.928 347.177 36.064C346.905 36.404 346.429 37.22 346.225 37.832C346.089 38.036 345.749 38.58 345.273 39.056C344.933 39.532 344.525 40.008 344.457 40.144C344.185 40.62 342.417 41.708 341.941 41.708C341.737 41.708 341.193 41.3 341.193 41.164C341.193 41.096 340.717 40.348 340.581 40.144V38.036L340.649 35.112C340.853 31.44 340.853 30.692 341.057 29.876C341.193 29.332 341.329 28.516 341.329 27.972C341.397 27.428 341.465 26.816 341.601 26.544C341.669 26.204 341.737 25.796 341.737 25.184C341.669 24.028 341.873 21.988 342.077 21.308C342.145 21.036 342.281 20.628 342.417 20.356C342.621 20.016 342.621 19.88 342.621 18.452C342.621 16.412 342.757 15.936 343.165 12.876L343.301 11.448C343.573 9.884 342.893 9.476 342.417 8.32C342.213 7.776 341.669 7.164 341.193 6.96C340.785 6.756 339.833 6.756 339.357 6.96C338.949 7.096 338.473 7.572 338.201 8.116L337.589 9.136C337.113 9.816 337.113 10.02 336.773 11.584C336.637 12.264 336.433 13.148 336.297 13.556C336.025 14.236 335.889 15.188 335.753 17.228L335.617 18.18C335.549 18.248 335.277 18.316 335.005 18.316C334.665 18.316 334.257 18.384 333.985 18.52C333.713 18.588 333.237 18.724 332.829 18.724C332.081 18.86 331.401 19.132 330.857 19.608L329.905 20.356C329.565 20.492 329.157 20.9 328.885 21.24C328.613 21.512 328.137 21.92 327.797 22.192C327.389 22.532 327.049 22.872 326.709 23.348C326.505 23.756 326.029 24.3 325.757 24.572C325.077 25.32 324.669 26.272 324.533 27.36L324.261 28.924C324.125 29.808 324.329 32.324 324.601 33.072C325.145 34.364 324.669 34.772 326.097 36.064C326.913 36.744 326.981 36.812 328.069 37.152C329.293 37.492 329.837 37.492 330.585 37.084C330.993 36.88 331.401 36.54 331.605 36.404C331.809 36.2 332.081 35.996 332.217 35.928C332.353 35.86 332.625 35.52 332.829 35.18L333.713 33.82C334.257 33.072 335.141 31.508 335.413 30.828C335.481 30.556 335.617 30.42 335.617 30.42C335.685 30.42 335.753 31.1 335.753 31.848C335.889 34.84 336.229 37.152 336.637 38.104C336.773 38.444 336.977 38.852 337.045 39.124L337.589 40.416C337.997 41.164 338.269 41.436 338.881 42.048C340.173 43.272 340.581 43.476 341.941 43.408ZM330.245 34.5L330.177 34.16C330.041 33.276 330.109 32.732 330.653 31.712L331.537 30.216C331.809 29.944 332.217 29.128 332.489 28.516C333.033 27.36 333.917 26.204 334.937 25.116C335.481 24.504 335.685 24.436 335.685 24.776C335.685 25.116 335.345 26.136 335.073 26.748C334.937 27.02 334.869 27.292 334.869 27.36C334.869 27.428 334.733 27.7 334.597 27.904L333.577 29.876C332.557 31.916 331.401 33.752 330.653 34.228L330.245 34.5ZM391.002 41.98C391.886 42.116 392.294 41.98 392.566 41.64C393.042 41.028 392.77 40.416 391.886 39.872C391.274 39.464 390.526 38.784 389.846 37.968L388.894 36.948C388.35 36.336 388.282 36.336 388.35 35.928C388.35 35.452 388.962 34.16 389.438 33.48C389.71 33.072 390.322 30.896 390.458 29.808C390.594 28.584 390.594 27.088 390.798 26C390.798 25.592 390.866 25.048 390.866 24.776C390.798 24.572 390.866 24.096 390.866 23.824C390.934 23.552 390.934 22.328 390.866 21.036C390.73 19.2 390.73 18.724 390.594 18.452C390.186 17.568 389.914 16.752 389.778 15.528C389.642 14.372 389.574 14.1 389.234 13.352C388.69 12.06 388.554 11.856 387.126 10.496C385.834 9.34 385.358 9 383.726 8.252L383.182 7.98L379.238 8.184L378.014 8.66C376.858 9.136 376.314 9.476 375.906 9.952L375.022 10.7C374.138 11.312 373.73 11.856 373.458 12.672C373.39 12.944 373.118 13.42 372.914 13.692C372.438 14.168 372.166 14.78 371.962 15.732C371.758 16.548 371.554 16.956 371.01 17.636C370.466 18.384 369.854 19.88 369.718 20.832L369.514 22.328C369.378 22.94 369.378 23.416 369.514 24.708C369.65 26.068 369.65 26.544 369.582 27.02C369.378 28.176 369.378 28.72 369.582 30.08C369.922 31.916 370.194 32.732 370.806 33.82C371.214 34.5 371.418 35.044 371.622 35.656C371.962 36.948 373.322 39.328 373.934 39.804L375.362 40.892C376.45 41.912 377.13 42.184 378.082 42.32C379.714 42.388 379.306 42.864 381.006 42.252L382.162 41.844C382.366 41.776 382.842 41.504 383.318 41.164L384.678 40.212C384.95 40.076 385.426 39.6 385.834 39.192C386.514 38.308 386.514 38.308 387.262 39.396C387.466 39.804 387.806 40.212 387.942 40.28L388.894 41.028C389.642 41.708 390.05 41.912 391.002 41.98ZM381.142 37.56C380.394 37.492 380.258 37.356 379.85 36.472C379.51 35.724 379.17 35.316 378.626 34.636C378.422 34.364 378.354 34.16 378.286 33.276C378.15 31.984 378.082 31.984 377.47 30.692C377.538 26.68 377.538 26.408 377.402 25.456C377.266 24.844 377.266 24.776 377.606 24.028C377.946 23.212 377.946 23.212 377.878 21.988C377.81 20.9 377.81 20.696 378.082 19.676C378.286 19.132 378.422 18.452 378.422 18.248C378.49 17.704 378.558 17.5 379.17 16.616C379.442 16.208 379.714 15.664 379.782 15.392C379.918 14.848 379.986 14.78 380.734 14.304C381.278 13.964 381.278 13.964 382.366 13.964C383.114 13.964 383.454 13.964 383.658 14.1C383.862 14.168 384.134 14.44 384.338 14.644C384.474 14.916 384.95 15.392 385.358 15.732C385.698 16.072 386.174 16.48 386.242 16.616C386.378 16.82 386.582 17.024 386.65 17.16C386.786 17.228 386.99 17.5 387.126 17.84C387.262 18.112 387.398 18.452 387.534 18.588C387.67 18.724 387.806 18.996 387.874 19.132C388.01 19.404 388.078 21.716 387.942 22.124C387.942 22.396 387.874 23.008 387.874 23.62C387.942 24.232 387.874 24.98 387.806 25.388C387.466 27.156 387.806 27.224 387.058 28.448C386.718 29.128 386.378 30.08 386.446 30.42C386.446 30.624 385.63 32.528 385.494 32.664C385.426 32.664 385.222 32.664 384.95 32.596C383.862 32.392 383.454 32.8 383.522 34.024C383.522 34.772 383.658 34.84 384.066 35.52L383.386 36.268C382.978 36.608 382.57 36.948 382.434 37.016C382.298 37.084 382.026 37.22 381.89 37.356C381.618 37.56 381.482 37.628 381.142 37.56ZM398.16 43.544C398.636 43.68 398.772 43.68 399.724 43.544C400.404 43.476 400.88 43.34 401.22 43.136C401.696 42.932 402.512 42.048 402.784 41.504L403.192 40.824C403.328 40.688 403.6 40.212 403.804 39.804C404.416 38.376 404.348 38.988 405.844 35.724L406.524 34.16C406.864 33.548 406.932 33.48 406.932 33.684C406.932 34.16 407.136 34.84 407.476 35.248C407.68 35.52 407.816 35.928 407.884 36.336C408.02 36.676 408.156 37.152 408.224 37.424L408.632 38.512C408.972 39.532 410.468 41.028 411.42 41.232C411.964 41.368 412.44 41.232 413.528 40.552C414.888 39.668 416.112 38.58 416.656 37.764L417.54 36.404L418.016 35.52C418.084 35.316 418.288 34.976 418.424 34.704C418.628 34.5 418.764 34.228 418.764 34.092C418.764 34.024 418.9 33.616 419.172 33.208C420.056 31.44 420.192 31.236 420.328 30.76C420.668 29.808 420.532 29.332 419.988 29.332C419.648 29.332 419.24 29.808 418.22 31.304C417.404 32.664 417.064 33.14 416.452 33.82C416.248 34.024 415.976 34.432 415.908 34.636C415.84 34.84 415.636 35.18 415.432 35.316C415.228 35.52 414.956 35.928 414.752 36.268C414.48 36.608 414.14 36.948 413.868 37.084L413.12 37.628C412.712 37.968 412.44 37.9 412.168 37.628C411.964 37.356 411.964 37.288 412.032 36.404L412.168 34.636C412.168 34.16 412.236 33.684 412.236 33.548C412.304 33.344 412.372 32.936 412.44 32.596C412.44 32.188 412.576 31.576 412.712 31.168C412.848 30.692 412.916 30.08 412.984 29.672C413.12 27.904 413.324 28.244 413.256 26.068C413.12 24.776 413.12 24.64 412.78 24.028C412.1 22.532 411.556 21.988 410.808 21.784C410.128 21.648 409.448 21.92 408.564 22.872C407.612 23.756 407.408 24.3 407.34 26.136C407.272 27.02 407.204 27.428 407.068 27.836C406.932 28.108 406.796 28.652 406.66 28.992C406.388 30.148 406.32 30.352 406.048 30.896C405.912 31.168 405.776 31.508 405.776 31.576C405.776 31.644 405.64 31.984 405.436 32.324C405.232 32.664 405.028 33.072 405.028 33.14C405.028 33.276 404.892 33.616 404.688 33.956C403.94 35.044 403.668 35.588 403.26 36.268C402.784 37.152 401.628 38.376 401.492 38.172C401.288 37.9 401.288 37.016 401.492 36.472C401.56 36.268 401.832 34.364 401.968 33.072C402.036 32.8 402.172 32.188 402.24 31.712C402.376 31.236 402.512 30.284 402.58 29.672C402.648 28.788 402.716 28.38 402.92 27.836C403.464 26.408 403.6 25.456 403.26 24.232C403.124 23.892 403.056 23.28 403.056 23.008C403.056 22.26 402.784 21.58 402.308 21.172C401.696 20.628 401.424 20.56 400.472 20.492C399.724 20.492 399.588 20.492 399.112 20.696C398.16 21.172 397.072 22.328 396.392 23.62C396.052 24.164 395.984 24.436 395.44 27.02C395.304 27.564 395.1 28.176 394.964 28.448C394.488 29.332 394.42 29.672 394.352 30.896L394.148 32.8C394.148 33.412 394.148 34.024 394.284 34.84C394.624 37.968 394.488 38.444 395.168 39.532C395.304 39.804 395.576 40.28 395.644 40.62C395.916 41.232 396.936 42.728 397.412 43.204C397.548 43.34 397.888 43.476 398.16 43.544ZM428.839 39.192C430.743 38.988 432.035 38.58 433.531 37.696L435.163 36.608C435.571 36.404 436.183 35.86 436.591 35.52C437.271 34.84 437.339 34.772 438.291 33.548C438.631 33.14 439.039 32.596 439.311 32.392C439.787 31.848 440.875 30.624 441.147 30.216C441.419 29.944 441.419 29.604 441.215 29.4C440.739 28.992 440.331 29.264 437.883 31.644C437.543 31.916 437.271 32.188 437.203 32.188C437.135 32.188 436.795 32.46 436.455 32.8C435.231 33.956 434.279 34.84 433.871 35.112L433.123 35.656C432.579 36.132 430.947 36.676 430.063 36.676C429.791 36.676 429.451 36.608 428.907 36.336C428.023 35.86 427.411 35.18 427.275 34.5L427.003 33.616C426.799 33.208 426.799 32.936 426.731 31.916V30.488C426.663 30.012 427.207 29.4 428.295 28.72C429.723 27.768 429.723 27.632 430.743 26.884C431.083 26.68 431.423 26.34 431.491 26.204C431.627 26 431.831 25.796 432.035 25.592C432.511 25.252 432.647 25.116 433.055 24.436C433.871 23.212 433.463 24.572 435.163 20.9C435.231 20.696 435.435 20.22 435.503 19.88L435.775 18.656C435.911 18.248 435.979 17.568 435.979 16.956C435.979 16.004 435.979 15.936 435.707 15.528C435.367 15.052 434.211 14.1 433.599 13.76C433.191 13.556 432.783 13.556 432.035 13.624C431.559 13.692 430.267 14.1 429.519 14.508C429.179 14.712 428.567 14.916 428.227 15.052C427.479 15.256 426.187 16.072 425.711 16.548C425.507 16.752 425.235 17.092 425.099 17.432C424.419 18.656 423.399 19.472 423.195 20.628C423.127 20.832 422.923 21.24 422.719 21.58C422.515 21.92 422.243 22.532 422.107 22.872C422.039 23.212 421.767 23.688 421.631 23.96C421.291 24.504 420.611 27.02 420.543 28.04C420.475 28.924 420.679 29.196 420.951 31.1C421.087 32.256 421.631 34.024 422.039 34.908C422.515 35.724 423.263 36.948 423.535 37.152C423.807 37.492 425.031 38.24 425.711 38.58C425.983 38.716 426.595 38.92 427.071 39.056C427.887 39.328 427.955 39.328 428.839 39.192ZM428.499 25.66C428.363 25.66 428.363 25.66 428.567 24.912C428.771 23.824 429.247 22.804 429.655 22.192C430.063 21.648 430.403 20.9 430.403 20.56C430.403 20.22 430.811 19.744 431.287 19.472C431.899 19.064 432.307 18.656 432.851 17.908C433.259 17.364 433.531 17.296 433.667 17.636C433.735 17.704 433.735 18.044 433.735 18.452C433.735 18.996 433.599 19.2 433.055 20.356C432.443 21.648 431.763 22.6 430.811 23.552C428.975 25.32 428.635 25.66 428.499 25.66ZM461.352 47.828C462.236 47.896 462.304 47.76 463.528 47.42C464.208 47.216 464.82 47.012 464.82 46.944C464.82 46.876 465.092 46.74 465.296 46.672C465.908 46.468 466.86 45.38 467.2 44.768C467.404 44.428 467.676 44.088 467.88 43.952C468.288 43.68 469.784 39.736 470.124 39.124C470.26 38.852 470.464 38.512 470.6 38.376C470.804 38.172 471.144 37.288 471.28 37.016C471.416 36.812 472.096 34.568 472.232 34.364C472.368 34.16 472.504 33.82 472.572 33.548C472.64 33.344 472.844 32.868 472.98 32.46L473.252 31.78L473.524 30.964C473.728 30.624 473.864 30.08 473.932 29.808C474 29.4 473.932 29.332 473.728 29.264C473.592 29.196 473.388 29.196 473.32 29.196C472.98 29.196 472.368 30.148 472.164 30.692C472.028 31.032 471.484 31.78 471.076 32.392C470.668 33.004 470.192 34.636 470.056 34.908C469.308 36.2 468.628 37.56 468.492 37.832C467.54 39.396 467.268 40.688 467.064 41.096C466.86 41.504 466.52 41.98 465.84 42.592C464.616 43.68 463.664 44.496 462.848 44.632C461.964 44.768 461.692 44.7 461.08 44.088C460.604 43.612 460.536 43.476 460.4 42.864C460.332 42.456 460.332 41.708 460.264 41.232C460.128 40.416 460.264 40.212 459.992 39.668L459.72 39.056L459.788 37.084C459.856 35.452 459.788 34.976 459.652 34.568C459.516 34.228 459.516 33.888 459.584 33.48C459.652 33.14 459.584 32.528 459.516 32.188C459.38 31.576 459.448 31.372 459.584 30.76C459.72 30.08 459.72 29.604 459.38 28.108C459.244 27.496 459.312 27.292 459.38 26.816C459.448 26.476 459.516 25.66 459.584 25.116C459.652 24.504 459.72 23.688 459.856 23.348C460.128 22.6 460.06 21.58 459.856 20.764C459.72 20.22 459.652 20.016 459.856 19.404C459.992 18.928 459.924 18.52 459.856 18.18C459.788 17.84 459.788 17.16 459.788 16.684C459.788 15.528 459.856 15.392 460.74 15.392C461.08 15.392 461.624 15.324 461.964 15.188C462.304 15.052 462.916 15.052 463.324 14.984C464.888 14.712 465.84 14.372 466.452 13.42C466.928 12.672 466.724 11.516 466.044 10.768C465.704 10.36 465.228 10.496 464.888 11.04C464.752 11.244 464.412 11.516 463.868 11.856C463.12 12.332 462.984 12.264 462.304 12.332C460.468 12.536 460.332 12.332 460.332 11.516C460.332 11.244 460.264 10.768 460.128 10.36C459.856 9.544 459.924 9.136 460.128 8.116C460.536 6.212 458.564 3.832 457.068 4.376C456.32 4.648 455.572 5.532 455.368 6.552C455.3 6.892 455.028 7.368 454.892 7.708C454.756 8.048 454.62 8.456 454.62 8.728C454.62 9 454.552 9.34 454.416 9.612L454.076 10.564C453.94 11.04 453.6 10.836 453.532 11.176C453.328 12.128 453.192 12.128 453.124 12.128C453.056 12.128 452.648 11.992 452.104 11.992C451.56 11.992 450.812 11.72 450.404 11.584C449.656 11.312 449.588 11.312 447.412 11.312C445.508 11.312 445.168 11.312 444.012 11.584C443.4 11.72 442.652 11.856 442.448 11.856C441.972 11.856 441.292 12.332 440.612 12.808L439.728 13.488C438.096 14.576 439.252 16.48 441.02 15.596C441.428 15.392 441.632 15.324 443.74 15.46C445.032 15.528 446.46 15.392 446.936 15.392C447.548 15.392 447.956 15.324 448.16 15.392C448.364 15.46 449.044 15.528 449.792 15.596C450.54 15.664 451.696 15.664 452.24 15.664C453.124 15.664 453.328 15.8 453.532 15.052C453.6 14.78 453.736 15.256 453.6 15.936C453.532 16.344 453.532 17.092 453.532 17.636C453.532 18.52 453.464 19.608 453.26 20.084C453.124 20.356 452.784 20.832 452.444 21.172C452.172 21.444 451.764 21.92 451.628 22.124C451.152 22.872 450.404 23.824 450.064 24.3C449.928 24.504 449.52 24.844 449.452 25.116C449.384 25.32 449.112 25.592 448.908 25.796C448.636 26.068 448.432 26.272 448.364 26.476C448.228 26.884 447.072 28.38 446.8 28.584C446.596 28.72 446.528 28.652 446.256 28.312C445.508 27.428 445.372 27.224 445.304 26.34C445.236 25.456 445.1 25.116 444.556 24.368C444.08 23.756 443.944 23.348 443.944 22.6C443.944 22.124 443.944 21.988 444.148 21.784L444.42 21.512L444.624 21.716L445.304 22.192C445.78 22.532 446.12 23.076 446.12 23.484C446.12 23.62 446.256 23.892 446.392 24.028C446.8 24.436 447.276 24.504 447.548 24.232C447.82 23.96 448.16 23.076 448.228 22.328C448.296 21.716 448.296 21.648 447.82 20.764C447.004 19.268 445.78 18.316 444.012 18.112C442.992 17.976 442.72 18.044 441.632 18.52C440.816 18.86 440.476 19.404 440.136 20.084L439.66 21.036C439.524 21.308 439.32 21.852 439.184 22.328C439.048 22.736 438.912 23.348 438.776 23.688C438.504 24.436 438.572 25.116 438.912 25.932L439.524 27.496C439.728 28.108 440.136 29.196 440.476 29.944L441.224 31.508C441.224 31.576 441.496 31.984 441.768 32.324C442.108 32.732 442.312 33.208 442.38 33.412C442.516 33.752 442.448 33.82 442.176 34.364L441.496 35.656L440.816 36.948L440.408 37.764C440.34 37.9 440.272 38.104 440.272 38.172L440.136 38.648C439.932 39.328 439.728 41.776 439.864 43.068C439.932 43.68 440.408 44.36 441.224 44.972C442.108 45.652 442.244 45.72 443.74 45.72C445.168 45.72 445.644 45.652 446.936 44.972C448.092 44.36 448.636 43.884 449.044 43C449.792 41.3 450.404 39.328 450.2 38.376C450.132 38.104 450.064 37.628 449.928 37.356C449.792 37.084 449.588 36.608 449.588 36.268C449.588 35.86 449.316 35.384 449.18 35.18C448.228 33.752 447.752 32.528 447.616 31.576C447.548 31.168 448.024 30.624 449.044 29.4L450.132 28.108C450.336 27.836 450.54 27.496 450.744 27.428C450.948 27.36 451.152 27.02 451.356 26.748C451.56 26.476 452.036 25.864 452.444 25.388L453.26 24.368C453.396 24.164 453.26 24.164 453.532 23.348C453.6 23.144 453.668 24.096 453.668 26.408C453.668 28.788 453.804 29.468 453.872 30.012C453.94 30.42 454.008 31.032 454.008 31.508C454.008 33.412 453.94 34.976 454.212 35.724C454.348 36.132 454.416 36.812 454.416 37.288C454.416 37.832 454.484 38.24 454.62 38.58C454.756 38.852 454.824 39.26 454.824 39.464C454.824 40.008 455.096 41.028 455.368 41.572C455.504 41.844 455.708 42.32 455.776 42.592C455.912 43.272 456.116 43.408 456.728 44.564C457.204 45.448 458.36 46.604 458.768 46.808C458.904 46.876 459.312 47.08 459.72 47.352C460.4 47.828 460.536 47.76 461.352 47.828ZM442.516 42.728C441.972 42.728 441.836 41.028 442.108 40.076L442.448 38.92C442.584 38.444 443.672 36.54 443.876 36.54C443.876 36.54 444.012 36.676 444.08 36.812C444.148 36.948 444.284 37.288 444.352 37.628L444.556 38.852C444.692 39.192 444.692 39.532 444.692 39.6L444.556 40.62C444.488 41.096 444.488 41.572 444.352 41.708C444.284 41.776 443.944 41.98 443.672 42.116C443.332 42.252 442.992 42.456 442.856 42.592C442.72 42.728 442.584 42.728 442.516 42.728ZM476.558 15.868C476.898 16.072 477.51 16.004 477.986 15.8C478.258 15.664 478.53 15.528 478.666 15.528C479.006 15.528 479.278 15.324 479.414 15.052C479.482 14.916 479.55 14.508 479.55 14.168C479.618 13.556 479.618 13.556 479.278 13.08C478.938 12.536 478.258 11.924 477.85 11.72C477.51 11.516 476.694 11.584 476.354 11.788C475.946 11.992 475.742 12.264 475.538 12.876C475.266 13.76 475.198 14.372 475.266 14.644C475.402 14.848 476.218 15.664 476.558 15.868ZM477.714 43.816C478.326 43.816 478.87 43.544 479.278 43C479.686 42.388 479.754 42.116 479.618 40.416C479.55 38.988 479.618 37.22 479.754 35.792C479.822 35.384 479.754 34.976 479.686 34.5C479.278 32.596 479.89 32.664 479.89 30.148C479.89 29.536 479.958 28.788 479.958 28.584C480.094 28.108 480.162 26.952 480.298 24.64C480.434 23.484 480.23 23.008 479.142 21.58C478.326 20.492 477.85 20.084 477.238 19.88C476.626 19.744 476.422 19.744 475.878 19.88C474.926 20.152 474.518 20.9 473.43 22.328L472.954 23.144C472.818 23.688 472.546 25.116 472.478 26.408L472.274 28.244C472.07 29.264 472.07 33.616 472.206 34.84C472.274 35.86 472.954 38.58 473.294 39.192C473.43 39.464 473.77 39.94 474.042 40.212C474.45 40.62 474.586 40.824 474.722 41.368C474.926 41.912 474.994 42.048 475.674 42.728C476.558 43.612 476.966 43.816 477.714 43.816ZM492.139 41.164C492.615 41.164 493.295 41.096 493.567 41.028L494.383 40.892C494.791 40.824 495.743 40.28 496.287 39.804C496.899 39.328 497.783 38.104 498.327 37.22C499.415 35.18 499.279 34.636 499.959 32.936C500.095 32.528 500.231 31.984 500.299 31.644L500.503 30.488C500.639 29.876 500.707 28.584 500.639 26.952C500.639 26.136 500.163 24.232 499.755 23.552C499.619 23.212 499.483 22.94 499.483 22.872C499.483 22.804 499.347 22.464 499.143 22.056C498.667 21.036 497.443 20.152 496.355 19.812C496.219 19.812 496.083 19.676 496.015 19.54C495.675 18.656 495.539 18.452 494.927 17.976L493.907 17.228C493.363 17.024 492.547 17.024 491.663 17.296L490.371 17.636C489.827 17.772 489.623 17.908 489.215 18.316C488.195 19.336 487.447 20.288 487.107 21.036C486.903 21.444 486.495 22.056 486.291 22.396C485.543 23.348 485.067 24.232 484.795 25.116C484.523 25.796 484.523 26 484.455 27.7C484.387 30.148 484.523 29.876 484.863 32.732L485.067 34.296C485.135 35.044 485.883 35.792 487.107 37.9C488.399 39.94 488.807 40.348 490.303 40.824C491.119 41.096 491.391 41.164 492.139 41.164ZM493.635 36.744C493.499 36.744 493.227 36.54 493.023 36.268L492.615 35.86L492.411 34.5C492.343 33.616 492.275 32.732 492.275 31.916C492.275 31.168 492.275 30.352 492.207 29.944C492.139 29.332 492.139 29.128 492.411 28.516C492.547 28.176 492.683 27.428 492.751 27.02C492.955 26 493.091 25.66 493.567 24.912C493.975 24.232 494.247 23.552 494.383 22.804C494.451 21.92 494.587 21.92 494.927 22.668L495.335 23.552C495.811 24.3 496.287 25.388 496.287 25.524L496.559 26.748C496.831 27.7 496.831 27.972 496.831 28.992C496.763 29.672 496.831 30.352 496.831 30.556C496.899 30.692 496.831 31.168 496.763 31.644L496.491 32.868C496.491 33.072 496.423 33.412 496.287 33.548L496.015 34.432C495.879 34.908 495.675 35.18 495.335 35.52C495.131 35.792 494.859 36.064 494.791 36.2C494.655 36.472 493.907 36.812 493.635 36.744ZM520.738 45.04C521.35 45.04 522.302 44.836 522.778 44.632C523.322 44.428 524.342 43.544 525.158 42.728C525.634 42.184 526.994 40.484 526.994 40.348C526.994 40.28 527.402 39.736 528.014 38.852C528.218 38.512 528.49 38.172 528.558 38.104C528.626 38.104 528.898 37.696 529.102 37.22L530.666 34.636L531.006 33.684C531.482 32.392 531.346 32.8 532.162 30.76C532.23 30.42 532.366 30.08 532.298 29.876C532.23 29.06 531.55 29.468 530.734 30.828C530.326 31.508 529.85 32.256 529.51 32.664C529.102 33.14 528.49 34.296 528.354 34.636C528.286 35.112 527.81 35.996 527.47 36.268C527.198 36.676 526.178 38.308 525.838 38.648C525.634 38.784 525.294 39.192 525.09 39.6C524.546 40.28 523.934 40.892 522.914 41.776C522.574 42.116 522.302 42.184 522.03 42.252C521.418 42.388 521.146 42.116 521.078 41.232L520.874 39.668C520.67 37.9 521.01 38.376 520.942 36.2C520.874 35.18 520.874 34.908 521.01 34.296C521.418 33.004 521.554 32.052 521.486 31.44C521.486 30.964 521.486 30.624 521.622 30.08C521.962 28.652 522.03 27.768 522.03 25.388C522.03 23.076 522.03 23.076 521.758 22.464C521.622 22.056 521.486 21.716 521.418 21.716L520.942 20.696C520.466 19.812 520.126 19.472 519.31 19.064C518.698 18.792 518.086 18.656 517.678 18.86C517.27 18.996 517.202 19.064 516.114 20.016C514.618 21.24 512.374 23.96 511.558 25.524C511.014 26.408 510.334 27.292 510.266 27.224C510.198 27.224 510.13 26.612 510.13 26C510.062 25.252 509.994 24.572 509.858 24.3L509.654 23.076C509.586 22.328 509.382 21.784 508.77 21.036C508.294 20.492 507.75 20.22 507.138 20.152C506.322 20.084 505.982 20.356 505.438 21.24C504.554 22.872 504.622 22.804 504.486 24.096C504.282 27.7 503.874 26.952 504.078 28.448C504.078 28.856 504.146 29.74 504.214 30.352C504.214 31.304 504.214 31.644 504.418 32.12C504.758 32.936 505.438 35.86 505.642 36.2C506.118 37.016 506.73 37.356 507.546 37.288C508.226 37.288 508.77 36.948 509.042 36.336L509.518 35.316C509.654 34.976 509.858 34.296 509.994 33.752C510.062 33.208 510.266 32.664 510.334 32.46C510.47 32.256 510.538 31.916 510.606 31.712C510.674 31.304 511.218 30.08 511.558 29.468L511.898 28.72C512.034 28.244 512.714 27.088 513.19 26.476C513.394 26.204 513.598 25.864 513.734 25.592C514.142 24.776 516.59 22.6 516.794 22.804C516.862 22.872 516.454 24.776 516.25 25.456C516.114 25.796 515.978 26.34 515.91 26.612L515.774 27.768C515.638 28.244 515.638 28.516 515.706 29.06C515.842 29.672 515.774 29.808 515.638 30.352C515.434 31.032 515.23 32.936 515.23 34.364C515.23 34.704 515.23 35.384 515.162 35.724C515.162 36.268 515.162 36.54 515.23 36.812C515.298 36.948 515.366 37.56 515.434 38.104C515.502 39.464 515.57 39.26 516.318 40.824C516.454 41.164 516.726 41.572 516.93 41.776C517.134 42.048 517.406 42.456 517.542 42.728C518.154 43.816 519.786 45.04 520.738 45.04ZM538.587 45.856C538.927 45.788 539.267 45.652 539.879 45.244C540.899 44.564 541.919 43.408 542.599 42.116C543.075 41.232 543.075 41.164 543.075 40.484C543.075 40.076 543.143 39.532 543.211 39.26C543.347 38.716 543.347 38.648 543.143 37.764C542.735 35.996 542.735 36.132 543.619 35.316C544.095 34.908 544.571 34.5 544.775 34.432L545.659 33.616C546.611 32.596 548.923 30.216 548.991 30.08C549.059 29.944 549.059 29.536 548.923 29.4C548.651 29.128 548.379 29.332 546.951 30.624C544.843 32.528 544.707 32.528 543.619 33.412C543.347 33.684 542.939 34.024 542.735 34.092C542.395 34.296 542.327 34.296 542.259 34.16L541.783 33.548C541.443 33.14 541.035 32.46 540.151 30.828L539.743 29.876C539.471 29.196 539.403 28.992 539.335 27.632C539.199 24.844 539.199 24.572 539.947 23.892C540.355 23.484 540.423 23.484 540.899 23.484C542.463 23.484 543.551 21.716 542.735 20.288C542.327 19.608 541.647 18.928 541.103 18.656C540.695 18.384 540.559 18.384 539.267 18.384C538.315 18.384 537.839 18.452 537.567 18.52C537.159 18.724 536.547 19.2 536.139 19.472C535.595 19.744 535.119 20.152 534.779 20.832C534.643 21.172 534.303 21.648 534.031 21.92C533.827 22.124 533.487 22.668 533.351 23.076C532.399 25.456 531.991 24.98 532.739 27.768C532.943 28.72 533.215 29.604 533.283 29.74C533.487 30.148 534.167 30.896 535.187 31.984C535.527 32.324 535.867 32.8 536.003 33.072C536.071 33.276 536.479 33.82 536.819 34.228C537.159 34.636 537.635 35.248 537.771 35.52C537.975 35.86 538.247 36.268 538.383 36.54C538.927 37.22 538.859 37.424 537.839 38.444C536.071 40.144 535.187 41.572 534.915 42.932C534.643 44.292 534.779 44.836 535.731 45.448C536.615 46.06 536.955 46.06 538.587 45.856ZM536.819 43.68C536.547 43.68 536.615 43.476 536.887 42.592C537.091 42.048 537.295 41.64 537.635 41.164C538.519 40.076 538.927 39.6 538.995 39.6C539.063 39.6 539.063 39.94 539.063 40.552C538.995 41.3 538.927 41.572 538.723 42.048L538.247 42.932C537.907 43.204 537.091 43.68 536.819 43.68Z" fill="#FFC501"/>
</svg>
