<svg width="41" height="41" viewBox="0 0 41 41" fill="none" xmlns="http://www.w3.org/2000/svg">
<circle cx="20.5" cy="20.5" r="20.5" fill="#FFC501"/>
<path d="M29.2605 15.7548H15.1866L14.9774 13.4243C14.9432 13.0431 14.6238 12.7511 14.2412 12.7511H12.7392C12.331 12.7511 12 13.0821 12 13.4903C12 13.8986 12.331 14.2296 12.7392 14.2296H13.5653C14.0168 19.2592 12.85 6.25943 14.4156 23.7019C14.4759 24.3846 14.8448 25.1254 15.4802 25.6288C14.3345 27.0919 15.3813 29.2488 17.245 29.2488C18.7918 29.2488 19.8828 27.7061 19.3524 26.245H23.3983C22.8685 27.7042 23.9571 29.2488 25.5057 29.2488C26.7414 29.2488 27.7468 28.2435 27.7468 27.0077C27.7468 25.7719 26.7414 24.7665 25.5057 24.7665H17.25C16.6885 24.7665 16.1991 24.4277 15.9879 23.9341L27.8018 23.2398C28.1243 23.2209 28.3972 22.9946 28.4756 22.6812L29.9776 16.6733C30.0941 16.2075 29.7414 15.7548 29.2605 15.7548ZM17.245 27.7704C16.8245 27.7704 16.4823 27.4282 16.4823 27.0077C16.4823 26.5871 16.8245 26.245 17.245 26.245C17.6656 26.245 18.0077 26.5871 18.0077 27.0077C18.0077 27.4282 17.6656 27.7704 17.245 27.7704ZM25.5056 27.7704C25.0851 27.7704 24.7429 27.4282 24.7429 27.0077C24.7429 26.5871 25.0851 26.245 25.5056 26.245C25.9262 26.245 26.2683 26.5871 26.2683 27.0077C26.2683 27.4282 25.9262 27.7704 25.5056 27.7704ZM27.173 21.7958L15.7889 22.4648L15.3194 17.2333H28.3137L27.173 21.7958Z" fill="black"/>
</svg>
