<svg width="31" height="31" viewBox="0 0 31 31" fill="none" xmlns="http://www.w3.org/2000/svg">
<path d="M7.26563 15.5C7.26563 13.9642 7.68879 12.5254 8.42395 11.2934V6.06775H3.19827C1.12423 8.76136 0 12.0441 0 15.5C0 18.9559 1.12423 22.2387 3.19827 24.9323H8.42395V19.7067C7.68879 18.4747 7.26563 17.0359 7.26563 15.5Z" fill="#FBBD00"/>
<path d="M15.5 23.7344L11.8672 27.3672L15.5 31C18.956 31 22.2387 29.8758 24.9323 27.8018V22.5817H19.7122C18.4695 23.3195 17.0246 23.7344 15.5 23.7344Z" fill="#0F9D58"/>
<path d="M8.42392 19.7067L3.19824 24.9323C3.60887 25.4656 4.05601 25.9764 4.53984 26.4602C7.4674 29.3877 11.3598 31 15.5 31V23.7344C12.4954 23.7344 9.86203 22.1166 8.42392 19.7067Z" fill="#31AA52"/>
<path d="M31 15.5C31 14.557 30.9146 13.6122 30.7462 12.6921L30.6099 11.9474H15.5V19.213H22.8535C22.1394 20.6335 21.0415 21.7924 19.7121 22.5817L24.9322 27.8018C25.4655 27.3912 25.9762 26.9441 26.4601 26.4602C29.3877 23.5326 31 19.6402 31 15.5Z" fill="#3C79E6"/>
<path d="M21.3226 9.67739L21.9648 10.3195L27.1024 5.18203L26.4602 4.53987C23.5326 1.6123 19.6403 0 15.5 0L11.8672 3.63281L15.5 7.26562C17.6994 7.26562 19.7673 8.12212 21.3226 9.67739Z" fill="#CF2D48"/>
<path d="M15.5 7.26562V0C11.3598 0 7.46746 1.6123 4.53984 4.5398C4.05601 5.02363 3.60887 5.53435 3.19824 6.0677L8.42392 11.2934C9.86209 8.88344 12.4955 7.26562 15.5 7.26562Z" fill="#EB4132"/>
</svg>
