<svg width="20" height="20" viewBox="0 0 20 20" fill="none" xmlns="http://www.w3.org/2000/svg">
<path d="M17.5 8.75V6.25H16.25V8.75H13.75V10H16.25V12.5H17.5V10H20V8.75H17.5Z" fill="#939BB0"/>
<path d="M6.25 8.75V11.25H9.78625C9.27 12.705 7.88 13.75 6.25 13.75C4.1825 13.75 2.5 12.0675 2.5 10C2.5 7.9325 4.1825 6.25 6.25 6.25C7.14625 6.25 8.00875 6.57125 8.67875 7.155L10.3212 5.27C9.19625 4.29 7.75125 3.75 6.25 3.75C2.80375 3.75 0 6.55375 0 10C0 13.4462 2.80375 16.25 6.25 16.25C9.69625 16.25 12.5 13.4462 12.5 10V8.75H6.25Z" fill="#939BB0"/>
</svg>
