<svg width="27" height="21" viewBox="0 0 27 21" fill="none" xmlns="http://www.w3.org/2000/svg">
<path d="M25.653 20.3038H7.59821C6.85409 20.3038 6.25098 19.7007 6.25098 18.9566C6.25098 18.2125 6.85409 17.6094 7.59821 17.6094H25.6526C26.3967 17.6094 26.9998 18.2125 26.9998 18.9566C26.9998 19.7007 26.3971 20.3038 25.653 20.3038Z" fill="black"/>
<path d="M25.653 11.8473H7.59821C6.85409 11.8473 6.25098 11.2442 6.25098 10.5001C6.25098 9.75595 6.85409 9.15283 7.59821 9.15283H25.6526C26.3967 9.15283 26.9998 9.75595 26.9998 10.5001C27.0002 11.2442 26.3971 11.8473 25.653 11.8473Z" fill="black"/>
<path d="M25.653 3.39077H7.59821C6.85409 3.39077 6.25098 2.78765 6.25098 2.04353C6.25098 1.2994 6.85409 0.696289 7.59821 0.696289H25.6526C26.3967 0.696289 26.9998 1.2994 26.9998 2.04353C26.9998 2.78765 26.3971 3.39077 25.653 3.39077Z" fill="black"/>
<path d="M1.80934 3.95706C2.80861 3.95706 3.61868 3.14699 3.61868 2.14772C3.61868 1.14845 2.80861 0.338379 1.80934 0.338379C0.810069 0.338379 0 1.14845 0 2.14772C0 3.14699 0.810069 3.95706 1.80934 3.95706Z" fill="black"/>
<path d="M1.80934 12.3096C2.80861 12.3096 3.61868 11.4995 3.61868 10.5003C3.61868 9.50099 2.80861 8.69092 1.80934 8.69092C0.810069 8.69092 0 9.50099 0 10.5003C0 11.4995 0.810069 12.3096 1.80934 12.3096Z" fill="black"/>
<path d="M1.80934 20.6619C2.80861 20.6619 3.61868 19.8518 3.61868 18.8526C3.61868 17.8533 2.80861 17.0432 1.80934 17.0432C0.810069 17.0432 0 17.8533 0 18.8526C0 19.8518 0.810069 20.6619 1.80934 20.6619Z" fill="black"/>
</svg>
