<svg width="18" height="16" viewBox="0 0 18 16" fill="none" xmlns="http://www.w3.org/2000/svg">
<path d="M8.60172 2.85156L8.68331 2.79375C8.07525 1.93557 6.98147 0.9 5.25 0.9C4.02274 0.9 2.90059 1.40536 2.09235 2.32244L2.16737 2.38856L2.09235 2.32245C1.32222 3.19635 0.9 4.3644 0.9 5.60984C0.9 6.97108 1.43274 8.23131 2.55924 9.57107C3.56207 10.7638 5.00228 11.9911 6.65928 13.403L6.66473 13.4077L6.67015 13.4123C7.28775 13.9386 7.92579 14.4823 8.60488 15.0765L8.60172 2.85156ZM8.60172 2.85156L8.68332 2.79375C8.80199 2.96127 8.90726 3.12898 9 3.29102C9.09273 3.12898 9.19798 2.96127 9.31669 2.79375C9.92475 1.93557 11.0185 0.9 12.75 0.9C13.9773 0.9 15.0994 1.40539 15.9077 2.32247L15.9077 2.32248C16.6778 3.19635 17.1 4.3644 17.1 5.60984C17.1 6.97108 16.5673 8.23134 15.4408 9.57107C14.438 10.7637 12.9978 11.9909 11.3408 13.4029L11.3352 13.4077C10.716 13.9354 10.0762 14.4806 9.39507 15.0765L9.37466 15.0944L9.37462 15.0945C9.26739 15.1883 9.13358 15.2352 9 15.2352C8.8664 15.2352 8.7326 15.1883 8.62539 15.0945L8.62534 15.0944L8.60493 15.0765L8.60172 2.85156ZM10.2448 3.45138L10.2448 3.45137C10.7067 2.7995 11.5112 2.0375 12.75 2.0375C13.6471 2.0375 14.4647 2.40564 15.0543 3.07455C15.6384 3.73738 15.9625 4.63706 15.9625 5.60984C15.9625 6.77979 15.4415 7.8167 14.5058 8.91227C13.5686 10.0097 12.2256 11.1545 10.5975 12.5419C10.0839 12.9796 9.55555 13.4298 9 13.912C8.44443 13.4297 7.91611 12.9795 7.40258 12.5419C5.77443 11.1545 4.43144 10.0098 3.49418 8.91228C2.55854 7.8167 2.0375 6.77979 2.0375 5.60984C2.0375 4.63706 2.36157 3.73738 2.94574 3.07456C3.53529 2.40564 4.35287 2.0375 5.25 2.0375C6.48877 2.0375 7.2933 2.7995 7.75516 3.45135C8.16922 4.03571 8.38571 4.62579 8.45923 4.85137C8.45923 4.85138 8.45923 4.85138 8.45923 4.85139L8.55431 4.82041L10.2448 3.45138ZM10.2448 3.45138C9.83077 4.03572 9.61427 4.62582 9.54077 4.85139L10.2448 3.45138Z" fill="black" stroke="black" stroke-width="0.2"/>
</svg>
