<svg width="27" height="24" viewBox="0 0 27 24" fill="none" xmlns="http://www.w3.org/2000/svg">
<path d="M22.8895 4.30349C21.9862 3.27862 20.7344 2.71484 19.3594 2.71484C17.4674 2.71484 16.235 3.87753 15.5216 4.88447L15.5216 4.88448C14.8822 5.78679 14.5475 6.69897 14.4341 7.0468C14.3024 7.45125 13.9253 7.72495 13.5 7.72495C13.0747 7.72495 12.6976 7.45125 12.5659 7.0468C12.4525 6.69897 12.1178 5.78679 11.4784 4.88443L11.6824 4.73989L11.4784 4.88442C10.765 3.87753 9.53259 2.71484 7.64062 2.71484C6.26561 2.71484 5.01382 3.27862 4.11055 4.30348C3.21433 5.32038 2.71484 6.70344 2.71484 8.20288C2.71484 9.99971 3.51394 11.5989 4.96844 13.302C6.42701 15.01 8.51881 16.7934 11.0648 18.9629C11.8482 19.6305 12.654 20.3171 13.5 21.0509C14.346 20.3172 15.1518 19.6305 15.9353 18.9628C18.4813 16.7933 20.573 15.0099 22.0316 13.302C23.4861 11.5989 24.2852 9.99971 24.2852 8.20288C24.2852 6.70344 23.7857 5.32039 22.8895 4.30349ZM22.8895 4.30349L23.0771 4.13818L22.8895 4.30349ZM13.0817 3.74853L13.0817 3.74855C13.2351 3.96514 13.3743 4.18184 13.5 4.39357C13.6257 4.18184 13.7648 3.96513 13.9183 3.74853C14.8774 2.39498 16.6112 0.75 19.3594 0.75C21.3038 0.75 23.0828 1.55115 24.3636 3.00438L24.3636 3.00439C25.5831 4.38826 26.25 6.23588 26.25 8.20288C26.25 10.3578 25.4054 12.3476 23.6354 14.4526C22.0636 16.3221 19.8085 18.2438 17.2237 20.4464L17.2095 20.4584C16.242 21.283 15.2427 22.1345 14.179 23.0652L14.1472 23.0931L14.1471 23.0931C13.9619 23.2553 13.7306 23.3363 13.5 23.3363C13.2693 23.3363 13.0381 23.2552 12.8529 23.0932L12.8528 23.0931L12.821 23.0652C12.821 23.0651 12.8209 23.0651 12.8209 23.0651C11.7603 22.1371 10.7637 21.2879 9.79862 20.4654L9.79034 20.4583L9.77645 20.4465C7.19168 18.244 4.93651 16.3223 3.36456 14.4526C1.59457 12.3476 0.75 10.3578 0.75 8.20288C0.75 6.23588 1.41688 4.38826 2.63646 3.00434L2.82402 3.16963L2.63647 3.00433C3.91722 1.55109 5.69625 0.75 7.64062 0.75C10.3888 0.75 12.1226 2.39498 13.0817 3.74853Z" fill="black" stroke="black" stroke-width="0.5"/>
</svg>
