<svg width="480" height="138" viewBox="0 0 480 138" fill="none" xmlns="http://www.w3.org/2000/svg">
<path d="M52.72 69H39.606L17.328 38.506V69H3.74V16.307H17.723L39.053 45.3V16.307H52.72V69ZM96.5835 69H84.4175V65.208C83.2062 66.63 81.5209 67.7887 79.3615 68.684C77.2549 69.5267 74.9902 69.948 72.5675 69.948C69.2495 69.948 66.2212 68.8683 63.4825 66.709C60.7965 64.497 59.4535 61.3897 59.4535 57.387C59.4535 53.1737 60.7702 50.0927 63.4035 48.144C66.0368 46.1427 69.0915 45.142 72.5675 45.142C78.0975 45.142 82.0475 46.6167 84.4175 49.566V44.984C84.4175 43.2987 83.7329 41.9557 82.3635 40.955C80.9942 39.9543 79.0982 39.454 76.6755 39.454C72.6202 39.454 69.0125 40.797 65.8525 43.483L61.5075 35.82C66.1422 31.87 71.9092 29.895 78.8085 29.895C81.2312 29.895 83.4432 30.1583 85.4445 30.685C87.4985 31.159 89.3682 31.949 91.0535 33.055C92.7915 34.161 94.1345 35.741 95.0825 37.795C96.0832 39.849 96.5835 42.298 96.5835 45.142V69ZM77.6235 61.969C80.8888 61.969 83.1535 61.0473 84.4175 59.204V55.807C83.1009 54.0163 80.8362 53.121 77.6235 53.121C75.8855 53.121 74.4372 53.516 73.2785 54.306C72.1198 55.0433 71.5405 56.123 71.5405 57.545C71.5405 58.967 72.1198 60.073 73.2785 60.863C74.4372 61.6003 75.8855 61.969 77.6235 61.969ZM119.871 69.948C115.974 69.948 112.998 69 110.944 67.104C108.943 65.208 107.942 62.4167 107.942 58.73V41.429H101.622V30.843H107.942V20.415H120.029V30.843H127.771V41.429H120.029V55.333C120.029 56.4917 120.319 57.4397 120.898 58.177C121.53 58.8617 122.373 59.204 123.426 59.204C124.954 59.204 125.981 58.888 126.507 58.256L128.877 67.42C127.087 69.1053 124.085 69.948 119.871 69.948ZM171.802 69H159.636V64.418C156.371 68.1047 151.973 69.948 146.443 69.948C142.23 69.948 139.07 68.8947 136.963 66.788C134.909 64.6287 133.882 61.7057 133.882 58.019V30.843H146.048V53.042C146.048 57.15 148.155 59.204 152.368 59.204C155.265 59.204 157.687 57.9663 159.636 55.491V30.843H171.802V69ZM192.8 69H180.634V30.843H192.8V35.504C194.117 33.924 195.881 32.581 198.093 31.475C200.305 30.369 202.517 29.816 204.729 29.816V41.508C203.781 41.2973 202.78 41.192 201.727 41.192C200.042 41.192 198.304 41.5343 196.513 42.219C194.775 42.851 193.537 43.6673 192.8 44.668V69ZM244.94 69H232.774V65.208C231.563 66.63 229.877 67.7887 227.718 68.684C225.611 69.5267 223.347 69.948 220.924 69.948C217.606 69.948 214.578 68.8683 211.839 66.709C209.153 64.497 207.81 61.3897 207.81 57.387C207.81 53.1737 209.127 50.0927 211.76 48.144C214.393 46.1427 217.448 45.142 220.924 45.142C226.454 45.142 230.404 46.6167 232.774 49.566V44.984C232.774 43.2987 232.089 41.9557 230.72 40.955C229.351 39.9543 227.455 39.454 225.032 39.454C220.977 39.454 217.369 40.797 214.209 43.483L209.864 35.82C214.499 31.87 220.266 29.895 227.165 29.895C229.588 29.895 231.8 30.1583 233.801 30.685C235.855 31.159 237.725 31.949 239.41 33.055C241.148 34.161 242.491 35.741 243.439 37.795C244.44 39.849 244.94 42.298 244.94 45.142V69ZM225.98 61.969C229.245 61.969 231.51 61.0473 232.774 59.204V55.807C231.457 54.0163 229.193 53.121 225.98 53.121C224.242 53.121 222.794 53.516 221.635 54.306C220.476 55.0433 219.897 56.123 219.897 57.545C219.897 58.967 220.476 60.073 221.635 60.863C222.794 61.6003 224.242 61.969 225.98 61.969ZM265.937 69H253.771V16.307H265.937V69ZM18.039 137.948C14.6157 137.948 11.2713 137.421 8.006 136.368C4.79333 135.315 2.18633 133.893 0.185 132.102L5.241 123.728C6.71567 125.045 8.76967 126.23 11.403 127.283C14.089 128.284 16.5117 128.784 18.671 128.784C22.0943 128.784 23.806 127.81 23.806 125.861C23.806 124.966 23.0423 124.307 21.515 123.886C19.9877 123.412 18.1443 123.017 15.985 122.701C13.8257 122.332 11.64 121.806 9.428 121.121C7.26867 120.436 5.42533 119.199 3.898 117.408C2.37067 115.617 1.607 113.3 1.607 110.456C1.607 106.927 3.05533 103.952 5.952 101.529C8.84867 99.1063 12.8513 97.895 17.96 97.895C23.964 97.895 29.2833 99.5803 33.918 102.951L29.257 111.009C28.0457 109.85 26.413 108.876 24.359 108.086C22.305 107.243 20.1983 106.822 18.039 106.822C16.617 106.822 15.4583 107.085 14.563 107.612C13.6677 108.139 13.22 108.797 13.22 109.587C13.22 110.377 13.9837 110.983 15.511 111.404C17.0383 111.773 18.8817 112.168 21.041 112.589C23.2003 112.958 25.3597 113.511 27.519 114.248C29.731 114.985 31.6007 116.302 33.128 118.198C34.6553 120.041 35.419 122.411 35.419 125.308C35.419 129.047 33.8653 132.102 30.758 134.472C27.6507 136.789 23.411 137.948 18.039 137.948ZM59.9386 137.948C53.6713 137.948 48.6416 135.999 44.8496 132.102C41.0576 128.205 39.1616 123.465 39.1616 117.882C39.1616 112.299 41.0576 107.586 44.8496 103.741C48.6416 99.8437 53.6713 97.895 59.9386 97.895C66.2586 97.895 71.3146 99.8437 75.1066 103.741C78.8986 107.586 80.7946 112.299 80.7946 117.882C80.7946 123.465 78.8986 128.205 75.1066 132.102C71.3146 135.999 66.2586 137.948 59.9386 137.948ZM53.8556 124.597C55.3303 126.335 57.358 127.204 59.9386 127.204C62.5193 127.204 64.547 126.335 66.0216 124.597C67.549 122.806 68.3126 120.568 68.3126 117.882C68.3126 115.249 67.549 113.063 66.0216 111.325C64.547 109.534 62.5193 108.639 59.9386 108.639C57.358 108.639 55.3303 109.534 53.8556 111.325C52.4336 113.063 51.7226 115.249 51.7226 117.882C51.7226 120.568 52.4336 122.806 53.8556 124.597ZM125.127 137H112.961V132.418C109.696 136.105 105.298 137.948 99.7682 137.948C95.5549 137.948 92.3949 136.895 90.2882 134.788C88.2342 132.629 87.2072 129.706 87.2072 126.019V98.843H99.3732V121.042C99.3732 125.15 101.48 127.204 105.693 127.204C108.59 127.204 111.013 125.966 112.961 123.491V98.843H125.127V137ZM156.711 137H143.755L128.745 98.843H141.543L150.154 123.017L158.844 98.843H171.721L156.711 137ZM193.716 137.948C187.712 137.948 182.735 136.131 178.785 132.497C174.835 128.81 172.86 123.939 172.86 117.882C172.86 112.247 174.756 107.507 178.548 103.662C182.393 99.8173 187.264 97.895 193.163 97.895C198.904 97.895 203.591 99.8437 207.225 103.741C210.859 107.586 212.676 112.721 212.676 119.146V121.753H185.5C185.869 123.649 186.896 125.255 188.581 126.572C190.266 127.889 192.426 128.547 195.059 128.547C196.534 128.547 198.219 128.257 200.115 127.678C202.064 127.046 203.538 126.256 204.539 125.308L209.674 132.892C207.831 134.525 205.461 135.789 202.564 136.684C199.72 137.527 196.771 137.948 193.716 137.948ZM201.063 113.853C200.852 112.168 200.115 110.667 198.851 109.35C197.587 107.981 195.691 107.296 193.163 107.296C190.793 107.296 188.976 107.954 187.712 109.271C186.448 110.588 185.658 112.115 185.342 113.853H201.063ZM256.667 137H244.501V114.959C244.501 110.746 242.421 108.639 238.26 108.639C235.311 108.639 232.835 109.877 230.834 112.352V137H218.668V98.843H230.834V103.504C234.047 99.7647 238.444 97.895 244.027 97.895C248.24 97.895 251.4 99.001 253.507 101.213C255.614 103.372 256.667 106.295 256.667 109.982V137ZM276.478 93.392C275.162 94.7613 273.529 95.446 271.58 95.446C269.632 95.446 267.973 94.7613 266.603 93.392C265.287 92.0227 264.628 90.3637 264.628 88.415C264.628 86.4663 265.287 84.8337 266.603 83.517C267.973 82.1477 269.632 81.463 271.58 81.463C273.529 81.463 275.162 82.1477 276.478 83.517C277.848 84.8337 278.532 86.4663 278.532 88.415C278.532 90.3637 277.848 92.0227 276.478 93.392ZM277.663 137H265.497V98.843H277.663V137ZM298.648 137H286.482V98.843H298.648V103.504C299.964 101.924 301.729 100.581 303.941 99.475C306.153 98.369 308.365 97.816 310.577 97.816V109.508C309.629 109.297 308.628 109.192 307.575 109.192C305.889 109.192 304.151 109.534 302.361 110.219C300.623 110.851 299.385 111.667 298.648 112.668V137ZM330.722 137.948C327.298 137.948 323.954 137.421 320.689 136.368C317.476 135.315 314.869 133.893 312.868 132.102L317.924 123.728C319.398 125.045 321.452 126.23 324.086 127.283C326.772 128.284 329.194 128.784 331.354 128.784C334.777 128.784 336.489 127.81 336.489 125.861C336.489 124.966 335.725 124.307 334.198 123.886C332.67 123.412 330.827 123.017 328.668 122.701C326.508 122.332 324.323 121.806 322.111 121.121C319.951 120.436 318.108 119.199 316.581 117.408C315.053 115.617 314.29 113.3 314.29 110.456C314.29 106.927 315.738 103.952 318.635 101.529C321.531 99.1063 325.534 97.895 330.643 97.895C336.647 97.895 341.966 99.5803 346.601 102.951L341.94 111.009C340.728 109.85 339.096 108.876 337.042 108.086C334.988 107.243 332.881 106.822 330.722 106.822C329.3 106.822 328.141 107.085 327.246 107.612C326.35 108.139 325.903 108.797 325.903 109.587C325.903 110.377 326.666 110.983 328.194 111.404C329.721 111.773 331.564 112.168 333.724 112.589C335.883 112.958 338.042 113.511 340.202 114.248C342.414 114.985 344.283 116.302 345.811 118.198C347.338 120.041 348.102 122.411 348.102 125.308C348.102 129.047 346.548 132.102 343.441 134.472C340.333 136.789 336.094 137.948 330.722 137.948Z" fill="white"/>
<path d="M296.816 62.472C297.584 62.6 299.632 61.96 300.528 61.32C301.296 60.936 302.32 59.4 302.96 57.736C303.6 55.944 303.344 56.968 304.624 53.896L305.52 51.848C305.776 52.488 306.16 53.512 306.672 54.536C306.928 54.92 307.184 55.432 307.184 55.56C307.184 56.2 308.208 57.736 309.36 58.888C310.384 60.04 310.768 60.168 313.328 61.064C315.76 61.832 317.936 61.32 319.856 59.528C320.624 58.888 321.264 57.48 321.392 56.456C321.392 55.816 321.648 55.176 322.416 53.128C323.056 51.72 323.056 50.44 322.544 44.168C322.032 38.664 322.032 38.152 321.392 35.464C320.496 32.136 319.856 30.856 318.448 29.576C317.68 28.936 317.424 28.808 316.912 28.936C316.4 28.936 316.144 29.064 315.888 29.448C315.504 29.832 315.504 29.96 315.76 32.648C316.144 36.104 316.4 42.888 316.144 44.296C316.144 44.936 316.016 45.704 316.144 46.088C316.144 46.344 315.888 47.24 315.632 48.008C315.376 48.904 315.12 50.056 314.992 51.08C314.864 53.384 314.736 53.768 314.48 53.896C314.096 54.024 312.176 49.928 311.408 46.856C311.024 45.832 310 44.424 308.976 44.04C308.208 43.784 307.056 43.912 306.288 44.424C305.52 44.936 305.136 45.96 305.136 47.368C305.008 48.648 304.24 50.312 302.576 53.256C301.936 54.152 299.12 57.352 298.992 57.224C298.992 57.096 298.992 56.584 299.12 55.944C299.504 53.768 299.12 52.232 299.632 50.568C300.272 49.032 300.272 48.264 300.144 46.728C300.016 45.576 300.144 45.064 300.4 44.168C300.912 42.632 300.912 41.864 301.296 39.688C301.808 37.128 301.936 35.464 301.68 34.696C301.552 34.056 301.68 33.544 301.808 33.032C302.064 32.008 301.936 30.472 301.552 29.704C301.04 28.808 299.888 27.656 299.12 27.528C298.352 27.272 297.2 27.4 296.56 27.656C295.664 28.168 295.152 28.936 293.36 32.392C291.568 35.848 291.184 36.616 290.928 37.768C290.8 38.152 290.544 39.048 290.288 39.56C290.032 40.328 289.776 41.224 289.776 42.376L289.392 45.704C289.264 46.728 289.264 47.496 289.392 48.008C289.776 49.672 289.904 51.848 290.672 53.768C291.056 54.536 291.44 55.56 291.44 56.2C291.568 56.712 291.952 57.608 292.208 58.248C292.592 59.4 292.72 59.528 294.384 60.936C295.664 62.088 296.304 62.472 296.816 62.472ZM337.516 67.848C342.508 67.464 342.892 67.464 344.172 66.44L345.836 65.416C346.22 65.16 347.116 64.392 347.756 63.496C349.42 61.832 351.212 58.632 351.852 56.328C352.492 54.152 353.132 52.104 353.26 51.08C353.516 49.8 354.028 49.16 355.052 48.776C359.532 46.984 358.38 47.112 361.068 45.576C364.908 43.272 365.036 43.144 364.78 44.04L364.524 46.728C364.396 49.672 364.78 52.488 365.548 54.664C365.932 55.304 366.188 56.456 366.316 57.096C366.828 59.528 368.108 61.576 370.284 63.112C372.076 64.52 375.788 66.312 377.196 66.568C380.908 67.336 386.54 65.032 387.948 62.216L389.1 60.68C389.484 60.168 389.996 59.4 390.124 58.888L391.02 56.968C391.404 56.456 391.66 55.688 391.66 55.304L392.172 53.64C392.428 52.744 392.556 52.616 393.58 52.104L395.5 51.208C398.572 50.184 403.82 47.112 404.716 45.96C404.972 45.704 405.1 45.192 405.1 44.808C405.1 44.04 405.1 44.04 404.716 43.912C404.46 43.912 403.948 44.04 403.564 44.296C402.668 44.936 401.132 45.704 400.108 46.216C398.572 46.856 394.604 48.008 393.836 48.008H393.068C392.94 44.936 392.684 41.864 392.044 40.456C390.38 37.128 389.228 33.8 383.852 31.752C381.548 30.856 381.164 30.856 379.372 30.856C377.964 30.856 377.708 30.856 376.556 31.496L374.508 32.264C373.996 32.392 373.356 32.776 372.588 33.544C371.436 34.568 371.308 34.696 370.412 34.824C368.876 35.08 367.852 35.72 365.932 37.64C364.78 38.792 363.5 39.816 362.476 40.456L360.556 41.864L358.892 42.76C358.124 43.016 357.484 43.4 357.356 43.528C357.1 43.784 355.308 44.296 354.54 44.296C354.284 44.424 354.156 44.296 354.156 43.144C354.028 41.736 353.388 39.432 352.62 37.128C352.108 35.336 350.572 33.032 348.908 31.112C348.14 30.216 347.628 29.832 346.22 29.192C344.812 28.424 344.428 28.296 343.148 28.168C341.612 28.168 341.612 28.168 341.1 26.888C340.588 25.608 338.796 24.968 337.132 25.48C336.108 25.736 335.852 25.864 333.804 28.04C332.396 29.448 332.012 30.088 331.628 30.856C331.116 32.52 330.476 33.288 329.58 35.72C328.94 37.64 327.916 39.432 327.276 40.584V43.784C327.276 46.216 327.276 47.368 327.02 48.52C326.636 50.44 326.636 51.592 327.404 53.256C327.788 54.152 328.044 55.176 328.172 56.072C328.172 56.84 328.428 57.736 328.556 58.12C329.068 59.656 330.86 63.112 331.372 63.624C333.292 65.544 334.7 66.568 336.108 67.208L337.516 67.848ZM349.804 45.32L348.012 45.192C346.988 45.192 345.58 45.064 345.068 44.936L343.276 44.552C342.764 44.552 342.38 44.168 341.484 43.272C339.82 41.608 339.308 40.84 339.436 39.176C339.436 37.896 340.46 33.928 340.844 33.416C341.74 32.264 343.148 32.136 344.812 33.032C345.324 33.288 346.092 33.8 346.476 34.184C347.244 34.952 348.78 37.384 348.78 37.768C348.78 37.896 348.908 38.408 349.164 39.048C349.804 40.712 350.06 42.632 349.932 44.04L349.804 45.32ZM385.9 48.648C383.98 48.52 384.108 48.52 381.292 46.984C380.78 46.728 379.628 45.832 378.86 44.936L377.196 43.4C377.068 42.12 377.068 40.968 376.428 39.816C376.172 39.176 375.916 38.664 375.916 38.536C375.916 38.024 377.196 36.488 378.092 35.976C378.86 35.464 379.116 35.464 380.268 35.592C381.036 35.592 381.932 35.72 382.188 35.848C384.108 36.36 385.516 37.64 386.284 39.304L387.18 40.968C387.308 41.48 387.564 41.992 387.564 42.12C387.564 42.376 387.692 43.016 387.948 43.656C388.332 44.936 388.46 48.264 388.076 48.52C387.948 48.648 386.924 48.648 385.9 48.648ZM341.74 62.088C340.844 62.728 340.076 62.6 339.18 61.832C338.412 61.064 338.028 60.296 338.028 59.144C338.028 58.76 337.9 57.992 337.772 57.48C337.644 56.968 337.644 55.56 337.644 53.384C337.644 48.264 337.644 47.624 337.9 47.624C338.028 47.624 338.54 47.88 339.052 48.264C340.204 49.032 341.868 49.672 343.916 50.184C344.94 50.44 345.58 50.44 347.244 50.44L349.42 50.312L349.292 50.952C349.164 51.336 348.908 52.104 348.524 52.872C348.268 53.512 347.884 54.152 347.884 54.28C347.884 54.792 346.86 56.968 346.092 58.12C345.324 59.144 342.892 61.576 342.636 61.576C342.508 61.576 342.124 61.832 341.74 62.088ZM381.42 59.528L380.268 59.272C379.628 59.144 378.988 59.016 378.86 58.888C378.476 58.504 377.452 56.712 377.196 55.944C376.94 55.304 376.172 51.336 376.172 50.696C376.172 50.184 376.3 50.184 376.94 50.568C377.324 50.696 377.836 51.08 378.22 51.464L380.012 52.616C381.292 53.128 382.06 53.384 385.132 53.64C385.772 53.64 386.284 53.768 386.412 53.896C386.796 54.28 384.236 57.608 383.084 58.248C382.7 58.376 382.316 58.76 381.932 59.016L381.42 59.528ZM433.422 69.768C435.086 69.64 435.086 69.64 438.414 67.848C439.182 67.464 439.822 66.952 440.206 66.44C441.23 65.16 442.382 64.136 443.022 63.112L443.918 62.088C444.302 61.576 446.094 58.504 446.99 56.84C447.502 55.688 448.27 53.768 448.27 53.384C448.27 52.616 449.294 49.8 451.086 45.576C451.726 44.168 451.854 43.144 451.47 43.016C451.086 42.888 450.446 43.528 449.806 44.808C448.91 46.472 447.758 48.264 447.758 48.648C447.63 48.904 446.862 50.184 445.326 52.36L444.174 54.536C443.918 55.048 443.534 55.688 443.278 55.944C442.766 56.584 441.87 58.12 441.486 59.272C441.23 59.656 440.59 60.68 439.694 61.576C439.054 62.472 438.286 63.368 438.158 63.624C437.646 64.52 434.318 66.568 433.422 66.568C433.038 66.568 432.014 65.8 432.014 65.544C432.014 65.416 431.118 64.008 430.862 63.624V59.656L430.99 54.152C431.374 47.24 431.374 45.832 431.758 44.296C432.014 43.272 432.27 41.736 432.27 40.712C432.398 39.688 432.526 38.536 432.782 38.024C432.91 37.384 433.038 36.616 433.038 35.464C432.91 33.288 433.294 29.448 433.678 28.168C433.806 27.656 434.062 26.888 434.318 26.376C434.702 25.736 434.702 25.48 434.702 22.792C434.702 18.952 434.958 18.056 435.726 12.296L435.982 9.608C436.494 6.664 435.214 5.896 434.318 3.71999C433.934 2.696 432.91 1.544 432.014 1.16C431.246 0.775993 429.454 0.775993 428.558 1.16C427.79 1.416 426.894 2.312 426.382 3.336L425.23 5.256C424.334 6.536 424.334 6.92 423.694 9.864C423.438 11.144 423.054 12.808 422.798 13.576C422.286 14.856 422.03 16.648 421.774 20.488L421.518 22.28C421.39 22.408 420.878 22.536 420.366 22.536C419.726 22.536 418.958 22.664 418.446 22.92C417.934 23.048 417.038 23.304 416.27 23.304C414.862 23.56 413.582 24.072 412.558 24.968L410.766 26.376C410.126 26.632 409.358 27.4 408.846 28.04C408.334 28.552 407.438 29.32 406.798 29.832C406.03 30.472 405.39 31.112 404.75 32.008C404.366 32.776 403.47 33.8 402.958 34.312C401.678 35.72 400.91 37.512 400.654 39.56L400.142 42.504C399.886 44.168 400.27 48.904 400.782 50.312C401.806 52.744 400.91 53.512 403.598 55.944C405.134 57.224 405.262 57.352 407.31 57.992C409.614 58.632 410.638 58.632 412.046 57.864C412.814 57.48 413.582 56.84 413.966 56.584C414.35 56.2 414.862 55.816 415.118 55.688C415.374 55.56 415.886 54.92 416.27 54.28L417.934 51.72C418.958 50.312 420.622 47.368 421.134 46.088C421.262 45.576 421.518 45.32 421.518 45.32C421.646 45.32 421.774 46.6 421.774 48.008C422.03 53.64 422.67 57.992 423.438 59.784C423.694 60.424 424.078 61.192 424.206 61.704L425.23 64.136C425.998 65.544 426.51 66.056 427.662 67.208C430.094 69.512 430.862 69.896 433.422 69.768ZM411.406 53L411.278 52.36C411.022 50.696 411.15 49.672 412.174 47.752L413.838 44.936C414.35 44.424 415.118 42.888 415.63 41.736C416.654 39.56 418.318 37.384 420.238 35.336C421.262 34.184 421.646 34.056 421.646 34.696C421.646 35.336 421.006 37.256 420.494 38.408C420.238 38.92 420.11 39.432 420.11 39.56C420.11 39.688 419.854 40.2 419.598 40.584L417.678 44.296C415.758 48.136 413.582 51.592 412.174 52.488L411.406 53ZM459.665 74.376C460.305 74.248 460.945 73.992 462.097 73.224C464.017 71.944 465.937 69.768 467.217 67.336C468.113 65.672 468.113 65.544 468.113 64.264C468.113 63.496 468.241 62.472 468.369 61.96C468.625 60.936 468.625 60.808 468.241 59.144C467.473 55.816 467.473 56.072 469.137 54.536C470.033 53.768 470.929 53 471.313 52.872L472.977 51.336C474.769 49.416 479.121 44.936 479.249 44.68C479.377 44.424 479.377 43.656 479.121 43.4C478.609 42.888 478.097 43.272 475.409 45.704C471.441 49.288 471.185 49.288 469.137 50.952C468.625 51.464 467.857 52.104 467.473 52.232C466.833 52.616 466.705 52.616 466.577 52.36L465.681 51.208C465.041 50.44 464.273 49.16 462.609 46.088L461.841 44.296C461.329 43.016 461.201 42.632 461.073 40.072C460.817 34.824 460.817 34.312 462.225 33.032C462.993 32.264 463.121 32.264 464.017 32.264C466.961 32.264 469.009 28.936 467.473 26.248C466.705 24.968 465.425 23.688 464.401 23.176C463.633 22.664 463.377 22.664 460.945 22.664C459.153 22.664 458.257 22.792 457.745 22.92C456.977 23.304 455.825 24.2 455.057 24.712C454.033 25.224 453.137 25.992 452.497 27.272C452.241 27.912 451.601 28.808 451.089 29.32C450.705 29.704 450.065 30.728 449.809 31.496C448.017 35.976 447.249 35.08 448.657 40.328C449.041 42.12 449.553 43.784 449.681 44.04C450.065 44.808 451.345 46.216 453.265 48.264C453.905 48.904 454.545 49.8 454.801 50.312C454.929 50.696 455.697 51.72 456.337 52.488C456.977 53.256 457.873 54.408 458.129 54.92C458.513 55.56 459.025 56.328 459.281 56.84C460.305 58.12 460.177 58.504 458.257 60.424C454.929 63.624 453.265 66.312 452.753 68.872C452.241 71.432 452.497 72.456 454.289 73.608C455.953 74.76 456.593 74.76 459.665 74.376ZM456.337 70.28C455.825 70.28 455.953 69.896 456.465 68.232C456.849 67.208 457.233 66.44 457.873 65.544C459.537 63.496 460.305 62.6 460.433 62.6C460.561 62.6 460.561 63.24 460.561 64.392C460.433 65.8 460.305 66.312 459.921 67.208L459.025 68.872C458.385 69.384 456.849 70.28 456.337 70.28Z" fill="#FFC501"/>
</svg>
