<svg width="290" height="79" viewBox="0 0 290 79" fill="none" xmlns="http://www.w3.org/2000/svg">
<path d="M31.28 45H23.644L10.672 27.244V45H2.76V14.318H10.902L23.322 31.2V14.318H31.28V45ZM56.8208 45H49.7368V42.792C49.0314 43.62 48.0501 44.2947 46.7928 44.816C45.5661 45.3067 44.2474 45.552 42.8368 45.552C40.9048 45.552 39.1414 44.9233 37.5468 43.666C35.9828 42.378 35.2008 40.5687 35.2008 38.238C35.2008 35.7847 35.9674 33.9907 37.5008 32.856C39.0341 31.6907 40.8128 31.108 42.8368 31.108C46.0568 31.108 48.3568 31.9667 49.7368 33.684V31.016C49.7368 30.0347 49.3381 29.2527 48.5408 28.67C47.7434 28.0873 46.6394 27.796 45.2288 27.796C42.8674 27.796 40.7668 28.578 38.9268 30.142L36.3968 25.68C39.0954 23.38 42.4534 22.23 46.4708 22.23C47.8814 22.23 49.1694 22.3833 50.3348 22.69C51.5308 22.966 52.6194 23.426 53.6008 24.07C54.6128 24.714 55.3948 25.634 55.9468 26.83C56.5294 28.026 56.8208 29.452 56.8208 31.108V45ZM45.7808 40.906C47.6821 40.906 49.0008 40.3693 49.7368 39.296V37.318C48.9701 36.2753 47.6514 35.754 45.7808 35.754C44.7688 35.754 43.9254 35.984 43.2508 36.444C42.5761 36.8733 42.2388 37.502 42.2388 38.33C42.2388 39.158 42.5761 39.802 43.2508 40.262C43.9254 40.6913 44.7688 40.906 45.7808 40.906ZM70.3807 45.552C68.1114 45.552 66.3787 45 65.1827 43.896C64.0174 42.792 63.4347 41.1667 63.4347 39.02V28.946H59.7547V22.782H63.4347V16.71H70.4727V22.782H74.9807V28.946H70.4727V37.042C70.4727 37.7167 70.6414 38.2687 70.9787 38.698C71.3467 39.0967 71.8374 39.296 72.4507 39.296C73.3401 39.296 73.9381 39.112 74.2447 38.744L75.6247 44.08C74.5821 45.0613 72.8341 45.552 70.3807 45.552ZM100.619 45H93.5349V42.332C91.6336 44.4787 89.0729 45.552 85.8529 45.552C83.3996 45.552 81.5596 44.9387 80.3329 43.712C79.1369 42.4547 78.5389 40.7527 78.5389 38.606V22.782H85.6229V35.708C85.6229 38.1 86.8496 39.296 89.3029 39.296C90.9896 39.296 92.4002 38.5753 93.5349 37.134V22.782H100.619V45ZM112.846 45H105.762V22.782H112.846V25.496C113.612 24.576 114.64 23.794 115.928 23.15C117.216 22.506 118.504 22.184 119.792 22.184V28.992C119.24 28.8693 118.657 28.808 118.044 28.808C117.062 28.808 116.05 29.0073 115.008 29.406C113.996 29.774 113.275 30.2493 112.846 30.832V45ZM143.206 45H136.122V42.792C135.416 43.62 134.435 44.2947 133.178 44.816C131.951 45.3067 130.632 45.552 129.222 45.552C127.29 45.552 125.526 44.9233 123.932 43.666C122.368 42.378 121.586 40.5687 121.586 38.238C121.586 35.7847 122.352 33.9907 123.886 32.856C125.419 31.6907 127.198 31.108 129.222 31.108C132.442 31.108 134.742 31.9667 136.122 33.684V31.016C136.122 30.0347 135.723 29.2527 134.926 28.67C134.128 28.0873 133.024 27.796 131.614 27.796C129.252 27.796 127.152 28.578 125.312 30.142L122.782 25.68C125.48 23.38 128.838 22.23 132.856 22.23C134.266 22.23 135.554 22.3833 136.72 22.69C137.916 22.966 139.004 23.426 139.986 24.07C140.998 24.714 141.78 25.634 142.332 26.83C142.914 28.026 143.206 29.452 143.206 31.108V45ZM132.166 40.906C134.067 40.906 135.386 40.3693 136.122 39.296V37.318C135.355 36.2753 134.036 35.754 132.166 35.754C131.154 35.754 130.31 35.984 129.636 36.444C128.961 36.8733 128.624 37.502 128.624 38.33C128.624 39.158 128.961 39.802 129.636 40.262C130.31 40.6913 131.154 40.906 132.166 40.906ZM155.431 45H148.347V14.318H155.431V45ZM10.604 78.528C8.69733 78.528 6.83467 78.2347 5.016 77.648C3.22667 77.0613 1.77467 76.2693 0.66 75.272L3.476 70.608C4.29733 71.3413 5.44133 72.0013 6.908 72.588C8.404 73.1453 9.75333 73.424 10.956 73.424C12.8627 73.424 13.816 72.8813 13.816 71.796C13.816 71.2973 13.3907 70.9307 12.54 70.696C11.6893 70.432 10.6627 70.212 9.46 70.036C8.25733 69.8307 7.04 69.5373 5.808 69.156C4.60533 68.7747 3.57867 68.0853 2.728 67.088C1.87733 66.0907 1.452 64.8 1.452 63.216C1.452 61.2507 2.25867 59.5933 3.872 58.244C5.48533 56.8947 7.71467 56.22 10.56 56.22C13.904 56.22 16.8667 57.1587 19.448 59.036L16.852 63.524C16.1773 62.8787 15.268 62.336 14.124 61.896C12.98 61.4267 11.8067 61.192 10.604 61.192C9.812 61.192 9.16667 61.3387 8.668 61.632C8.16933 61.9253 7.92 62.292 7.92 62.732C7.92 63.172 8.34533 63.5093 9.196 63.744C10.0467 63.9493 11.0733 64.1693 12.276 64.404C13.4787 64.6093 14.6813 64.9173 15.884 65.328C17.116 65.7387 18.1573 66.472 19.008 67.528C19.8587 68.5547 20.284 69.8747 20.284 71.488C20.284 73.5707 19.4187 75.272 17.688 76.592C15.9573 77.8827 13.596 78.528 10.604 78.528ZM33.9405 78.528C30.4498 78.528 27.6485 77.4427 25.5365 75.272C23.4245 73.1013 22.3685 70.4613 22.3685 67.352C22.3685 64.2427 23.4245 61.6173 25.5365 59.476C27.6485 57.3053 30.4498 56.22 33.9405 56.22C37.4605 56.22 40.2765 57.3053 42.3885 59.476C44.5005 61.6173 45.5565 64.2427 45.5565 67.352C45.5565 70.4613 44.5005 73.1013 42.3885 75.272C40.2765 77.4427 37.4605 78.528 33.9405 78.528ZM30.5525 71.092C31.3738 72.06 32.5032 72.544 33.9405 72.544C35.3778 72.544 36.5072 72.06 37.3285 71.092C38.1792 70.0947 38.6045 68.848 38.6045 67.352C38.6045 65.8853 38.1792 64.668 37.3285 63.7C36.5072 62.7027 35.3778 62.204 33.9405 62.204C32.5032 62.204 31.3738 62.7027 30.5525 63.7C29.7605 64.668 29.3645 65.8853 29.3645 67.352C29.3645 68.848 29.7605 70.0947 30.5525 71.092ZM70.2481 78H63.4721V75.448C61.6534 77.5013 59.2041 78.528 56.1241 78.528C53.7774 78.528 52.0174 77.9413 50.8441 76.768C49.7001 75.5653 49.1281 73.9373 49.1281 71.884V56.748H55.9041V69.112C55.9041 71.4 57.0774 72.544 59.4241 72.544C61.0374 72.544 62.3867 71.8547 63.4721 70.476V56.748H70.2481V78ZM87.8391 78H80.6231L72.2631 56.748H79.3911L84.1871 70.212L89.0271 56.748H96.1991L87.8391 78ZM108.449 78.528C105.105 78.528 102.333 77.516 100.133 75.492C97.9333 73.4387 96.8333 70.7253 96.8333 67.352C96.8333 64.2133 97.8893 61.5733 100.001 59.432C102.143 57.2907 104.856 56.22 108.141 56.22C111.339 56.22 113.949 57.3053 115.973 59.476C117.997 61.6173 119.009 64.4773 119.009 68.056V69.508H103.873C104.079 70.564 104.651 71.4587 105.589 72.192C106.528 72.9253 107.731 73.292 109.197 73.292C110.019 73.292 110.957 73.1307 112.013 72.808C113.099 72.456 113.92 72.016 114.477 71.488L117.337 75.712C116.311 76.6213 114.991 77.3253 113.377 77.824C111.793 78.2933 110.151 78.528 108.449 78.528ZM112.541 65.108C112.424 64.1693 112.013 63.3333 111.309 62.6C110.605 61.8373 109.549 61.456 108.141 61.456C106.821 61.456 105.809 61.8227 105.105 62.556C104.401 63.2893 103.961 64.14 103.785 65.108H112.541ZM143.511 78H136.735V65.724C136.735 63.3773 135.576 62.204 133.259 62.204C131.616 62.204 130.237 62.8933 129.123 64.272V78H122.347V56.748H129.123V59.344C130.912 57.2613 133.361 56.22 136.471 56.22C138.817 56.22 140.577 56.836 141.751 58.068C142.924 59.2707 143.511 60.8987 143.511 62.952V78ZM154.545 53.712C153.812 54.4747 152.902 54.856 151.817 54.856C150.732 54.856 149.808 54.4747 149.045 53.712C148.312 52.9493 147.945 52.0253 147.945 50.94C147.945 49.8547 148.312 48.9453 149.045 48.212C149.808 47.4493 150.732 47.068 151.817 47.068C152.902 47.068 153.812 47.4493 154.545 48.212C155.308 48.9453 155.689 49.8547 155.689 50.94C155.689 52.0253 155.308 52.9493 154.545 53.712ZM155.205 78H148.429V56.748H155.205V78ZM166.892 78H160.116V56.748H166.892V59.344C167.626 58.464 168.608 57.716 169.84 57.1C171.072 56.484 172.304 56.176 173.536 56.176V62.688C173.008 62.5707 172.451 62.512 171.864 62.512C170.926 62.512 169.958 62.7027 168.96 63.084C167.992 63.436 167.303 63.8907 166.892 64.448V78ZM184.756 78.528C182.85 78.528 180.987 78.2347 179.168 77.648C177.379 77.0613 175.927 76.2693 174.812 75.272L177.628 70.608C178.45 71.3413 179.594 72.0013 181.06 72.588C182.556 73.1453 183.906 73.424 185.108 73.424C187.015 73.424 187.968 72.8813 187.968 71.796C187.968 71.2973 187.543 70.9307 186.692 70.696C185.842 70.432 184.815 70.212 183.612 70.036C182.41 69.8307 181.192 69.5373 179.96 69.156C178.758 68.7747 177.731 68.0853 176.88 67.088C176.03 66.0907 175.604 64.8 175.604 63.216C175.604 61.2507 176.411 59.5933 178.024 58.244C179.638 56.8947 181.867 56.22 184.712 56.22C188.056 56.22 191.019 57.1587 193.6 59.036L191.004 63.524C190.33 62.8787 189.42 62.336 188.276 61.896C187.132 61.4267 185.959 61.192 184.756 61.192C183.964 61.192 183.319 61.3387 182.82 61.632C182.322 61.9253 182.072 62.292 182.072 62.732C182.072 63.172 182.498 63.5093 183.348 63.744C184.199 63.9493 185.226 64.1693 186.428 64.404C187.631 64.6093 188.834 64.9173 190.036 65.328C191.268 65.7387 192.31 66.472 193.16 67.528C194.011 68.5547 194.436 69.8747 194.436 71.488C194.436 73.5707 193.571 75.272 191.84 76.592C190.11 77.8827 187.748 78.528 184.756 78.528Z" fill="white"/>
<path d="M171.268 40.767C171.766 40.85 173.094 40.435 173.675 40.02C174.173 39.771 174.837 38.775 175.252 37.696C175.667 36.534 175.501 37.198 176.331 35.206L176.912 33.878C177.078 34.293 177.327 34.957 177.659 35.621C177.825 35.87 177.991 36.202 177.991 36.285C177.991 36.7 178.655 37.696 179.402 38.443C180.066 39.19 180.315 39.273 181.975 39.854C183.552 40.352 184.963 40.02 186.208 38.858C186.706 38.443 187.121 37.53 187.204 36.866C187.204 36.451 187.37 36.036 187.868 34.708C188.283 33.795 188.283 32.965 187.951 28.898C187.619 25.329 187.619 24.997 187.204 23.254C186.623 21.096 186.208 20.266 185.295 19.436C184.797 19.021 184.631 18.938 184.299 19.021C183.967 19.021 183.801 19.104 183.635 19.353C183.386 19.602 183.386 19.685 183.552 21.428C183.801 23.669 183.967 28.068 183.801 28.981C183.801 29.396 183.718 29.894 183.801 30.143C183.801 30.309 183.635 30.89 183.469 31.388C183.303 31.969 183.137 32.716 183.054 33.38C182.971 34.874 182.888 35.123 182.722 35.206C182.473 35.289 181.228 32.633 180.73 30.641C180.481 29.977 179.817 29.064 179.153 28.815C178.655 28.649 177.908 28.732 177.41 29.064C176.912 29.396 176.663 30.06 176.663 30.973C176.58 31.803 176.082 32.882 175.003 34.791C174.588 35.372 172.762 37.447 172.679 37.364C172.679 37.281 172.679 36.949 172.762 36.534C173.011 35.123 172.762 34.127 173.094 33.048C173.509 32.052 173.509 31.554 173.426 30.558C173.343 29.811 173.426 29.479 173.592 28.898C173.924 27.902 173.924 27.404 174.173 25.993C174.505 24.333 174.588 23.254 174.422 22.756C174.339 22.341 174.422 22.009 174.505 21.677C174.671 21.013 174.588 20.017 174.339 19.519C174.007 18.938 173.26 18.191 172.762 18.108C172.264 17.942 171.517 18.025 171.102 18.191C170.521 18.523 170.189 19.021 169.027 21.262C167.865 23.503 167.616 24.001 167.45 24.748C167.367 24.997 167.201 25.578 167.035 25.91C166.869 26.408 166.703 26.989 166.703 27.736L166.454 29.894C166.371 30.558 166.371 31.056 166.454 31.388C166.703 32.467 166.786 33.878 167.284 35.123C167.533 35.621 167.782 36.285 167.782 36.7C167.865 37.032 168.114 37.613 168.28 38.028C168.529 38.775 168.612 38.858 169.691 39.771C170.521 40.518 170.936 40.767 171.268 40.767ZM197.66 44.253C200.897 44.004 201.146 44.004 201.976 43.34L203.055 42.676C203.304 42.51 203.885 42.012 204.3 41.431C205.379 40.352 206.541 38.277 206.956 36.783C207.371 35.372 207.786 34.044 207.869 33.38C208.035 32.55 208.367 32.135 209.031 31.886C211.936 30.724 211.189 30.807 212.932 29.811C215.422 28.317 215.505 28.234 215.339 28.815L215.173 30.558C215.09 32.467 215.339 34.293 215.837 35.704C216.086 36.119 216.252 36.866 216.335 37.281C216.667 38.858 217.497 40.186 218.908 41.182C220.07 42.095 222.477 43.257 223.39 43.423C225.797 43.921 229.449 42.427 230.362 40.601L231.109 39.605C231.358 39.273 231.69 38.775 231.773 38.443L232.354 37.198C232.603 36.866 232.769 36.368 232.769 36.119L233.101 35.04C233.267 34.459 233.35 34.376 234.014 34.044L235.259 33.463C237.251 32.799 240.654 30.807 241.235 30.06C241.401 29.894 241.484 29.562 241.484 29.313C241.484 28.815 241.484 28.815 241.235 28.732C241.069 28.732 240.737 28.815 240.488 28.981C239.907 29.396 238.911 29.894 238.247 30.226C237.251 30.641 234.678 31.388 234.18 31.388H233.682C233.599 29.396 233.433 27.404 233.018 26.491C231.939 24.333 231.192 22.175 227.706 20.847C226.212 20.266 225.963 20.266 224.801 20.266C223.888 20.266 223.722 20.266 222.975 20.681L221.647 21.179C221.315 21.262 220.9 21.511 220.402 22.009C219.655 22.673 219.572 22.756 218.991 22.839C217.995 23.005 217.331 23.42 216.086 24.665C215.339 25.412 214.509 26.076 213.845 26.491L212.6 27.404L211.521 27.985C211.023 28.151 210.608 28.4 210.525 28.483C210.359 28.649 209.197 28.981 208.699 28.981C208.533 29.064 208.45 28.981 208.45 28.234C208.367 27.321 207.952 25.827 207.454 24.333C207.122 23.171 206.126 21.677 205.047 20.432C204.549 19.851 204.217 19.602 203.304 19.187C202.391 18.689 202.142 18.606 201.312 18.523C200.316 18.523 200.316 18.523 199.984 17.693C199.652 16.863 198.49 16.448 197.411 16.78C196.747 16.946 196.581 17.029 195.253 18.44C194.34 19.353 194.091 19.768 193.842 20.266C193.51 21.345 193.095 21.843 192.514 23.42C192.099 24.665 191.435 25.827 191.02 26.574V28.649C191.02 30.226 191.02 30.973 190.854 31.72C190.605 32.965 190.605 33.712 191.103 34.791C191.352 35.372 191.518 36.036 191.601 36.617C191.601 37.115 191.767 37.696 191.85 37.945C192.182 38.941 193.344 41.182 193.676 41.514C194.921 42.759 195.834 43.423 196.747 43.838L197.66 44.253ZM205.628 29.645L204.466 29.562C203.802 29.562 202.889 29.479 202.557 29.396L201.395 29.147C201.063 29.147 200.814 28.898 200.233 28.317C199.154 27.238 198.822 26.74 198.905 25.661C198.905 24.831 199.569 22.258 199.818 21.926C200.399 21.179 201.312 21.096 202.391 21.677C202.723 21.843 203.221 22.175 203.47 22.424C203.968 22.922 204.964 24.499 204.964 24.748C204.964 24.831 205.047 25.163 205.213 25.578C205.628 26.657 205.794 27.902 205.711 28.815L205.628 29.645ZM229.034 31.803C227.789 31.72 227.872 31.72 226.046 30.724C225.714 30.558 224.967 29.977 224.469 29.396L223.39 28.4C223.307 27.57 223.307 26.823 222.892 26.076C222.726 25.661 222.56 25.329 222.56 25.246C222.56 24.914 223.39 23.918 223.971 23.586C224.469 23.254 224.635 23.254 225.382 23.337C225.88 23.337 226.461 23.42 226.627 23.503C227.872 23.835 228.785 24.665 229.283 25.744L229.864 26.823C229.947 27.155 230.113 27.487 230.113 27.57C230.113 27.736 230.196 28.151 230.362 28.566C230.611 29.396 230.694 31.554 230.445 31.72C230.362 31.803 229.698 31.803 229.034 31.803ZM200.399 40.518C199.818 40.933 199.32 40.85 198.739 40.352C198.241 39.854 197.992 39.356 197.992 38.609C197.992 38.36 197.909 37.862 197.826 37.53C197.743 37.198 197.743 36.285 197.743 34.874C197.743 31.554 197.743 31.139 197.909 31.139C197.992 31.139 198.324 31.305 198.656 31.554C199.403 32.052 200.482 32.467 201.81 32.799C202.474 32.965 202.889 32.965 203.968 32.965L205.379 32.882L205.296 33.297C205.213 33.546 205.047 34.044 204.798 34.542C204.632 34.957 204.383 35.372 204.383 35.455C204.383 35.787 203.719 37.198 203.221 37.945C202.723 38.609 201.146 40.186 200.98 40.186C200.897 40.186 200.648 40.352 200.399 40.518ZM226.129 38.858L225.382 38.692C224.967 38.609 224.552 38.526 224.469 38.443C224.22 38.194 223.556 37.032 223.39 36.534C223.224 36.119 222.726 33.546 222.726 33.131C222.726 32.799 222.809 32.799 223.224 33.048C223.473 33.131 223.805 33.38 224.054 33.629L225.216 34.376C226.046 34.708 226.544 34.874 228.536 35.04C228.951 35.04 229.283 35.123 229.366 35.206C229.615 35.455 227.955 37.613 227.208 38.028C226.959 38.111 226.71 38.36 226.461 38.526L226.129 38.858ZM259.849 45.498C260.928 45.415 260.928 45.415 263.086 44.253C263.584 44.004 263.999 43.672 264.248 43.34C264.912 42.51 265.659 41.846 266.074 41.182L266.655 40.518C266.904 40.186 268.066 38.194 268.647 37.115C268.979 36.368 269.477 35.123 269.477 34.874C269.477 34.376 270.141 32.55 271.303 29.811C271.718 28.898 271.801 28.234 271.552 28.151C271.303 28.068 270.888 28.483 270.473 29.313C269.892 30.392 269.145 31.554 269.145 31.803C269.062 31.969 268.564 32.799 267.568 34.21L266.821 35.621C266.655 35.953 266.406 36.368 266.24 36.534C265.908 36.949 265.327 37.945 265.078 38.692C264.912 38.941 264.497 39.605 263.916 40.186C263.501 40.767 263.003 41.348 262.92 41.514C262.588 42.095 260.43 43.423 259.849 43.423C259.6 43.423 258.936 42.925 258.936 42.759C258.936 42.676 258.355 41.763 258.189 41.514V38.941L258.272 35.372C258.521 30.89 258.521 29.977 258.77 28.981C258.936 28.317 259.102 27.321 259.102 26.657C259.185 25.993 259.268 25.246 259.434 24.914C259.517 24.499 259.6 24.001 259.6 23.254C259.517 21.843 259.766 19.353 260.015 18.523C260.098 18.191 260.264 17.693 260.43 17.361C260.679 16.946 260.679 16.78 260.679 15.037C260.679 12.547 260.845 11.966 261.343 8.231L261.509 6.488C261.841 4.579 261.011 4.081 260.43 2.67C260.181 2.006 259.517 1.259 258.936 1.01C258.438 0.760996 257.276 0.760996 256.695 1.01C256.197 1.176 255.616 1.757 255.284 2.421L254.537 3.666C253.956 4.496 253.956 4.745 253.541 6.654C253.375 7.484 253.126 8.563 252.96 9.061C252.628 9.891 252.462 11.053 252.296 13.543L252.13 14.705C252.047 14.788 251.715 14.871 251.383 14.871C250.968 14.871 250.47 14.954 250.138 15.12C249.806 15.203 249.225 15.369 248.727 15.369C247.814 15.535 246.984 15.867 246.32 16.448L245.158 17.361C244.743 17.527 244.245 18.025 243.913 18.44C243.581 18.772 243 19.27 242.585 19.602C242.087 20.017 241.672 20.432 241.257 21.013C241.008 21.511 240.427 22.175 240.095 22.507C239.265 23.42 238.767 24.582 238.601 25.91L238.269 27.819C238.103 28.898 238.352 31.969 238.684 32.882C239.348 34.459 238.767 34.957 240.51 36.534C241.506 37.364 241.589 37.447 242.917 37.862C244.411 38.277 245.075 38.277 245.988 37.779C246.486 37.53 246.984 37.115 247.233 36.949C247.482 36.7 247.814 36.451 247.98 36.368C248.146 36.285 248.478 35.87 248.727 35.455L249.806 33.795C250.47 32.882 251.549 30.973 251.881 30.143C251.964 29.811 252.13 29.645 252.13 29.645C252.213 29.645 252.296 30.475 252.296 31.388C252.462 35.04 252.877 37.862 253.375 39.024C253.541 39.439 253.79 39.937 253.873 40.269L254.537 41.846C255.035 42.759 255.367 43.091 256.114 43.838C257.691 45.332 258.189 45.581 259.849 45.498ZM245.573 34.625L245.49 34.21C245.324 33.131 245.407 32.467 246.071 31.222L247.15 29.396C247.482 29.064 247.98 28.068 248.312 27.321C248.976 25.91 250.055 24.499 251.3 23.171C251.964 22.424 252.213 22.341 252.213 22.756C252.213 23.171 251.798 24.416 251.466 25.163C251.3 25.495 251.217 25.827 251.217 25.91C251.217 25.993 251.051 26.325 250.885 26.574L249.64 28.981C248.395 31.471 246.984 33.712 246.071 34.293L245.573 34.625ZM276.866 48.486C277.281 48.403 277.696 48.237 278.443 47.739C279.688 46.909 280.933 45.498 281.763 43.921C282.344 42.842 282.344 42.759 282.344 41.929C282.344 41.431 282.427 40.767 282.51 40.435C282.676 39.771 282.676 39.688 282.427 38.609C281.929 36.451 281.929 36.617 283.008 35.621C283.589 35.123 284.17 34.625 284.419 34.542L285.498 33.546C286.66 32.301 289.482 29.396 289.565 29.23C289.648 29.064 289.648 28.566 289.482 28.4C289.15 28.068 288.818 28.317 287.075 29.894C284.502 32.218 284.336 32.218 283.008 33.297C282.676 33.629 282.178 34.044 281.929 34.127C281.514 34.376 281.431 34.376 281.348 34.21L280.767 33.463C280.352 32.965 279.854 32.135 278.775 30.143L278.277 28.981C277.945 28.151 277.862 27.902 277.779 26.242C277.613 22.839 277.613 22.507 278.526 21.677C279.024 21.179 279.107 21.179 279.688 21.179C281.597 21.179 282.925 19.021 281.929 17.278C281.431 16.448 280.601 15.618 279.937 15.286C279.439 14.954 279.273 14.954 277.696 14.954C276.534 14.954 275.953 15.037 275.621 15.12C275.123 15.369 274.376 15.95 273.878 16.282C273.214 16.614 272.633 17.112 272.218 17.942C272.052 18.357 271.637 18.938 271.305 19.27C271.056 19.519 270.641 20.183 270.475 20.681C269.313 23.586 268.815 23.005 269.728 26.408C269.977 27.57 270.309 28.649 270.392 28.815C270.641 29.313 271.471 30.226 272.716 31.554C273.131 31.969 273.546 32.55 273.712 32.882C273.795 33.131 274.293 33.795 274.708 34.293C275.123 34.791 275.704 35.538 275.87 35.87C276.119 36.285 276.451 36.783 276.617 37.115C277.281 37.945 277.198 38.194 275.953 39.439C273.795 41.514 272.716 43.257 272.384 44.917C272.052 46.577 272.218 47.241 273.38 47.988C274.459 48.735 274.874 48.735 276.866 48.486ZM274.708 45.83C274.376 45.83 274.459 45.581 274.791 44.502C275.04 43.838 275.289 43.34 275.704 42.759C276.783 41.431 277.281 40.85 277.364 40.85C277.447 40.85 277.447 41.265 277.447 42.012C277.364 42.925 277.281 43.257 277.032 43.838L276.451 44.917C276.036 45.249 275.04 45.83 274.708 45.83Z" fill="#FFC501"/>
</svg>
