<svg width="20" height="20" viewBox="0 0 20 20" fill="none" xmlns="http://www.w3.org/2000/svg">
<path d="M14.5961 0H5.40395C2.42422 0 0 2.42422 0 5.40395V14.5961C0 17.5758 2.42422 20 5.40395 20H14.5961C17.5758 20 20 17.5758 20 14.5961V5.40395C20 2.42422 17.5758 0 14.5961 0ZM18.3842 14.5961C18.3842 16.6848 16.6849 18.3842 14.5961 18.3842H5.40395C3.31516 18.3842 1.61578 16.6849 1.61578 14.5961V5.40395C1.61578 3.31516 3.31512 1.61578 5.40395 1.61578H14.5961C16.6848 1.61578 18.3842 3.31512 18.3842 5.40395V14.5961Z" fill="#939BB0"/>
<path d="M14.4756 9.30234C14.3335 8.34348 13.896 7.47441 13.2106 6.78899C12.5251 6.1036 11.6561 5.6661 10.6972 5.52395C10.2607 5.45922 9.81806 5.45922 9.38154 5.52395C8.19654 5.69969 7.15095 6.32633 6.43732 7.28848C5.72369 8.25062 5.4274 9.43312 5.60314 10.618C5.77888 11.803 6.40553 12.8486 7.36767 13.5623C8.14877 14.1416 9.07494 14.4458 10.0299 14.4458C10.2513 14.4458 10.4742 14.4295 10.6972 14.3964C11.8822 14.2207 12.9278 13.594 13.6414 12.6319C14.3551 11.6698 14.6514 10.4873 14.4756 9.30234ZM10.4602 12.7981C9.7022 12.9107 8.94576 12.721 8.33025 12.2645C7.71474 11.808 7.31388 11.1391 7.2015 10.3811C7.08908 9.62305 7.27857 8.8666 7.7351 8.25109C8.19166 7.63559 8.86053 7.23473 9.61857 7.12231C9.75818 7.1016 9.89877 7.09125 10.0394 7.09125C10.1799 7.09125 10.3206 7.1016 10.4602 7.12234C11.7192 7.30902 12.6906 8.28035 12.8773 9.53941C13.1093 11.1042 12.0251 12.566 10.4602 12.7981Z" fill="#939BB0"/>
<path d="M15.6268 4.37318C15.4763 4.22275 15.2681 4.13654 15.0555 4.13654C14.8429 4.13654 14.6347 4.22271 14.4842 4.37318C14.3338 4.52365 14.2476 4.73154 14.2476 4.94447C14.2476 5.1574 14.3338 5.36529 14.4842 5.51576C14.6347 5.66619 14.8429 5.7524 15.0555 5.7524C15.2681 5.7524 15.4763 5.66623 15.6268 5.51576C15.7772 5.36529 15.8634 5.15704 15.8634 4.94447C15.8634 4.73185 15.7772 4.52361 15.6268 4.37318Z" fill="#939BB0"/>
</svg>
