<svg width="14" height="13" viewBox="0 0 14 13" fill="none" xmlns="http://www.w3.org/2000/svg">
<path d="M13.3111 12.9285V12.9279H13.3142V8.28811C13.3142 6.01827 12.8256 4.26978 10.172 4.26978C8.89633 4.26978 8.04027 4.96981 7.69078 5.63347H7.65388V4.48168H5.13788V12.9279H7.75773V8.74566C7.75773 7.64448 7.96647 6.57967 9.33016 6.57967C10.6738 6.57967 10.6939 7.83636 10.6939 8.81629V12.9285H13.3111Z" fill="#4F647A"/>
<path d="M0.871948 4.48242H3.49496V12.9287H0.871948V4.48242Z" fill="#4F647A"/>
<path d="M2.18289 0.277344C1.34422 0.277344 0.663696 0.957872 0.663696 1.79654C0.663696 2.63521 1.34422 3.32997 2.18289 3.32997C3.02156 3.32997 3.70209 2.63521 3.70209 1.79654C3.70156 0.957872 3.02103 0.277344 2.18289 0.277344V0.277344Z" fill="#4F647A"/>
</svg>
