<svg width="162" height="53" viewBox="0 0 162 53" fill="none" xmlns="http://www.w3.org/2000/svg">
<path d="M2.94823 37.6561L2.9313 37.6392V34.2881L6.75634 30.4969H10.1244V36.3698L16.0481 43.2414L21.1425 39.2809L24.8322 43.546L19.8224 47.6249L24.426 52.9563H16.1497L2.94823 37.6561ZM4.43762 52.9563L0.663363 49.2497V43.8337L3.89602 40.4995L7.38256 44.5615V48.6404H10.9537L13.8987 52.1269L12.9339 52.9563H4.43762ZM21.2102 34.2542V37.233H14.1864V34.982H11.3091V30.4969H17.4529L21.2102 34.2542Z" fill="#212121"/>
<path d="M47.1843 52.9563V44.5446H37.4694L32.9674 40.0426V34.982L37.4694 30.4969H40.0082V38.4685H50.3324L54.6821 42.9706V48.4712L50.197 52.9563H47.1843ZM41.1929 34.542V30.4969H50.18L54.0728 34.4066V36.793H47.1843V34.542H41.1929ZM32.9674 46.2202H40.4482V48.8943H45.9996V52.9563H36.7417L32.9674 48.4712V46.2202Z" fill="#212121"/>
<path d="M67.5349 43.7322V52.9563H60.054V30.4969H67.5349V39.3994H74.6941V43.7322H67.5349ZM68.7196 34.8466V30.4969H80.4147V36.9961H73.374V34.8466H68.7196ZM68.7196 52.9563V48.4712H72.9339V46.2202H80.4147V52.9563H68.7196Z" fill="#212121"/>
<path d="M85.7528 52.9563V30.4969H93.2337V52.9563H85.7528ZM94.4184 34.982V30.4969H102.965L107.468 34.982V41.7181L104.015 45.1708L103.778 44.6969L96.7541 45.6278L97.0248 46.2202H94.4184V41.8704H100.037V34.982H94.4184ZM108.229 52.9563H100.241L97.0248 46.2202H102.965L104.015 45.1708L108.229 52.9563Z" fill="#212121"/>
<path d="M125.618 52.9563H118.34L110.216 30.4969H117.849L125.618 52.9563ZM126.786 30.4969H134.3L126.532 52.2793L123.164 42.3951L126.786 30.4969Z" fill="#212121"/>
<path d="M145.071 43.7322V52.9563H137.59V30.4969H145.071V39.3994H152.231V43.7322H145.071ZM146.256 34.8466V30.4969H157.951V36.9961H150.91V34.8466H146.256ZM146.256 52.9563V48.4712H150.47V46.2202H157.951V52.9563H146.256Z" fill="#212121"/>
<path d="M0 23.5897L0 1.75415L7.14138 1.75415V23.5897H0ZM8.29321 6.11467V1.75415L16.4548 1.75415L20.8153 6.11467V13.6016L16.4548 17.9786H8.29321V13.6016H13.5752V6.11467H8.29321Z" fill="#212121"/>
<path d="M24.024 23.5897V1.75415L31.297 1.75415V23.5897H24.024ZM32.4488 6.11467V1.75415L40.7585 1.75415L45.1355 6.11467V12.6637L41.7787 16.0204L41.5483 15.5597L34.7196 16.4647L34.9829 17.0406H32.4488V12.8118H37.9118V6.11467H32.4488ZM45.8759 23.5897H38.1093L34.9829 17.0406H40.7585L41.7787 16.0204L45.8759 23.5897Z" fill="#212121"/>
<path d="M81.0754 7.64496H88.6446V23.5897H81.0754V7.64496ZM75.382 1.75415L94.3379 1.75415V6.50958H75.382V1.75415Z" fill="#212121"/>
<path d="M104.392 14.6218V23.5897H97.1188V1.75415L104.392 1.75415V10.4094H111.352V14.6218H104.392ZM105.544 5.98303V1.75415L116.914 1.75415V8.07279H110.069V5.98303H105.544ZM105.544 23.5897V19.2291H109.641V17.0406H116.914V23.5897H105.544Z" fill="#212121"/>
<path d="M127.363 23.5897H124.467L120.09 19.2291V6.11467L124.467 1.75415L127.363 1.75415V23.5897ZM128.515 6.11467V1.75415L136.265 1.75415L140.625 6.11467V10.5081H133.352V6.11467H128.515ZM128.515 23.5897V19.2291H133.352V16.0369H140.625V19.2291L136.265 23.5897H128.515Z" fill="#212121"/>
<path d="M148.737 7.64496H156.307V23.5897H148.737V7.64496ZM143.044 1.75415L162 1.75415V6.50958H143.044V1.75415Z" fill="#212121"/>
<path fill-rule="evenodd" clip-rule="evenodd" d="M64.2699 17.9478C66.0903 17.3235 67.6826 16.1628 68.8401 14.6161C69.9976 13.0694 70.667 11.2081 70.7614 9.27359C70.8558 7.3391 70.3709 5.42066 69.3696 3.76708C68.3683 2.1135 66.8967 0.801074 65.1458 0C68.0001 0.923936 70.4497 2.81255 72.0804 5.34629C73.711 7.88003 74.4224 10.9033 74.0943 13.9046C73.7662 16.9058 72.4187 19.7008 70.2797 21.8165C68.1408 23.9323 65.3418 25.2389 62.3564 25.5153L64.2699 17.9478ZM48.1758 12.4738C48.1758 9.69873 49.0509 6.99537 50.675 4.75351C52.299 2.51166 54.588 0.847152 57.2119 0C55.4609 0.801074 53.9894 2.1135 52.9881 3.76708C51.9868 5.42066 51.5019 7.3391 51.5963 9.27359C51.6907 11.2081 52.3601 13.0694 53.5176 14.6161C54.6751 16.1628 56.2673 17.3235 58.0878 17.9478L59.9941 25.5153C56.7644 25.2168 53.7618 23.7139 51.5754 21.3012C49.389 18.8886 48.1765 15.7402 48.1758 12.4738Z" fill="#FAB600"/>
</svg>
