<svg width="20" height="20" viewBox="0 0 20 20" fill="none" xmlns="http://www.w3.org/2000/svg">
<mask id="path-1-outside-1" maskUnits="userSpaceOnUse" x="0" y="0" width="20" height="20" fill="black">
<rect fill="white" width="20" height="20"/>
<path fill-rule="evenodd" clip-rule="evenodd" d="M19.0009 8.13901V8.13742C19.0009 8.12241 19 8.10754 18.9988 8.09274L18.9975 8.08064C18.9963 8.06904 18.9946 8.05754 18.9926 8.04615L18.9903 8.03332C18.9875 8.01943 18.9843 8.00565 18.9804 7.99212L18.9793 7.98807C18.9752 7.97422 18.9704 7.96061 18.9652 7.94718C18.9636 7.94306 18.9619 7.939 18.9602 7.93492L18.9589 7.93192C18.9551 7.92285 18.951 7.91389 18.9466 7.90506L18.9444 7.90055L18.939 7.8897C18.9324 7.87736 18.9254 7.86527 18.9179 7.85345L18.9121 7.845L18.909 7.84051C18.9032 7.8319 18.8971 7.82346 18.8907 7.81524L18.8803 7.80216C18.8711 7.79094 18.8615 7.77997 18.8513 7.76953L18.8489 7.76707C18.838 7.75599 18.8264 7.74555 18.8145 7.73543C18.813 7.73416 18.8118 7.73275 18.8103 7.73152L17.911 6.9853V4.69198C17.911 4.01346 17.359 3.46145 16.6805 3.46145H13.6648L11.2353 1.44531C10.5197 0.851563 9.48109 0.851563 8.76556 1.44531L6.33614 3.46141H3.32043C2.64191 3.46141 2.0899 4.01343 2.0899 4.69194V6.98526L1.19059 7.73159L1.18634 7.7355C1.17442 7.74562 1.16282 7.75606 1.15192 7.76714L1.14953 7.7696C1.13937 7.78004 1.12977 7.79101 1.12052 7.80223C1.11697 7.80652 1.11356 7.81091 1.11015 7.81531C1.10379 7.82357 1.0977 7.83201 1.09183 7.84058L1.08873 7.84506L1.08297 7.85352C1.07545 7.8653 1.06845 7.87739 1.06188 7.88977C1.05974 7.89377 1.05777 7.89784 1.05581 7.90191L1.0558 7.90192L1.05425 7.90513C1.04989 7.91396 1.04581 7.92292 1.04194 7.93199L1.04112 7.93394C1.03924 7.93835 1.03737 7.94278 1.03565 7.94725C1.03045 7.96068 1.02563 7.97426 1.02155 7.98814L1.02046 7.99219C1.01656 8.00572 1.01336 8.0195 1.01055 8.03339L1.00823 8.04622C1.00622 8.05761 1.00461 8.06911 1.00334 8.08071L1.00204 8.09281C1.00084 8.10754 1 8.12241 1 8.13742V8.13901V8.13929V17.0668C1 17.6195 1.23338 18.1183 1.60633 18.471C1.61692 18.4816 1.62753 18.4921 1.63886 18.5016C1.98189 18.8115 2.4361 19.0005 2.93369 19.0005H17.0672C17.5648 19.0005 18.0191 18.8115 18.3621 18.5015C18.3734 18.492 18.3839 18.4816 18.3944 18.4711C18.7674 18.1184 19.0009 17.6195 19.0009 17.0668V8.13929V8.13901ZM3.32043 4.51615H16.6805C16.7774 4.51615 16.8563 4.59501 16.8563 4.69194V8.79425L16.5578 9.0419L10.5618 14.0179C10.2365 14.2878 9.76436 14.2878 9.43911 14.0179L3.44306 9.04193L3.14464 8.79425V4.69194C3.14464 4.59501 3.2235 4.51615 3.32043 4.51615ZM2.05474 17.0668V9.26037L2.28158 9.44864L2.282 9.44899L7.43156 13.7225L2.10874 17.3702C2.07383 17.2756 2.05474 17.1734 2.05474 17.0668ZM8.27549 14.4228L8.76556 14.8295C9.48109 15.4234 10.5198 15.4233 11.2353 14.8295L11.7254 14.4228L16.8662 17.9458H3.13465L8.27549 14.4228ZM12.5693 13.7225L17.7189 9.44899L17.7193 9.44864L17.9461 9.26037V17.0668C17.9461 17.1734 17.927 17.2756 17.8921 17.3702L12.5693 13.7225ZM9.43911 2.257C9.76436 1.9871 10.2365 1.9871 10.5618 2.257L12.0131 3.46145H7.98776L9.43911 2.257ZM5.62305 6.80032C5.62305 7.09157 5.85917 7.32769 6.15042 7.32769H11.1429C11.4341 7.32769 11.6702 7.09157 11.6702 6.80032C11.6702 6.50907 11.4341 6.27295 11.1429 6.27295H6.15042C5.85917 6.27295 5.62305 6.50907 5.62305 6.80032ZM13.85 9.43706H6.15042C5.90473 9.43706 5.69888 9.26883 5.64031 9.0414C5.62945 8.99924 5.62305 8.95526 5.62305 8.90969C5.62305 8.61845 5.85917 8.38232 6.15042 8.38232H13.85C14.1413 8.38232 14.3774 8.61845 14.3774 8.90969C14.3774 8.95526 14.371 8.99921 14.3601 9.0414C14.3016 9.2688 14.0957 9.43706 13.85 9.43706Z"/>
</mask>
<path fill-rule="evenodd" clip-rule="evenodd" d="M19.0009 8.13901V8.13742C19.0009 8.12241 19 8.10754 18.9988 8.09274L18.9975 8.08064C18.9963 8.06904 18.9946 8.05754 18.9926 8.04615L18.9903 8.03332C18.9875 8.01943 18.9843 8.00565 18.9804 7.99212L18.9793 7.98807C18.9752 7.97422 18.9704 7.96061 18.9652 7.94718C18.9636 7.94306 18.9619 7.939 18.9602 7.93492L18.9589 7.93192C18.9551 7.92285 18.951 7.91389 18.9466 7.90506L18.9444 7.90055L18.939 7.8897C18.9324 7.87736 18.9254 7.86527 18.9179 7.85345L18.9121 7.845L18.909 7.84051C18.9032 7.8319 18.8971 7.82346 18.8907 7.81524L18.8803 7.80216C18.8711 7.79094 18.8615 7.77997 18.8513 7.76953L18.8489 7.76707C18.838 7.75599 18.8264 7.74555 18.8145 7.73543C18.813 7.73416 18.8118 7.73275 18.8103 7.73152L17.911 6.9853V4.69198C17.911 4.01346 17.359 3.46145 16.6805 3.46145H13.6648L11.2353 1.44531C10.5197 0.851563 9.48109 0.851563 8.76556 1.44531L6.33614 3.46141H3.32043C2.64191 3.46141 2.0899 4.01343 2.0899 4.69194V6.98526L1.19059 7.73159L1.18634 7.7355C1.17442 7.74562 1.16282 7.75606 1.15192 7.76714L1.14953 7.7696C1.13937 7.78004 1.12977 7.79101 1.12052 7.80223C1.11697 7.80652 1.11356 7.81091 1.11015 7.81531C1.10379 7.82357 1.0977 7.83201 1.09183 7.84058L1.08873 7.84506L1.08297 7.85352C1.07545 7.8653 1.06845 7.87739 1.06188 7.88977C1.05974 7.89377 1.05777 7.89784 1.05581 7.90191L1.0558 7.90192L1.05425 7.90513C1.04989 7.91396 1.04581 7.92292 1.04194 7.93199L1.04112 7.93394C1.03924 7.93835 1.03737 7.94278 1.03565 7.94725C1.03045 7.96068 1.02563 7.97426 1.02155 7.98814L1.02046 7.99219C1.01656 8.00572 1.01336 8.0195 1.01055 8.03339L1.00823 8.04622C1.00622 8.05761 1.00461 8.06911 1.00334 8.08071L1.00204 8.09281C1.00084 8.10754 1 8.12241 1 8.13742V8.13901V8.13929V17.0668C1 17.6195 1.23338 18.1183 1.60633 18.471C1.61692 18.4816 1.62753 18.4921 1.63886 18.5016C1.98189 18.8115 2.4361 19.0005 2.93369 19.0005H17.0672C17.5648 19.0005 18.0191 18.8115 18.3621 18.5015C18.3734 18.492 18.3839 18.4816 18.3944 18.4711C18.7674 18.1184 19.0009 17.6195 19.0009 17.0668V8.13929V8.13901ZM3.32043 4.51615H16.6805C16.7774 4.51615 16.8563 4.59501 16.8563 4.69194V8.79425L16.5578 9.0419L10.5618 14.0179C10.2365 14.2878 9.76436 14.2878 9.43911 14.0179L3.44306 9.04193L3.14464 8.79425V4.69194C3.14464 4.59501 3.2235 4.51615 3.32043 4.51615ZM2.05474 17.0668V9.26037L2.28158 9.44864L2.282 9.44899L7.43156 13.7225L2.10874 17.3702C2.07383 17.2756 2.05474 17.1734 2.05474 17.0668ZM8.27549 14.4228L8.76556 14.8295C9.48109 15.4234 10.5198 15.4233 11.2353 14.8295L11.7254 14.4228L16.8662 17.9458H3.13465L8.27549 14.4228ZM12.5693 13.7225L17.7189 9.44899L17.7193 9.44864L17.9461 9.26037V17.0668C17.9461 17.1734 17.927 17.2756 17.8921 17.3702L12.5693 13.7225ZM9.43911 2.257C9.76436 1.9871 10.2365 1.9871 10.5618 2.257L12.0131 3.46145H7.98776L9.43911 2.257ZM5.62305 6.80032C5.62305 7.09157 5.85917 7.32769 6.15042 7.32769H11.1429C11.4341 7.32769 11.6702 7.09157 11.6702 6.80032C11.6702 6.50907 11.4341 6.27295 11.1429 6.27295H6.15042C5.85917 6.27295 5.62305 6.50907 5.62305 6.80032ZM13.85 9.43706H6.15042C5.90473 9.43706 5.69888 9.26883 5.64031 9.0414C5.62945 8.99924 5.62305 8.95526 5.62305 8.90969C5.62305 8.61845 5.85917 8.38232 6.15042 8.38232H13.85C14.1413 8.38232 14.3774 8.61845 14.3774 8.90969C14.3774 8.95526 14.371 8.99921 14.3601 9.0414C14.3016 9.2688 14.0957 9.43706 13.85 9.43706Z" fill="#4F647A"/>
<path d="M18.9988 8.09274L19.1982 8.07617L19.1977 8.07132L18.9988 8.09274ZM18.9975 8.08064L19.1964 8.05922L19.1963 8.05897L18.9975 8.08064ZM18.9926 8.04615L19.1896 8.01152L19.1894 8.01056L18.9926 8.04615ZM18.9903 8.03332L19.1872 7.99771L19.1863 7.99361L18.9903 8.03332ZM18.9804 7.99212L18.7872 8.04414L18.7882 8.04754L18.9804 7.99212ZM18.9793 7.98807L19.1725 7.93604L19.171 7.93113L18.9793 7.98807ZM18.9652 7.94718L18.7785 8.01883L18.7787 8.01944L18.9652 7.94718ZM18.9602 7.93492L18.7759 8.01274L18.776 8.0129L18.9602 7.93492ZM18.9589 7.93192L19.1431 7.8541V7.8541L18.9589 7.93192ZM18.9466 7.90506L18.7669 7.99284L18.7673 7.99366L18.9466 7.90506ZM18.9444 7.90055L19.1241 7.81277L19.1233 7.81114L18.9444 7.90055ZM18.939 7.8897L19.1179 7.80026L19.1155 7.79566L18.939 7.8897ZM18.9179 7.85345L19.0866 7.74596L19.0833 7.74101L18.9179 7.85345ZM18.9121 7.845L19.0775 7.73255L19.0764 7.73095L18.9121 7.845ZM18.909 7.84051L18.7438 7.95318L18.7447 7.95456L18.909 7.84051ZM18.8907 7.81524L19.0489 7.69284L19.0474 7.69098L18.8907 7.81524ZM18.8803 7.80216L19.0371 7.67787L19.0347 7.67493L18.8803 7.80216ZM18.8513 7.76953L18.7079 7.90888L18.7082 7.90926L18.8513 7.76953ZM18.8489 7.76707L18.9924 7.62772L18.9915 7.62679L18.8489 7.76707ZM18.8145 7.73543L18.6844 7.88727L18.685 7.88785L18.8145 7.73543ZM18.8103 7.73152L18.6825 7.88544L18.684 7.8866L18.8103 7.73152ZM17.911 6.9853H17.711V7.07922L17.7833 7.13921L17.911 6.9853ZM13.6648 3.46145L13.537 3.61535L13.5926 3.66145H13.6648V3.46145ZM11.2353 1.44531L11.3631 1.29141L11.363 1.29139L11.2353 1.44531ZM8.76556 1.44531L8.63784 1.2914L8.63783 1.2914L8.76556 1.44531ZM6.33614 3.46141V3.66141H6.40832L6.46386 3.61532L6.33614 3.46141ZM2.0899 6.98526L2.21762 7.13916L2.2899 7.07918V6.98526H2.0899ZM1.19059 7.73159L1.06271 7.5775L1.05539 7.58421L1.19059 7.73159ZM1.18634 7.7355L1.31592 7.88803L1.32154 7.88288L1.18634 7.7355ZM1.15192 7.76714L1.00937 7.62685L1.00847 7.62778L1.15192 7.76714ZM1.14953 7.7696L1.29286 7.90908L1.29298 7.90896L1.14953 7.7696ZM1.12052 7.80223L1.27458 7.92976L1.27484 7.92945L1.12052 7.80223ZM1.11015 7.81531L0.952145 7.69269L0.9517 7.69327L1.11015 7.81531ZM1.09183 7.84058L1.25612 7.95465L1.25688 7.95354L1.09183 7.84058ZM1.08873 7.84506L0.924437 7.73098L0.923324 7.73262L1.08873 7.84506ZM1.08297 7.85352L0.917501 7.74104L0.914427 7.74585L1.08297 7.85352ZM1.06188 7.88977L1.23825 7.98407L1.2385 7.9836L1.06188 7.88977ZM1.05581 7.90191L0.875679 7.81494L0.874323 7.81787L1.05581 7.90191ZM1.0558 7.90192L1.23586 7.98906L1.23729 7.98597L1.0558 7.90192ZM1.05425 7.90513L1.23357 7.99372L1.23428 7.99226L1.05425 7.90513ZM1.04194 7.93199L0.857968 7.85355L0.857827 7.85389L1.04194 7.93199ZM1.04112 7.93394L1.22522 8.01208L1.22524 8.01205L1.04112 7.93394ZM1.03565 7.94725L1.22214 8.01951L1.22239 8.01888L1.03565 7.94725ZM1.02155 7.98814L0.829608 7.93177L0.828445 7.93609L1.02155 7.98814ZM1.02046 7.99219L1.21266 8.0476L1.21357 8.04424L1.02046 7.99219ZM1.01055 8.03339L0.814484 7.99368L0.813739 7.9978L1.01055 8.03339ZM1.00823 8.04622L0.811416 8.01064L0.811252 8.01157L1.00823 8.04622ZM1.00334 8.08071L0.804519 8.05902L0.804487 8.05933L1.00334 8.08071ZM1.00204 8.09281L0.803118 8.07141L0.802694 8.07663L1.00204 8.09281ZM1.60633 18.471L1.74782 18.3296L1.74376 18.3257L1.60633 18.471ZM1.63886 18.5016L1.77301 18.3531L1.76763 18.3486L1.63886 18.5016ZM18.3621 18.5015L18.2329 18.3488L18.2281 18.3531L18.3621 18.5015ZM18.3944 18.4711L18.2569 18.3258L18.253 18.3297L18.3944 18.4711ZM16.8563 8.79425L16.984 8.94815L17.0563 8.88817V8.79425H16.8563ZM16.5578 9.0419L16.4301 8.88799V8.88799L16.5578 9.0419ZM10.5618 14.0179L10.6895 14.1718L10.6895 14.1718L10.5618 14.0179ZM9.43911 14.0179L9.31139 14.1718L9.3114 14.1718L9.43911 14.0179ZM3.44306 9.04193L3.31532 9.19583L3.31534 9.19584L3.44306 9.04193ZM3.14464 8.79425H2.94464V8.88816L3.0169 8.94814L3.14464 8.79425ZM2.05474 9.26037L2.18247 9.10647L1.85474 8.83446V9.26037H2.05474ZM2.28158 9.44864L2.40967 9.29504L2.40931 9.29474L2.28158 9.44864ZM2.282 9.44899L2.15391 9.60259L2.15428 9.6029L2.282 9.44899ZM7.43156 13.7225L7.54462 13.8875L7.76311 13.7377L7.55928 13.5686L7.43156 13.7225ZM2.10874 17.3702L1.92112 17.4395L2.01003 17.6803L2.2218 17.5352L2.10874 17.3702ZM8.76556 14.8295L8.63783 14.9834H8.63783L8.76556 14.8295ZM8.27549 14.4228L8.40321 14.2689L8.287 14.1725L8.16243 14.2578L8.27549 14.4228ZM11.2353 14.8295L11.3631 14.9834L11.3631 14.9834L11.2353 14.8295ZM11.7254 14.4228L11.8385 14.2578L11.7139 14.1725L11.5977 14.2689L11.7254 14.4228ZM16.8662 17.9458V18.1458H17.5118L16.9793 17.7808L16.8662 17.9458ZM3.13465 17.9458L3.02159 17.7808L2.48901 18.1458H3.13465V17.9458ZM17.7189 9.44899L17.8466 9.6029L17.847 9.60252L17.7189 9.44899ZM12.5693 13.7225L12.4416 13.5686L12.2378 13.7378L12.4563 13.8875L12.5693 13.7225ZM17.7193 9.44864L17.5915 9.29474L17.5911 9.29511L17.7193 9.44864ZM17.9461 9.26037H18.1461V8.83446L17.8184 9.10647L17.9461 9.26037ZM17.8921 17.3702L17.7791 17.5352L17.9908 17.6803L18.0797 17.4395L17.8921 17.3702ZM10.5618 2.257L10.6895 2.1031L10.6895 2.1031L10.5618 2.257ZM9.43911 2.257L9.31139 2.1031L9.31139 2.1031L9.43911 2.257ZM12.0131 3.46145V3.66145H12.5673L12.1409 3.30754L12.0131 3.46145ZM7.98776 3.46145L7.86003 3.30754L7.43358 3.66145H7.98776V3.46145ZM5.64031 9.0414L5.83399 8.99152L5.83398 8.99148L5.64031 9.0414ZM14.3601 9.0414L14.5538 9.09128L14.5538 9.09127L14.3601 9.0414ZM18.8009 8.13742V8.13901H19.2009V8.13742H18.8009ZM18.7995 8.1093C18.8005 8.12076 18.8009 8.12975 18.8009 8.13742H19.2009C19.2009 8.11507 19.1996 8.09432 19.1981 8.07617L18.7995 8.1093ZM18.7987 8.10206L18.8 8.11416L19.1977 8.07132L19.1964 8.05922L18.7987 8.10206ZM18.7957 8.08078C18.7969 8.08766 18.7979 8.09483 18.7987 8.10231L19.1963 8.05897C19.1946 8.04326 19.1924 8.02743 19.1896 8.01152L18.7957 8.08078ZM18.7935 8.06892L18.7958 8.08175L19.1894 8.01056L19.1871 7.99772L18.7935 8.06892ZM18.7882 8.04754C18.7902 8.05442 18.7922 8.06268 18.7943 8.07303L19.1863 7.99361C19.1828 7.97618 19.1784 7.95688 19.1726 7.93669L18.7882 8.04754ZM18.7862 8.04009L18.7873 8.04413L19.1735 7.9401L19.1724 7.93606L18.7862 8.04009ZM18.7787 8.01944C18.7824 8.02898 18.7853 8.03739 18.7876 8.04501L19.171 7.93113C19.1651 7.91105 19.1584 7.89225 19.1517 7.87493L18.7787 8.01944ZM18.776 8.0129C18.7769 8.01504 18.7774 8.0163 18.7779 8.01741C18.7781 8.01791 18.7782 8.01826 18.7783 8.0185C18.7784 8.01874 18.7785 8.01884 18.7785 8.01883L19.1519 7.87554C19.1489 7.86771 19.1459 7.86056 19.1443 7.85694L18.776 8.0129ZM18.7747 8.00975L18.7759 8.01274L19.1444 7.85709L19.1431 7.8541L18.7747 8.00975ZM18.7673 7.99366C18.77 7.99906 18.7724 8.00443 18.7747 8.00975L19.1431 7.8541C19.1377 7.84128 19.132 7.82872 19.1259 7.81647L18.7673 7.99366ZM18.7647 7.98832L18.7669 7.99284L19.1263 7.81729L19.1241 7.81277L18.7647 7.98832ZM18.7601 7.97911L18.7655 7.98995L19.1233 7.81114L19.1179 7.80029L18.7601 7.97911ZM18.7492 7.9609C18.7537 7.96792 18.7581 7.9755 18.7625 7.98374L19.1155 7.79566C19.1067 7.77922 19.0971 7.76261 19.0866 7.74601L18.7492 7.9609ZM18.7467 7.95744L18.7525 7.96589L19.0833 7.74101L19.0775 7.73256L18.7467 7.95744ZM18.7447 7.95456L18.7478 7.95905L19.0764 7.73095L19.0733 7.72647L18.7447 7.95456ZM18.7325 7.93762C18.7361 7.94226 18.7398 7.94741 18.7438 7.95318L19.0743 7.72785C19.0665 7.71639 19.058 7.70466 19.0489 7.69285L18.7325 7.93762ZM18.7236 7.92642L18.734 7.9395L19.0474 7.69098L19.037 7.6779L18.7236 7.92642ZM18.7082 7.90926C18.7133 7.91444 18.719 7.92089 18.726 7.92938L19.0347 7.67493C19.0232 7.661 19.0098 7.64551 18.9944 7.6298L18.7082 7.90926ZM18.7055 7.90642L18.7079 7.90888L18.9948 7.63018L18.9924 7.62772L18.7055 7.90642ZM18.685 7.88785C18.6942 7.89565 18.701 7.90191 18.7064 7.90735L18.9915 7.62679C18.975 7.61007 18.9587 7.59546 18.944 7.583L18.685 7.88785ZM18.684 7.8866C18.6805 7.88381 18.6779 7.88143 18.6762 7.87993C18.6747 7.87852 18.6736 7.87744 18.6738 7.87762C18.6738 7.87766 18.6738 7.87766 18.674 7.8778C18.6741 7.8779 18.6743 7.87808 18.6745 7.87829C18.6749 7.87869 18.6756 7.87936 18.6764 7.88017C18.6781 7.88175 18.6809 7.8843 18.6844 7.88727L18.9447 7.58358C18.9474 7.58592 18.9495 7.58782 18.9504 7.58875C18.9512 7.58942 18.952 7.59025 18.951 7.5893C18.9505 7.58882 18.9487 7.58708 18.9465 7.58502C18.9441 7.58287 18.9407 7.57986 18.9366 7.57645L18.684 7.8866ZM17.7833 7.13921L18.6825 7.88543L18.938 7.57761L18.0387 6.83139L17.7833 7.13921ZM17.711 4.69198V6.9853H18.111V4.69198H17.711ZM16.6805 3.66145C17.2485 3.66145 17.711 4.12392 17.711 4.69198H18.111C18.111 3.903 17.4694 3.26145 16.6805 3.26145V3.66145ZM13.6648 3.66145H16.6805V3.26145H13.6648V3.66145ZM11.1076 1.59922L13.537 3.61535L13.7925 3.30754L11.3631 1.29141L11.1076 1.59922ZM8.89327 1.59922C9.53475 1.06693 10.4661 1.06692 11.1076 1.59923L11.363 1.29139C10.5734 0.636205 9.42744 0.636197 8.63784 1.2914L8.89327 1.59922ZM6.46386 3.61532L8.89328 1.59922L8.63783 1.2914L6.20842 3.3075L6.46386 3.61532ZM3.32043 3.66141H6.33614V3.26141H3.32043V3.66141ZM2.2899 4.69194C2.2899 4.12388 2.75237 3.66141 3.32043 3.66141V3.26141C2.53146 3.26141 1.8899 3.90297 1.8899 4.69194H2.2899ZM2.2899 6.98526V4.69194H1.8899V6.98526H2.2899ZM1.31832 7.8855L2.21762 7.13916L1.96217 6.83136L1.06287 7.57769L1.31832 7.8855ZM1.32154 7.88288L1.32579 7.87898L1.05539 7.58421L1.05114 7.58811L1.32154 7.88288ZM1.29446 7.90743C1.29982 7.90199 1.30665 7.89572 1.31583 7.88792L1.05685 7.58308C1.04219 7.59553 1.02581 7.61014 1.00937 7.62685L1.29446 7.90743ZM1.29298 7.90896L1.29537 7.9065L1.00847 7.62778L1.00607 7.63024L1.29298 7.90896ZM1.27484 7.92945C1.28166 7.92117 1.28755 7.91454 1.29286 7.90908L1.00619 7.63012C0.991186 7.64554 0.977872 7.66085 0.966206 7.675L1.27484 7.92945ZM1.26815 7.93792C1.27188 7.93312 1.27338 7.93122 1.27458 7.92976L0.966459 7.67469C0.960565 7.68181 0.955236 7.68871 0.952146 7.69269L1.26815 7.93792ZM1.25688 7.95354C1.26092 7.94764 1.26481 7.94227 1.2686 7.93735L0.9517 7.69327C0.942766 7.70486 0.934488 7.71637 0.926786 7.72763L1.25688 7.95354ZM1.25301 7.95912L1.25612 7.95465L0.927549 7.72652L0.924445 7.73099L1.25301 7.95912ZM1.24838 7.96596L1.25413 7.95749L0.923324 7.73262L0.917569 7.74109L1.24838 7.96596ZM1.2385 7.9836C1.24282 7.97546 1.24715 7.96803 1.25152 7.96119L0.914427 7.74585C0.903748 7.76257 0.89408 7.77933 0.885256 7.79594L1.2385 7.9836ZM1.23592 7.98887C1.23817 7.9842 1.23837 7.98384 1.23825 7.98407L0.885505 7.79547C0.881102 7.80371 0.877377 7.81148 0.875703 7.81495L1.23592 7.98887ZM1.23729 7.98597L1.2373 7.98595L0.874323 7.81787L0.874316 7.81788L1.23729 7.98597ZM1.23428 7.99226L1.23583 7.98905L0.875774 7.8148L0.874221 7.81801L1.23428 7.99226ZM1.22592 8.01044C1.22854 8.00428 1.23108 7.99874 1.23356 7.99372L0.874936 7.81655C0.868699 7.82918 0.863077 7.84157 0.857968 7.85355L1.22592 8.01044ZM1.22524 8.01205L1.22606 8.0101L0.857827 7.85389L0.857002 7.85583L1.22524 8.01205ZM1.22239 8.01888C1.22263 8.01823 1.22312 8.01704 1.22522 8.01208L0.857017 7.85579C0.855373 7.85967 0.852102 7.86732 0.848915 7.87563L1.22239 8.01888ZM1.21345 8.0445C1.21549 8.03755 1.21827 8.0295 1.22214 8.01951L0.849157 7.875C0.842624 7.89187 0.835773 7.91096 0.829656 7.93179L1.21345 8.0445ZM1.21357 8.04424L1.21466 8.0402L0.828445 7.93609L0.827355 7.94013L1.21357 8.04424ZM1.20657 8.07309C1.20866 8.06276 1.21065 8.05449 1.21263 8.04759L0.828289 7.93678C0.822473 7.95695 0.81806 7.97625 0.814527 7.99369L1.20657 8.07309ZM1.20504 8.08181L1.20736 8.06898L0.813739 7.9978L0.811419 8.01064L1.20504 8.08181ZM1.20216 8.1024C1.20298 8.0949 1.204 8.08774 1.2052 8.08088L0.811252 8.01157C0.808451 8.02749 0.806232 8.04332 0.80452 8.05902L1.20216 8.1024ZM1.20089 8.1142L1.20219 8.1021L0.804487 8.05933L0.803186 8.07142L1.20089 8.1142ZM1.2 8.13742C1.2 8.12972 1.20044 8.12065 1.20138 8.10898L0.802694 8.07663C0.801251 8.09442 0.8 8.1151 0.8 8.13742H1.2ZM1.2 8.13901V8.13742H0.8V8.13901H1.2ZM1.2 8.13929V8.13901H0.8V8.13929H1.2ZM1.2 17.0668V8.13929H0.8V17.0668H1.2ZM1.74376 18.3257C1.40884 18.009 1.2 17.5619 1.2 17.0668H0.8C0.8 17.677 1.05791 18.2276 1.46891 18.6163L1.74376 18.3257ZM1.76763 18.3486C1.76363 18.3452 1.75848 18.3403 1.74776 18.3296L1.4649 18.6124C1.47536 18.6229 1.49144 18.6389 1.51008 18.6546L1.76763 18.3486ZM2.93369 18.8005C2.48772 18.8005 2.08078 18.6313 1.77292 18.3532L1.50479 18.65C1.883 18.9917 2.38447 19.2005 2.93369 19.2005V18.8005ZM17.0672 18.8005H2.93369V19.2005H17.0672V18.8005ZM18.2281 18.3531C17.9202 18.6313 17.5132 18.8005 17.0672 18.8005V19.2005C17.6165 19.2005 18.118 18.9916 18.4962 18.6499L18.2281 18.3531ZM18.253 18.3297C18.2426 18.3401 18.2372 18.3452 18.2329 18.3489L18.4914 18.6542C18.5095 18.6388 18.5252 18.6232 18.5358 18.6126L18.253 18.3297ZM18.8009 17.0668C18.8009 17.5619 18.592 18.009 18.257 18.3258L18.5318 18.6164C18.9429 18.2277 19.2009 17.677 19.2009 17.0668H18.8009ZM18.8009 8.13929V17.0668H19.2009V8.13929H18.8009ZM18.8009 8.13901V8.13929H19.2009V8.13901H18.8009ZM16.6805 4.31615H3.32043V4.71615H16.6805V4.31615ZM17.0563 4.69194C17.0563 4.48455 16.8879 4.31615 16.6805 4.31615V4.71615C16.6669 4.71615 16.6563 4.70547 16.6563 4.69194H17.0563ZM17.0563 8.79425V4.69194H16.6563V8.79425H17.0563ZM16.6856 9.1958L16.984 8.94815L16.7285 8.64034L16.4301 8.88799L16.6856 9.1958ZM10.6895 14.1718L16.6856 9.1958L16.4301 8.88799L10.4341 13.864L10.6895 14.1718ZM9.3114 14.1718C9.71069 14.5031 10.2902 14.5032 10.6895 14.1718L10.4341 13.864C10.1829 14.0724 9.81803 14.0724 9.56682 13.864L9.3114 14.1718ZM3.31534 9.19584L9.31139 14.1718L9.56684 13.864L3.57078 8.88803L3.31534 9.19584ZM3.0169 8.94814L3.31532 9.19583L3.57079 8.88804L3.27237 8.64035L3.0169 8.94814ZM2.94464 4.69194V8.79425H3.34464V4.69194H2.94464ZM3.32043 4.31615C3.11304 4.31615 2.94464 4.48455 2.94464 4.69194H3.34464C3.34464 4.70547 3.33395 4.71615 3.32043 4.71615V4.31615ZM1.85474 9.26037V17.0668H2.25474V9.26037H1.85474ZM2.40931 9.29474L2.18247 9.10647L1.92701 9.41427L2.15385 9.60254L2.40931 9.29474ZM2.41009 9.29539L2.40967 9.29504L2.15349 9.60224L2.15391 9.60259L2.41009 9.29539ZM7.55928 13.5686L2.40972 9.29509L2.15428 9.6029L7.30383 13.8764L7.55928 13.5686ZM2.2218 17.5352L7.54462 13.8875L7.3185 13.5575L1.99568 17.2052L2.2218 17.5352ZM1.85474 17.0668C1.85474 17.1975 1.87816 17.3231 1.92112 17.4395L2.29637 17.3009C2.2695 17.2281 2.25474 17.1494 2.25474 17.0668H1.85474ZM8.89328 14.6756L8.40321 14.2689L8.14776 14.5767L8.63783 14.9834L8.89328 14.6756ZM11.1076 14.6756C10.4661 15.208 9.53475 15.208 8.89328 14.6756L8.63783 14.9834C9.42743 15.6387 10.5735 15.6387 11.3631 14.9834L11.1076 14.6756ZM11.5977 14.2689L11.1076 14.6756L11.3631 14.9834L11.8531 14.5767L11.5977 14.2689ZM16.9793 17.7808L11.8385 14.2578L11.6123 14.5878L16.7531 18.1108L16.9793 17.7808ZM3.13465 18.1458H16.8662V17.7458H3.13465V18.1458ZM8.16243 14.2578L3.02159 17.7808L3.24771 18.1108L8.38855 14.5878L8.16243 14.2578ZM17.5911 9.29509L12.4416 13.5686L12.6971 13.8764L17.8466 9.6029L17.5911 9.29509ZM17.5911 9.29511L17.5907 9.29546L17.847 9.60252L17.8475 9.60217L17.5911 9.29511ZM17.8184 9.10647L17.5915 9.29474L17.847 9.60254L18.0738 9.41427L17.8184 9.10647ZM18.1461 17.0668V9.26037H17.7461V17.0668H18.1461ZM18.0797 17.4395C18.1227 17.3231 18.1461 17.1975 18.1461 17.0668H17.7461C17.7461 17.1494 17.7314 17.2281 17.7045 17.3009L18.0797 17.4395ZM12.4563 13.8875L17.7791 17.5352L18.0052 17.2052L12.6824 13.5575L12.4563 13.8875ZM10.6895 2.1031C10.2902 1.77173 9.7107 1.77173 9.31139 2.1031L9.56683 2.41091C9.81802 2.20246 10.1829 2.20246 10.4341 2.41091L10.6895 2.1031ZM12.1409 3.30754L10.6895 2.1031L10.4341 2.41091L11.8854 3.61535L12.1409 3.30754ZM7.98776 3.66145H12.0131V3.26145H7.98776V3.66145ZM9.31139 2.1031L7.86003 3.30754L8.11548 3.61535L9.56684 2.41091L9.31139 2.1031ZM6.15042 7.12769C5.96962 7.12769 5.82305 6.98111 5.82305 6.80032H5.42305C5.42305 7.20203 5.74871 7.52769 6.15042 7.52769V7.12769ZM11.1429 7.12769H6.15042V7.52769H11.1429V7.12769ZM11.4702 6.80032C11.4702 6.98111 11.3236 7.12769 11.1429 7.12769V7.52769C11.5446 7.52769 11.8702 7.20203 11.8702 6.80032H11.4702ZM11.1429 6.47295C11.3236 6.47295 11.4702 6.61953 11.4702 6.80032H11.8702C11.8702 6.39861 11.5446 6.07295 11.1429 6.07295V6.47295ZM6.15042 6.47295H11.1429V6.07295H6.15042V6.47295ZM5.82305 6.80032C5.82305 6.61953 5.96962 6.47295 6.15042 6.47295V6.07295C5.74871 6.07295 5.42305 6.39861 5.42305 6.80032H5.82305ZM6.15042 9.63706H13.85V9.23706H6.15042V9.63706ZM5.44663 9.09128C5.5273 9.40452 5.81088 9.63706 6.15042 9.63706V9.23706C5.99859 9.23706 5.87046 9.13314 5.83399 8.99152L5.44663 9.09128ZM5.42305 8.90969C5.42305 8.97412 5.43211 9.03493 5.44664 9.09131L5.83398 8.99148C5.82678 8.96355 5.82305 8.9364 5.82305 8.90969H5.42305ZM6.15042 8.18232C5.74871 8.18232 5.42305 8.50799 5.42305 8.90969H5.82305C5.82305 8.7289 5.96962 8.58232 6.15042 8.58232V8.18232ZM13.85 8.18232H6.15042V8.58232H13.85V8.18232ZM14.5774 8.90969C14.5774 8.50799 14.2517 8.18232 13.85 8.18232V8.58232C14.0308 8.58232 14.1774 8.7289 14.1774 8.90969H14.5774ZM14.5538 9.09127C14.5683 9.0349 14.5774 8.97414 14.5774 8.90969H14.1774C14.1774 8.93638 14.1737 8.96351 14.1664 8.99152L14.5538 9.09127ZM13.85 9.63706C14.1896 9.63706 14.4731 9.40448 14.5538 9.09128L14.1664 8.99151C14.13 9.13312 14.0018 9.23706 13.85 9.23706V9.63706Z" fill="#4F647A" mask="url(#path-1-outside-1)"/>
</svg>
