<svg width="514" height="359" viewBox="0 0 514 359" fill="none" xmlns="http://www.w3.org/2000/svg">
<path d="M218.374 121.277L219 104.864L208.863 101.607C208.488 95.9691 207.487 90.4565 206.11 85.0692L214.62 78.8049L208.863 63.3947L198.226 64.2717C195.723 59.2603 192.72 54.4994 189.466 49.9891L194.973 40.8433L183.71 28.8158L174.199 33.702C169.944 30.0687 165.439 26.8112 160.683 23.9296L162.185 13.4056L147.168 6.64016L140.285 14.6585C135.029 12.9045 129.648 11.6516 124.017 10.8999L121.514 0.62643L104.995 0L101.741 10.1482C96.1097 10.6493 90.6034 11.5263 85.2223 12.9045L78.84 4.38501L63.4474 10.1482L64.3234 20.7975C59.3177 23.3032 54.5623 26.3101 50.0571 29.6928L40.9217 24.1802L28.908 35.4559L33.7886 44.9777C30.1594 49.2374 26.9057 53.7477 24.0274 58.5086L13.5154 56.8799L6.63258 71.9142L14.7669 78.8049C13.0149 84.0669 11.7634 89.5795 11.0126 95.0921L0.625714 97.7231L0 114.136L10.1366 117.393C10.512 123.031 11.5131 128.543 12.8897 133.931L4.38 140.195L10.1366 155.605L20.7737 154.728C23.2766 159.74 26.28 164.501 29.5337 169.011L24.0274 178.157L35.2903 190.184L44.8011 185.298C49.056 188.931 53.5611 192.189 58.3166 195.07L56.6897 205.594L71.7069 212.36L78.5897 204.342C83.8457 206.096 89.2269 207.348 94.8583 208.1L97.3612 218.374L113.88 219L117.134 208.852C122.765 208.351 128.271 207.474 133.653 206.096L139.91 214.615L155.302 208.852L154.551 198.203C159.557 195.697 164.313 192.69 168.818 189.307L177.953 194.82L189.967 183.544L185.086 174.022C188.715 169.763 191.969 165.252 194.847 160.491L205.359 162.12L212.242 147.086L204.108 140.195C205.86 134.933 207.111 129.546 207.862 123.908L218.374 121.277ZM107.247 174.523C71.2063 173.271 43.0491 143.077 44.3006 106.994C45.552 70.9119 75.7114 42.7226 111.753 43.8501C147.794 45.103 175.951 75.2969 174.699 111.379C173.448 147.587 143.289 175.776 107.247 174.523Z" fill="#EBEBEB"/>
<path d="M498.912 67.0794L503.034 63.207L501.41 59.9592C502.659 58.4603 503.783 56.9613 504.783 55.3374L508.405 55.837L510.779 50.7155L508.03 48.3421C508.655 46.4684 509.03 44.5947 509.404 42.721L513.027 41.8466L513.152 36.2254L509.654 35.1011C509.529 33.2274 509.155 31.2288 508.78 29.355L511.653 27.2315L509.654 21.8601L506.032 22.11C505.157 20.3612 504.158 18.7373 503.034 17.2383L504.908 14.1154L501.035 9.99321L497.787 11.6171C496.288 10.368 494.789 9.24372 493.165 8.2444L493.665 4.62186L488.544 2.24848L486.17 4.9966C484.297 4.37203 482.423 3.99728 480.549 3.74745L479.675 0.249836L474.053 0L472.929 3.49763C471.056 3.62254 469.057 3.99728 467.308 4.37203L465.185 1.37407L459.813 3.37271L460.063 6.99525C458.314 7.86966 456.69 8.86897 455.191 9.99321L452.068 8.11948L447.946 11.9919L449.57 15.2396C448.321 16.7386 447.197 18.2376 446.197 19.8615L442.575 19.3618L440.202 24.4834L442.95 26.8567C442.325 28.7305 441.95 30.6042 441.576 32.4779L437.953 33.3523L437.828 38.9735L441.326 40.0978C441.451 41.9715 441.825 43.9701 442.2 45.8438L439.202 47.9674L441.201 53.3387L444.823 53.0889C445.698 54.8377 446.697 56.4616 447.821 57.9606L445.948 61.0835L449.82 65.2057L453.068 63.5818C454.567 64.8309 456.066 65.9552 457.69 66.9545L457.19 70.577L462.311 72.9504L464.685 70.2023C466.559 70.8269 468.432 71.2016 470.306 71.4514L471.18 74.9491L476.802 75.1989L477.926 71.7013C479.8 71.5764 481.798 71.2016 483.547 70.8269L485.671 73.8248L491.042 71.8262L490.792 68.2036C492.541 67.3292 494.165 66.3299 495.664 65.2057L498.912 67.0794ZM469.307 43.2206C466.309 39.9728 466.434 34.8513 469.681 31.8533C472.929 28.8554 478.051 28.9803 481.049 32.2281C484.047 35.4759 483.922 40.5974 480.674 43.5954C477.551 46.5933 472.43 46.4684 469.307 43.2206Z" fill="#EBEBEB"/>
<path d="M348 235.695L335.144 226.827C333.896 222.081 332.148 217.584 329.902 213.337L333.147 200.347L314.425 180.236L301.194 182.61C297.075 180.112 292.707 178.113 288.089 176.489L280.1 162.999L252.641 162L243.779 174.865C239.036 176.115 234.543 177.863 230.299 180.112L217.318 176.864L197.223 195.6L199.595 208.715C197.098 212.837 195.101 217.209 193.479 221.831L179.999 229.825L179 257.305L191.981 266.173C193.229 270.919 194.976 275.416 197.098 279.663L193.853 292.653L212.575 312.763L225.681 310.39C229.8 312.888 234.168 314.887 238.787 316.511L246.775 330.001L274.234 331L283.096 318.134C287.839 316.885 292.332 315.137 296.701 312.888L309.557 316.136L329.652 297.4L327.281 284.285C329.777 280.163 331.774 275.791 333.397 271.169L346.877 263.175L348 235.695ZM262.501 277.415C245.402 276.79 232.171 262.551 232.671 245.563C233.295 228.451 247.524 215.211 264.499 215.71C281.598 216.335 294.829 230.574 294.329 247.562C293.83 264.674 279.601 278.039 262.501 277.415Z" fill="#EBEBEB"/>
<path d="M377.101 158L355.253 157.247C354.374 157.247 353.495 156.745 353.118 155.991L347.217 146.073C344.078 144.943 341.064 143.562 338.051 141.804L328.633 143.562C327.754 143.688 326.875 143.437 326.248 142.809L311.431 126.864C310.803 126.237 310.552 125.232 310.803 124.353L313.189 115.063C311.808 112.175 310.552 108.911 309.547 105.647L300.13 99.1184C299.377 98.6162 299 97.7373 299 96.8585L299.753 75.1388C299.753 74.26 300.256 73.3812 301.009 73.0045L310.929 67.1038C312.059 63.8396 313.566 60.8264 315.198 58.0644L313.44 48.6484C313.314 47.7695 313.565 46.8907 314.193 46.263L330.14 31.4484C330.768 30.8207 331.772 30.5696 332.651 30.8207L341.943 33.2061C344.957 31.6995 348.096 30.5696 351.235 29.5652L357.764 20.1491C358.267 19.3959 359.145 18.8937 360.024 19.0192L381.747 19.7725C382.626 19.7725 383.505 20.2747 383.882 21.028L389.783 30.9462C392.922 32.0761 395.936 33.4572 398.824 35.2148L408.367 33.4572C409.246 33.3316 410.125 33.5827 410.752 34.2104L425.569 50.1549C426.197 50.7827 426.448 51.7871 426.197 52.6659L423.811 61.9564C425.318 64.9695 426.448 68.1082 427.453 71.2469L436.87 77.7753C437.623 78.2775 438 79.1563 438 80.0352L437.247 101.755C437.247 102.634 436.744 103.512 435.991 103.889L426.071 109.79C424.941 113.054 423.435 116.067 421.802 118.829L423.56 128.245C423.686 129.124 423.435 130.003 422.807 130.631L406.986 145.445C406.358 146.073 405.353 146.324 404.474 146.073L395.182 143.688C392.169 145.194 388.904 146.324 385.765 147.328L379.236 156.745C378.859 157.498 377.98 158 377.101 158ZM357.011 151.974L375.846 152.601L382.124 143.562C382.5 143.06 383.003 142.683 383.631 142.558C387.146 141.679 390.537 140.298 393.927 138.666C394.429 138.415 395.182 138.289 395.81 138.415L404.6 140.674L418.412 127.869L416.78 118.829C416.654 118.202 416.78 117.574 417.156 116.946C418.914 113.933 420.547 110.669 421.802 107.153C422.053 106.526 422.43 106.023 422.932 105.647L432.35 99.9972L432.977 81.1651L423.937 74.8877C423.434 74.5111 423.058 74.1345 422.932 73.5067C422.932 73.3812 422.932 73.3812 422.932 73.2556C421.928 69.7403 420.672 66.3505 419.04 63.0863C418.789 62.4586 418.663 61.8308 418.789 61.2031L421.049 52.2892L408.116 38.479L399.075 40.1112C398.447 40.2367 397.819 40.1112 397.192 39.7345C394.052 37.8513 390.788 36.3447 387.397 35.0893C387.146 34.9637 387.021 34.9637 386.895 34.8382C386.519 34.5871 386.267 34.336 386.016 33.9593L380.366 24.5433L361.531 23.9156L355.253 32.955C354.876 33.4571 354.374 33.8338 353.746 34.0849C350.23 35.0893 346.84 36.3447 343.575 37.9768C342.948 38.2279 342.32 38.3535 341.692 38.228L332.777 35.9681L318.965 48.8995L320.597 57.9389C320.723 58.5666 320.597 59.0688 320.346 59.571C320.346 59.6965 320.22 59.6965 320.22 59.8221C318.337 62.8352 316.83 66.225 315.575 69.7403C315.323 70.368 314.947 70.8702 314.444 71.1213L305.027 76.771L304.399 95.603L313.44 101.88C313.942 102.257 314.319 102.759 314.444 103.387C315.449 107.028 316.705 110.418 318.337 113.556C318.463 113.682 318.463 113.933 318.588 114.184C318.714 114.561 318.714 115.063 318.588 115.439L316.328 124.353L329.261 138.164L338.176 136.531C338.804 136.406 339.432 136.531 340.06 136.908C343.199 138.791 346.589 140.298 349.979 141.553C350.607 141.804 351.109 142.181 351.486 142.683L357.011 151.974ZM368.563 128.12C368.061 128.12 367.684 128.12 367.182 128.12C345.333 127.366 328.005 108.911 328.759 87.0658C329.512 65.2206 347.97 48.0206 369.818 48.6484C391.667 49.4016 408.995 67.8571 408.241 89.7023C407.864 100.248 403.344 110.167 395.685 117.323C388.276 124.353 378.734 128.12 368.563 128.12ZM368.563 53.9214C350.105 53.9214 334.786 68.6104 334.158 87.1914C333.53 106.149 348.472 122.093 367.433 122.847C376.599 123.098 385.388 119.834 392.169 113.556C398.949 107.279 402.716 98.7417 403.093 89.5768C403.721 70.6191 388.779 54.6746 369.818 53.9214C369.316 53.9214 368.939 53.9214 368.563 53.9214Z" fill="#EBEBEB"/>
<path d="M191.673 223.867H179.095V251H146.841V223.867H97.6062L95.45 202.934L146.841 120.727V120.188H172.536H179.095V197.812H191.673V223.867ZM146.841 197.812V163.941L144.864 167.355L125.817 197.812H146.841ZM424.26 223.867H411.682V251H379.428V223.867H330.194L328.037 202.934L379.428 120.727V120.188H405.123H411.682V197.812H424.26V223.867ZM379.428 197.812V163.941L377.452 167.355L358.405 197.812H379.428Z" fill="#232323"/>
<path d="M306.17 198.352C306.17 210.031 304.223 219.974 300.33 228.18C296.496 236.326 291.106 242.465 284.158 246.598C277.21 250.73 269.184 252.797 260.08 252.797C250.856 252.797 242.74 250.73 235.732 246.598C228.784 242.465 223.364 236.326 219.47 228.18C215.637 220.034 213.72 210.091 213.72 198.352V173.105C213.72 161.366 215.637 151.393 219.47 143.188C223.364 134.982 228.754 128.812 235.642 124.68C242.59 120.487 250.676 118.391 259.9 118.391C269.004 118.391 277.03 120.487 283.978 124.68C290.986 128.872 296.436 135.072 300.33 143.277C304.223 151.483 306.17 161.426 306.17 173.105V198.352ZM273.916 169.062C273.916 160.318 272.688 154.029 270.232 150.195C267.836 146.362 264.392 144.445 259.9 144.445C255.288 144.445 251.784 146.362 249.388 150.195C247.052 153.969 245.884 160.258 245.884 169.062V202.215C245.884 211.199 247.082 217.548 249.478 221.262C251.874 224.915 255.408 226.742 260.08 226.742C264.572 226.742 267.986 224.885 270.322 221.172C272.718 217.458 273.916 211.139 273.916 202.215V169.062Z" fill="#F5CC31"/>
<path d="M139.56 319H132.288V294.988H145.104C147.816 294.988 149.928 295.78 151.44 297.364C152.976 298.924 153.744 300.88 153.744 303.232C153.744 305.56 152.976 307.516 151.44 309.1C149.928 310.66 147.816 311.44 145.104 311.44H139.56V319ZM144.168 305.104C144.816 305.104 145.344 304.948 145.752 304.636C146.16 304.3 146.364 303.832 146.364 303.232C146.364 302.608 146.16 302.14 145.752 301.828C145.344 301.492 144.816 301.324 144.168 301.324H139.56V305.104H144.168ZM171.801 319H165.321V317.344C164.841 317.968 164.109 318.472 163.125 318.856C162.165 319.24 161.145 319.432 160.065 319.432C158.577 319.432 157.209 318.94 155.961 317.956C154.713 316.948 154.089 315.532 154.089 313.708C154.089 312.364 154.413 311.26 155.061 310.396C155.733 309.508 156.489 308.92 157.329 308.632C158.169 308.32 159.081 308.164 160.065 308.164C162.561 308.164 164.313 308.8 165.321 310.072V308.272C165.321 307.648 165.033 307.132 164.457 306.724C163.905 306.316 163.113 306.112 162.081 306.112C160.353 306.112 158.745 306.676 157.257 307.804L155.061 303.808C157.245 302.056 159.981 301.18 163.269 301.18C164.421 301.18 165.477 301.3 166.437 301.54C167.397 301.756 168.297 302.128 169.137 302.656C169.977 303.16 170.625 303.916 171.081 304.924C171.561 305.908 171.801 307.096 171.801 308.488V319ZM162.765 315.22C164.037 315.22 164.889 314.908 165.321 314.284V313.312C164.889 312.688 164.037 312.376 162.765 312.376C161.253 312.376 160.497 312.856 160.497 313.816C160.497 314.752 161.253 315.22 162.765 315.22ZM182.694 326.056C179.598 326.056 176.958 325.192 174.774 323.464L177.51 318.856C178.782 320.128 180.51 320.764 182.694 320.764C183.726 320.764 184.65 320.488 185.466 319.936C186.306 319.408 186.726 318.472 186.726 317.128V316.192C185.358 317.752 183.726 318.532 181.83 318.532C179.598 318.532 177.762 317.8 176.322 316.336C174.906 314.848 174.198 312.688 174.198 309.856C174.198 307.072 174.906 304.936 176.322 303.448C177.762 301.936 179.598 301.18 181.83 301.18C183.822 301.18 185.454 301.936 186.726 303.448V301.612H193.206V317.128C193.206 318.568 192.966 319.84 192.486 320.944C192.03 322.048 191.454 322.912 190.758 323.536C190.062 324.16 189.222 324.664 188.238 325.048C187.278 325.456 186.354 325.72 185.466 325.84C184.578 325.984 183.654 326.056 182.694 326.056ZM184.062 312.808C184.518 312.808 184.998 312.712 185.502 312.52C186.03 312.304 186.438 312.028 186.726 311.692V308.02C186.438 307.684 186.03 307.42 185.502 307.228C184.998 307.012 184.518 306.904 184.062 306.904C183.102 306.904 182.322 307.144 181.722 307.624C181.122 308.104 180.822 308.848 180.822 309.856C180.822 310.864 181.122 311.608 181.722 312.088C182.322 312.568 183.102 312.808 184.062 312.808ZM205.292 319.432C202.508 319.432 200.192 318.604 198.344 316.948C196.52 315.292 195.608 313.072 195.608 310.288C195.608 307.72 196.496 305.56 198.272 303.808C200.048 302.056 202.316 301.18 205.076 301.18C207.692 301.18 209.852 302.068 211.556 303.844C213.26 305.596 214.112 307.972 214.112 310.972V312.304H202.304C202.496 312.904 202.916 313.42 203.564 313.852C204.212 314.284 205.04 314.5 206.048 314.5C206.6 314.5 207.296 314.38 208.136 314.14C209 313.9 209.636 313.612 210.044 313.276L212.708 317.272C211.892 317.968 210.8 318.508 209.432 318.892C208.064 319.252 206.684 319.432 205.292 319.432ZM207.956 308.2C207.62 306.808 206.66 306.112 205.076 306.112C203.564 306.112 202.616 306.808 202.232 308.2H207.956ZM243.771 319H237.291V309.388C237.291 307.732 236.451 306.904 234.771 306.904C233.739 306.904 232.815 307.36 231.999 308.272V319H225.519V301.612H231.999V303.592C233.415 301.984 235.407 301.18 237.975 301.18C239.895 301.18 241.335 301.696 242.295 302.728C243.279 303.736 243.771 305.044 243.771 306.652V319ZM263.082 316.768C261.306 318.544 258.93 319.432 255.954 319.432C252.978 319.432 250.602 318.544 248.826 316.768C247.074 314.992 246.198 312.832 246.198 310.288C246.198 307.744 247.074 305.596 248.826 303.844C250.602 302.068 252.978 301.18 255.954 301.18C258.93 301.18 261.306 302.068 263.082 303.844C264.858 305.596 265.746 307.744 265.746 310.288C265.746 312.832 264.858 314.992 263.082 316.768ZM255.954 313.708C256.938 313.708 257.706 313.396 258.258 312.772C258.81 312.124 259.086 311.296 259.086 310.288C259.086 309.304 258.81 308.5 258.258 307.876C257.706 307.228 256.938 306.904 255.954 306.904C254.994 306.904 254.238 307.228 253.686 307.876C253.134 308.5 252.858 309.304 252.858 310.288C252.858 311.296 253.134 312.124 253.686 312.772C254.238 313.396 254.994 313.708 255.954 313.708ZM275.471 319.432C273.527 319.432 272.039 318.976 271.007 318.064C269.999 317.128 269.495 315.76 269.495 313.96V307.228H266.615V301.612H269.495V296.86H275.975V301.612H279.503V307.228H275.975V312.088C275.975 312.544 276.107 312.928 276.371 313.24C276.635 313.552 276.983 313.708 277.415 313.708C278.063 313.708 278.495 313.6 278.711 313.384L279.863 318.28C278.999 319.048 277.535 319.432 275.471 319.432ZM298.897 319H292.417V307.228H289.537V301.612H292.417V300.82C292.417 298.996 293.041 297.508 294.289 296.356C295.537 295.204 297.121 294.628 299.041 294.628C301.489 294.628 303.301 295.252 304.477 296.5L302.137 300.1C301.753 299.644 301.225 299.416 300.553 299.416C300.121 299.416 299.737 299.548 299.401 299.812C299.065 300.076 298.897 300.412 298.897 300.82V301.612H302.425V307.228H298.897V319ZM320.141 316.768C318.365 318.544 315.989 319.432 313.013 319.432C310.037 319.432 307.661 318.544 305.885 316.768C304.133 314.992 303.257 312.832 303.257 310.288C303.257 307.744 304.133 305.596 305.885 303.844C307.661 302.068 310.037 301.18 313.013 301.18C315.989 301.18 318.365 302.068 320.141 303.844C321.917 305.596 322.805 307.744 322.805 310.288C322.805 312.832 321.917 314.992 320.141 316.768ZM313.013 313.708C313.997 313.708 314.765 313.396 315.317 312.772C315.869 312.124 316.145 311.296 316.145 310.288C316.145 309.304 315.869 308.5 315.317 307.876C314.765 307.228 313.997 306.904 313.013 306.904C312.053 306.904 311.297 307.228 310.745 307.876C310.193 308.5 309.917 309.304 309.917 310.288C309.917 311.296 310.193 312.124 310.745 312.772C311.297 313.396 312.053 313.708 313.013 313.708ZM343.438 319H336.958V317.056C335.518 318.64 333.526 319.432 330.982 319.432C329.062 319.432 327.622 318.928 326.662 317.92C325.702 316.912 325.222 315.616 325.222 314.032V301.612H331.702V311.26C331.702 312.892 332.542 313.708 334.222 313.708C335.23 313.708 336.142 313.252 336.958 312.34V301.612H343.438V319ZM365.306 319H358.826V309.388C358.826 307.732 357.986 306.904 356.306 306.904C355.274 306.904 354.35 307.36 353.534 308.272V319H347.054V301.612H353.534V303.592C354.95 301.984 356.942 301.18 359.51 301.18C361.43 301.18 362.87 301.696 363.83 302.728C364.814 303.736 365.306 305.044 365.306 306.652V319ZM386.777 319H380.297V317.164C378.953 318.676 377.321 319.432 375.401 319.432C373.193 319.432 371.357 318.628 369.893 317.02C368.453 315.412 367.733 313.168 367.733 310.288C367.733 307.48 368.453 305.26 369.893 303.628C371.357 301.996 373.193 301.18 375.401 301.18C377.417 301.18 379.049 301.936 380.297 303.448V294.988H386.777V319ZM377.597 313.708C378.749 313.708 379.649 313.312 380.297 312.52V308.056C379.673 307.288 378.773 306.904 377.597 306.904C376.685 306.904 375.917 307.216 375.293 307.84C374.669 308.44 374.357 309.256 374.357 310.288C374.357 311.344 374.669 312.184 375.293 312.808C375.917 313.408 376.685 313.708 377.597 313.708ZM396.558 310.072H390.726L389.754 294.988H397.458L396.558 310.072ZM396.306 318.28C395.562 319.024 394.674 319.396 393.642 319.396C392.61 319.396 391.71 319.024 390.942 318.28C390.198 317.512 389.826 316.612 389.826 315.58C389.826 314.524 390.198 313.624 390.942 312.88C391.71 312.112 392.61 311.728 393.642 311.728C394.674 311.728 395.562 312.112 396.306 312.88C397.074 313.624 397.458 314.524 397.458 315.58C397.458 316.612 397.074 317.512 396.306 318.28Z" fill="#232323"/>
<path d="M90.4535 352H88.8765V339.327H90.4535V352ZM95.6834 352.228C95.0121 352.228 94.5054 352.044 94.1634 351.677C93.8214 351.31 93.6504 350.778 93.6504 350.081V344.077H92.1304V342.823H93.6504V340.315H95.0754V342.823H96.9374V344.077H95.0754V349.777C95.0754 350.132 95.1514 350.417 95.3034 350.632C95.4681 350.847 95.7024 350.955 96.0064 350.955C96.4244 350.955 96.7474 350.828 96.9754 350.575L97.3934 351.639C96.9754 352.032 96.4054 352.228 95.6834 352.228ZM116.351 352H114.926V345.768C114.926 344.501 114.362 343.868 113.235 343.868C112.779 343.868 112.323 344.007 111.867 344.286C111.411 344.565 111.056 344.894 110.803 345.274V352H109.378V345.768C109.378 344.501 108.814 343.868 107.687 343.868C107.243 343.868 106.794 344.007 106.338 344.286C105.894 344.565 105.54 344.9 105.274 345.293V352H103.849V342.823H105.274V344.153C105.502 343.798 105.901 343.45 106.471 343.108C107.041 342.766 107.63 342.595 108.238 342.595C108.909 342.595 109.454 342.753 109.872 343.07C110.29 343.387 110.568 343.798 110.708 344.305C110.986 343.849 111.411 343.45 111.981 343.108C112.551 342.766 113.152 342.595 113.786 342.595C115.496 342.595 116.351 343.52 116.351 345.369V352ZM119.897 341.512C119.643 341.512 119.422 341.423 119.232 341.246C119.042 341.056 118.947 340.828 118.947 340.562C118.947 340.296 119.042 340.068 119.232 339.878C119.422 339.688 119.643 339.593 119.897 339.593C120.163 339.593 120.391 339.688 120.581 339.878C120.771 340.068 120.866 340.296 120.866 340.562C120.866 340.828 120.771 341.056 120.581 341.246C120.391 341.423 120.163 341.512 119.897 341.512ZM120.619 352H119.194V342.823H120.619V352ZM127.147 355.724C126.336 355.724 125.646 355.623 125.076 355.42C124.506 355.23 123.961 354.875 123.442 354.356L124.164 353.292C124.861 354.128 125.855 354.546 127.147 354.546C127.996 354.546 128.699 354.318 129.256 353.862C129.813 353.419 130.092 352.728 130.092 351.791V350.48C129.75 350.961 129.307 351.354 128.762 351.658C128.217 351.962 127.635 352.114 127.014 352.114C125.798 352.114 124.81 351.69 124.05 350.841C123.303 349.98 122.929 348.821 122.929 347.364C122.929 345.907 123.303 344.748 124.05 343.887C124.81 343.026 125.798 342.595 127.014 342.595C128.268 342.595 129.294 343.133 130.092 344.21V342.823H131.517V351.734C131.517 353.14 131.105 354.153 130.282 354.774C129.459 355.407 128.414 355.724 127.147 355.724ZM127.356 350.86C127.901 350.86 128.426 350.714 128.933 350.423C129.452 350.132 129.839 349.777 130.092 349.359V345.35C129.839 344.932 129.459 344.584 128.952 344.305C128.445 344.014 127.913 343.868 127.356 343.868C126.444 343.868 125.722 344.191 125.19 344.837C124.671 345.483 124.411 346.325 124.411 347.364C124.411 348.39 124.677 349.232 125.209 349.891C125.741 350.537 126.457 350.86 127.356 350.86ZM142.009 352H140.584V345.958C140.584 345.198 140.407 344.66 140.052 344.343C139.698 344.026 139.185 343.868 138.513 343.868C137.994 343.868 137.481 344.007 136.974 344.286C136.48 344.565 136.088 344.9 135.796 345.293V352H134.371V339.327H135.796V344.153C136.151 343.735 136.626 343.374 137.221 343.07C137.817 342.753 138.437 342.595 139.083 342.595C141.034 342.595 142.009 343.57 142.009 345.521V352ZM147.173 352.228C146.501 352.228 145.995 352.044 145.653 351.677C145.311 351.31 145.14 350.778 145.14 350.081V344.077H143.62V342.823H145.14V340.315H146.565V342.823H148.427V344.077H146.565V349.777C146.565 350.132 146.641 350.417 146.793 350.632C146.957 350.847 147.192 350.955 147.496 350.955C147.914 350.955 148.237 350.828 148.465 350.575L148.883 351.639C148.465 352.032 147.895 352.228 147.173 352.228ZM156.763 349.511C157.016 349.916 157.396 350.258 157.903 350.537C158.422 350.816 158.954 350.955 159.499 350.955C160.411 350.955 161.133 350.626 161.665 349.967C162.197 349.308 162.463 348.46 162.463 347.421C162.463 346.382 162.197 345.534 161.665 344.875C161.133 344.204 160.411 343.868 159.499 343.868C158.954 343.868 158.422 344.014 157.903 344.305C157.396 344.584 157.016 344.932 156.763 345.35V349.511ZM156.763 352H155.338V339.327H156.763V344.21C157.561 343.133 158.593 342.595 159.86 342.595C161.063 342.595 162.045 343.038 162.805 343.925C163.565 344.799 163.945 345.964 163.945 347.421C163.945 348.89 163.565 350.062 162.805 350.936C162.058 351.797 161.076 352.228 159.86 352.228C158.581 352.228 157.548 351.696 156.763 350.632V352ZM170.409 352.228C169.041 352.228 167.92 351.785 167.046 350.898C166.172 349.999 165.735 348.833 165.735 347.402C165.735 346.059 166.165 344.926 167.027 344.001C167.888 343.064 168.965 342.595 170.257 342.595C171.612 342.595 172.682 343.064 173.468 344.001C174.266 344.926 174.665 346.097 174.665 347.516V347.877H167.236C167.299 348.776 167.628 349.53 168.224 350.138C168.819 350.746 169.592 351.05 170.542 351.05C171.682 351.05 172.625 350.664 173.373 349.891L174.057 350.822C173.119 351.759 171.903 352.228 170.409 352.228ZM173.259 346.832C173.246 346.047 172.98 345.344 172.461 344.723C171.941 344.09 171.2 343.773 170.238 343.773C169.326 343.773 168.604 344.083 168.072 344.704C167.552 345.325 167.274 346.034 167.236 346.832H173.259ZM189.034 352H187.609V350.955C186.837 351.804 185.823 352.228 184.569 352.228C183.721 352.228 182.973 351.956 182.327 351.411C181.681 350.866 181.358 350.125 181.358 349.188C181.358 348.225 181.675 347.484 182.308 346.965C182.954 346.433 183.708 346.167 184.569 346.167C185.874 346.167 186.887 346.585 187.609 347.421V345.768C187.609 345.16 187.394 344.685 186.963 344.343C186.533 344.001 185.975 343.83 185.291 343.83C184.215 343.83 183.277 344.254 182.479 345.103L181.814 344.115C182.79 343.102 184.012 342.595 185.481 342.595C186.533 342.595 187.388 342.848 188.046 343.355C188.705 343.862 189.034 344.641 189.034 345.692V352ZM185.082 351.202C186.222 351.202 187.065 350.822 187.609 350.062V348.333C187.065 347.573 186.222 347.193 185.082 347.193C184.424 347.193 183.879 347.383 183.448 347.763C183.03 348.13 182.821 348.612 182.821 349.207C182.821 349.79 183.03 350.271 183.448 350.651C183.879 351.018 184.424 351.202 185.082 351.202ZM199.51 352H198.085V345.996C198.085 345.223 197.907 344.679 197.553 344.362C197.198 344.033 196.691 343.868 196.033 343.868C195.501 343.868 194.981 344.007 194.475 344.286C193.981 344.565 193.594 344.9 193.316 345.293V352H191.891V342.823H193.316V344.153C193.67 343.735 194.145 343.374 194.741 343.07C195.336 342.753 195.95 342.595 196.584 342.595C198.534 342.595 199.51 343.583 199.51 345.559V352ZM214.55 350.841C213.727 351.766 212.631 352.228 211.263 352.228C209.895 352.228 208.793 351.766 207.957 350.841C207.134 349.916 206.722 348.77 206.722 347.402C206.722 346.034 207.134 344.894 207.957 343.982C208.793 343.057 209.895 342.595 211.263 342.595C212.631 342.595 213.727 343.057 214.55 343.982C215.386 344.894 215.804 346.034 215.804 347.402C215.804 348.77 215.386 349.916 214.55 350.841ZM209.021 349.929C209.578 350.613 210.326 350.955 211.263 350.955C212.2 350.955 212.941 350.613 213.486 349.929C214.031 349.232 214.303 348.39 214.303 347.402C214.303 346.414 214.031 345.578 213.486 344.894C212.941 344.21 212.2 343.868 211.263 343.868C210.326 343.868 209.578 344.216 209.021 344.913C208.476 345.597 208.204 346.427 208.204 347.402C208.204 348.39 208.476 349.232 209.021 349.929ZM219.552 352H218.127V339.327H219.552V352ZM230.47 352H229.045V350.632C228.259 351.696 227.227 352.228 225.948 352.228C224.732 352.228 223.744 351.797 222.984 350.936C222.236 350.062 221.863 348.89 221.863 347.421C221.863 345.964 222.236 344.799 222.984 343.925C223.744 343.038 224.732 342.595 225.948 342.595C227.214 342.595 228.247 343.133 229.045 344.21V339.327H230.47V352ZM226.29 350.955C226.847 350.955 227.379 350.816 227.886 350.537C228.392 350.258 228.779 349.916 229.045 349.511V345.35C228.779 344.932 228.386 344.584 227.867 344.305C227.36 344.014 226.834 343.868 226.29 343.868C225.39 343.868 224.675 344.204 224.143 344.875C223.611 345.534 223.345 346.382 223.345 347.421C223.345 348.46 223.611 349.308 224.143 349.967C224.675 350.626 225.39 350.955 226.29 350.955ZM239.647 352H238.222V339.327H239.647V352ZM243.192 341.512C242.939 341.512 242.717 341.423 242.527 341.246C242.337 341.056 242.242 340.828 242.242 340.562C242.242 340.296 242.337 340.068 242.527 339.878C242.717 339.688 242.939 339.593 243.192 339.593C243.458 339.593 243.686 339.688 243.876 339.878C244.066 340.068 244.161 340.296 244.161 340.562C244.161 340.828 244.066 341.056 243.876 341.246C243.686 341.423 243.458 341.512 243.192 341.512ZM243.914 352H242.489V342.823H243.914V352ZM254.376 352H252.951V345.996C252.951 345.223 252.774 344.679 252.419 344.362C252.064 344.033 251.558 343.868 250.899 343.868C250.367 343.868 249.848 344.007 249.341 344.286C248.847 344.565 248.461 344.9 248.182 345.293V352H246.757V342.823H248.182V344.153C248.537 343.735 249.012 343.374 249.607 343.07C250.202 342.753 250.817 342.595 251.45 342.595C253.401 342.595 254.376 343.583 254.376 345.559V352ZM265.297 352H263.473L260.167 347.877L258.647 349.378V352H257.222V339.327H258.647V347.706L263.473 342.823H265.278L261.212 346.984L265.297 352ZM279.176 350.841C278.353 351.766 277.257 352.228 275.889 352.228C274.521 352.228 273.419 351.766 272.583 350.841C271.76 349.916 271.348 348.77 271.348 347.402C271.348 346.034 271.76 344.894 272.583 343.982C273.419 343.057 274.521 342.595 275.889 342.595C277.257 342.595 278.353 343.057 279.176 343.982C280.012 344.894 280.43 346.034 280.43 347.402C280.43 348.77 280.012 349.916 279.176 350.841ZM273.647 349.929C274.204 350.613 274.952 350.955 275.889 350.955C276.826 350.955 277.567 350.613 278.112 349.929C278.657 349.232 278.929 348.39 278.929 347.402C278.929 346.414 278.657 345.578 278.112 344.894C277.567 344.21 276.826 343.868 275.889 343.868C274.952 343.868 274.204 344.216 273.647 344.913C273.102 345.597 272.83 346.427 272.83 347.402C272.83 348.39 273.102 349.232 273.647 349.929ZM284.178 352H282.753V342.823H284.178V344.305C285.027 343.19 286.046 342.633 287.237 342.633V344.096C287.06 344.058 286.87 344.039 286.667 344.039C286.236 344.039 285.768 344.191 285.261 344.495C284.754 344.799 284.393 345.135 284.178 345.502V352ZM306.425 352H305V345.768C305 344.501 304.436 343.868 303.309 343.868C302.853 343.868 302.397 344.007 301.941 344.286C301.485 344.565 301.13 344.894 300.877 345.274V352H299.452V345.768C299.452 344.501 298.888 343.868 297.761 343.868C297.318 343.868 296.868 344.007 296.412 344.286C295.969 344.565 295.614 344.9 295.348 345.293V352H293.923V342.823H295.348V344.153C295.576 343.798 295.975 343.45 296.545 343.108C297.115 342.766 297.704 342.595 298.312 342.595C298.983 342.595 299.528 342.753 299.946 343.07C300.364 343.387 300.643 343.798 300.782 344.305C301.061 343.849 301.485 343.45 302.055 343.108C302.625 342.766 303.227 342.595 303.86 342.595C305.57 342.595 306.425 343.52 306.425 345.369V352ZM316.431 352H315.006V350.955C314.233 351.804 313.22 352.228 311.966 352.228C311.117 352.228 310.37 351.956 309.724 351.411C309.078 350.866 308.755 350.125 308.755 349.188C308.755 348.225 309.071 347.484 309.705 346.965C310.351 346.433 311.104 346.167 311.966 346.167C313.27 346.167 314.284 346.585 315.006 347.421V345.768C315.006 345.16 314.79 344.685 314.36 344.343C313.929 344.001 313.372 343.83 312.688 343.83C311.611 343.83 310.674 344.254 309.876 345.103L309.211 344.115C310.186 343.102 311.408 342.595 312.878 342.595C313.929 342.595 314.784 342.848 315.443 343.355C316.101 343.862 316.431 344.641 316.431 345.692V352ZM312.479 351.202C313.619 351.202 314.461 350.822 315.006 350.062V348.333C314.461 347.573 313.619 347.193 312.479 347.193C311.82 347.193 311.275 347.383 310.845 347.763C310.427 348.13 310.218 348.612 310.218 349.207C310.218 349.79 310.427 350.271 310.845 350.651C311.275 351.018 311.82 351.202 312.479 351.202ZM318.774 355.591L319.002 354.299C319.23 354.4 319.49 354.451 319.781 354.451C320.111 354.451 320.383 354.381 320.598 354.242C320.814 354.103 320.997 353.849 321.149 353.482L321.757 352.095L317.919 342.823H319.458L322.517 350.347L325.557 342.823H327.115L322.517 353.862C322.011 355.078 321.111 355.699 319.819 355.724C319.439 355.724 319.091 355.68 318.774 355.591ZM330.027 349.511C330.28 349.916 330.66 350.258 331.167 350.537C331.686 350.816 332.218 350.955 332.763 350.955C333.675 350.955 334.397 350.626 334.929 349.967C335.461 349.308 335.727 348.46 335.727 347.421C335.727 346.382 335.461 345.534 334.929 344.875C334.397 344.204 333.675 343.868 332.763 343.868C332.218 343.868 331.686 344.014 331.167 344.305C330.66 344.584 330.28 344.932 330.027 345.35V349.511ZM330.027 352H328.602V339.327H330.027V344.21C330.825 343.133 331.857 342.595 333.124 342.595C334.327 342.595 335.309 343.038 336.069 343.925C336.829 344.799 337.209 345.964 337.209 347.421C337.209 348.89 336.829 350.062 336.069 350.936C335.321 351.797 334.34 352.228 333.124 352.228C331.844 352.228 330.812 351.696 330.027 350.632V352ZM343.672 352.228C342.304 352.228 341.183 351.785 340.309 350.898C339.435 349.999 338.998 348.833 338.998 347.402C338.998 346.059 339.429 344.926 340.29 344.001C341.152 343.064 342.228 342.595 343.52 342.595C344.876 342.595 345.946 343.064 346.731 344.001C347.529 344.926 347.928 346.097 347.928 347.516V347.877H340.499C340.563 348.776 340.892 349.53 341.487 350.138C342.083 350.746 342.855 351.05 343.805 351.05C344.945 351.05 345.889 350.664 346.636 349.891L347.32 350.822C346.383 351.759 345.167 352.228 343.672 352.228ZM346.522 346.832C346.51 346.047 346.244 345.344 345.724 344.723C345.205 344.09 344.464 343.773 343.501 343.773C342.589 343.773 341.867 344.083 341.335 344.704C340.816 345.325 340.537 346.034 340.499 346.832H346.522ZM355.838 341.512C355.585 341.512 355.363 341.423 355.173 341.246C354.983 341.056 354.888 340.828 354.888 340.562C354.888 340.296 354.983 340.068 355.173 339.878C355.363 339.688 355.585 339.593 355.838 339.593C356.104 339.593 356.332 339.688 356.522 339.878C356.712 340.068 356.807 340.296 356.807 340.562C356.807 340.828 356.712 341.056 356.522 341.246C356.332 341.423 356.104 341.512 355.838 341.512ZM356.56 352H355.135V342.823H356.56V352ZM361.721 352.228C361.049 352.228 360.543 352.044 360.201 351.677C359.859 351.31 359.688 350.778 359.688 350.081V344.077H358.168V342.823H359.688V340.315H361.113V342.823H362.975V344.077H361.113V349.777C361.113 350.132 361.189 350.417 361.341 350.632C361.505 350.847 361.74 350.955 362.044 350.955C362.462 350.955 362.785 350.828 363.013 350.575L363.431 351.639C363.013 352.032 362.443 352.228 361.721 352.228ZM371.311 352H369.886V342.823H371.311V344.305C372.16 343.19 373.179 342.633 374.37 342.633V344.096C374.193 344.058 374.003 344.039 373.8 344.039C373.369 344.039 372.901 344.191 372.394 344.495C371.887 344.799 371.526 345.135 371.311 345.502V352ZM380.299 352.228C378.931 352.228 377.81 351.785 376.936 350.898C376.062 349.999 375.625 348.833 375.625 347.402C375.625 346.059 376.056 344.926 376.917 344.001C377.779 343.064 378.855 342.595 380.147 342.595C381.503 342.595 382.573 343.064 383.358 344.001C384.156 344.926 384.555 346.097 384.555 347.516V347.877H377.126C377.19 348.776 377.519 349.53 378.114 350.138C378.71 350.746 379.482 351.05 380.432 351.05C381.572 351.05 382.516 350.664 383.263 349.891L383.947 350.822C383.01 351.759 381.794 352.228 380.299 352.228ZM383.149 346.832C383.137 346.047 382.871 345.344 382.351 344.723C381.832 344.09 381.091 343.773 380.128 343.773C379.216 343.773 378.494 344.083 377.962 344.704C377.443 345.325 377.164 346.034 377.126 346.832H383.149ZM399.365 352H397.94V345.768C397.94 344.501 397.377 343.868 396.249 343.868C395.793 343.868 395.337 344.007 394.881 344.286C394.425 344.565 394.071 344.894 393.817 345.274V352H392.392V345.768C392.392 344.501 391.829 343.868 390.701 343.868C390.258 343.868 389.808 344.007 389.352 344.286C388.909 344.565 388.554 344.9 388.288 345.293V352H386.863V342.823H388.288V344.153C388.516 343.798 388.915 343.45 389.485 343.108C390.055 342.766 390.644 342.595 391.252 342.595C391.924 342.595 392.468 342.753 392.886 343.07C393.304 343.387 393.583 343.798 393.722 344.305C394.001 343.849 394.425 343.45 394.995 343.108C395.565 342.766 396.167 342.595 396.8 342.595C398.51 342.595 399.365 343.52 399.365 345.369V352ZM409.504 350.841C408.681 351.766 407.585 352.228 406.217 352.228C404.849 352.228 403.747 351.766 402.911 350.841C402.088 349.916 401.676 348.77 401.676 347.402C401.676 346.034 402.088 344.894 402.911 343.982C403.747 343.057 404.849 342.595 406.217 342.595C407.585 342.595 408.681 343.057 409.504 343.982C410.34 344.894 410.758 346.034 410.758 347.402C410.758 348.77 410.34 349.916 409.504 350.841ZM403.975 349.929C404.533 350.613 405.28 350.955 406.217 350.955C407.155 350.955 407.896 350.613 408.44 349.929C408.985 349.232 409.257 348.39 409.257 347.402C409.257 346.414 408.985 345.578 408.44 344.894C407.896 344.21 407.155 343.868 406.217 343.868C405.28 343.868 404.533 344.216 403.975 344.913C403.431 345.597 403.158 346.427 403.158 347.402C403.158 348.39 403.431 349.232 403.975 349.929ZM417.09 352H415.532L411.713 342.823H413.252L416.311 350.347L419.351 342.823H420.909L417.09 352ZM426.538 352.228C425.17 352.228 424.049 351.785 423.175 350.898C422.301 349.999 421.864 348.833 421.864 347.402C421.864 346.059 422.294 344.926 423.156 344.001C424.017 343.064 425.094 342.595 426.386 342.595C427.741 342.595 428.811 343.064 429.597 344.001C430.395 344.926 430.794 346.097 430.794 347.516V347.877H423.365C423.428 348.776 423.757 349.53 424.353 350.138C424.948 350.746 425.721 351.05 426.671 351.05C427.811 351.05 428.754 350.664 429.502 349.891L430.186 350.822C429.248 351.759 428.032 352.228 426.538 352.228ZM429.388 346.832C429.375 346.047 429.109 345.344 428.59 344.723C428.07 344.09 427.329 343.773 426.367 343.773C425.455 343.773 424.733 344.083 424.201 344.704C423.681 345.325 423.403 346.034 423.365 346.832H429.388ZM441.177 352H439.752V350.632C438.966 351.696 437.934 352.228 436.655 352.228C435.439 352.228 434.451 351.797 433.691 350.936C432.943 350.062 432.57 348.89 432.57 347.421C432.57 345.964 432.943 344.799 433.691 343.925C434.451 343.038 435.439 342.595 436.655 342.595C437.921 342.595 438.954 343.133 439.752 344.21V339.327H441.177V352ZM436.997 350.955C437.554 350.955 438.086 350.816 438.593 350.537C439.099 350.258 439.486 349.916 439.752 349.511V345.35C439.486 344.932 439.093 344.584 438.574 344.305C438.067 344.014 437.541 343.868 436.997 343.868C436.097 343.868 435.382 344.204 434.85 344.875C434.318 345.534 434.052 346.382 434.052 347.421C434.052 348.46 434.318 349.308 434.85 349.967C435.382 350.626 436.097 350.955 436.997 350.955Z" fill="#828282"/>
<path d="M76.5312 97.9999C75.5312 93.5999 75.9312 89.8999 77.8312 86.8999C79.7312 83.8999 82.8312 81.8999 87.2312 80.8999C91.7312 79.8999 95.4312 80.2999 98.4312 82.1999C101.431 84.0999 103.431 87.1999 104.331 91.4999C105.031 94.6999 105.131 97.3999 104.531 99.5999C103.931 101.9 102.731 103.8 101.031 105.4C99.2312 107 96.9312 108.1 93.9312 108.8C90.9312 109.5 88.2312 109.6 86.0312 109.1C83.8312 108.6 81.8312 107.4 80.1312 105.6C78.4312 103.7 77.2312 101.2 76.5312 97.9999ZM84.9312 96.1999C85.5312 98.8999 86.5312 100.8 87.8312 101.7C89.1312 102.7 90.6312 102.9 92.3312 102.5C94.1312 102.1 95.3312 101.2 96.1312 99.7999C96.9312 98.3999 96.8312 96.1999 96.1312 93.1999C95.5312 90.6999 94.6312 88.8999 93.3312 87.9999C92.0312 87.0999 90.5312 86.7999 88.7312 87.1999C87.0312 87.5999 85.8312 88.4999 85.1312 89.8999C84.3312 91.3999 84.2312 93.3999 84.9312 96.1999Z" fill="#263238"/>
<path d="M108.431 94.7001C107.731 91.7001 108.231 89.0001 109.731 86.6001C111.331 84.2001 113.831 82.6001 117.231 81.8001C121.131 80.9001 124.331 81.4001 126.831 83.2001C128.831 84.7001 130.131 86.7001 130.731 89.4001C131.431 92.4001 130.931 95.1001 129.431 97.5001C127.831 99.9001 125.331 101.5 121.831 102.3C118.731 103 115.931 102.8 113.631 101.6C110.931 100.3 109.131 97.9001 108.431 94.7001ZM115.931 93.0001C116.331 94.7001 116.931 95.9001 117.831 96.6001C118.731 97.3001 119.731 97.5001 120.731 97.2001C121.831 97.0001 122.631 96.3001 123.131 95.4001C123.631 94.4001 123.731 93.0001 123.231 91.2001C122.831 89.5001 122.231 88.3001 121.331 87.7001C120.431 87.0001 119.531 86.8001 118.431 87.0001C117.331 87.2001 116.531 87.9001 116.031 88.9001C115.631 89.9001 115.531 91.3001 115.931 93.0001Z" fill="#263238"/>
<path d="M138.431 106L132.331 79.0001L139.331 77.4001L140.031 80.3001C140.731 78.9001 141.431 77.8001 142.131 77.2001C143.131 76.4001 144.231 75.8001 145.531 75.5001C148.131 74.9001 150.431 75.4001 152.231 77.1001C154.131 78.8001 155.431 81.1001 156.031 84.0001C156.731 87.3001 156.531 89.9001 155.431 92.0001C154.231 94.1001 152.531 95.4001 150.131 95.9001C148.931 96.2001 147.931 96.2001 146.831 96.0001C145.831 95.8001 144.831 95.4001 143.931 94.8001L146.031 104.1L138.431 106ZM142.031 87.1001C142.431 88.6001 142.931 89.7001 143.831 90.3001C144.631 90.9001 145.531 91.1001 146.531 90.9001C147.431 90.7001 148.031 90.2001 148.431 89.3001C148.831 88.4001 148.831 87.2001 148.531 85.4001C148.131 83.8001 147.631 82.7001 146.831 82.1001C146.031 81.5001 145.231 81.3001 144.331 81.5001C143.331 81.7001 142.631 82.3001 142.231 83.2001C141.731 84.1001 141.631 85.4001 142.031 87.1001Z" fill="#263238"/>
<path d="M159.231 87.7L166.531 85.3C167.031 86.1 167.631 86.6 168.231 86.9C168.831 87.2 169.631 87.2 170.531 87C171.531 86.8 172.231 86.4 172.731 85.8C173.131 85.4 173.231 84.9 173.131 84.5C173.031 84 172.631 83.6 172.031 83.4C171.531 83.3 170.431 83.3 168.631 83.4C165.931 83.5 164.031 83.5 162.931 83.4C161.831 83.2 160.831 82.8 159.931 82C159.031 81.2 158.431 80.3 158.131 79.1C157.831 77.8 157.931 76.6 158.531 75.5C159.031 74.4 159.931 73.5 161.131 72.7C162.331 71.9 164.031 71.3 166.231 70.8C168.531 70.3 170.331 70.1 171.531 70.2C172.731 70.3 173.731 70.6 174.731 71.2C175.631 71.8 176.531 72.7 177.231 73.8L170.331 76.1C170.031 75.5 169.631 75.1 169.131 74.9C168.431 74.6 167.731 74.6 166.831 74.8C166.031 75 165.431 75.3 165.131 75.7C164.831 76.1 164.731 76.5 164.831 76.9C164.931 77.4 165.231 77.7 165.831 77.8C166.331 77.9 167.531 77.9 169.231 77.7C171.831 77.4 173.731 77.4 175.031 77.6C176.331 77.8 177.431 78.3 178.331 79.1C179.231 79.9 179.731 80.8 180.031 82C180.331 83.1 180.231 84.3 179.731 85.5C179.331 86.7 178.431 87.8 177.131 88.8C175.831 89.8 173.931 90.5 171.331 91.1C167.731 91.9 165.131 92 163.331 91.3C161.431 90.7 160.131 89.5 159.231 87.7Z" fill="#263238"/>
<path d="M183.631 63H191.831V69.3L190.331 82H185.231L183.631 69.3V63ZM184.031 83.9H191.731V90.7H184.031V83.9Z" fill="#263238"/>
</svg>
