<svg width="21" height="21" viewBox="0 0 21 21" fill="none" xmlns="http://www.w3.org/2000/svg">
<g clip-path="url(#clip0)">
<path d="M10.4999 7.63635C8.92008 7.63635 7.63623 8.9202 7.63623 10.5C7.63623 12.0798 8.92008 13.3636 10.4999 13.3636C12.0797 13.3636 13.3635 12.0798 13.3635 10.5C13.3635 8.9202 12.0796 7.63635 10.4999 7.63635Z" fill="#878A92"/>
<path d="M10.5 3.34094C5.72728 3.34094 1.65138 6.30955 0 10.5C1.65138 14.6905 5.72728 17.6591 10.5 17.6591C15.2775 17.6591 19.3487 14.6905 21 10.5C19.3487 6.30955 15.2775 3.34094 10.5 3.34094ZM10.5 15.2727C7.86548 15.2727 5.72728 13.1345 5.72728 10.5C5.72728 7.86545 7.86548 5.72729 10.5 5.72729C13.1346 5.72729 15.2728 7.86549 15.2728 10.5C15.2728 13.1346 13.1346 15.2727 10.5 15.2727Z" fill="#878A92"/>
</g>
<defs>
<clipPath id="clip0">
<rect width="21" height="21" fill="white"/>
</clipPath>
</defs>
</svg>
