<svg width="22" height="18" viewBox="0 0 22 18" fill="none" xmlns="http://www.w3.org/2000/svg">
<path d="M19.4219 0.921875H2.57812C1.15655 0.921875 0 2.07842 0 3.5V14.5C0 15.9216 1.15655 17.0781 2.57812 17.0781H19.4219C20.8435 17.0781 22 15.9216 22 14.5V3.5C22 2.07842 20.8435 0.921875 19.4219 0.921875ZM20.2812 14.5C20.2812 14.9739 19.8957 15.3594 19.4219 15.3594H2.57812C2.10427 15.3594 1.71875 14.9739 1.71875 14.5V7.19531H20.2812V14.5ZM20.2812 4.61719H1.71875V3.5C1.71875 3.02614 2.10427 2.64062 2.57812 2.64062H19.4219C19.8957 2.64062 20.2812 3.02614 20.2812 3.5V4.61719Z" fill="#4F647A"/>
</svg>
