<svg width="24" height="24" viewBox="0 0 24 24" fill="none" xmlns="http://www.w3.org/2000/svg">
<mask id="path-1-outside-1" maskUnits="userSpaceOnUse" x="0" y="0" width="24" height="24" fill="black">
<rect fill="white" width="24" height="24"/>
<path fill-rule="evenodd" clip-rule="evenodd" d="M20.7915 9.12747L22.4824 9.49506C22.7845 9.56085 23 9.82823 23 10.1374V13.8626C23 14.1718 22.7845 14.4391 22.4824 14.5049L20.7915 14.8725C20.6444 15.3227 20.4623 15.7618 20.2473 16.1848L21.1834 17.6408C21.3506 17.901 21.3138 18.2426 21.0953 18.4611L18.4611 21.0953C18.2426 21.314 17.901 21.3506 17.6408 21.1834L16.1848 20.2473C15.7618 20.4623 15.3227 20.6444 14.8725 20.7915L14.5049 22.4824C14.4393 22.7845 14.1718 23 13.8626 23H10.1374C9.82823 23 9.56068 22.7845 9.49506 22.4824L9.12747 20.7915C8.67731 20.6444 8.23822 20.4623 7.81525 20.2473L6.35918 21.1834C6.09901 21.3506 5.75745 21.3138 5.53891 21.0953L2.90472 18.4611C2.68619 18.2426 2.64943 17.901 2.8166 17.6408L3.75269 16.1848C3.53767 15.7618 3.35556 15.3227 3.20853 14.8725L1.51764 14.5049C1.21552 14.4391 1 14.1718 1 13.8626V10.1374C1 9.82823 1.21552 9.56085 1.51764 9.49506L3.20853 9.12747C3.35556 8.67731 3.53767 8.23822 3.75269 7.81525L2.8166 6.35918C2.64943 6.09901 2.68619 5.75745 2.90472 5.53891L5.53891 2.90472C5.75745 2.68619 6.09901 2.64943 6.35918 2.8166L7.81525 3.75269C8.23822 3.53767 8.67731 3.35556 9.12747 3.20853L9.49506 1.51764C9.56068 1.21552 9.82823 1 10.1374 1H13.8626C14.1718 1 14.4393 1.21552 14.5049 1.51764L14.8725 3.20853C15.3227 3.35556 15.7618 3.53767 16.1848 3.75269L17.6408 2.8166C17.901 2.64943 18.2426 2.68619 18.4611 2.90472L21.0953 5.53891C21.3138 5.75745 21.3506 6.09901 21.1834 6.35918L20.2473 7.81525C20.4623 8.23822 20.6444 8.67731 20.7915 9.12747ZM20.1349 13.6697L21.6853 13.3327V10.6673L20.1347 10.3303C19.8965 10.2784 19.7067 10.0991 19.6412 9.86449C19.4707 9.25336 19.2258 8.66237 18.9128 8.10797C18.7929 7.89565 18.8005 7.63448 18.9324 7.42937L19.7908 6.09398L17.906 4.20906L16.5706 5.0676C16.3655 5.19936 16.1044 5.20691 15.892 5.08707C15.3376 4.7742 14.7466 4.52914 14.1355 4.35878C13.9009 4.29332 13.7216 4.10332 13.6697 3.86514L13.3327 2.31474H10.6673L10.3303 3.86514C10.2784 4.10332 10.0991 4.29332 9.86449 4.35878C9.25336 4.52914 8.66237 4.7742 8.1078 5.08707C7.89565 5.20691 7.63448 5.19952 7.42937 5.0676L6.09381 4.20906L4.20906 6.09398L5.0676 7.42937C5.19952 7.63448 5.20691 7.89565 5.08707 8.10797C4.7742 8.66237 4.52914 9.25336 4.35878 9.86449C4.29332 10.0991 4.10332 10.2784 3.86514 10.3303L2.31474 10.6673V13.3327L3.86531 13.6697C4.10349 13.7216 4.29332 13.9009 4.35878 14.1355C4.52931 14.7466 4.77437 15.3376 5.08723 15.892C5.20708 16.1044 5.19952 16.3655 5.0676 16.5706L4.20923 17.906L6.09398 19.7909L7.42937 18.9324C7.63448 18.8006 7.89565 18.7931 8.10797 18.9129C8.66237 19.2258 9.25336 19.4709 9.86449 19.6412C10.0991 19.7067 10.2784 19.8967 10.3303 20.1349L10.6673 21.6853H13.3327L13.6697 20.1349C13.7216 19.8967 13.9009 19.7067 14.1355 19.6412C14.7466 19.4709 15.3376 19.2258 15.8922 18.9129C16.1044 18.7931 16.3655 18.8005 16.5706 18.9324L17.9062 19.7909L19.7909 17.906L18.9324 16.5706C18.8005 16.3655 18.7931 16.1044 18.9129 15.892C19.2258 15.3376 19.4709 14.7466 19.6412 14.1355C19.7067 13.9009 19.8967 13.7216 20.1349 13.6697ZM7 12C7 9.24307 9.24307 7 12 7C14.7569 7 17 9.24307 17 12C17 14.7569 14.7569 17 12 17C9.24307 17 7 14.7569 7 12ZM8.25 12C8.25 14.0677 9.93231 15.75 12 15.75C14.0677 15.75 15.75 14.0677 15.75 12C15.75 9.93231 14.0677 8.25 12 8.25C9.93231 8.25 8.25 9.93231 8.25 12Z"/>
</mask>
<path fill-rule="evenodd" clip-rule="evenodd" d="M20.7915 9.12747L22.4824 9.49506C22.7845 9.56085 23 9.82823 23 10.1374V13.8626C23 14.1718 22.7845 14.4391 22.4824 14.5049L20.7915 14.8725C20.6444 15.3227 20.4623 15.7618 20.2473 16.1848L21.1834 17.6408C21.3506 17.901 21.3138 18.2426 21.0953 18.4611L18.4611 21.0953C18.2426 21.314 17.901 21.3506 17.6408 21.1834L16.1848 20.2473C15.7618 20.4623 15.3227 20.6444 14.8725 20.7915L14.5049 22.4824C14.4393 22.7845 14.1718 23 13.8626 23H10.1374C9.82823 23 9.56068 22.7845 9.49506 22.4824L9.12747 20.7915C8.67731 20.6444 8.23822 20.4623 7.81525 20.2473L6.35918 21.1834C6.09901 21.3506 5.75745 21.3138 5.53891 21.0953L2.90472 18.4611C2.68619 18.2426 2.64943 17.901 2.8166 17.6408L3.75269 16.1848C3.53767 15.7618 3.35556 15.3227 3.20853 14.8725L1.51764 14.5049C1.21552 14.4391 1 14.1718 1 13.8626V10.1374C1 9.82823 1.21552 9.56085 1.51764 9.49506L3.20853 9.12747C3.35556 8.67731 3.53767 8.23822 3.75269 7.81525L2.8166 6.35918C2.64943 6.09901 2.68619 5.75745 2.90472 5.53891L5.53891 2.90472C5.75745 2.68619 6.09901 2.64943 6.35918 2.8166L7.81525 3.75269C8.23822 3.53767 8.67731 3.35556 9.12747 3.20853L9.49506 1.51764C9.56068 1.21552 9.82823 1 10.1374 1H13.8626C14.1718 1 14.4393 1.21552 14.5049 1.51764L14.8725 3.20853C15.3227 3.35556 15.7618 3.53767 16.1848 3.75269L17.6408 2.8166C17.901 2.64943 18.2426 2.68619 18.4611 2.90472L21.0953 5.53891C21.3138 5.75745 21.3506 6.09901 21.1834 6.35918L20.2473 7.81525C20.4623 8.23822 20.6444 8.67731 20.7915 9.12747ZM20.1349 13.6697L21.6853 13.3327V10.6673L20.1347 10.3303C19.8965 10.2784 19.7067 10.0991 19.6412 9.86449C19.4707 9.25336 19.2258 8.66237 18.9128 8.10797C18.7929 7.89565 18.8005 7.63448 18.9324 7.42937L19.7908 6.09398L17.906 4.20906L16.5706 5.0676C16.3655 5.19936 16.1044 5.20691 15.892 5.08707C15.3376 4.7742 14.7466 4.52914 14.1355 4.35878C13.9009 4.29332 13.7216 4.10332 13.6697 3.86514L13.3327 2.31474H10.6673L10.3303 3.86514C10.2784 4.10332 10.0991 4.29332 9.86449 4.35878C9.25336 4.52914 8.66237 4.7742 8.1078 5.08707C7.89565 5.20691 7.63448 5.19952 7.42937 5.0676L6.09381 4.20906L4.20906 6.09398L5.0676 7.42937C5.19952 7.63448 5.20691 7.89565 5.08707 8.10797C4.7742 8.66237 4.52914 9.25336 4.35878 9.86449C4.29332 10.0991 4.10332 10.2784 3.86514 10.3303L2.31474 10.6673V13.3327L3.86531 13.6697C4.10349 13.7216 4.29332 13.9009 4.35878 14.1355C4.52931 14.7466 4.77437 15.3376 5.08723 15.892C5.20708 16.1044 5.19952 16.3655 5.0676 16.5706L4.20923 17.906L6.09398 19.7909L7.42937 18.9324C7.63448 18.8006 7.89565 18.7931 8.10797 18.9129C8.66237 19.2258 9.25336 19.4709 9.86449 19.6412C10.0991 19.7067 10.2784 19.8967 10.3303 20.1349L10.6673 21.6853H13.3327L13.6697 20.1349C13.7216 19.8967 13.9009 19.7067 14.1355 19.6412C14.7466 19.4709 15.3376 19.2258 15.8922 18.9129C16.1044 18.7931 16.3655 18.8005 16.5706 18.9324L17.9062 19.7909L19.7909 17.906L18.9324 16.5706C18.8005 16.3655 18.7931 16.1044 18.9129 15.892C19.2258 15.3376 19.4709 14.7466 19.6412 14.1355C19.7067 13.9009 19.8967 13.7216 20.1349 13.6697ZM7 12C7 9.24307 9.24307 7 12 7C14.7569 7 17 9.24307 17 12C17 14.7569 14.7569 17 12 17C9.24307 17 7 14.7569 7 12ZM8.25 12C8.25 14.0677 9.93231 15.75 12 15.75C14.0677 15.75 15.75 14.0677 15.75 12C15.75 9.93231 14.0677 8.25 12 8.25C9.93231 8.25 8.25 9.93231 8.25 12Z" fill="#4F647A"/>
<path d="M22.4824 9.49506L22.5249 9.29964L22.5248 9.29962L22.4824 9.49506ZM20.7915 9.12747L20.6014 9.18957L20.637 9.29855L20.749 9.32291L20.7915 9.12747ZM22.4824 14.5049L22.5248 14.7004L22.5249 14.7004L22.4824 14.5049ZM20.7915 14.8725L20.749 14.6771L20.637 14.7014L20.6014 14.8104L20.7915 14.8725ZM20.2473 16.1848L20.069 16.0941L20.017 16.1964L20.0791 16.2929L20.2473 16.1848ZM21.1834 17.6408L21.3517 17.5327L21.3516 17.5327L21.1834 17.6408ZM18.4611 21.0953L18.3197 20.9539L18.3196 20.9539L18.4611 21.0953ZM17.6408 21.1834L17.5327 21.3516L17.5327 21.3517L17.6408 21.1834ZM16.1848 20.2473L16.2929 20.0791L16.1964 20.017L16.0941 20.069L16.1848 20.2473ZM14.8725 20.7915L14.8104 20.6014L14.7014 20.637L14.6771 20.749L14.8725 20.7915ZM14.5049 22.4824L14.3095 22.4399L14.3095 22.4399L14.5049 22.4824ZM9.49506 22.4824L9.6905 22.4399L9.69049 22.4399L9.49506 22.4824ZM9.12747 20.7915L9.32291 20.749L9.29855 20.637L9.18957 20.6014L9.12747 20.7915ZM7.81525 20.2473L7.90588 20.069L7.8036 20.017L7.70709 20.0791L7.81525 20.2473ZM6.35918 21.1834L6.4673 21.3517L6.46733 21.3516L6.35918 21.1834ZM2.8166 17.6408L2.64837 17.5327L2.64835 17.5327L2.8166 17.6408ZM3.75269 16.1848L3.92092 16.2929L3.98296 16.1964L3.93097 16.0941L3.75269 16.1848ZM3.20853 14.8725L3.39864 14.8104L3.36305 14.7014L3.25101 14.6771L3.20853 14.8725ZM1.51764 14.5049L1.47508 14.7004L1.47515 14.7004L1.51764 14.5049ZM1.51764 9.49506L1.47515 9.29962L1.47508 9.29964L1.51764 9.49506ZM3.20853 9.12747L3.25101 9.32291L3.36305 9.29855L3.39864 9.18957L3.20853 9.12747ZM3.75269 7.81525L3.93097 7.90588L3.98296 7.8036L3.92092 7.70709L3.75269 7.81525ZM2.8166 6.35918L2.64835 6.4673L2.64837 6.46733L2.8166 6.35918ZM6.35918 2.8166L6.46733 2.64837L6.4673 2.64835L6.35918 2.8166ZM7.81525 3.75269L7.70709 3.92092L7.8036 3.98296L7.90588 3.93097L7.81525 3.75269ZM9.12747 3.20853L9.18957 3.39864L9.29855 3.36305L9.32291 3.25101L9.12747 3.20853ZM9.49506 1.51764L9.69049 1.56013L9.6905 1.56009L9.49506 1.51764ZM14.5049 1.51764L14.3095 1.56009L14.3095 1.56013L14.5049 1.51764ZM14.8725 3.20853L14.6771 3.25101L14.7014 3.36305L14.8104 3.39864L14.8725 3.20853ZM16.1848 3.75269L16.0941 3.93097L16.1964 3.98296L16.2929 3.92092L16.1848 3.75269ZM17.6408 2.8166L17.5327 2.64835L17.5327 2.64837L17.6408 2.8166ZM21.1834 6.35918L21.3516 6.46733L21.3517 6.4673L21.1834 6.35918ZM20.2473 7.81525L20.0791 7.70709L20.017 7.8036L20.069 7.90588L20.2473 7.81525ZM21.6853 13.3327L21.7277 13.5281L21.8853 13.4939V13.3327H21.6853ZM20.1349 13.6697L20.0924 13.4743L20.0923 13.4743L20.1349 13.6697ZM21.6853 10.6673H21.8853V10.5061L21.7277 10.4719L21.6853 10.6673ZM20.1347 10.3303L20.0921 10.5257L20.0922 10.5257L20.1347 10.3303ZM19.6412 9.86449L19.8339 9.81074L19.8339 9.81073L19.6412 9.86449ZM18.9128 8.10797L18.7386 8.20628L18.7386 8.20631L18.9128 8.10797ZM18.9324 7.42937L19.1006 7.53756L19.1006 7.53751L18.9324 7.42937ZM19.7908 6.09398L19.959 6.20212L20.0462 6.06654L19.9322 5.95256L19.7908 6.09398ZM17.906 4.20906L18.0474 4.06765L17.9335 3.95365L17.7979 4.04083L17.906 4.20906ZM16.5706 5.0676L16.6787 5.23587L16.6788 5.23583L16.5706 5.0676ZM15.892 5.08707L15.9903 4.9129L15.9903 4.91289L15.892 5.08707ZM14.1355 4.35878L14.0818 4.55142L14.0818 4.55143L14.1355 4.35878ZM13.6697 3.86514L13.4743 3.90763L13.4743 3.9077L13.6697 3.86514ZM13.3327 2.31474L13.5281 2.27226L13.4939 2.11474H13.3327V2.31474ZM10.6673 2.31474V2.11474H10.5061L10.4719 2.27226L10.6673 2.31474ZM10.3303 3.86514L10.5257 3.9077L10.5257 3.90763L10.3303 3.86514ZM9.86449 4.35878L9.91819 4.55143L9.91823 4.55142L9.86449 4.35878ZM8.1078 5.08707L8.00953 4.91288L8.00944 4.91293L8.1078 5.08707ZM7.42937 5.0676L7.53756 4.89939L7.53752 4.89936L7.42937 5.0676ZM6.09381 4.20906L6.20196 4.04082L6.06636 3.95366L5.95238 4.06765L6.09381 4.20906ZM4.20906 6.09398L4.06763 5.95256L3.95366 6.06655L4.04083 6.20214L4.20906 6.09398ZM5.0676 7.42937L4.89936 7.53753L4.89939 7.53756L5.0676 7.42937ZM5.08707 8.10797L4.9129 8.00966L4.91289 8.00968L5.08707 8.10797ZM4.35878 9.86449L4.55142 9.91823L4.55143 9.91819L4.35878 9.86449ZM3.86514 10.3303L3.90763 10.5257L3.9077 10.5257L3.86514 10.3303ZM2.31474 10.6673L2.27226 10.4719L2.11474 10.5061V10.6673H2.31474ZM2.31474 13.3327H2.11474V13.4939L2.27226 13.5281L2.31474 13.3327ZM3.86531 13.6697L3.90787 13.4743L3.90779 13.4743L3.86531 13.6697ZM4.35878 14.1355L4.16614 14.1893L4.16614 14.1893L4.35878 14.1355ZM5.08723 15.892L4.91306 15.9903L4.91306 15.9903L5.08723 15.892ZM5.0676 16.5706L4.89939 16.4624L4.89936 16.4625L5.0676 16.5706ZM4.20923 17.906L4.04099 17.7979L3.95384 17.9335L4.0678 18.0474L4.20923 17.906ZM6.09398 19.7909L5.95255 19.9324L6.06654 20.0464L6.20214 19.9592L6.09398 19.7909ZM7.42937 18.9324L7.32127 18.7641L7.32121 18.7642L7.42937 18.9324ZM8.10797 18.9129L8.00966 19.0871L8.00968 19.0871L8.10797 18.9129ZM9.86449 19.6412L9.91823 19.4486L9.91819 19.4486L9.86449 19.6412ZM10.3303 20.1349L10.5257 20.0924L10.5257 20.0923L10.3303 20.1349ZM10.6673 21.6853L10.4719 21.7277L10.5061 21.8853H10.6673V21.6853ZM13.3327 21.6853V21.8853H13.4939L13.5281 21.7277L13.3327 21.6853ZM13.6697 20.1349L13.4743 20.0923L13.4743 20.0924L13.6697 20.1349ZM14.1355 19.6412L14.0818 19.4486L14.0818 19.4486L14.1355 19.6412ZM15.8922 18.9129L15.9905 19.0871L15.9906 19.0871L15.8922 18.9129ZM16.5706 18.9324L16.4624 19.1006L16.4625 19.1006L16.5706 18.9324ZM17.9062 19.7909L17.798 19.9592L17.9336 20.0463L18.0476 19.9324L17.9062 19.7909ZM19.7909 17.906L19.9324 18.0474L20.0463 17.9335L19.9592 17.7979L19.7909 17.906ZM18.9324 16.5706L19.1006 16.4625L19.1006 16.4624L18.9324 16.5706ZM18.9129 15.892L19.0871 15.9903L19.0871 15.9903L18.9129 15.892ZM19.6412 14.1355L19.4486 14.0818L19.4486 14.0818L19.6412 14.1355ZM22.5248 9.29962L20.834 8.93204L20.749 9.32291L22.4399 9.69049L22.5248 9.29962ZM23.2 10.1374C23.2 9.73412 22.9189 9.38544 22.5249 9.29964L22.4398 9.69048C22.6501 9.73627 22.8 9.92234 22.8 10.1374H23.2ZM23.2 13.8626V10.1374H22.8V13.8626H23.2ZM22.5249 14.7004C22.9189 14.6146 23.2 14.2659 23.2 13.8626H22.8C22.8 14.0777 22.6501 14.2637 22.4398 14.3095L22.5249 14.7004ZM20.834 15.068L22.5248 14.7004L22.4399 14.3095L20.749 14.6771L20.834 15.068ZM20.4256 16.2754C20.6453 15.8432 20.8313 15.3946 20.9816 14.9346L20.6014 14.8104C20.4575 15.2508 20.2794 15.6803 20.069 16.0941L20.4256 16.2754ZM21.3516 17.5327L20.4155 16.0766L20.0791 16.2929L21.0152 17.749L21.3516 17.5327ZM21.2367 18.6025C21.5218 18.3174 21.5697 17.872 21.3517 17.5327L21.0151 17.7489C21.1315 17.93 21.1059 18.1677 20.9539 18.3197L21.2367 18.6025ZM18.6025 21.2367L21.2367 18.6025L20.9539 18.3197L18.3197 20.9539L18.6025 21.2367ZM17.5327 21.3517C17.8719 21.5696 18.3174 21.522 18.6026 21.2366L18.3196 20.9539C18.1677 21.106 17.9301 21.1315 17.7489 21.0151L17.5327 21.3517ZM16.0766 20.4155L17.5327 21.3516L17.749 21.0152L16.2929 20.0791L16.0766 20.4155ZM14.9346 20.9816C15.3946 20.8313 15.8432 20.6453 16.2754 20.4256L16.0941 20.069C15.6803 20.2794 15.2508 20.4575 14.8104 20.6014L14.9346 20.9816ZM14.7004 22.5248L15.068 20.834L14.6771 20.749L14.3095 22.4399L14.7004 22.5248ZM13.8626 23.2C14.2658 23.2 14.6148 22.919 14.7004 22.5248L14.3095 22.4399C14.2639 22.65 14.0777 22.8 13.8626 22.8V23.2ZM10.1374 23.2H13.8626V22.8H10.1374V23.2ZM9.29961 22.5248C9.38523 22.919 9.73421 23.2 10.1374 23.2V22.8C9.92226 22.8 9.73614 22.65 9.6905 22.4399L9.29961 22.5248ZM8.93204 20.834L9.29962 22.5248L9.69049 22.4399L9.32291 20.749L8.93204 20.834ZM7.72462 20.4256C8.15675 20.6453 8.60538 20.8313 9.06538 20.9816L9.18957 20.6014C8.74924 20.4575 8.31969 20.2794 7.90588 20.069L7.72462 20.4256ZM6.46733 21.3516L7.9234 20.4155L7.70709 20.0791L6.25102 21.0152L6.46733 21.3516ZM5.39749 21.2367C5.68256 21.5218 6.12801 21.5697 6.4673 21.3517L6.25106 21.0151C6.07002 21.1315 5.83234 21.1059 5.68033 20.9539L5.39749 21.2367ZM2.7633 18.6025L5.39749 21.2367L5.68033 20.9539L3.04615 18.3197L2.7633 18.6025ZM2.64835 17.5327C2.43033 17.872 2.47824 18.3174 2.7633 18.6025L3.04615 18.3197C2.89414 18.1677 2.86853 17.93 2.98486 17.7489L2.64835 17.5327ZM3.58445 16.0766L2.64837 17.5327L2.98484 17.749L3.92092 16.2929L3.58445 16.0766ZM3.01841 14.9346C3.16866 15.3946 3.35473 15.8432 3.5744 16.2754L3.93097 16.0941C3.72062 15.6803 3.54246 15.2508 3.39864 14.8104L3.01841 14.9346ZM1.47515 14.7004L3.16604 15.068L3.25101 14.6771L1.56013 14.3095L1.47515 14.7004ZM0.8 13.8626C0.8 14.2659 1.0811 14.6146 1.47508 14.7004L1.5602 14.3095C1.34993 14.2637 1.2 14.0777 1.2 13.8626H0.8ZM0.8 10.1374V13.8626H1.2V10.1374H0.8ZM1.47508 9.29964C1.0811 9.38544 0.8 9.73412 0.8 10.1374H1.2C1.2 9.92234 1.34993 9.73627 1.5602 9.69048L1.47508 9.29964ZM3.16604 8.93204L1.47515 9.29962L1.56013 9.69049L3.25101 9.32291L3.16604 8.93204ZM3.5744 7.72462C3.35473 8.15675 3.16866 8.60538 3.01841 9.06538L3.39864 9.18957C3.54246 8.74924 3.72062 8.31969 3.93097 7.90588L3.5744 7.72462ZM2.64837 6.46733L3.58445 7.9234L3.92092 7.70709L2.98484 6.25102L2.64837 6.46733ZM2.7633 5.39749C2.47824 5.68256 2.43033 6.12801 2.64835 6.4673L2.98486 6.25106C2.86853 6.07002 2.89414 5.83234 3.04615 5.68033L2.7633 5.39749ZM5.39749 2.7633L2.7633 5.39749L3.04615 5.68033L5.68033 3.04615L5.39749 2.7633ZM6.4673 2.64835C6.12801 2.43033 5.68256 2.47824 5.39749 2.7633L5.68033 3.04615C5.83234 2.89414 6.07002 2.86853 6.25106 2.98486L6.4673 2.64835ZM7.9234 3.58445L6.46733 2.64837L6.25102 2.98484L7.70709 3.92092L7.9234 3.58445ZM9.06538 3.01841C8.60538 3.16866 8.15675 3.35473 7.72462 3.5744L7.90588 3.93097C8.31969 3.72062 8.74924 3.54246 9.18957 3.39864L9.06538 3.01841ZM9.29962 1.47515L8.93204 3.16604L9.32291 3.25101L9.69049 1.56013L9.29962 1.47515ZM10.1374 0.8C9.73421 0.8 9.38523 1.08104 9.29961 1.47518L9.6905 1.56009C9.73614 1.34999 9.92226 1.2 10.1374 1.2V0.8ZM13.8626 0.8H10.1374V1.2H13.8626V0.8ZM14.7004 1.47518C14.6148 1.08104 14.2658 0.8 13.8626 0.8V1.2C14.0777 1.2 14.2639 1.34999 14.3095 1.56009L14.7004 1.47518ZM15.068 3.16604L14.7004 1.47515L14.3095 1.56013L14.6771 3.25101L15.068 3.16604ZM16.2754 3.5744C15.8432 3.35473 15.3946 3.16866 14.9346 3.01841L14.8104 3.39864C15.2508 3.54246 15.6803 3.72062 16.0941 3.93097L16.2754 3.5744ZM17.5327 2.64837L16.0766 3.58445L16.2929 3.92092L17.749 2.98484L17.5327 2.64837ZM18.6025 2.7633C18.3174 2.47824 17.872 2.43033 17.5327 2.64835L17.7489 2.98486C17.93 2.86853 18.1677 2.89414 18.3197 3.04615L18.6025 2.7633ZM21.2367 5.39749L18.6025 2.7633L18.3197 3.04615L20.9539 5.68033L21.2367 5.39749ZM21.3517 6.4673C21.5697 6.12801 21.5218 5.68256 21.2367 5.39749L20.9539 5.68033C21.1059 5.83234 21.1315 6.07002 21.0151 6.25106L21.3517 6.4673ZM20.4155 7.9234L21.3516 6.46733L21.0152 6.25102L20.0791 7.70709L20.4155 7.9234ZM20.9816 9.06538C20.8313 8.60538 20.6453 8.15675 20.4256 7.72462L20.069 7.90588C20.2794 8.31969 20.4575 8.74924 20.6014 9.18957L20.9816 9.06538ZM21.6428 13.1373L20.0924 13.4743L20.1773 13.8652L21.7277 13.5281L21.6428 13.1373ZM21.4853 10.6673V13.3327H21.8853V10.6673H21.4853ZM20.0922 10.5257L21.6428 10.8627L21.7277 10.4719L20.1772 10.1348L20.0922 10.5257ZM19.4486 9.91823C19.5339 10.2243 19.7815 10.458 20.0921 10.5257L20.1772 10.1348C20.0115 10.0987 19.8794 9.97401 19.8339 9.81074L19.4486 9.91823ZM18.7386 8.20631C19.0437 8.74664 19.2824 9.32266 19.4486 9.91824L19.8339 9.81073C19.659 9.18405 19.4079 8.5781 19.0869 8.00964L18.7386 8.20631ZM18.7642 7.32117C18.5921 7.58867 18.5823 7.92933 18.7386 8.20628L19.0869 8.00966C19.0036 7.86197 19.0088 7.68028 19.1006 7.53756L18.7642 7.32117ZM19.6225 5.98584L18.7642 7.32122L19.1006 7.53751L19.959 6.20212L19.6225 5.98584ZM17.7646 4.35048L19.6493 6.23539L19.9322 5.95256L18.0474 4.06765L17.7646 4.35048ZM16.6788 5.23583L18.0142 4.37729L17.7979 4.04083L16.4625 4.89936L16.6788 5.23583ZM15.7937 5.26124C16.0707 5.41755 16.4113 5.40768 16.6787 5.23587L16.4625 4.89932C16.3198 4.99104 16.138 4.99626 15.9903 4.9129L15.7937 5.26124ZM14.0818 4.55143C14.6773 4.71745 15.2533 4.95628 15.7937 5.26124L15.9903 4.91289C15.4219 4.59212 14.816 4.34084 14.1892 4.16613L14.0818 4.55143ZM13.4743 3.9077C13.5419 4.21822 13.7757 4.46603 14.0818 4.55142L14.1893 4.16614C14.0261 4.12061 13.9013 3.98842 13.8652 3.82259L13.4743 3.9077ZM13.1373 2.35723L13.4743 3.90763L13.8652 3.82266L13.5281 2.27226L13.1373 2.35723ZM10.6673 2.51474H13.3327V2.11474H10.6673V2.51474ZM10.5257 3.90763L10.8627 2.35723L10.4719 2.27226L10.1348 3.82266L10.5257 3.90763ZM9.91823 4.55142C10.2243 4.46603 10.4581 4.21822 10.5257 3.9077L10.1348 3.82259C10.0987 3.98842 9.97394 4.12061 9.81074 4.16614L9.91823 4.55142ZM8.20608 5.26126C8.74665 4.95629 9.32268 4.71745 9.91819 4.55143L9.81078 4.16613C9.18404 4.34084 8.57809 4.59211 8.00953 4.91288L8.20608 5.26126ZM7.32117 5.23581C7.58873 5.4079 7.92942 5.41753 8.20617 5.2612L8.00944 4.91293C7.86187 4.99629 7.68022 4.99115 7.53756 4.89939L7.32117 5.23581ZM5.98566 4.3773L7.32122 5.23583L7.53752 4.89936L6.20196 4.04082L5.98566 4.3773ZM4.35049 6.23539L6.23524 4.35048L5.95238 4.06765L4.06763 5.95256L4.35049 6.23539ZM5.23583 7.32121L4.37729 5.98582L4.04083 6.20214L4.89936 7.53753L5.23583 7.32121ZM5.26124 8.20628C5.4175 7.92942 5.40792 7.58876 5.23581 7.32117L4.89939 7.53756C4.99113 7.68019 4.99632 7.86187 4.9129 8.00966L5.26124 8.20628ZM4.55143 9.91819C4.71745 9.32268 4.95628 8.74665 5.26124 8.20627L4.91289 8.00968C4.59212 8.57808 4.34084 9.18404 4.16613 9.81078L4.55143 9.91819ZM3.9077 10.5257C4.21822 10.4581 4.46603 10.2243 4.55142 9.91823L4.16614 9.81074C4.12061 9.97394 3.98842 10.0987 3.82259 10.1348L3.9077 10.5257ZM2.35723 10.8627L3.90763 10.5257L3.82266 10.1348L2.27226 10.4719L2.35723 10.8627ZM2.51474 13.3327V10.6673H2.11474V13.3327H2.51474ZM3.90779 13.4743L2.35722 13.1373L2.27226 13.5281L3.82283 13.8652L3.90779 13.4743ZM4.55142 14.0818C4.46605 13.7757 4.21846 13.542 3.90787 13.4743L3.82276 13.8652C3.98851 13.9013 4.12059 14.026 4.16614 14.1893L4.55142 14.0818ZM5.26141 15.7937C4.95645 15.2533 4.71761 14.6773 4.55142 14.0818L4.16614 14.1893C4.34102 14.816 4.59228 15.4219 4.91306 15.9903L5.26141 15.7937ZM5.23581 16.6788C5.40786 16.4113 5.41773 16.0707 5.26141 15.7937L4.91306 15.9903C4.99643 16.138 4.99119 16.3197 4.89939 16.4624L5.23581 16.6788ZM4.37747 18.0142L5.23584 16.6788L4.89936 16.4625L4.04099 17.7979L4.37747 18.0142ZM6.23541 19.6495L4.35066 17.7646L4.0678 18.0474L5.95255 19.9324L6.23541 19.6495ZM7.32121 18.7642L5.98582 19.6227L6.20214 19.9592L7.53753 19.1006L7.32121 18.7642ZM8.20628 18.7388C7.92933 18.5824 7.58872 18.5923 7.32127 18.7641L7.53746 19.1007C7.68023 19.009 7.86196 19.0037 8.00966 19.0871L8.20628 18.7388ZM9.91819 19.4486C9.32268 19.2826 8.74665 19.0437 8.20627 18.7388L8.00968 19.0871C8.57808 19.4079 9.18404 19.6592 9.81078 19.8339L9.91819 19.4486ZM10.5257 20.0923C10.4581 19.7818 10.2243 19.534 9.91823 19.4486L9.81074 19.8339C9.97394 19.8794 10.0987 20.0116 10.1348 20.1774L10.5257 20.0923ZM10.8627 21.6428L10.5257 20.0924L10.1348 20.1773L10.4719 21.7277L10.8627 21.6428ZM13.3327 21.4853H10.6673V21.8853H13.3327V21.4853ZM13.4743 20.0924L13.1373 21.6428L13.5281 21.7277L13.8652 20.1773L13.4743 20.0924ZM14.0818 19.4486C13.7757 19.534 13.5419 19.7818 13.4743 20.0923L13.8652 20.1774C13.9013 20.0116 14.0261 19.8794 14.1893 19.8339L14.0818 19.4486ZM15.7939 18.7387C15.2534 19.0437 14.6773 19.2826 14.0818 19.4486L14.1892 19.8339C14.816 19.6592 15.4219 19.4079 15.9905 19.0871L15.7939 18.7387ZM16.6788 18.7642C16.4113 18.5921 16.0706 18.5825 15.7938 18.7388L15.9906 19.0871C16.1381 19.0037 16.3198 19.0089 16.4624 19.1006L16.6788 18.7642ZM18.0143 19.6227L16.6788 18.7642L16.4625 19.1006L17.798 19.9592L18.0143 19.6227ZM19.6495 17.7646L17.7648 19.6495L18.0476 19.9324L19.9324 18.0474L19.6495 17.7646ZM18.7642 16.6788L19.6227 18.0142L19.9592 17.7979L19.1006 16.4625L18.7642 16.6788ZM18.7388 15.7937C18.5825 16.0706 18.5921 16.4112 18.7642 16.6788L19.1006 16.4624C19.0089 16.3198 19.0037 16.1381 19.0871 15.9903L18.7388 15.7937ZM19.4486 14.0818C19.2826 14.6773 19.0437 15.2533 18.7388 15.7937L19.0871 15.9903C19.4079 15.4219 19.6592 14.816 19.8339 14.1892L19.4486 14.0818ZM20.0923 13.4743C19.7818 13.5419 19.534 13.7757 19.4486 14.0818L19.8339 14.1893C19.8794 14.0261 20.0116 13.9013 20.1774 13.8652L20.0923 13.4743ZM12 6.8C9.13262 6.8 6.8 9.13262 6.8 12H7.2C7.2 9.35353 9.35353 7.2 12 7.2V6.8ZM17.2 12C17.2 9.13262 14.8674 6.8 12 6.8V7.2C14.6465 7.2 16.8 9.35353 16.8 12H17.2ZM12 17.2C14.8674 17.2 17.2 14.8674 17.2 12H16.8C16.8 14.6465 14.6465 16.8 12 16.8V17.2ZM6.8 12C6.8 14.8674 9.13262 17.2 12 17.2V16.8C9.35353 16.8 7.2 14.6465 7.2 12H6.8ZM12 15.55C10.0428 15.55 8.45 13.9572 8.45 12H8.05C8.05 14.1782 9.82185 15.95 12 15.95V15.55ZM15.55 12C15.55 13.9572 13.9572 15.55 12 15.55V15.95C14.1782 15.95 15.95 14.1782 15.95 12H15.55ZM12 8.45C13.9572 8.45 15.55 10.0428 15.55 12H15.95C15.95 9.82185 14.1782 8.05 12 8.05V8.45ZM8.45 12C8.45 10.0428 10.0428 8.45 12 8.45V8.05C9.82185 8.05 8.05 9.82185 8.05 12H8.45Z" fill="#4F647A" mask="url(#path-1-outside-1)"/>
</svg>
