<svg width="20" height="20" viewBox="0 0 20 20" fill="none" xmlns="http://www.w3.org/2000/svg">
<g clip-path="url(#clip0)">
<path d="M10.4685 2.38631C10.4816 2.38631 10.4944 2.38623 10.5075 2.38623C12.4114 2.38623 14.1955 3.12233 15.5343 4.46116C16.8842 5.81104 17.6226 7.61031 17.6134 9.52746C17.6114 9.9589 17.9595 10.3104 18.391 10.3124C18.3923 10.3124 18.3935 10.3124 18.3948 10.3124C18.8244 10.3124 19.1738 9.96508 19.1759 9.53488C19.187 7.19749 18.2861 5.00327 16.6392 3.35627C15.005 1.72209 12.8291 0.82373 10.5078 0.82373C10.4935 0.82373 10.4791 0.823769 10.4648 0.823809C10.0334 0.825879 9.68526 1.17732 9.6873 1.60877C9.68937 2.03897 10.0387 2.38631 10.4685 2.38631Z" fill="black"/>
<path d="M19.9982 16.1161C19.9703 15.3425 19.6481 14.6205 19.0908 14.0832C17.9998 13.0311 17.0857 12.4238 16.214 12.1719C15.0129 11.8248 13.9005 12.1405 12.9077 13.11C12.9063 13.1115 12.9047 13.113 12.9032 13.1144L11.846 14.1639C11.1893 13.7949 9.91273 12.9831 8.51652 11.5869L8.41371 11.4841C7.02667 10.0971 6.20968 8.8133 5.83796 8.15392L6.88636 7.09763C6.88785 7.09615 6.88929 7.09466 6.89078 7.09314C7.86035 6.1004 8.17601 4.98798 7.8289 3.78688C7.57703 2.91528 6.96972 2.00114 5.91761 0.91008C5.3803 0.352852 4.65835 0.0305861 3.88479 0.00269541C3.11139 -0.0251562 2.36791 0.244141 1.79178 0.76133L1.76936 0.781486C1.75893 0.790822 1.74877 0.80047 1.73889 0.810353C0.592013 1.95715 -0.00916025 3.5627 0.000292894 5.45337C0.0163086 8.6651 1.78151 12.3381 4.72214 15.2787C4.7246 15.2812 4.72702 15.2835 4.72948 15.286C5.2823 15.838 5.90995 16.3843 6.59519 16.9097C6.93757 17.1722 7.42796 17.1075 7.69054 16.7651C7.95308 16.4227 7.88836 15.9323 7.54593 15.6697C6.91171 15.1835 6.33339 14.6801 5.82702 14.1738C5.8246 14.1714 5.82218 14.1689 5.81972 14.1666C3.16796 11.5118 1.57678 8.25224 1.56276 5.44552C1.55549 3.98942 1.9935 2.77407 2.8296 1.92934L2.83557 1.92395C3.40346 1.41426 4.26323 1.44528 4.79292 1.99457C6.81562 4.09216 6.66913 5.08243 5.77538 5.99892L4.32718 7.45802C4.10007 7.68685 4.03682 8.0317 4.168 8.32623C4.20475 8.40881 5.09413 10.3742 7.30918 12.5892L7.41199 12.6919C9.62676 14.9067 11.5921 15.796 11.6747 15.8328C11.9692 15.9641 12.3141 15.9008 12.5429 15.6737L14.0017 14.2257C14.9184 13.3318 15.9087 13.1851 18.0063 15.2079C18.5556 15.7376 18.5867 16.5974 18.077 17.1652L18.0715 17.1713C17.2336 18.0005 16.0313 18.4382 14.591 18.4382C14.5792 18.4382 14.5672 18.4382 14.5554 18.4381C13.4041 18.4324 12.0711 18.1168 10.7003 17.5255C10.3041 17.3546 9.84441 17.5373 9.67352 17.9335C9.50262 18.3296 9.68527 18.7894 10.0814 18.9603C11.6659 19.6437 13.1685 19.9937 14.5475 20.0006C14.5622 20.0007 14.5768 20.0007 14.5914 20.0007C16.463 20.0007 18.0526 19.4 19.1905 18.262C19.2004 18.2521 19.2101 18.242 19.2194 18.2316L19.2397 18.209C19.7567 17.633 20.0261 16.8897 19.9982 16.1161Z" fill="black"/>
<path d="M14.4319 5.56838C13.5939 4.73033 12.7896 4.50795 12.403 4.40103C11.987 4.28599 11.5568 4.5299 11.4418 4.9458C11.3268 5.36166 11.5707 5.79201 11.9866 5.90701C12.3026 5.99443 12.7803 6.12654 13.327 6.67322C13.8533 7.19951 13.9931 7.67463 14.0857 7.98904L14.0969 8.02728C14.1975 8.36701 14.5086 8.58701 14.8457 8.58701C14.9192 8.58705 14.9939 8.57658 15.0678 8.55467C15.4816 8.43221 15.7177 7.99752 15.5952 7.58381L15.5846 7.54795C15.4641 7.13849 15.2398 6.37631 14.4319 5.56838Z" fill="black"/>
</g>
<defs>
<clipPath id="clip0">
<rect width="20" height="20" fill="white"/>
</clipPath>
</defs>
</svg>
