<svg width="258" height="56" viewBox="0 0 258 56" fill="none" xmlns="http://www.w3.org/2000/svg">
<path d="M6.052 39.136C6.8 38.796 7.548 37.64 7.684 36.62C7.752 36.28 7.888 35.668 8.024 35.328C8.228 34.648 8.5 33.152 8.636 31.86C8.636 31.384 8.772 30.772 8.84 30.432C8.908 30.16 9.044 29.276 9.044 28.528C9.112 27.78 9.18 26.964 9.248 26.692C9.452 25.672 9.452 24.584 9.248 23.02L9.044 21.524C9.18 21.252 9.452 20.436 9.452 20.164C9.452 19.96 9.792 18.872 10.268 17.648L10.472 17.104C10.472 16.9 11.22 15.88 11.492 15.268C11.832 14.656 12.444 13.636 12.852 13.092C13.26 12.616 14.756 11.256 15.164 11.052C15.436 10.984 15.64 11.052 15.776 11.46C15.98 11.936 16.116 13.432 16.116 14.588C16.116 15.404 16.184 15.88 16.252 16.22C16.456 16.764 16.456 17.648 16.252 18.124C16.116 18.6 15.3 20.3 14.892 21.252C14.62 21.864 13.736 22.544 12.58 23.088C11.832 23.428 11.696 23.428 11.356 23.02C11.288 22.884 11.084 22.68 10.88 22.68C10.472 22.544 10.472 22.544 10.268 22.748C10.064 22.952 10.064 23.02 10.064 23.7C10.064 24.38 10.064 24.448 10.336 24.856C10.744 25.4 11.424 25.74 12.308 25.74C13.056 25.808 14.348 25.604 14.756 25.468C15.368 25.264 15.98 25.672 17.408 24.72C18.632 23.904 20.536 21.932 21.08 20.912L21.624 19.96C21.828 19.688 22.032 19.212 22.1 18.872L22.576 17.172C22.916 16.152 22.916 16.084 22.916 14.248C22.984 12.004 22.916 11.664 22.304 10.576C22.1 10.168 21.828 9.556 21.76 9.148C21.488 8.196 21.148 7.652 20.332 6.904C19.176 5.884 18.768 5.68 17.272 5.544C16.388 5.408 15.708 5.612 15.096 6.156C14.008 7.108 13.396 7.04 12.852 8.332C12.716 8.536 12.444 8.944 12.24 9.148C11.9 9.488 11.764 9.76 11.628 10.236C11.492 10.576 11.288 11.052 11.152 11.256C10.744 11.8 10.132 13.092 10.064 13.5C9.996 13.84 9.452 14.656 9.248 14.724C9.18 14.792 9.18 14.656 9.18 14.248C9.18 13.976 9.112 13.5 8.976 13.092C8.908 12.684 8.772 12.004 8.704 11.46C8.636 10.984 8.5 10.168 8.364 9.76C8.228 9.216 8.092 8.468 8.024 7.788C8.024 7.108 7.888 6.632 7.82 6.428C7.548 5.884 6.664 4.524 6.392 4.252C5.848 3.708 5.032 3.572 4.216 3.844C3.74 3.98 3.06 4.728 2.856 5.272C2.788 5.544 2.516 6.224 2.244 6.836L1.7 7.924C1.7 8.74 1.564 10.848 1.496 11.596C1.428 12.004 1.36 12.616 1.36 13.024C1.36 13.568 1.292 14.044 1.088 14.792C0.68 16.084 0.612 16.968 0.816 17.988C1.088 19.348 0.884 20.844 1.02 26.148C1.02 27.576 1.088 27.712 1.292 28.324C1.564 28.936 1.564 29.072 1.496 29.752C1.496 30.296 1.496 30.704 1.632 31.18C1.7 31.52 1.768 32.2 1.768 32.744C1.836 33.22 1.904 33.832 1.904 34.036L2.176 35.192C2.244 35.804 2.38 36.144 2.652 36.62C3.196 37.64 3.604 38.524 3.808 38.728C4.284 39.272 5.304 39.408 6.052 39.136ZM28.2662 36.28C29.0822 36.212 29.6942 35.804 30.0342 35.124C30.8502 33.492 31.0542 33.016 31.0542 32.88L31.1902 31.86C31.3262 31.452 31.4622 30.636 31.4622 30.092C31.5302 29.412 31.5982 29.004 31.8022 28.596C32.0742 27.984 32.0742 27.984 32.1422 25.876V23.768C32.3462 23.428 32.6182 23.02 33.0262 22.136C33.2302 21.796 33.5702 21.116 33.8422 20.776C34.3182 20.096 35.4742 18.872 35.6102 18.872C35.6782 18.872 35.8822 18.804 36.0182 18.736C36.2902 18.464 37.3782 18.056 37.8542 17.988C38.0582 17.988 38.3982 17.852 38.6702 17.716C39.1462 17.444 39.2142 17.444 40.1662 17.512C41.1862 17.58 41.2542 17.58 41.5942 17.376C42.0022 17.104 42.2062 16.832 42.2062 16.356C42.2062 15.812 41.7982 15.472 40.9142 15.132C40.3702 14.928 40.1662 14.928 38.9422 14.928C36.0182 14.928 36.0182 15.676 34.7942 16.22C34.2502 16.56 33.5702 17.172 32.8222 18.056C32.4822 18.464 32.2102 18.804 32.2102 18.736C32.0742 18.668 31.9382 17.92 31.8702 16.9C31.8022 16.016 31.7342 15.744 31.5302 15.336C31.2582 14.656 30.1702 13.568 29.6262 13.296C29.0822 13.024 28.3342 12.956 27.8582 13.024C26.8382 13.296 26.1582 14.044 25.5462 15.472C25.0022 16.832 24.4582 18.532 24.4582 18.94L24.5262 20.572C24.6622 21.796 24.6622 21.864 24.4582 22.68C24.0502 24.38 24.3902 24.244 24.6622 27.984C24.6622 29.072 24.7982 30.024 24.9342 30.5C25.0022 30.908 25.1382 31.52 25.1382 31.86C25.3422 33.832 25.6822 34.648 26.4302 35.464C27.0422 36.076 27.5182 36.28 28.2662 36.28ZM49.2357 37.164C49.7117 37.164 50.3917 37.096 50.6637 37.028L51.4797 36.892C51.8877 36.824 52.8397 36.28 53.3837 35.804C53.9957 35.328 54.8797 34.104 55.4237 33.22C56.5117 31.18 56.3757 30.636 57.0557 28.936C57.1917 28.528 57.3277 27.984 57.3957 27.644L57.5997 26.488C57.7357 25.876 57.8037 24.584 57.7357 22.952C57.7357 22.136 57.2597 20.232 56.8517 19.552C56.7157 19.212 56.5797 18.94 56.5797 18.872C56.5797 18.804 56.4437 18.464 56.2397 18.056C55.7637 17.036 54.5397 16.152 53.4517 15.812C53.3157 15.812 53.1797 15.676 53.1117 15.54C52.7717 14.656 52.6357 14.452 52.0237 13.976L51.0037 13.228C50.4597 13.024 49.6437 13.024 48.7597 13.296L47.4677 13.636C46.9237 13.772 46.7197 13.908 46.3117 14.316C45.2917 15.336 44.5437 16.288 44.2037 17.036C43.9997 17.444 43.5917 18.056 43.3877 18.396C42.6397 19.348 42.1637 20.232 41.8917 21.116C41.6197 21.796 41.6197 22 41.5517 23.7C41.4837 26.148 41.6197 25.876 41.9597 28.732L42.1637 30.296C42.2317 31.044 42.9797 31.792 44.2037 33.9C45.4957 35.94 45.9037 36.348 47.3997 36.824C48.2157 37.096 48.4877 37.164 49.2357 37.164ZM50.7317 32.744C50.5957 32.744 50.3237 32.54 50.1197 32.268L49.7117 31.86L49.5077 30.5C49.4397 29.616 49.3717 28.732 49.3717 27.916C49.3717 27.168 49.3717 26.352 49.3037 25.944C49.2357 25.332 49.2357 25.128 49.5077 24.516C49.6437 24.176 49.7797 23.428 49.8477 23.02C50.0517 22 50.1877 21.66 50.6637 20.912C51.0717 20.232 51.3437 19.552 51.4797 18.804C51.5477 17.92 51.6837 17.92 52.0237 18.668L52.4317 19.552C52.9077 20.3 53.3837 21.388 53.3837 21.524L53.6557 22.748C53.9277 23.7 53.9277 23.972 53.9277 24.992C53.8597 25.672 53.9277 26.352 53.9277 26.556C53.9957 26.692 53.9277 27.168 53.8597 27.644L53.5877 28.868C53.5877 29.072 53.5197 29.412 53.3837 29.548L53.1117 30.432C52.9757 30.908 52.7717 31.18 52.4317 31.52C52.2277 31.792 51.9557 32.064 51.8877 32.2C51.7517 32.472 51.0037 32.812 50.7317 32.744ZM78.855 39.408C79.739 39.34 79.739 39.34 81.507 38.388C81.915 38.184 82.255 37.912 82.459 37.64C83.003 36.96 83.615 36.416 83.955 35.872L84.431 35.328C84.635 35.056 85.587 33.424 86.063 32.54C86.335 31.928 86.743 30.908 86.743 30.704C86.743 30.296 87.287 28.8 88.239 26.556C88.579 25.808 88.647 25.264 88.443 25.196C88.239 25.128 87.899 25.468 87.559 26.148C87.083 27.032 86.471 27.984 86.471 28.188C86.403 28.324 85.995 29.004 85.179 30.16L84.567 31.316C84.431 31.588 84.227 31.928 84.091 32.064C83.819 32.404 83.343 33.22 83.139 33.832C83.003 34.036 82.663 34.58 82.187 35.056C81.847 35.532 81.439 36.008 81.371 36.144C81.099 36.62 79.331 37.708 78.855 37.708C78.651 37.708 78.107 37.3 78.107 37.164C78.107 37.096 77.631 36.348 77.495 36.144V34.036L77.563 31.112C77.767 27.44 77.767 26.692 77.971 25.876C78.107 25.332 78.243 24.516 78.243 23.972C78.311 23.428 78.379 22.816 78.515 22.544C78.583 22.204 78.651 21.796 78.651 21.184C78.583 20.028 78.787 17.988 78.991 17.308C79.059 17.036 79.195 16.628 79.331 16.356C79.535 16.016 79.535 15.88 79.535 14.452C79.535 12.412 79.671 11.936 80.079 8.876L80.215 7.448C80.487 5.884 79.807 5.476 79.331 4.32C79.127 3.776 78.583 3.164 78.107 2.96C77.699 2.756 76.747 2.756 76.271 2.96C75.863 3.096 75.387 3.572 75.115 4.116L74.503 5.136C74.027 5.816 74.027 6.02 73.687 7.584C73.551 8.264 73.347 9.148 73.211 9.556C72.939 10.236 72.803 11.188 72.667 13.228L72.531 14.18C72.463 14.248 72.191 14.316 71.919 14.316C71.579 14.316 71.171 14.384 70.899 14.52C70.627 14.588 70.151 14.724 69.743 14.724C68.995 14.86 68.315 15.132 67.771 15.608L66.819 16.356C66.479 16.492 66.071 16.9 65.799 17.24C65.527 17.512 65.051 17.92 64.711 18.192C64.303 18.532 63.963 18.872 63.623 19.348C63.419 19.756 62.943 20.3 62.671 20.572C61.991 21.32 61.583 22.272 61.447 23.36L61.175 24.924C61.039 25.808 61.243 28.324 61.515 29.072C62.059 30.364 61.583 30.772 63.011 32.064C63.827 32.744 63.895 32.812 64.983 33.152C66.207 33.492 66.751 33.492 67.499 33.084C67.907 32.88 68.315 32.54 68.519 32.404C68.723 32.2 68.995 31.996 69.131 31.928C69.267 31.86 69.539 31.52 69.743 31.18L70.627 29.82C71.171 29.072 72.055 27.508 72.327 26.828C72.395 26.556 72.531 26.42 72.531 26.42C72.599 26.42 72.667 27.1 72.667 27.848C72.803 30.84 73.143 33.152 73.551 34.104C73.687 34.444 73.891 34.852 73.959 35.124L74.503 36.416C74.911 37.164 75.183 37.436 75.795 38.048C77.087 39.272 77.495 39.476 78.855 39.408ZM67.159 30.5L67.091 30.16C66.955 29.276 67.023 28.732 67.567 27.712L68.451 26.216C68.723 25.944 69.131 25.128 69.403 24.516C69.947 23.36 70.831 22.204 71.851 21.116C72.395 20.504 72.599 20.436 72.599 20.776C72.599 21.116 72.259 22.136 71.987 22.748C71.851 23.02 71.783 23.292 71.783 23.36C71.783 23.428 71.647 23.7 71.511 23.904L70.491 25.876C69.471 27.916 68.315 29.752 67.567 30.228L67.159 30.5ZM91.9126 39.544C92.3886 39.68 92.5246 39.68 93.4766 39.544C94.1566 39.476 94.6326 39.34 94.9726 39.136C95.4486 38.932 96.2646 38.048 96.5366 37.504L96.9446 36.824C97.0806 36.688 97.3526 36.212 97.5566 35.804C98.1686 34.376 98.1006 34.988 99.5966 31.724L100.277 30.16C100.617 29.548 100.685 29.48 100.685 29.684C100.685 30.16 100.889 30.84 101.229 31.248C101.433 31.52 101.569 31.928 101.637 32.336C101.773 32.676 101.909 33.152 101.977 33.424L102.385 34.512C102.725 35.532 104.221 37.028 105.173 37.232C105.717 37.368 106.193 37.232 107.281 36.552C108.641 35.668 109.865 34.58 110.409 33.764L111.293 32.404L111.769 31.52C111.837 31.316 112.041 30.976 112.177 30.704C112.381 30.5 112.517 30.228 112.517 30.092C112.517 30.024 112.653 29.616 112.925 29.208C113.809 27.44 113.945 27.236 114.081 26.76C114.421 25.808 114.285 25.332 113.741 25.332C113.401 25.332 112.993 25.808 111.973 27.304C111.157 28.664 110.817 29.14 110.205 29.82C110.001 30.024 109.729 30.432 109.661 30.636C109.593 30.84 109.389 31.18 109.185 31.316C108.981 31.52 108.709 31.928 108.505 32.268C108.233 32.608 107.893 32.948 107.621 33.084L106.873 33.628C106.465 33.968 106.193 33.9 105.921 33.628C105.717 33.356 105.717 33.288 105.785 32.404L105.921 30.636C105.921 30.16 105.989 29.684 105.989 29.548C106.057 29.344 106.125 28.936 106.193 28.596C106.193 28.188 106.329 27.576 106.465 27.168C106.601 26.692 106.669 26.08 106.737 25.672C106.873 23.904 107.077 24.244 107.009 22.068C106.873 20.776 106.873 20.64 106.533 20.028C105.853 18.532 105.309 17.988 104.561 17.784C103.881 17.648 103.201 17.92 102.317 18.872C101.365 19.756 101.161 20.3 101.093 22.136C101.025 23.02 100.957 23.428 100.821 23.836C100.685 24.108 100.549 24.652 100.413 24.992C100.141 26.148 100.073 26.352 99.8006 26.896C99.6646 27.168 99.5286 27.508 99.5286 27.576C99.5286 27.644 99.3926 27.984 99.1886 28.324C98.9846 28.664 98.7806 29.072 98.7806 29.14C98.7806 29.276 98.6446 29.616 98.4406 29.956C97.6926 31.044 97.4206 31.588 97.0126 32.268C96.5366 33.152 95.3806 34.376 95.2446 34.172C95.0406 33.9 95.0406 33.016 95.2446 32.472C95.3126 32.268 95.5846 30.364 95.7206 29.072C95.7886 28.8 95.9246 28.188 95.9926 27.712C96.1286 27.236 96.2646 26.284 96.3326 25.672C96.4006 24.788 96.4686 24.38 96.6726 23.836C97.2166 22.408 97.3526 21.456 97.0126 20.232C96.8766 19.892 96.8086 19.28 96.8086 19.008C96.8086 18.26 96.5366 17.58 96.0606 17.172C95.4486 16.628 95.1766 16.56 94.2246 16.492C93.4766 16.492 93.3406 16.492 92.8646 16.696C91.9126 17.172 90.8246 18.328 90.1446 19.62C89.8046 20.164 89.7366 20.436 89.1926 23.02C89.0566 23.564 88.8526 24.176 88.7166 24.448C88.2406 25.332 88.1726 25.672 88.1046 26.896L87.9006 28.8C87.9006 29.412 87.9006 30.024 88.0366 30.84C88.3766 33.968 88.2406 34.444 88.9206 35.532C89.0566 35.804 89.3286 36.28 89.3966 36.62C89.6686 37.232 90.6886 38.728 91.1646 39.204C91.3006 39.34 91.6406 39.476 91.9126 39.544ZM121.028 44.78C122.184 44.644 123.408 44.032 125.176 42.808C125.788 42.4 126.128 42.06 126.4 41.652C126.604 41.312 126.876 40.904 127.012 40.768C127.352 40.496 127.896 39.34 128.1 38.592C128.236 38.252 128.372 37.708 128.576 37.368C128.712 37.028 128.916 36.348 128.984 35.94C129.12 35.464 129.256 35.056 129.256 34.92C129.392 34.784 129.868 33.288 130.276 31.928C130.616 30.908 130.684 30.636 130.752 30.704C130.888 30.84 131.364 32.472 131.364 32.812C131.364 33.084 131.5 33.628 131.636 34.036L131.908 34.988C131.908 35.464 132.18 36.212 132.588 36.62L133.404 37.708C134.288 38.796 134.9 39.068 136.328 39.068C137.076 39.068 138.096 38.864 138.368 38.66L139.252 38.252C139.932 37.98 140.204 37.844 140.884 37.164C142.448 35.532 143.196 34.512 143.604 33.56C143.808 32.948 144.216 32.132 144.896 30.908L145.032 30.432C145.032 30.16 145.508 28.936 145.712 28.664C145.848 28.528 145.984 28.12 146.12 27.78C146.188 27.508 146.392 27.168 146.46 27.032C146.664 26.828 146.8 26.556 146.868 26.216C146.936 25.876 146.664 25.536 146.256 25.536C145.984 25.536 145.236 26.216 144.76 26.828C144.012 27.984 143.808 28.256 143.196 29.072C142.788 29.548 142.312 30.228 142.108 30.636C141.768 31.384 141.156 32.336 140.816 32.608C140.68 32.744 140.476 33.016 140.34 33.288C140 33.968 138.776 35.192 138.164 35.464C137.892 35.6 137.552 35.736 137.416 35.872C137.008 36.144 136.804 36.008 136.668 35.532C136.6 35.328 136.464 34.852 136.328 34.58C136.056 34.036 135.988 33.9 135.92 32.268C135.852 31.18 135.784 30.364 135.648 30.092C135.512 29.752 135.512 29.548 135.58 29.14C135.648 28.8 135.648 28.46 135.58 28.12C135.444 27.372 135.58 25.196 135.784 24.516C135.92 24.244 135.988 23.768 135.988 23.496C135.988 23.156 136.056 22.816 136.26 22.476C136.6 21.864 136.804 20.98 136.804 20.3C136.804 20.028 136.872 19.552 137.008 19.212C137.212 18.6 137.212 18.464 137.144 17.104C137.076 15.744 137.076 15.608 137.348 14.792L137.552 13.908L138.096 13.772C138.368 13.704 138.912 13.568 139.388 13.568C140.544 13.432 141.428 13.228 142.584 12.684C143.604 12.208 143.604 12.208 144.08 11.46C144.556 10.78 144.556 10.712 144.624 9.76C144.624 8.876 144.624 8.808 144.42 8.468C144.012 7.924 143.672 7.72 143.128 7.72C142.516 7.72 142.176 7.992 141.972 8.672C141.632 9.556 141.292 9.896 140.476 10.304C139.932 10.576 139.592 10.644 138.844 10.712L137.892 10.78C137.892 10.712 137.892 10.44 137.824 10.1L137.688 9.012C137.62 8.604 137.62 8.468 137.824 7.992C138.028 7.244 138.028 6.564 137.824 5.408L137.552 4.388L137.824 3.708C138.096 2.62 137.892 1.872 137.144 1.056C136.464 0.239996 135.58 -0.0320001 134.9 0.171997C134.356 0.308 134.084 0.511997 133.472 1.328C132.452 2.552 132.316 2.892 132.316 4.252C132.316 5.476 132.248 5.748 131.636 7.108C131.432 7.584 131.364 7.856 131.364 8.468C131.364 8.944 131.296 9.556 131.296 9.896L131.16 10.508L129.256 10.644C127.692 10.644 127.148 10.644 126.332 10.508C125.788 10.44 125.312 10.372 125.244 10.44L124.292 10.576C123.612 10.644 123.068 10.78 122.456 11.052C121.776 11.324 121.368 11.392 120.688 11.46C119.804 11.528 119.668 11.596 118.512 12.208L117.764 12.548C117.56 12.616 117.152 12.82 116.88 13.024C116.404 13.364 115.384 14.928 115.248 15.336C115.112 16.084 115.86 16.9 116.676 16.9C117.016 16.9 117.22 16.832 117.696 16.492C118.172 16.152 118.376 16.084 119.26 15.948C119.804 15.88 120.688 15.676 121.096 15.472C121.572 15.336 122.116 15.2 122.388 15.2C122.592 15.2 123.068 15.132 123.34 14.996C123.748 14.928 124.088 14.86 124.428 14.928C124.768 14.928 125.244 14.928 125.516 14.86L126.536 14.656C126.876 14.656 127.284 14.52 127.488 14.452C127.76 14.316 128.304 14.248 129.188 14.248C129.868 14.248 130.48 14.316 130.548 14.316C130.548 14.316 130.548 14.52 130.48 14.724C130.412 14.928 130.344 16.016 130.344 17.784C130.344 20.028 130.344 20.572 130.208 20.912C129.936 21.728 129.868 22.272 130.072 23.02C130.14 23.36 130.208 24.312 130.208 25.196C130.276 26.488 130.276 26.692 130.072 27.1L129.8 27.984C129.664 28.528 129.256 29.616 129.052 30.024C128.916 30.228 128.848 30.432 128.848 30.5C128.848 30.772 128.44 31.996 128.032 32.812C127.828 33.22 127.556 33.9 127.488 34.24C127.352 34.512 127.148 34.988 127.012 35.192L126.332 36.416C125.788 37.504 125.312 38.048 123.476 39.748C122.728 40.428 122.66 40.496 121.98 40.564C121.3 40.7 121.232 40.7 120.892 40.496C120.484 40.292 120.484 40.224 120.348 39.408C120.348 39.136 120.212 38.66 120.144 38.32C120.008 38.048 119.94 37.572 119.94 37.3C119.94 37.096 119.804 36.552 119.736 36.144C119.328 34.512 119.328 34.512 119.532 33.288C119.668 32.608 119.736 31.656 119.736 31.18C119.736 30.704 119.804 29.616 119.872 28.8C120.008 27.644 120.076 27.236 120.212 27.032C120.552 26.556 120.824 25.944 120.96 25.264C121.028 24.856 121.232 24.312 121.504 23.768C121.776 23.292 121.912 22.884 121.912 22.748C121.912 22.544 122.252 21.932 122.456 21.864C122.66 21.796 123 22.204 123.136 22.748L123.476 23.632C123.544 23.904 123.68 24.312 123.68 24.584C123.68 24.856 123.748 24.992 123.952 25.264C124.292 25.604 124.7 25.604 124.972 25.264C125.448 24.652 125.788 23.428 125.652 22.884L125.38 21.592C125.176 20.504 124.972 19.96 124.36 19.484C123.816 19.076 122.388 18.396 121.912 18.396C121.504 18.396 120.484 18.736 119.872 19.008C118.988 19.484 117.288 20.776 116.948 21.252L116.064 22.34C115.656 22.748 115.452 23.088 115.384 23.496L115.044 24.584C114.976 24.856 114.704 25.468 114.432 25.876C114.024 26.624 113.888 27.236 113.412 29.548C113.344 29.82 113.276 30.84 113.276 31.724C113.208 33.016 113.208 33.56 113.072 34.036C112.732 35.124 112.936 36.212 113.684 37.436C113.82 37.64 113.956 38.048 114.024 38.592C114.092 39.612 114.16 39.748 115.18 41.176C116.2 42.74 117.084 43.556 118.308 44.168C119.396 44.78 120.076 44.916 121.028 44.78ZM170.631 39.136C171.379 38.796 172.127 37.64 172.263 36.62C172.331 36.28 172.467 35.668 172.603 35.328C172.807 34.648 173.079 33.152 173.215 31.86C173.215 31.384 173.351 30.772 173.419 30.432C173.487 30.16 173.623 29.276 173.623 28.528C173.691 27.78 173.759 26.964 173.827 26.692C174.031 25.672 174.031 24.584 173.827 23.02L173.623 21.524C173.759 21.252 174.031 20.436 174.031 20.164C174.031 19.96 174.371 18.872 174.847 17.648L175.051 17.104C175.051 16.9 175.799 15.88 176.071 15.268C176.411 14.656 177.023 13.636 177.431 13.092C177.839 12.616 179.335 11.256 179.743 11.052C180.015 10.984 180.219 11.052 180.355 11.46C180.559 11.936 180.695 13.432 180.695 14.588C180.695 15.404 180.763 15.88 180.831 16.22C181.035 16.764 181.035 17.648 180.831 18.124C180.695 18.6 179.879 20.3 179.471 21.252C179.199 21.864 178.315 22.544 177.159 23.088C176.411 23.428 176.275 23.428 175.935 23.02C175.867 22.884 175.663 22.68 175.459 22.68C175.051 22.544 175.051 22.544 174.847 22.748C174.643 22.952 174.643 23.02 174.643 23.7C174.643 24.38 174.643 24.448 174.915 24.856C175.323 25.4 176.003 25.74 176.887 25.74C177.635 25.808 178.927 25.604 179.335 25.468C179.947 25.264 180.559 25.672 181.987 24.72C183.211 23.904 185.115 21.932 185.659 20.912L186.203 19.96C186.407 19.688 186.611 19.212 186.679 18.872L187.155 17.172C187.495 16.152 187.495 16.084 187.495 14.248C187.563 12.004 187.495 11.664 186.883 10.576C186.679 10.168 186.407 9.556 186.339 9.148C186.067 8.196 185.727 7.652 184.911 6.904C183.755 5.884 183.347 5.68 181.851 5.544C180.967 5.408 180.287 5.612 179.675 6.156C178.587 7.108 177.975 7.04 177.431 8.332C177.295 8.536 177.023 8.944 176.819 9.148C176.479 9.488 176.343 9.76 176.207 10.236C176.071 10.576 175.867 11.052 175.731 11.256C175.323 11.8 174.711 13.092 174.643 13.5C174.575 13.84 174.031 14.656 173.827 14.724C173.759 14.792 173.759 14.656 173.759 14.248C173.759 13.976 173.691 13.5 173.555 13.092C173.487 12.684 173.351 12.004 173.283 11.46C173.215 10.984 173.079 10.168 172.943 9.76C172.807 9.216 172.671 8.468 172.603 7.788C172.603 7.108 172.467 6.632 172.399 6.428C172.127 5.884 171.243 4.524 170.971 4.252C170.427 3.708 169.611 3.572 168.795 3.844C168.319 3.98 167.639 4.728 167.435 5.272C167.367 5.544 167.095 6.224 166.823 6.836L166.279 7.924C166.279 8.74 166.143 10.848 166.075 11.596C166.007 12.004 165.939 12.616 165.939 13.024C165.939 13.568 165.871 14.044 165.667 14.792C165.259 16.084 165.191 16.968 165.395 17.988C165.667 19.348 165.463 20.844 165.599 26.148C165.599 27.576 165.667 27.712 165.871 28.324C166.143 28.936 166.143 29.072 166.075 29.752C166.075 30.296 166.075 30.704 166.211 31.18C166.279 31.52 166.347 32.2 166.347 32.744C166.415 33.22 166.483 33.832 166.483 34.036L166.755 35.192C166.823 35.804 166.959 36.144 167.231 36.62C167.775 37.64 168.183 38.524 168.387 38.728C168.863 39.272 169.883 39.408 170.631 39.136ZM204.081 39.476C204.489 39.272 206.257 37.776 206.597 37.3L207.481 36.212C208.297 35.26 208.841 34.512 208.977 34.104C209.045 33.9 209.317 33.424 209.589 33.016C209.861 32.608 210.405 31.792 210.677 31.18L211.561 29.616C212.105 28.936 212.241 28.528 212.513 27.44C212.853 26.08 212.921 25.876 212.717 25.604C212.581 25.468 212.513 25.4 212.241 25.4C211.969 25.4 211.833 25.468 211.289 26.08C210.813 26.556 210.541 26.964 210.065 28.052L209.113 29.956L208.705 30.772L208.093 31.724C207.889 32.064 207.481 32.676 207.209 33.016L206.257 34.308C205.713 34.988 204.965 35.736 204.829 35.736C204.761 35.736 204.693 35.532 204.625 35.056C204.625 34.648 204.489 34.172 204.421 33.9C204.353 33.628 204.285 33.016 204.285 32.608L204.353 30.772V29.208C204.353 28.732 204.285 28.528 204.081 28.12C203.945 27.78 203.809 27.508 203.809 27.236C203.809 26.556 203.197 25.536 202.721 25.4C202.653 25.332 202.585 24.924 202.585 24.312C202.585 22.884 202.449 21.116 202.245 20.708L201.905 19.688C201.769 19.348 201.497 18.804 201.293 18.532L200.681 17.58C200.341 16.968 200.001 16.696 198.981 16.356C198.029 15.948 197.485 15.88 196.057 16.22C195.513 16.356 194.969 16.56 194.833 16.628C193.337 17.444 191.637 19.144 191.161 20.164C191.025 20.504 190.753 20.98 190.549 21.252C190.345 21.524 190.073 22.068 189.937 22.476C189.801 22.952 189.529 23.564 189.325 23.904C189.121 24.244 188.917 24.788 188.849 25.06C188.849 25.4 188.645 25.876 188.441 26.216C188.101 26.896 188.033 27.576 188.305 28.664C188.373 29.14 188.441 29.548 188.373 30.364C188.305 31.724 188.373 32.132 189.121 33.152L189.937 34.376C190.277 34.988 190.685 35.396 191.161 35.668L191.977 36.144C193.201 36.96 194.221 37.028 195.717 36.28C196.261 36.008 196.533 35.804 196.941 35.26C197.485 34.58 198.845 33.152 198.845 33.288L198.981 33.832L199.185 35.464C199.321 36.688 199.321 36.688 200.069 37.708C200.681 38.592 201.157 39.068 201.837 39.34C202.517 39.544 203.673 39.612 204.081 39.476ZM194.629 32.132C194.425 31.996 194.289 31.52 194.221 30.84C194.221 30.432 194.085 29.956 194.017 29.752C193.745 29.14 193.881 27.236 194.221 26.352C194.357 26.012 194.493 25.4 194.561 24.992C194.629 24.38 194.697 24.108 194.901 23.836C195.309 23.224 195.581 22.544 195.581 22.068C195.581 21.864 195.649 21.592 195.717 21.388C195.853 20.98 197.145 19.756 197.417 19.756C197.485 19.756 197.757 19.892 197.961 20.028C198.165 20.164 198.437 20.436 198.505 20.572C198.709 20.844 199.117 21.796 199.457 22.952C199.797 23.972 199.865 24.108 200.001 24.652C200.001 24.924 200.137 25.196 200.205 25.4C200.273 25.536 200.341 25.74 200.341 25.808C200.341 26.08 199.797 27.032 199.185 27.712C198.845 28.052 198.573 28.392 198.573 28.46C198.573 28.528 198.301 28.8 198.029 29.072C197.757 29.344 197.417 29.684 197.349 29.82C197.281 30.024 197.077 30.228 196.941 30.432L196.261 31.18C195.853 31.588 194.765 32.2 194.629 32.132ZM218.157 55.116C220.265 55.184 221.013 55.32 221.693 54.912C221.829 54.776 222.169 54.64 222.441 54.572C223.121 54.368 223.665 54.028 223.869 53.688C224.141 53.28 225.093 52.26 225.501 51.648L226.249 50.628C226.929 49.88 227.405 48.724 227.609 47.432C227.813 46.208 228.289 44.304 228.697 43.284C228.901 42.672 228.901 42.536 228.833 41.992C228.765 40.768 228.765 40.088 229.037 39.34C229.241 38.524 229.309 37.64 229.037 37.028C228.901 36.62 228.901 36.484 229.037 35.736L229.173 34.716C229.241 34.648 229.785 34.104 230.533 33.56C231.757 32.54 237.333 27.168 237.537 26.692C237.877 26.148 237.401 25.468 236.721 25.468C236.313 25.468 236.041 25.672 234.953 26.624L233.865 27.508C233.253 27.984 232.641 28.392 232.301 28.732C232.097 28.936 231.825 29.14 231.621 29.208C231.077 29.48 230.805 29.752 230.601 30.16C230.465 30.364 230.397 30.5 230.329 30.5L229.853 30.84C229.581 31.112 229.445 31.18 229.377 31.112C229.309 31.044 229.241 30.364 229.241 29.276C229.241 27.984 229.173 27.44 229.037 27.1C228.969 26.828 228.901 26.352 228.901 25.876C228.901 25.4 228.901 24.924 228.833 24.652C228.765 24.448 228.697 23.7 228.629 23.02C228.561 21.864 228.561 21.728 228.153 20.98C227.949 20.504 227.745 20.028 227.745 19.824C227.609 19.212 227.269 18.736 226.521 18.464C225.977 18.26 225.773 18.26 225.365 18.26C224.821 18.328 224.821 18.328 224.685 18.056C224.481 17.648 222.849 16.288 222.373 16.084C221.829 15.948 221.149 15.948 220.605 16.084C220.401 16.152 219.857 16.22 219.449 16.288C218.701 16.356 218.361 16.492 216.797 17.376C215.369 18.192 215.301 18.192 214.213 20.096C213.873 20.708 213.465 21.456 213.261 21.728C212.853 22.272 212.785 22.408 212.377 23.904C212.173 24.584 212.173 24.788 212.173 26.692C212.173 29.14 212.309 30.84 212.513 31.588L212.853 32.608C212.989 32.88 213.193 33.356 213.397 33.56L214.009 34.376C214.417 34.852 215.437 35.736 215.981 35.94C216.185 36.008 216.661 36.076 217.001 36.144C217.545 36.212 217.749 36.144 218.225 36.008C219.177 35.6 219.517 35.396 220.265 34.716C221.693 33.424 221.489 33.288 222.441 31.18C222.577 30.908 222.781 30.364 222.781 30.092C222.849 29.82 222.985 29.48 223.053 29.412C223.189 29.276 223.189 29.344 223.257 29.548C223.325 29.888 223.189 37.3 223.189 37.232C222.917 37.504 222.441 38.048 222.101 38.456C221.965 38.66 221.353 39.34 220.741 40.02C220.129 40.632 219.517 41.38 219.381 41.584C219.313 41.788 219.041 42.128 218.905 42.332C218.701 42.536 218.565 42.74 218.565 42.808C218.565 42.876 218.361 43.148 218.089 43.488C217.885 43.76 217.477 44.236 217.341 44.44L216.525 46.004C215.573 47.908 215.437 47.704 215.029 49.812C214.893 50.832 214.961 51.58 215.369 52.532C215.641 53.212 216.457 54.096 217.409 54.64L218.157 55.116ZM218.089 32.336C217.681 32.54 217.613 32.472 217.477 31.656C217.409 31.044 217.409 30.84 217.613 30.228C217.749 29.616 217.749 29.48 217.681 28.936C217.545 28.392 217.545 28.324 217.749 27.984C218.021 27.576 218.361 26.352 218.837 24.448C219.041 23.632 219.109 23.36 219.449 22.884C220.469 21.456 220.877 21.252 221.353 21.796C221.897 22.476 222.645 23.088 222.985 23.292C223.869 23.768 223.869 24.244 222.985 25.808L222.713 26.352C222.305 27.236 221.693 28.256 221.421 28.596C221.285 28.8 221.149 29.004 221.149 29.072C221.149 29.14 220.809 29.48 220.469 29.82C220.129 30.16 219.585 30.772 219.245 31.18C218.769 31.928 218.565 32.064 218.089 32.336ZM218.565 51.104C218.225 51.104 217.817 50.764 217.613 50.22C217.273 49.268 217.409 48.656 218.361 46.752C219.041 45.392 219.449 44.644 220.061 43.964L220.945 42.876C221.421 42.196 222.985 40.496 223.053 40.496C223.121 40.564 223.053 40.768 222.917 41.04C222.849 41.312 222.781 41.856 222.781 42.264C222.781 42.672 222.645 43.216 222.509 43.556C222.441 43.896 222.305 44.236 222.305 44.372C222.305 44.644 222.033 45.732 221.625 47.092C221.353 47.976 221.217 48.18 220.945 48.52C220.741 48.724 220.401 49.132 220.197 49.404C219.653 50.288 218.837 51.104 218.565 51.104ZM245.271 35.192C247.175 34.988 248.467 34.58 249.963 33.696L251.595 32.608C252.003 32.404 252.615 31.86 253.023 31.52C253.703 30.84 253.771 30.772 254.723 29.548C255.063 29.14 255.471 28.596 255.743 28.392C256.219 27.848 257.307 26.624 257.579 26.216C257.851 25.944 257.851 25.604 257.647 25.4C257.171 24.992 256.763 25.264 254.315 27.644C253.975 27.916 253.703 28.188 253.635 28.188C253.567 28.188 253.227 28.46 252.887 28.8C251.663 29.956 250.711 30.84 250.303 31.112L249.555 31.656C249.011 32.132 247.379 32.676 246.495 32.676C246.223 32.676 245.883 32.608 245.339 32.336C244.455 31.86 243.843 31.18 243.707 30.5L243.435 29.616C243.231 29.208 243.231 28.936 243.163 27.916V26.488C243.095 26.012 243.639 25.4 244.727 24.72C246.155 23.768 246.155 23.632 247.175 22.884C247.515 22.68 247.855 22.34 247.923 22.204C248.059 22 248.263 21.796 248.467 21.592C248.943 21.252 249.079 21.116 249.487 20.436C250.303 19.212 249.895 20.572 251.595 16.9C251.663 16.696 251.867 16.22 251.935 15.88L252.207 14.656C252.343 14.248 252.411 13.568 252.411 12.956C252.411 12.004 252.411 11.936 252.139 11.528C251.799 11.052 250.643 10.1 250.031 9.76C249.623 9.556 249.215 9.556 248.467 9.624C247.991 9.692 246.699 10.1 245.951 10.508C245.611 10.712 244.999 10.916 244.659 11.052C243.911 11.256 242.619 12.072 242.143 12.548C241.939 12.752 241.667 13.092 241.531 13.432C240.851 14.656 239.831 15.472 239.627 16.628C239.559 16.832 239.355 17.24 239.151 17.58C238.947 17.92 238.675 18.532 238.539 18.872C238.471 19.212 238.199 19.688 238.063 19.96C237.723 20.504 237.043 23.02 236.975 24.04C236.907 24.924 237.111 25.196 237.383 27.1C237.519 28.256 238.063 30.024 238.471 30.908C238.947 31.724 239.695 32.948 239.967 33.152C240.239 33.492 241.463 34.24 242.143 34.58C242.415 34.716 243.027 34.92 243.503 35.056C244.319 35.328 244.387 35.328 245.271 35.192ZM244.931 21.66C244.795 21.66 244.795 21.66 244.999 20.912C245.203 19.824 245.679 18.804 246.087 18.192C246.495 17.648 246.835 16.9 246.835 16.56C246.835 16.22 247.243 15.744 247.719 15.472C248.331 15.064 248.739 14.656 249.283 13.908C249.691 13.364 249.963 13.296 250.099 13.636C250.167 13.704 250.167 14.044 250.167 14.452C250.167 14.996 250.031 15.2 249.487 16.356C248.875 17.648 248.195 18.6 247.243 19.552C245.407 21.32 245.067 21.66 244.931 21.66Z" fill="#FFC501"/>
</svg>
