<svg width="28" height="28" viewBox="0 0 28 28" fill="none" xmlns="http://www.w3.org/2000/svg">
<path d="M11.4975 0C5.14762 0 0 5.14762 0 11.4975C0 17.8473 5.14762 22.995 11.4975 22.995C17.8473 22.995 22.995 17.8473 22.995 11.4975C22.9895 5.14987 17.8451 0.0054988 11.4975 0ZM11.4975 18.9958C7.35627 18.9958 3.99913 15.6387 3.99913 11.4975C3.99913 7.35627 7.35627 3.99913 11.4975 3.99913C15.6387 3.99913 18.9958 7.35627 18.9958 11.4975C18.9903 15.6365 15.6365 18.9903 11.4975 18.9958Z" fill="black"/>
<path d="M27.4038 24.5846L23.4046 20.5855C22.6233 19.8042 21.3566 19.8042 20.5753 20.5855C19.7939 21.3668 19.7939 22.6336 20.5753 23.4149L24.5744 27.414C25.3557 28.1954 26.6224 28.1954 27.4038 27.414C28.1851 26.6327 28.1851 25.366 27.4038 24.5846Z" fill="black"/>
</svg>
