<svg width="31" height="31" viewBox="0 0 31 31" fill="none" xmlns="http://www.w3.org/2000/svg">
<path d="M27.3672 7.26562H23.6771C23.1961 3.18004 19.7127 0 15.5 0C11.2873 0 7.80395 3.18004 7.3229 7.26562H3.63281C2.96401 7.26562 2.42188 7.80776 2.42188 8.47656V29.7891C2.42188 30.4579 2.96401 31 3.63281 31H27.3672C28.036 31 28.5781 30.4579 28.5781 29.7891V8.47656C28.5781 7.80776 28.036 7.26562 27.3672 7.26562ZM15.5 2.42188C18.375 2.42188 20.7687 4.52013 21.2313 7.26562H9.76869C10.2313 4.52013 12.625 2.42188 15.5 2.42188ZM26.1562 28.5781H4.84375V9.6875H7.26562V13.3203C7.26562 13.9891 7.80776 14.5312 8.47656 14.5312C9.14536 14.5312 9.6875 13.9891 9.6875 13.3203V9.6875H21.3125V13.3203C21.3125 13.9891 21.8546 14.5312 22.5234 14.5312C23.1922 14.5312 23.7344 13.9891 23.7344 13.3203V9.6875H26.1562V28.5781Z" fill="black"/>
</svg>
