<svg width="423" height="67" viewBox="0 0 423 67" fill="none" xmlns="http://www.w3.org/2000/svg">
<path d="M9.374 62.052C12.338 62.622 12.566 62.736 14.618 62.508C15.644 62.394 17.012 62.166 17.696 61.938C21.458 60.798 21.458 62.052 27.158 56.694C28.754 55.326 31.034 52.362 31.832 50.766C32.288 49.968 32.858 49.17 33.428 48.714C34.568 47.574 34.91 46.776 35.366 44.154C35.936 41.076 35.822 39.48 34.796 36.402C33.542 32.526 32.516 30.93 30.35 29.676C28.526 28.536 28.412 27.966 27.044 27.738C26.018 27.51 22.256 27.282 21.344 27.282C21.002 27.396 20.318 27.282 19.862 27.282C19.292 27.168 18.608 27.168 17.81 27.282C16.784 27.51 16.556 27.51 15.074 27.168C13.022 26.712 12.566 26.598 12.338 26.256C12.11 25.8 12.338 24.432 12.908 22.722C13.364 21.468 13.934 20.784 15.758 18.96C16.214 18.39 17.24 17.136 17.81 16.224C19.406 13.716 19.748 13.374 21.572 12.006C22.598 11.322 23.396 10.638 23.396 10.524C23.51 10.182 24.536 9.612 26.018 9.156C29.096 8.358 30.236 6.648 29.324 3.912C28.412 1.28999 27.044 0.378 23.852 0.605997C23.282 0.605997 22.37 0.719995 21.914 0.947999C21.458 1.176 20.546 1.404 19.862 1.404C19.178 1.518 18.494 1.632 18.038 1.974C17.582 2.202 16.898 2.544 16.328 2.772C14.96 3.342 14.162 3.798 13.364 4.71C12.224 5.964 10.742 7.332 10.058 7.56C7.094 9.156 7.778 9.27 4.244 14.172C1.508 18.276 2.534 17.478 1.622 22.038C1.166 24.09 1.28 24.66 1.964 26.598C2.648 28.422 3.446 29.562 4.814 30.474C5.726 31.272 7.892 32.184 8.462 32.07C8.69 32.07 9.374 32.298 10.172 32.526C11.426 32.868 11.654 32.982 12.452 32.868C13.022 32.754 13.592 32.754 13.934 32.868C14.276 32.982 15.302 32.982 16.1 32.868C19.178 32.754 19.976 32.868 21.572 33.21C23.51 33.666 23.852 33.894 24.422 34.692C25.22 35.946 24.764 38.226 22.94 41.532L21.8 43.812C21.686 44.154 21.23 44.838 20.774 45.408C20.432 45.864 19.976 46.548 19.748 47.004C19.406 47.802 18.494 48.372 16.67 48.942C15.986 49.17 14.96 49.74 14.39 50.082C12.566 51.45 12.68 51.45 9.26 50.652L6.296 50.082C5.156 48.144 4.928 47.802 5.156 46.548C5.498 44.496 4.358 43.014 2.876 43.584C1.28 44.268 0.0260001 47.118 0.14 50.538C0.14 52.818 0.368 54.072 1.166 54.984C1.964 56.01 2.078 57.492 4.814 58.974C5.498 59.316 6.752 60.114 7.664 60.798L9.374 62.052ZM44.8868 60.912C45.6848 61.14 45.9128 61.14 47.5088 60.912C48.6488 60.798 49.4468 60.57 50.0168 60.228C50.8148 59.886 52.1828 58.404 52.6388 57.492L53.3228 56.352C53.5508 56.124 54.0068 55.326 54.3488 54.642C55.3748 52.248 55.2608 53.274 57.7688 47.802L58.9088 45.18C59.4788 44.154 59.5928 44.04 59.5928 44.382C59.5928 45.18 59.9348 46.32 60.5048 47.004C60.8468 47.46 61.0748 48.144 61.1888 48.828C61.4168 49.398 61.6448 50.196 61.7588 50.652L62.4428 52.476C63.0128 54.186 65.5208 56.694 67.1168 57.036C68.0288 57.264 68.8268 57.036 70.6508 55.896C72.9308 54.414 74.9828 52.59 75.8948 51.222L77.3768 48.942L78.1748 47.46C78.2888 47.118 78.6308 46.548 78.8588 46.092C79.2008 45.75 79.4288 45.294 79.4288 45.066C79.4288 44.952 79.6568 44.268 80.1128 43.584C81.5948 40.62 81.8228 40.278 82.0508 39.48C82.6208 37.884 82.3928 37.086 81.4808 37.086C80.9108 37.086 80.2268 37.884 78.5168 40.392C77.1488 42.672 76.5788 43.47 75.5528 44.61C75.2108 44.952 74.7548 45.636 74.6408 45.978C74.5268 46.32 74.1848 46.89 73.8428 47.118C73.5008 47.46 73.0448 48.144 72.7028 48.714C72.2468 49.284 71.6768 49.854 71.2208 50.082L69.9668 50.994C69.2828 51.564 68.8268 51.45 68.3708 50.994C68.0288 50.538 68.0288 50.424 68.1428 48.942L68.3708 45.978C68.3708 45.18 68.4848 44.382 68.4848 44.154C68.5988 43.812 68.7128 43.128 68.8268 42.558C68.8268 41.874 69.0548 40.848 69.2828 40.164C69.5108 39.366 69.6248 38.34 69.7388 37.656C69.9668 34.692 70.3088 35.262 70.1948 31.614C69.9668 29.448 69.9668 29.22 69.3968 28.194C68.2568 25.686 67.3448 24.774 66.0908 24.432C64.9508 24.204 63.8108 24.66 62.3288 26.256C60.7328 27.738 60.3908 28.65 60.2768 31.728C60.1628 33.21 60.0488 33.894 59.8208 34.578C59.5928 35.034 59.3648 35.946 59.1368 36.516C58.6808 38.454 58.5668 38.796 58.1108 39.708C57.8828 40.164 57.6548 40.734 57.6548 40.848C57.6548 40.962 57.4268 41.532 57.0848 42.102C56.7428 42.672 56.4008 43.356 56.4008 43.47C56.4008 43.698 56.1728 44.268 55.8308 44.838C54.5768 46.662 54.1208 47.574 53.4368 48.714C52.6388 50.196 50.7008 52.248 50.4728 51.906C50.1308 51.45 50.1308 49.968 50.4728 49.056C50.5868 48.714 51.0428 45.522 51.2708 43.356C51.3848 42.9 51.6128 41.874 51.7268 41.076C51.9548 40.278 52.1828 38.682 52.2968 37.656C52.4108 36.174 52.5248 35.49 52.8668 34.578C53.7788 32.184 54.0068 30.588 53.4368 28.536C53.2088 27.966 53.0948 26.94 53.0948 26.484C53.0948 25.23 52.6388 24.09 51.8408 23.406C50.8148 22.494 50.3588 22.38 48.7628 22.266C47.5088 22.266 47.2808 22.266 46.4828 22.608C44.8868 23.406 43.0628 25.344 41.9228 27.51C41.3528 28.422 41.2388 28.878 40.3268 33.21C40.0988 34.122 39.7568 35.148 39.5288 35.604C38.7308 37.086 38.6168 37.656 38.5028 39.708L38.1608 42.9C38.1608 43.926 38.1608 44.952 38.3888 46.32C38.9588 51.564 38.7308 52.362 39.8708 54.186C40.0988 54.642 40.5548 55.44 40.6688 56.01C41.1248 57.036 42.8348 59.544 43.6328 60.342C43.8608 60.57 44.4308 60.798 44.8868 60.912ZM101.791 66.726C104.413 66.27 104.527 65.472 106.465 64.218C107.149 63.648 108.289 62.28 108.289 61.824C108.289 61.71 108.517 61.368 108.859 60.912C109.657 59.886 109.771 59.544 109.999 58.518C110.113 57.948 110.341 57.15 110.569 56.694C110.797 56.238 111.025 55.326 111.139 54.756C111.253 54.072 111.481 53.046 111.709 52.476C111.937 51.792 112.165 51.108 112.165 50.424V49.17C112.165 49.056 112.393 48.942 112.735 48.828C112.963 48.6 113.533 48.258 113.875 47.916C115.129 46.548 117.979 43.926 118.891 42.672C120.715 40.392 122.539 37.77 122.539 37.656L122.311 37.2C121.855 36.516 121.513 36.744 117.637 40.62C114.217 44.04 112.165 45.864 111.709 45.864C111.481 45.864 111.253 45.066 111.139 43.812C111.139 43.128 110.911 42.33 110.341 41.19C109.885 40.278 109.429 39.024 109.201 38.454C108.973 37.77 108.631 36.972 108.175 36.402C107.149 35.148 106.465 33.894 106.009 33.552C105.439 33.096 104.299 32.526 103.273 32.298C100.081 31.5 99.3975 31.044 96.8895 31.842C94.9515 32.298 94.2675 32.64 93.6975 33.552C93.1275 34.35 92.5575 34.806 92.3295 34.578C92.1015 34.464 92.3295 32.868 92.7855 31.5C93.0135 30.93 93.2415 29.676 93.3555 28.878C93.4695 27.738 93.5835 27.168 94.0395 26.256C94.7235 24.66 94.8375 23.862 95.0655 21.012C95.0655 18.846 95.1795 18.39 95.5215 17.592C95.8635 17.022 96.0915 16.11 96.2055 15.54C96.2055 15.084 96.4335 14.172 96.6615 13.602C97.0035 12.234 97.1175 9.27 96.6615 8.016C96.3195 6.762 95.5215 5.736 94.6095 5.28C93.6975 4.824 92.1015 4.596 91.5315 5.052C90.9615 5.28 87.9975 8.586 87.5415 9.384L85.9455 12.918C83.5515 18.96 82.4115 19.188 82.0695 23.064C82.0695 23.976 81.8415 25.23 81.7275 25.914C81.4995 26.712 81.3855 27.852 81.4995 28.65C81.4995 31.044 81.0435 30.588 80.3595 34.35C80.0175 36.744 80.0175 36.972 80.2455 42.102C80.3595 42.9 80.4735 44.04 80.5875 44.496C81.0435 45.864 80.8155 48.03 81.1575 50.88C81.2715 52.248 81.3855 52.59 82.0695 53.958C82.5255 54.87 82.8675 55.668 82.8675 55.782C82.8675 56.124 83.5515 57.378 84.0075 57.834C84.5775 58.404 85.2615 58.632 86.1735 58.404C87.5415 58.176 89.0235 55.668 89.2515 53.16C89.2515 52.362 89.4795 51.336 89.5935 50.652C90.0495 49.512 90.3915 47.574 90.6195 45.75C90.8475 43.926 91.0755 43.356 92.4435 41.874C94.3815 39.594 95.5215 38.682 97.1175 38.34C97.9155 38.112 97.9155 38.112 98.7135 38.682C99.7395 39.48 100.537 40.392 100.765 41.532L101.449 43.128C101.677 43.584 101.905 44.382 102.019 45.066C102.019 45.75 102.247 46.434 102.589 47.118C102.931 47.916 103.159 48.486 103.273 49.398C103.273 50.196 103.387 50.88 103.501 50.994C103.615 51.222 103.159 51.678 102.247 52.248C100.993 53.046 99.9675 54.186 98.8275 54.984C98.0295 55.554 97.1175 56.58 96.7755 57.264C96.6615 57.492 96.4335 57.834 96.2055 58.062C95.6355 58.632 95.2935 59.772 95.2935 61.596C95.2935 63.078 95.4075 63.534 95.6355 64.104C96.2055 65.358 96.6615 65.814 97.9155 66.384C99.1695 67.068 99.9675 67.182 101.791 66.726ZM99.7395 62.28C99.3975 62.28 99.2835 61.938 99.2835 61.026C99.2835 60.228 99.5115 59.544 100.537 58.062C101.335 57.036 102.817 55.44 103.045 55.554L102.817 56.922C102.475 59.202 100.651 62.28 99.7395 62.28ZM130.698 64.788C131.268 64.674 131.838 64.446 132.864 63.762C134.574 62.622 136.284 60.684 137.424 58.518C138.222 57.036 138.222 56.922 138.222 55.782C138.222 55.098 138.336 54.186 138.45 53.73C138.678 52.818 138.678 52.704 138.336 51.222C137.652 48.258 137.652 48.486 139.134 47.118C139.932 46.434 140.73 45.75 141.072 45.636L142.554 44.268C144.15 42.558 148.026 38.568 148.14 38.34C148.254 38.112 148.254 37.428 148.026 37.2C147.57 36.744 147.114 37.086 144.72 39.252C141.186 42.444 140.958 42.444 139.134 43.926C138.678 44.382 137.994 44.952 137.652 45.066C137.082 45.408 136.968 45.408 136.854 45.18L136.056 44.154C135.486 43.47 134.802 42.33 133.32 39.594L132.636 37.998C132.18 36.858 132.066 36.516 131.952 34.236C131.724 29.562 131.724 29.106 132.978 27.966C133.662 27.282 133.776 27.282 134.574 27.282C137.196 27.282 139.02 24.318 137.652 21.924C136.968 20.784 135.828 19.644 134.916 19.188C134.232 18.732 134.004 18.732 131.838 18.732C130.242 18.732 129.444 18.846 128.988 18.96C128.304 19.302 127.278 20.1 126.594 20.556C125.682 21.012 124.884 21.696 124.314 22.836C124.086 23.406 123.516 24.204 123.06 24.66C122.718 25.002 122.148 25.914 121.92 26.598C120.324 30.588 119.64 29.79 120.894 34.464C121.236 36.06 121.692 37.542 121.806 37.77C122.148 38.454 123.288 39.708 124.998 41.532C125.568 42.102 126.138 42.9 126.366 43.356C126.48 43.698 127.164 44.61 127.734 45.294C128.304 45.978 129.102 47.004 129.33 47.46C129.672 48.03 130.128 48.714 130.356 49.17C131.268 50.31 131.154 50.652 129.444 52.362C126.48 55.212 124.998 57.606 124.542 59.886C124.086 62.166 124.314 63.078 125.91 64.104C127.392 65.13 127.962 65.13 130.698 64.788ZM127.734 61.14C127.278 61.14 127.392 60.798 127.848 59.316C128.19 58.404 128.532 57.72 129.102 56.922C130.584 55.098 131.268 54.3 131.382 54.3C131.496 54.3 131.496 54.87 131.496 55.896C131.382 57.15 131.268 57.606 130.926 58.404L130.128 59.886C129.558 60.342 128.19 61.14 127.734 61.14ZM158.694 58.062C160.062 58.062 160.518 57.948 161.202 57.606C161.658 57.378 162.342 57.15 162.684 57.15C163.482 57.036 165.99 55.098 167.928 53.046C169.41 51.678 172.26 48.258 172.716 47.232L173.628 45.864C173.856 45.636 174.198 45.066 174.312 44.61C174.654 43.812 175.338 42.33 176.592 39.822C177.504 37.998 177.618 37.542 177.162 37.314C176.82 37.2 176.706 37.2 176.478 37.428C176.136 37.77 174.084 40.506 173.4 41.76C173.058 42.216 172.488 43.014 172.032 43.47C171.576 43.926 170.778 44.838 170.436 45.522C168.84 47.802 166.332 50.538 164.394 51.792C162.57 53.046 162.114 53.274 161.088 53.388C160.29 53.388 160.062 53.388 159.378 53.046C158.352 52.59 157.668 51.792 157.554 51.108C157.212 48.828 156.984 49.056 156.984 44.04C156.87 40.506 156.984 40.164 157.326 38.568L157.896 35.49C158.238 33.666 159.036 31.728 160.404 29.79C161.43 28.308 161.658 28.194 162.456 27.852C163.824 27.396 165.192 27.168 165.99 27.51C167.586 28.08 167.928 28.08 168.498 27.852C169.182 27.51 169.866 26.598 169.98 25.8C170.094 24.888 169.638 22.836 169.068 21.81C168.384 20.784 167.244 20.1 165.876 19.872C164.394 19.644 161.43 19.644 160.746 19.986L159.606 20.67C159.15 21.012 158.694 21.126 158.01 21.24C156.3 21.582 154.476 22.722 153.222 24.318L151.74 26.028C150.6 27.282 150.144 28.194 149.232 29.562C149.004 29.904 148.662 30.474 148.548 30.816C148.548 31.158 147.978 32.412 147.522 33.552C146.268 36.516 145.926 37.998 145.926 41.76C145.926 44.838 145.926 44.952 146.496 46.89C146.724 47.574 146.838 48.372 146.838 48.714C146.838 49.626 147.066 50.31 147.636 51.222L148.776 53.274C149.46 54.528 149.574 54.642 150.714 55.554C152.424 56.694 154.59 57.72 155.958 57.948C156.528 58.062 157.782 58.176 158.694 58.062ZM181.82 55.44C183.188 55.326 184.214 54.642 184.784 53.502C186.152 50.766 186.494 49.968 186.494 49.74L186.722 48.03C186.95 47.346 187.178 45.978 187.178 45.066C187.292 43.926 187.406 43.242 187.748 42.558C188.204 41.532 188.204 41.532 188.318 37.998V34.464C188.66 33.894 189.116 33.21 189.8 31.728C190.142 31.158 190.712 30.018 191.168 29.448C191.966 28.308 193.904 26.256 194.132 26.256C194.246 26.256 194.588 26.142 194.816 26.028C195.272 25.572 197.096 24.888 197.894 24.774C198.236 24.774 198.806 24.546 199.262 24.318C200.06 23.862 200.174 23.862 201.77 23.976C203.48 24.09 203.594 24.09 204.164 23.748C204.848 23.292 205.19 22.836 205.19 22.038C205.19 21.126 204.506 20.556 203.024 19.986C202.112 19.644 201.77 19.644 199.718 19.644C194.816 19.644 194.816 20.898 192.764 21.81C191.852 22.38 190.712 23.406 189.458 24.888C188.888 25.572 188.432 26.142 188.432 26.028C188.204 25.914 187.976 24.66 187.862 22.95C187.748 21.468 187.634 21.012 187.292 20.328C186.836 19.188 185.012 17.364 184.1 16.908C183.188 16.452 181.934 16.338 181.136 16.452C179.426 16.908 178.286 18.162 177.26 20.556C176.348 22.836 175.436 25.686 175.436 26.37L175.55 29.106C175.778 31.158 175.778 31.272 175.436 32.64C174.752 35.49 175.322 35.262 175.778 41.532C175.778 43.356 176.006 44.952 176.234 45.75C176.348 46.434 176.576 47.46 176.576 48.03C176.918 51.336 177.488 52.704 178.742 54.072C179.768 55.098 180.566 55.44 181.82 55.44ZM210.336 14.514C210.906 14.856 211.932 14.742 212.73 14.4C213.186 14.172 213.642 13.944 213.87 13.944C214.44 13.944 214.896 13.602 215.124 13.146C215.238 12.918 215.352 12.234 215.352 11.664C215.466 10.638 215.466 10.638 214.896 9.84C214.326 8.928 213.186 7.902 212.502 7.56C211.932 7.218 210.564 7.332 209.994 7.674C209.31 8.016 208.968 8.472 208.626 9.498C208.17 10.98 208.056 12.006 208.17 12.462C208.398 12.804 209.766 14.172 210.336 14.514ZM212.274 61.368C213.3 61.368 214.212 60.912 214.896 60C215.58 58.974 215.694 58.518 215.466 55.668C215.352 53.274 215.466 50.31 215.694 47.916C215.808 47.232 215.694 46.548 215.58 45.75C214.896 42.558 215.922 42.672 215.922 38.454C215.922 37.428 216.036 36.174 216.036 35.832C216.264 35.034 216.378 33.096 216.606 29.22C216.834 27.282 216.492 26.484 214.668 24.09C213.3 22.266 212.502 21.582 211.476 21.24C210.45 21.012 210.108 21.012 209.196 21.24C207.6 21.696 206.916 22.95 205.092 25.344L204.294 26.712C204.066 27.624 203.61 30.018 203.496 32.184L203.154 35.262C202.812 36.972 202.812 44.268 203.04 46.32C203.154 48.03 204.294 52.59 204.864 53.616C205.092 54.072 205.662 54.87 206.118 55.326C206.802 56.01 207.03 56.352 207.258 57.264C207.6 58.176 207.714 58.404 208.854 59.544C210.336 61.026 211.02 61.368 212.274 61.368ZM242.956 66.726C245.578 66.27 245.692 65.472 247.63 64.218C248.314 63.648 249.454 62.28 249.454 61.824C249.454 61.71 249.682 61.368 250.024 60.912C250.822 59.886 250.936 59.544 251.164 58.518C251.278 57.948 251.506 57.15 251.734 56.694C251.962 56.238 252.19 55.326 252.304 54.756C252.418 54.072 252.646 53.046 252.874 52.476C253.102 51.792 253.33 51.108 253.33 50.424V49.17C253.33 49.056 253.558 48.942 253.9 48.828C254.128 48.6 254.698 48.258 255.04 47.916C256.294 46.548 259.144 43.926 260.056 42.672C261.88 40.392 263.704 37.77 263.704 37.656L263.476 37.2C263.02 36.516 262.678 36.744 258.802 40.62C255.382 44.04 253.33 45.864 252.874 45.864C252.646 45.864 252.418 45.066 252.304 43.812C252.304 43.128 252.076 42.33 251.506 41.19C251.05 40.278 250.594 39.024 250.366 38.454C250.138 37.77 249.796 36.972 249.34 36.402C248.314 35.148 247.63 33.894 247.174 33.552C246.604 33.096 245.464 32.526 244.438 32.298C241.246 31.5 240.562 31.044 238.054 31.842C236.116 32.298 235.432 32.64 234.862 33.552C234.292 34.35 233.722 34.806 233.494 34.578C233.266 34.464 233.494 32.868 233.95 31.5C234.178 30.93 234.406 29.676 234.52 28.878C234.634 27.738 234.748 27.168 235.204 26.256C235.888 24.66 236.002 23.862 236.23 21.012C236.23 18.846 236.344 18.39 236.686 17.592C237.028 17.022 237.256 16.11 237.37 15.54C237.37 15.084 237.598 14.172 237.826 13.602C238.168 12.234 238.282 9.27 237.826 8.016C237.484 6.762 236.686 5.736 235.774 5.28C234.862 4.824 233.266 4.596 232.696 5.052C232.126 5.28 229.162 8.586 228.706 9.384L227.11 12.918C224.716 18.96 223.576 19.188 223.234 23.064C223.234 23.976 223.006 25.23 222.892 25.914C222.664 26.712 222.55 27.852 222.664 28.65C222.664 31.044 222.208 30.588 221.524 34.35C221.182 36.744 221.182 36.972 221.41 42.102C221.524 42.9 221.638 44.04 221.752 44.496C222.208 45.864 221.98 48.03 222.322 50.88C222.436 52.248 222.55 52.59 223.234 53.958C223.69 54.87 224.032 55.668 224.032 55.782C224.032 56.124 224.716 57.378 225.172 57.834C225.742 58.404 226.426 58.632 227.338 58.404C228.706 58.176 230.188 55.668 230.416 53.16C230.416 52.362 230.644 51.336 230.758 50.652C231.214 49.512 231.556 47.574 231.784 45.75C232.012 43.926 232.24 43.356 233.608 41.874C235.546 39.594 236.686 38.682 238.282 38.34C239.08 38.112 239.08 38.112 239.878 38.682C240.904 39.48 241.702 40.392 241.93 41.532L242.614 43.128C242.842 43.584 243.07 44.382 243.184 45.066C243.184 45.75 243.412 46.434 243.754 47.118C244.096 47.916 244.324 48.486 244.438 49.398C244.438 50.196 244.552 50.88 244.666 50.994C244.78 51.222 244.324 51.678 243.412 52.248C242.158 53.046 241.132 54.186 239.992 54.984C239.194 55.554 238.282 56.58 237.94 57.264C237.826 57.492 237.598 57.834 237.37 58.062C236.8 58.632 236.458 59.772 236.458 61.596C236.458 63.078 236.572 63.534 236.8 64.104C237.37 65.358 237.826 65.814 239.08 66.384C240.334 67.068 241.132 67.182 242.956 66.726ZM240.904 62.28C240.562 62.28 240.448 61.938 240.448 61.026C240.448 60.228 240.676 59.544 241.702 58.062C242.5 57.036 243.982 55.44 244.21 55.554L243.982 56.922C243.64 59.202 241.816 62.28 240.904 62.28ZM275.282 53.616C278.474 53.274 280.64 52.59 283.148 51.108L285.884 49.284C286.568 48.942 287.594 48.03 288.278 47.46C289.418 46.32 289.532 46.206 291.128 44.154C291.698 43.47 292.382 42.558 292.838 42.216C293.636 41.304 295.46 39.252 295.916 38.568C296.372 38.112 296.372 37.542 296.03 37.2C295.232 36.516 294.548 36.972 290.444 40.962C289.874 41.418 289.418 41.874 289.304 41.874C289.19 41.874 288.62 42.33 288.05 42.9C285.998 44.838 284.402 46.32 283.718 46.776L282.464 47.688C281.552 48.486 278.816 49.398 277.334 49.398C276.878 49.398 276.308 49.284 275.396 48.828C273.914 48.03 272.888 46.89 272.66 45.75L272.204 44.268C271.862 43.584 271.862 43.128 271.748 41.418V39.024C271.634 38.226 272.546 37.2 274.37 36.06C276.764 34.464 276.764 34.236 278.474 32.982C279.044 32.64 279.614 32.07 279.728 31.842C279.956 31.5 280.298 31.158 280.64 30.816C281.438 30.246 281.666 30.018 282.35 28.878C283.718 26.826 283.034 29.106 285.884 22.95C285.998 22.608 286.34 21.81 286.454 21.24L286.91 19.188C287.138 18.504 287.252 17.364 287.252 16.338C287.252 14.742 287.252 14.628 286.796 13.944C286.226 13.146 284.288 11.55 283.262 10.98C282.578 10.638 281.894 10.638 280.64 10.752C279.842 10.866 277.676 11.55 276.422 12.234C275.852 12.576 274.826 12.918 274.256 13.146C273.002 13.488 270.836 14.856 270.038 15.654C269.696 15.996 269.24 16.566 269.012 17.136C267.872 19.188 266.162 20.556 265.82 22.494C265.706 22.836 265.364 23.52 265.022 24.09C264.68 24.66 264.224 25.686 263.996 26.256C263.882 26.826 263.426 27.624 263.198 28.08C262.628 28.992 261.488 33.21 261.374 34.92C261.26 36.402 261.602 36.858 262.058 40.05C262.286 41.988 263.198 44.952 263.882 46.434C264.68 47.802 265.934 49.854 266.39 50.196C266.846 50.766 268.898 52.02 270.038 52.59C270.494 52.818 271.52 53.16 272.318 53.388C273.686 53.844 273.8 53.844 275.282 53.616ZM274.712 30.93C274.484 30.93 274.484 30.93 274.826 29.676C275.168 27.852 275.966 26.142 276.65 25.116C277.334 24.204 277.904 22.95 277.904 22.38C277.904 21.81 278.588 21.012 279.386 20.556C280.412 19.872 281.096 19.188 282.008 17.934C282.692 17.022 283.148 16.908 283.376 17.478C283.49 17.592 283.49 18.162 283.49 18.846C283.49 19.758 283.262 20.1 282.35 22.038C281.324 24.204 280.184 25.8 278.588 27.396C275.51 30.36 274.94 30.93 274.712 30.93ZM331.894 58.746C332.464 58.518 333.262 57.72 333.376 57.036C333.49 56.466 333.718 56.238 334.744 53.844C335.314 52.362 335.428 52.134 335.428 50.652C335.428 47.688 335.77 44.382 335.998 43.47L336.34 41.646C336.454 39.936 337.252 36.972 338.278 34.008C338.62 32.982 339.076 31.044 339.304 30.246C339.304 29.79 339.76 28.764 340.102 27.852L340.786 26.142C340.786 25.914 342.496 22.608 343.18 21.582C343.636 20.898 344.206 19.758 344.548 19.074C344.89 18.276 345.46 17.478 345.802 17.022C346.144 16.68 346.486 16.11 346.6 15.768L347.398 14.742C348.082 14.172 348.082 14.4 347.626 15.996C347.398 16.68 347.17 18.048 347.17 19.302C346.714 25.23 346.144 23.976 345.346 28.65C345.118 30.588 345.004 30.702 345.232 32.526C345.574 34.464 345.46 34.464 345.118 35.604C344.776 36.63 344.776 36.972 344.776 39.48C344.89 42.216 344.89 42.33 345.232 43.128C345.574 43.812 345.688 44.268 345.802 46.434C346.03 48.486 346.03 49.17 346.486 50.196C346.942 51.564 347.398 52.362 347.626 52.59L347.968 53.388C348.538 55.098 349.45 55.44 351.958 57.15C352.87 57.834 355.378 58.176 356.29 57.834C356.518 57.834 357.202 57.264 357.886 56.694C359.026 55.782 359.482 55.326 360.508 53.73C361.876 51.678 362.104 51.222 362.218 49.512C362.332 48.258 361.99 47.574 361.306 47.346C360.622 47.118 360.166 47.574 359.824 48.714C359.026 50.994 356.404 54.186 355.606 53.844C355.492 53.844 355.15 53.502 355.036 53.046C354.694 52.476 354.58 52.134 354.58 49.056C354.466 46.32 354.58 45.636 354.808 44.838C354.922 44.382 355.036 43.47 355.036 42.786C355.036 41.76 355.036 41.304 355.378 40.62C355.834 39.708 355.834 39.594 355.834 36.63V33.666L356.974 31.5C356.974 30.36 356.974 26.028 357.088 25.8L357.316 23.862C357.316 22.494 357.43 21.696 357.658 21.012C358.228 19.644 358.114 18.276 357.658 16.566C357.316 15.654 357.202 14.97 357.202 14.172C357.202 13.488 357.088 12.69 356.974 12.234C356.746 11.664 355.834 10.068 354.694 8.472C354.124 7.56 352.756 6.99 351.616 6.99C350.248 6.99 348.424 7.674 347.626 8.586C347.284 9.042 346.942 9.384 346.942 9.498C346.942 9.612 346.6 9.954 346.258 10.41C345.802 10.866 345.346 11.55 345.232 12.006C345.004 12.348 344.662 12.918 344.32 13.26C343.978 13.602 343.636 13.944 343.636 14.058C343.636 14.286 343.408 14.628 343.18 14.97C341.812 16.794 340.9 18.96 339.532 21.354C338.278 23.406 337.252 25.8 336.568 27.738L335.656 30.018L335.428 30.702C335.2 29.448 335.086 28.992 335.314 27.282C335.428 25.914 335.428 25.572 335.2 23.862C334.972 22.38 334.858 21.468 334.972 20.328C334.972 19.188 334.972 18.162 334.744 17.022C334.63 15.996 334.516 14.856 334.516 14.4C334.516 13.83 334.402 12.918 334.288 12.348C334.06 11.55 334.06 10.866 334.06 9.84C334.174 8.7 334.174 8.358 333.946 7.674L333.148 5.622C332.578 4.026 331.666 2.88599 330.868 2.658C330.07 2.316 329.044 2.202 328.474 2.43L327.562 2.88599C326.878 3.684 325.282 8.928 325.282 10.41C325.282 10.752 325.054 11.55 324.94 12.12C324.598 13.146 324.598 13.374 324.712 16.68C324.712 19.872 324.712 20.442 324.484 22.038C324.142 23.634 324.142 23.976 324.37 24.888C324.598 26.598 324.484 28.65 323.914 32.868C323.686 34.236 323.686 34.806 323.8 35.49C323.914 35.946 323.914 37.314 323.914 38.682C323.8 39.936 323.914 41.874 324.028 43.014C324.826 52.248 324.484 52.134 325.282 53.616C325.852 54.756 327.22 56.922 328.018 57.834C328.93 58.86 330.64 59.202 331.894 58.746ZM375.119 56.922C375.917 56.922 377.057 56.808 377.513 56.694L378.881 56.466C379.565 56.352 381.161 55.44 382.073 54.642C383.099 53.844 384.581 51.792 385.493 50.31C387.317 46.89 387.089 45.978 388.229 43.128C388.457 42.444 388.685 41.532 388.799 40.962L389.141 39.024C389.369 37.998 389.483 35.832 389.369 33.096C389.369 31.728 388.571 28.536 387.887 27.396C387.659 26.826 387.431 26.37 387.431 26.256C387.431 26.142 387.203 25.572 386.861 24.888C386.063 23.178 384.011 21.696 382.187 21.126C381.959 21.126 381.731 20.898 381.617 20.67C381.047 19.188 380.819 18.846 379.793 18.048L378.083 16.794C377.171 16.452 375.803 16.452 374.321 16.908L372.155 17.478C371.243 17.706 370.901 17.934 370.217 18.618C368.507 20.328 367.253 21.924 366.683 23.178C366.341 23.862 365.657 24.888 365.315 25.458C364.061 27.054 363.263 28.536 362.807 30.018C362.351 31.158 362.351 31.5 362.237 34.35C362.123 38.454 362.351 37.998 362.921 42.786L363.263 45.408C363.377 46.662 364.631 47.916 366.683 51.45C368.849 54.87 369.533 55.554 372.041 56.352C373.409 56.808 373.865 56.922 375.119 56.922ZM377.627 49.512C377.399 49.512 376.943 49.17 376.601 48.714L375.917 48.03L375.575 45.75C375.461 44.268 375.347 42.786 375.347 41.418C375.347 40.164 375.347 38.796 375.233 38.112C375.119 37.086 375.119 36.744 375.575 35.718C375.803 35.148 376.031 33.894 376.145 33.21C376.487 31.5 376.715 30.93 377.513 29.676C378.197 28.536 378.653 27.396 378.881 26.142C378.995 24.66 379.223 24.66 379.793 25.914L380.477 27.396C381.275 28.65 382.073 30.474 382.073 30.702L382.529 32.754C382.985 34.35 382.985 34.806 382.985 36.516C382.871 37.656 382.985 38.796 382.985 39.138C383.099 39.366 382.985 40.164 382.871 40.962L382.415 43.014C382.415 43.356 382.301 43.926 382.073 44.154L381.617 45.636C381.389 46.434 381.047 46.89 380.477 47.46C380.135 47.916 379.679 48.372 379.565 48.6C379.337 49.056 378.083 49.626 377.627 49.512ZM399.467 54.186C400.151 54.3 401.975 53.73 402.773 53.16C403.457 52.818 404.369 51.45 404.939 49.968C405.509 48.372 405.281 49.284 406.421 46.548L407.219 44.724C407.447 45.294 407.789 46.206 408.245 47.118C408.473 47.46 408.701 47.916 408.701 48.03C408.701 48.6 409.613 49.968 410.639 50.994C411.551 52.02 411.893 52.134 414.173 52.932C416.339 53.616 418.277 53.16 419.987 51.564C420.671 50.994 421.241 49.74 421.355 48.828C421.355 48.258 421.583 47.688 422.267 45.864C422.837 44.61 422.837 43.47 422.381 37.884C421.925 32.982 421.925 32.526 421.355 30.132C420.557 27.168 419.987 26.028 418.733 24.888C418.049 24.318 417.821 24.204 417.365 24.318C416.909 24.318 416.681 24.432 416.453 24.774C416.111 25.116 416.111 25.23 416.339 27.624C416.681 30.702 416.909 36.744 416.681 37.998C416.681 38.568 416.567 39.252 416.681 39.594C416.681 39.822 416.453 40.62 416.225 41.304C415.997 42.102 415.769 43.128 415.655 44.04C415.541 46.092 415.427 46.434 415.199 46.548C414.857 46.662 413.147 43.014 412.463 40.278C412.121 39.366 411.209 38.112 410.297 37.77C409.613 37.542 408.587 37.656 407.903 38.112C407.219 38.568 406.877 39.48 406.877 40.734C406.763 41.874 406.079 43.356 404.597 45.978C404.027 46.776 401.519 49.626 401.405 49.512C401.405 49.398 401.405 48.942 401.519 48.372C401.861 46.434 401.519 45.066 401.975 43.584C402.545 42.216 402.545 41.532 402.431 40.164C402.317 39.138 402.431 38.682 402.659 37.884C403.115 36.516 403.115 35.832 403.457 33.894C403.913 31.614 404.027 30.132 403.799 29.448C403.685 28.878 403.799 28.422 403.913 27.966C404.141 27.054 404.027 25.686 403.685 25.002C403.229 24.204 402.203 23.178 401.519 23.064C400.835 22.836 399.809 22.95 399.239 23.178C398.441 23.634 397.985 24.318 396.389 27.396C394.793 30.474 394.451 31.158 394.223 32.184C394.109 32.526 393.881 33.324 393.653 33.78C393.425 34.464 393.197 35.262 393.197 36.288L392.855 39.252C392.741 40.164 392.741 40.848 392.855 41.304C393.197 42.786 393.311 44.724 393.995 46.434C394.337 47.118 394.679 48.03 394.679 48.6C394.793 49.056 395.135 49.854 395.363 50.424C395.705 51.45 395.819 51.564 397.301 52.818C398.441 53.844 399.011 54.186 399.467 54.186Z" fill="#1E1E1E"/>
</svg>
