<svg width="361" height="191" viewBox="0 0 361 191" fill="none" xmlns="http://www.w3.org/2000/svg">
<path d="M338.65 59.7544C324.646 61.1565 310.601 62.6614 296.515 64.2692L299.273 62.8307L302.116 61.9698C311.06 60.3075 319.99 58.5109 328.906 56.5798C332.278 56.0656 334.783 54.041 334.61 51.9986C334.321 50.0336 331.552 48.8948 328.286 49.2852L329.793 48.6583C330.319 48.4801 330.619 48.0264 330.419 47.7462C329.925 47.3949 329.403 47.3081 328.938 47.4994C327.13 48.2842 325.357 49.0818 323.576 49.8906C306.377 52.1485 289.326 55.3741 272.295 58.7489C290.283 53.2292 308.655 48.3776 327.32 44.4681C326.983 44.7754 327.013 45.2001 327.526 45.3874C328.084 45.5283 328.628 45.433 329.105 45.1107C329.5 44.755 329.349 44.3419 328.905 44.1905L328.867 44.1972C338.892 42.129 348.995 40.3339 359.176 38.8118C359.765 38.7085 360.209 38.3442 360.142 37.9642C360.076 37.5842 359.479 37.3639 358.812 37.4999C325.072 42.4547 292.209 50.8572 260.478 61.1436L255.168 62.2076C254.362 60.7916 252.933 59.6664 251.148 58.8615C262.553 56.1855 273.873 53.4003 285.214 50.4871C294.809 48.9275 304.412 47.3695 314.025 45.8129C315.41 45.5704 316.455 44.7569 316.332 43.8615C316.208 42.9661 314.995 42.5959 313.514 42.798C311.152 43.1545 308.795 43.5481 306.462 43.9091C308.221 42.531 309.231 40.8449 309.071 39.1725C308.912 37.5 307.695 36.2804 305.865 35.4451C315.976 32.1265 325.961 28.6581 335.605 24.6763C336.173 24.4525 336.425 24.0454 336.154 23.7394C335.66 23.3852 335.137 23.327 334.687 23.5761C320.246 27.0609 306.112 31.0269 291.865 34.6687C280.121 34.7103 268.599 34.5601 256.139 35.9593C238.002 38.0472 221.507 43.0476 205.036 48.0535C198.887 48.5957 192.794 49.2649 186.756 50.0613C187.469 49.1628 187.814 48.1757 187.642 47.1933C187.585 46.9401 187.495 46.7011 187.38 46.4941C192.677 45.7001 197.993 44.8643 203.397 44.0133C253.448 36.125 299.177 21.2276 345.995 7.29531C349.007 6.53854 350.933 4.51986 350.224 2.79102C349.514 1.06217 346.503 0.261838 343.495 1.00841C320.589 5.02076 300.02 11.8429 277.376 18.9805C261.256 24.0491 247.037 28.2018 230.709 32.6285C211.629 37.7665 193.496 40.5416 174.477 43.8347C172.548 43.8413 170.644 44.0441 168.775 44.442L163.106 45.7502C148.171 48.1082 133.366 49.517 118.624 50.8384C135.816 46.6998 152.941 42.3629 169.622 36.9287C170.833 36.6209 171.53 35.792 171.28 35.1289C170.942 34.4717 169.745 34.1655 168.535 34.4825C144.929 40.1649 121.115 44.9476 97.3524 49.8933C89.7466 44.8541 75.3107 43.6287 62.9397 45.5664C58.5682 46.2804 54.3033 47.5768 50.1837 49.4438C52.2196 49.3546 54.1965 49.2471 56.2286 49.1682C50.3974 50.4093 45.6789 52.8789 41.0312 55.4028C40.5839 55.3952 40.1366 55.3876 39.6688 55.4218C27.5922 54.0123 14.3012 56.9995 1.64557 57.7262C2.04481 58.4778 2.5057 59.1994 2.90332 59.9417C0.509872 59.7401 -1.08152 58.5478 -3.67292 58.5527C-2.86371 59.0032 -2.10156 59.4715 -1.29776 59.923L-1.44921 59.9495C-4.71202 59.1774 -7.9426 59.0853 -11.0635 59.6753C-19.3366 57.3513 -29.0223 56.8603 -38.9589 57.5788C-40.8675 56.7467 -42.7868 56.4776 -44.6226 56.7845C-45.5715 56.7347 -46.529 56.5834 -47.4894 56.3315C-54.2313 53.5195 -62.1072 52.1575 -70.6257 51.615C-68.9235 52.0714 -67.151 52.5156 -65.4504 52.9628C-67.9972 52.664 -70.5186 52.6714 -72.9947 52.9852C-72.6393 53.391 -72.1995 53.8011 -71.8458 54.1977C-80.5385 52.3101 -91.4837 55.45 -96.2668 61.1787C-101.05 66.9074 -97.9383 73.0872 -89.252 74.9377L-87.989 75.2419C-92.0028 76.7378 -95.3486 78.9287 -96.932 82.0144C-97.7508 83.7054 -96.4715 85.4395 -95.9267 87.1495C-95.8134 89.7375 -92.1531 91.3793 -87.7735 90.7937C-86.6502 90.6449 -85.5519 90.3503 -84.4883 89.9125C-79.3119 89.9611 -74.0475 89.8127 -68.9756 90.061C-68.0254 90.2234 -67.1262 89.8818 -66.4091 89.0861C-66.0733 88.4255 -66.6315 87.8164 -67.6576 87.7191C-71.3795 87.1579 -75.0062 86.5035 -78.6162 85.8176C-78.8715 86.0152 -79.1067 86.1997 -79.382 86.4103C-79.2854 86.1575 -79.1677 85.9316 -79.0316 85.7376L-80.0165 85.5567L-79.3627 85.0887L-78.5675 85.1405C-78.1478 84.702 -77.7009 84.3267 -77.2311 84.018C-70.992 83.8326 -64.7961 83.7503 -58.8268 84.4432C-58.4774 84.4967 -58.8364 85.725 -58.1522 86.035C-57.8136 86.1858 -57.4674 86.3162 -57.1034 86.453C-58.164 86.3809 -59.2761 86.3656 -60.4558 86.4098L-67.136 90.2833L-67.4508 90.4913L-68.9949 91.3826C-68.9873 91.4163 -68.9813 91.4504 -68.9771 91.4846L-69.3665 91.7439C-70.0285 91.7834 -70.6938 91.8044 -71.3597 91.8542C-71.9966 91.8367 -72.5926 92.1026 -73.0866 92.6247C-73.4219 92.3614 -73.7625 92.1276 -74.1068 91.9246C-77.9293 92.0306 -77.9293 92.0306 -81.8626 92.2037C-81.8019 92.4421 -81.7152 92.6671 -81.6072 92.8659C-82.5373 93.2444 -83.502 93.4774 -84.4901 93.5619C-85.918 93.812 -85.918 93.812 -89.5679 94.0119L-87.6445 94.8404L-89.2915 94.317L-88.6748 95.5463L-89.6155 94.2495L-90.0779 95.4291L-93.6101 92.8955L-95.6648 93.8954C-95.8677 94.1151 -96.0547 94.3684 -96.2235 94.6524C-96.157 95.0324 -96.157 95.0324 -97.1488 96.5626C-97.1037 96.8812 -97.0168 97.1925 -96.8945 97.4733C-96.4521 97.8352 -96.4521 97.8352 -96.1523 99.0054C-95.7728 99.2903 -95.3839 99.5166 -94.9915 99.6809C-94.3776 99.8121 -94.2164 99.8412 -91.9625 100.201C-92.1107 100.437 -92.2464 100.681 -92.393 100.926C-92.4177 103.204 -92.4177 103.204 -88.8604 107.854C-87.4381 108.703 -85.9908 109.284 -84.5494 109.582C-81.6724 109.584 -81.6724 109.584 -78.354 109.529C-78.354 109.529 -77.6238 109.592 -76.363 109.629C-75.6593 110.064 -74.9636 110.561 -74.2794 111.117C-74.853 111.261 -75.4035 111.511 -75.9215 111.863C-77.2514 112.832 -77.2324 114.118 -75.8726 114.72C-76.901 118.397 -75.3798 121.321 -72.8401 123.885C-73.0387 124.374 -73.159 124.952 -73.1922 125.578C-73.2253 126.203 -73.1706 126.86 -73.0318 127.501C-74.8998 130.808 -75.8428 134.145 -75.8869 137.553L-75.6681 140.457C-74.5575 142.756 -72.1791 144.622 -68.9034 145.882L-67.8908 146.412L-68.326 148.924C-63.4407 154.535 -55.0518 158.253 -49.3661 163.437L-45.3292 165.987C-42.3499 168.102 -38.0086 169.271 -33.1455 169.346L-28.007 169.401C-26.9631 169.218 -25.9062 169.11 -24.852 168.954C-29.6288 172.809 -31.7823 177.638 -30.017 182.019C-27.0307 189.233 -14.3114 192.498 -1.62246 189.224C32.6661 182.912 65.7328 176.595 100.285 167.333C125.877 160.51 148.908 153.295 174.385 148.842C198.183 141.33 220.927 133.047 243.812 123.823C263.053 116.135 276.864 105.042 293.408 95.5435C293.892 95.2867 293.845 94.8557 293.532 94.5665C292.969 94.3539 292.411 94.402 291.923 94.7051C264.868 105.176 237.496 114.976 207.632 121.372C204.208 122.096 200.83 122.707 197.469 123.248C197.045 123.196 196.626 123.193 196.213 123.239C193.107 123.413 189.996 123.617 186.882 123.851L190.059 123.209C192.178 122.895 193.812 121.596 193.745 120.318C193.652 119.79 193.274 119.35 192.71 119.028C200.285 116.316 207.623 113.235 214.915 110.057C216.97 109.588 218.959 108.805 220.86 107.716C229.834 107.1 238.79 106.228 247.794 105.53L250.055 105.516C253.006 105.276 255.673 104.016 256.809 102.289C257.117 101.925 257.329 101.387 257.415 100.75C277.125 94.5939 297.258 89.0421 315.435 80.7858C316.36 80.366 316.774 79.7394 316.513 79.1737C316.955 79.2501 317.384 79.175 317.773 78.9529C320.066 77.5283 322.444 76.3778 324.891 75.5091C325.438 75.1936 325.697 74.7948 325.373 74.5363C324.852 74.1994 324.31 74.1591 323.842 74.4224C321.201 75.4773 318.656 76.6395 316.351 78.0271C316.107 78.194 315.965 78.4004 315.951 78.6036C315.146 78.3153 314.348 78.3246 313.614 78.6308C294.227 83.7365 275.828 90.7898 256.105 95.0853C265.443 91.1093 275.094 87.8044 285.247 84.2492C297.508 79.9999 308.601 75.0287 321.122 71.6224C321.782 71.5068 322.142 71.0807 322.032 70.737C321.921 70.3934 321.291 70.1982 320.652 70.4055C294.896 76.7321 273.554 89.2968 246.629 94.0131C245.548 94.2025 244.515 94.3835 243.449 94.4746C251.23 90.074 258.859 85.6044 266.461 81.1683C291 75.5613 315.326 69.342 339.193 62.286C340.389 62.0767 341.25 61.2954 341.09 60.6069C340.93 59.9184 339.831 59.5284 338.65 59.7544ZM-81.2983 100.836C-80.919 100.974 -80.5427 101.187 -80.178 101.471L-81.2983 100.836ZM-21.5971 88.8117C-26.6225 89.1475 -31.7062 89.6272 -36.8754 90.3512C-38.7646 90.5943 -40.6179 91.0498 -42.4232 91.7146C-44.9824 89.9817 -47.5931 88.6501 -50.2161 87.7398C-45.4168 88.055 -40.0761 87.578 -35.1037 87.4808C-29.5888 87.3936 -24.1718 87.2567 -18.7911 87.0402C-19.3861 87.2399 -19.9913 87.4128 -20.6041 87.6061C-21.2169 87.7994 -22.4107 87.9226 -21.5971 88.8117ZM-13.9599 67.71L-10.7512 69.2877L-11.165 69.3124L-15.0767 69.0997L-14.2837 69.553C-19.236 69.9237 -24.1392 70.2572 -29.0477 70.4961C-36.651 69.8489 -44.1883 69.9158 -51.6238 70.6965C-49.5934 69.5576 -47.6512 68.329 -45.8842 67.0547C-35.9243 67.3925 -26.2309 68.4361 -16.0412 67.4441C-15.3364 67.5212 -14.6479 67.6012 -13.9545 67.709L-13.9599 67.71ZM-56.5394 110.646L-58.1979 109.294C-58.1979 109.294 -57.4898 109.867 -56.5394 110.646ZM-67.5761 144.58L-67.8715 144.326L-66.1802 136.636L-67.5761 144.58Z" fill="#FFC501"/>
</svg>
