<svg width="297" height="129" viewBox="0 0 297 129" fill="none" xmlns="http://www.w3.org/2000/svg">
<path d="M9.80759 62.052C12.7716 62.622 12.9996 62.736 15.0516 62.508C16.0776 62.394 17.4456 62.166 18.1296 61.938C21.8916 60.798 21.8916 62.052 27.5916 56.694C29.1876 55.326 31.4676 52.362 32.2656 50.766C32.7216 49.968 33.2916 49.17 33.8616 48.714C35.0016 47.574 35.3436 46.776 35.7996 44.154C36.3696 41.076 36.2556 39.48 35.2296 36.402C33.9756 32.526 32.9496 30.93 30.7836 29.676C28.9596 28.536 28.8456 27.966 27.4776 27.738C26.4516 27.51 22.6896 27.282 21.7776 27.282C21.4356 27.396 20.7516 27.282 20.2956 27.282C19.7256 27.168 19.0416 27.168 18.2436 27.282C17.2176 27.51 16.9896 27.51 15.5076 27.168C13.4556 26.712 12.9996 26.598 12.7716 26.256C12.5436 25.8 12.7716 24.432 13.3416 22.722C13.7976 21.468 14.3676 20.784 16.1916 18.96C16.6476 18.39 17.6736 17.136 18.2436 16.224C19.8396 13.716 20.1816 13.374 22.0056 12.006C23.0316 11.322 23.8296 10.638 23.8296 10.524C23.9436 10.182 24.9696 9.612 26.4516 9.156C29.5296 8.358 30.6696 6.648 29.7576 3.912C28.8456 1.28999 27.4776 0.378 24.2856 0.605997C23.7156 0.605997 22.8036 0.719995 22.3476 0.947999C21.8916 1.176 20.9796 1.404 20.2956 1.404C19.6116 1.518 18.9276 1.632 18.4716 1.974C18.0156 2.202 17.3316 2.544 16.7616 2.772C15.3936 3.342 14.5956 3.798 13.7976 4.71C12.6576 5.964 11.1756 7.332 10.4916 7.56C7.52759 9.156 8.21159 9.27 4.67759 14.172C1.94159 18.276 2.96759 17.478 2.05559 22.038C1.59959 24.09 1.71359 24.66 2.39759 26.598C3.08159 28.422 3.87959 29.562 5.24759 30.474C6.15959 31.272 8.32559 32.184 8.89559 32.07C9.12359 32.07 9.80759 32.298 10.6056 32.526C11.8596 32.868 12.0876 32.982 12.8856 32.868C13.4556 32.754 14.0256 32.754 14.3676 32.868C14.7096 32.982 15.7356 32.982 16.5336 32.868C19.6116 32.754 20.4096 32.868 22.0056 33.21C23.9436 33.666 24.2856 33.894 24.8556 34.692C25.6536 35.946 25.1976 38.226 23.3736 41.532L22.2336 43.812C22.1196 44.154 21.6636 44.838 21.2076 45.408C20.8656 45.864 20.4096 46.548 20.1816 47.004C19.8396 47.802 18.9276 48.372 17.1036 48.942C16.4196 49.17 15.3936 49.74 14.8236 50.082C12.9996 51.45 13.1136 51.45 9.69359 50.652L6.72959 50.082C5.58959 48.144 5.36159 47.802 5.58959 46.548C5.93159 44.496 4.79159 43.014 3.30959 43.584C1.71359 44.268 0.459594 47.118 0.573594 50.538C0.573594 52.818 0.801594 54.072 1.59959 54.984C2.39759 56.01 2.51159 57.492 5.24759 58.974C5.93159 59.316 7.18559 60.114 8.09759 60.798L9.80759 62.052ZM45.3204 60.912C46.1184 61.14 46.3464 61.14 47.9424 60.912C49.0824 60.798 49.8804 60.57 50.4504 60.228C51.2484 59.886 52.6164 58.404 53.0724 57.492L53.7564 56.352C53.9844 56.124 54.4404 55.326 54.7824 54.642C55.8084 52.248 55.6944 53.274 58.2024 47.802L59.3424 45.18C59.9124 44.154 60.0264 44.04 60.0264 44.382C60.0264 45.18 60.3684 46.32 60.9384 47.004C61.2804 47.46 61.5084 48.144 61.6224 48.828C61.8504 49.398 62.0784 50.196 62.1924 50.652L62.8764 52.476C63.4464 54.186 65.9544 56.694 67.5504 57.036C68.4624 57.264 69.2604 57.036 71.0844 55.896C73.3644 54.414 75.4164 52.59 76.3284 51.222L77.8104 48.942L78.6084 47.46C78.7224 47.118 79.0644 46.548 79.2924 46.092C79.6344 45.75 79.8624 45.294 79.8624 45.066C79.8624 44.952 80.0904 44.268 80.5464 43.584C82.0284 40.62 82.2564 40.278 82.4844 39.48C83.0544 37.884 82.8264 37.086 81.9144 37.086C81.3444 37.086 80.6604 37.884 78.9504 40.392C77.5824 42.672 77.0124 43.47 75.9864 44.61C75.6444 44.952 75.1884 45.636 75.0744 45.978C74.9604 46.32 74.6184 46.89 74.2764 47.118C73.9344 47.46 73.4784 48.144 73.1364 48.714C72.6804 49.284 72.1104 49.854 71.6544 50.082L70.4004 50.994C69.7164 51.564 69.2604 51.45 68.8044 50.994C68.4624 50.538 68.4624 50.424 68.5764 48.942L68.8044 45.978C68.8044 45.18 68.9184 44.382 68.9184 44.154C69.0324 43.812 69.1464 43.128 69.2604 42.558C69.2604 41.874 69.4884 40.848 69.7164 40.164C69.9444 39.366 70.0584 38.34 70.1724 37.656C70.4004 34.692 70.7424 35.262 70.6284 31.614C70.4004 29.448 70.4004 29.22 69.8304 28.194C68.6904 25.686 67.7784 24.774 66.5244 24.432C65.3844 24.204 64.2444 24.66 62.7624 26.256C61.1664 27.738 60.8244 28.65 60.7104 31.728C60.5964 33.21 60.4824 33.894 60.2544 34.578C60.0264 35.034 59.7984 35.946 59.5704 36.516C59.1144 38.454 59.0004 38.796 58.5444 39.708C58.3164 40.164 58.0884 40.734 58.0884 40.848C58.0884 40.962 57.8604 41.532 57.5184 42.102C57.1764 42.672 56.8344 43.356 56.8344 43.47C56.8344 43.698 56.6064 44.268 56.2644 44.838C55.0104 46.662 54.5544 47.574 53.8704 48.714C53.0724 50.196 51.1344 52.248 50.9064 51.906C50.5644 51.45 50.5644 49.968 50.9064 49.056C51.0204 48.714 51.4764 45.522 51.7044 43.356C51.8184 42.9 52.0464 41.874 52.1604 41.076C52.3884 40.278 52.6164 38.682 52.7304 37.656C52.8444 36.174 52.9584 35.49 53.3004 34.578C54.2124 32.184 54.4404 30.588 53.8704 28.536C53.6424 27.966 53.5284 26.94 53.5284 26.484C53.5284 25.23 53.0724 24.09 52.2744 23.406C51.2484 22.494 50.7924 22.38 49.1964 22.266C47.9424 22.266 47.7144 22.266 46.9164 22.608C45.3204 23.406 43.4964 25.344 42.3564 27.51C41.7864 28.422 41.6724 28.878 40.7604 33.21C40.5324 34.122 40.1904 35.148 39.9624 35.604C39.1644 37.086 39.0504 37.656 38.9364 39.708L38.5944 42.9C38.5944 43.926 38.5944 44.952 38.8224 46.32C39.3924 51.564 39.1644 52.362 40.3044 54.186C40.5324 54.642 40.9884 55.44 41.1024 56.01C41.5584 57.036 43.2684 59.544 44.0664 60.342C44.2944 60.57 44.8644 60.798 45.3204 60.912ZM102.225 66.726C104.847 66.27 104.961 65.472 106.899 64.218C107.583 63.648 108.723 62.28 108.723 61.824C108.723 61.71 108.951 61.368 109.293 60.912C110.091 59.886 110.205 59.544 110.433 58.518C110.547 57.948 110.775 57.15 111.003 56.694C111.231 56.238 111.459 55.326 111.573 54.756C111.687 54.072 111.915 53.046 112.143 52.476C112.371 51.792 112.599 51.108 112.599 50.424V49.17C112.599 49.056 112.827 48.942 113.169 48.828C113.397 48.6 113.967 48.258 114.309 47.916C115.563 46.548 118.413 43.926 119.325 42.672C121.149 40.392 122.973 37.77 122.973 37.656L122.745 37.2C122.289 36.516 121.947 36.744 118.071 40.62C114.651 44.04 112.599 45.864 112.143 45.864C111.915 45.864 111.687 45.066 111.573 43.812C111.573 43.128 111.345 42.33 110.775 41.19C110.319 40.278 109.863 39.024 109.635 38.454C109.407 37.77 109.065 36.972 108.609 36.402C107.583 35.148 106.899 33.894 106.443 33.552C105.873 33.096 104.733 32.526 103.707 32.298C100.515 31.5 99.8311 31.044 97.3231 31.842C95.3851 32.298 94.7011 32.64 94.1311 33.552C93.5611 34.35 92.9911 34.806 92.7631 34.578C92.5351 34.464 92.7631 32.868 93.2191 31.5C93.4471 30.93 93.6751 29.676 93.7891 28.878C93.9031 27.738 94.0171 27.168 94.4731 26.256C95.1571 24.66 95.2711 23.862 95.4991 21.012C95.4991 18.846 95.6131 18.39 95.9551 17.592C96.2971 17.022 96.5251 16.11 96.6391 15.54C96.6391 15.084 96.8671 14.172 97.0951 13.602C97.4371 12.234 97.5511 9.27 97.0951 8.016C96.7531 6.762 95.9551 5.736 95.0431 5.28C94.1311 4.824 92.5351 4.596 91.9651 5.052C91.3951 5.28 88.4311 8.586 87.9751 9.384L86.3791 12.918C83.9851 18.96 82.8451 19.188 82.5031 23.064C82.5031 23.976 82.2751 25.23 82.1611 25.914C81.9331 26.712 81.8191 27.852 81.9331 28.65C81.9331 31.044 81.4771 30.588 80.7931 34.35C80.4511 36.744 80.4511 36.972 80.6791 42.102C80.7931 42.9 80.9071 44.04 81.0211 44.496C81.4771 45.864 81.2491 48.03 81.5911 50.88C81.7051 52.248 81.8191 52.59 82.5031 53.958C82.9591 54.87 83.3011 55.668 83.3011 55.782C83.3011 56.124 83.9851 57.378 84.4411 57.834C85.0111 58.404 85.6951 58.632 86.6071 58.404C87.9751 58.176 89.4571 55.668 89.6851 53.16C89.6851 52.362 89.9131 51.336 90.0271 50.652C90.4831 49.512 90.8251 47.574 91.0531 45.75C91.2811 43.926 91.5091 43.356 92.8771 41.874C94.8151 39.594 95.9551 38.682 97.5511 38.34C98.3491 38.112 98.3491 38.112 99.1471 38.682C100.173 39.48 100.971 40.392 101.199 41.532L101.883 43.128C102.111 43.584 102.339 44.382 102.453 45.066C102.453 45.75 102.681 46.434 103.023 47.118C103.365 47.916 103.593 48.486 103.707 49.398C103.707 50.196 103.821 50.88 103.935 50.994C104.049 51.222 103.593 51.678 102.681 52.248C101.427 53.046 100.401 54.186 99.2611 54.984C98.4631 55.554 97.5511 56.58 97.2091 57.264C97.0951 57.492 96.8671 57.834 96.6391 58.062C96.0691 58.632 95.7271 59.772 95.7271 61.596C95.7271 63.078 95.8411 63.534 96.0691 64.104C96.6391 65.358 97.0951 65.814 98.3491 66.384C99.6031 67.068 100.401 67.182 102.225 66.726ZM100.173 62.28C99.8311 62.28 99.7171 61.938 99.7171 61.026C99.7171 60.228 99.9451 59.544 100.971 58.062C101.769 57.036 103.251 55.44 103.479 55.554L103.251 56.922C102.909 59.202 101.085 62.28 100.173 62.28ZM131.131 64.788C131.701 64.674 132.271 64.446 133.297 63.762C135.007 62.622 136.717 60.684 137.857 58.518C138.655 57.036 138.655 56.922 138.655 55.782C138.655 55.098 138.769 54.186 138.883 53.73C139.111 52.818 139.111 52.704 138.769 51.222C138.085 48.258 138.085 48.486 139.567 47.118C140.365 46.434 141.163 45.75 141.505 45.636L142.987 44.268C144.583 42.558 148.459 38.568 148.573 38.34C148.687 38.112 148.687 37.428 148.459 37.2C148.003 36.744 147.547 37.086 145.153 39.252C141.619 42.444 141.391 42.444 139.567 43.926C139.111 44.382 138.427 44.952 138.085 45.066C137.515 45.408 137.401 45.408 137.287 45.18L136.489 44.154C135.919 43.47 135.235 42.33 133.753 39.594L133.069 37.998C132.613 36.858 132.499 36.516 132.385 34.236C132.157 29.562 132.157 29.106 133.411 27.966C134.095 27.282 134.209 27.282 135.007 27.282C137.629 27.282 139.453 24.318 138.085 21.924C137.401 20.784 136.261 19.644 135.349 19.188C134.665 18.732 134.437 18.732 132.271 18.732C130.675 18.732 129.877 18.846 129.421 18.96C128.737 19.302 127.711 20.1 127.027 20.556C126.115 21.012 125.317 21.696 124.747 22.836C124.519 23.406 123.949 24.204 123.493 24.66C123.151 25.002 122.581 25.914 122.353 26.598C120.757 30.588 120.073 29.79 121.327 34.464C121.669 36.06 122.125 37.542 122.239 37.77C122.581 38.454 123.721 39.708 125.431 41.532C126.001 42.102 126.571 42.9 126.799 43.356C126.913 43.698 127.597 44.61 128.167 45.294C128.737 45.978 129.535 47.004 129.763 47.46C130.105 48.03 130.561 48.714 130.789 49.17C131.701 50.31 131.587 50.652 129.877 52.362C126.913 55.212 125.431 57.606 124.975 59.886C124.519 62.166 124.747 63.078 126.343 64.104C127.825 65.13 128.395 65.13 131.131 64.788ZM128.167 61.14C127.711 61.14 127.825 60.798 128.281 59.316C128.623 58.404 128.965 57.72 129.535 56.922C131.017 55.098 131.701 54.3 131.815 54.3C131.929 54.3 131.929 54.87 131.929 55.896C131.815 57.15 131.701 57.606 131.359 58.404L130.561 59.886C129.991 60.342 128.623 61.14 128.167 61.14ZM159.128 58.062C160.496 58.062 160.952 57.948 161.636 57.606C162.092 57.378 162.776 57.15 163.118 57.15C163.916 57.036 166.424 55.098 168.362 53.046C169.844 51.678 172.694 48.258 173.15 47.232L174.062 45.864C174.29 45.636 174.632 45.066 174.746 44.61C175.088 43.812 175.772 42.33 177.026 39.822C177.938 37.998 178.052 37.542 177.596 37.314C177.254 37.2 177.14 37.2 176.912 37.428C176.57 37.77 174.518 40.506 173.834 41.76C173.492 42.216 172.922 43.014 172.466 43.47C172.01 43.926 171.212 44.838 170.87 45.522C169.274 47.802 166.766 50.538 164.828 51.792C163.004 53.046 162.548 53.274 161.522 53.388C160.724 53.388 160.496 53.388 159.812 53.046C158.786 52.59 158.102 51.792 157.988 51.108C157.646 48.828 157.418 49.056 157.418 44.04C157.304 40.506 157.418 40.164 157.76 38.568L158.33 35.49C158.672 33.666 159.47 31.728 160.838 29.79C161.864 28.308 162.092 28.194 162.89 27.852C164.258 27.396 165.626 27.168 166.424 27.51C168.02 28.08 168.362 28.08 168.932 27.852C169.616 27.51 170.3 26.598 170.414 25.8C170.528 24.888 170.072 22.836 169.502 21.81C168.818 20.784 167.678 20.1 166.31 19.872C164.828 19.644 161.864 19.644 161.18 19.986L160.04 20.67C159.584 21.012 159.128 21.126 158.444 21.24C156.734 21.582 154.91 22.722 153.656 24.318L152.174 26.028C151.034 27.282 150.578 28.194 149.666 29.562C149.438 29.904 149.096 30.474 148.982 30.816C148.982 31.158 148.412 32.412 147.956 33.552C146.702 36.516 146.36 37.998 146.36 41.76C146.36 44.838 146.36 44.952 146.93 46.89C147.158 47.574 147.272 48.372 147.272 48.714C147.272 49.626 147.5 50.31 148.07 51.222L149.21 53.274C149.894 54.528 150.008 54.642 151.148 55.554C152.858 56.694 155.024 57.72 156.392 57.948C156.962 58.062 158.216 58.176 159.128 58.062ZM182.254 55.44C183.622 55.326 184.648 54.642 185.218 53.502C186.586 50.766 186.928 49.968 186.928 49.74L187.156 48.03C187.384 47.346 187.612 45.978 187.612 45.066C187.726 43.926 187.84 43.242 188.182 42.558C188.638 41.532 188.638 41.532 188.752 37.998V34.464C189.094 33.894 189.55 33.21 190.234 31.728C190.576 31.158 191.146 30.018 191.602 29.448C192.4 28.308 194.338 26.256 194.566 26.256C194.68 26.256 195.022 26.142 195.25 26.028C195.706 25.572 197.53 24.888 198.328 24.774C198.67 24.774 199.24 24.546 199.696 24.318C200.494 23.862 200.608 23.862 202.204 23.976C203.914 24.09 204.028 24.09 204.598 23.748C205.282 23.292 205.624 22.836 205.624 22.038C205.624 21.126 204.94 20.556 203.458 19.986C202.546 19.644 202.204 19.644 200.152 19.644C195.25 19.644 195.25 20.898 193.198 21.81C192.286 22.38 191.146 23.406 189.892 24.888C189.322 25.572 188.866 26.142 188.866 26.028C188.638 25.914 188.41 24.66 188.296 22.95C188.182 21.468 188.068 21.012 187.726 20.328C187.27 19.188 185.446 17.364 184.534 16.908C183.622 16.452 182.368 16.338 181.57 16.452C179.86 16.908 178.72 18.162 177.694 20.556C176.782 22.836 175.87 25.686 175.87 26.37L175.984 29.106C176.212 31.158 176.212 31.272 175.87 32.64C175.186 35.49 175.756 35.262 176.212 41.532C176.212 43.356 176.44 44.952 176.668 45.75C176.782 46.434 177.01 47.46 177.01 48.03C177.352 51.336 177.922 52.704 179.176 54.072C180.202 55.098 181 55.44 182.254 55.44ZM210.77 14.514C211.34 14.856 212.366 14.742 213.164 14.4C213.62 14.172 214.076 13.944 214.304 13.944C214.874 13.944 215.33 13.602 215.558 13.146C215.672 12.918 215.786 12.234 215.786 11.664C215.9 10.638 215.9 10.638 215.33 9.84C214.76 8.928 213.62 7.902 212.936 7.56C212.366 7.218 210.998 7.332 210.428 7.674C209.744 8.016 209.402 8.472 209.06 9.498C208.604 10.98 208.49 12.006 208.604 12.462C208.832 12.804 210.2 14.172 210.77 14.514ZM212.708 61.368C213.734 61.368 214.646 60.912 215.33 60C216.014 58.974 216.128 58.518 215.9 55.668C215.786 53.274 215.9 50.31 216.128 47.916C216.242 47.232 216.128 46.548 216.014 45.75C215.33 42.558 216.356 42.672 216.356 38.454C216.356 37.428 216.47 36.174 216.47 35.832C216.698 35.034 216.812 33.096 217.04 29.22C217.268 27.282 216.926 26.484 215.102 24.09C213.734 22.266 212.936 21.582 211.91 21.24C210.884 21.012 210.542 21.012 209.63 21.24C208.034 21.696 207.35 22.95 205.526 25.344L204.728 26.712C204.5 27.624 204.044 30.018 203.93 32.184L203.588 35.262C203.246 36.972 203.246 44.268 203.474 46.32C203.588 48.03 204.728 52.59 205.298 53.616C205.526 54.072 206.096 54.87 206.552 55.326C207.236 56.01 207.464 56.352 207.692 57.264C208.034 58.176 208.148 58.404 209.288 59.544C210.77 61.026 211.454 61.368 212.708 61.368ZM243.389 66.726C246.011 66.27 246.125 65.472 248.063 64.218C248.747 63.648 249.887 62.28 249.887 61.824C249.887 61.71 250.115 61.368 250.457 60.912C251.255 59.886 251.369 59.544 251.597 58.518C251.711 57.948 251.939 57.15 252.167 56.694C252.395 56.238 252.623 55.326 252.737 54.756C252.851 54.072 253.079 53.046 253.307 52.476C253.535 51.792 253.763 51.108 253.763 50.424V49.17C253.763 49.056 253.991 48.942 254.333 48.828C254.561 48.6 255.131 48.258 255.473 47.916C256.727 46.548 259.577 43.926 260.489 42.672C262.313 40.392 264.137 37.77 264.137 37.656L263.909 37.2C263.453 36.516 263.111 36.744 259.235 40.62C255.815 44.04 253.763 45.864 253.307 45.864C253.079 45.864 252.851 45.066 252.737 43.812C252.737 43.128 252.509 42.33 251.939 41.19C251.483 40.278 251.027 39.024 250.799 38.454C250.571 37.77 250.229 36.972 249.773 36.402C248.747 35.148 248.063 33.894 247.607 33.552C247.037 33.096 245.897 32.526 244.871 32.298C241.679 31.5 240.995 31.044 238.487 31.842C236.549 32.298 235.865 32.64 235.295 33.552C234.725 34.35 234.155 34.806 233.927 34.578C233.699 34.464 233.927 32.868 234.383 31.5C234.611 30.93 234.839 29.676 234.953 28.878C235.067 27.738 235.181 27.168 235.637 26.256C236.321 24.66 236.435 23.862 236.663 21.012C236.663 18.846 236.777 18.39 237.119 17.592C237.461 17.022 237.689 16.11 237.803 15.54C237.803 15.084 238.031 14.172 238.259 13.602C238.601 12.234 238.715 9.27 238.259 8.016C237.917 6.762 237.119 5.736 236.207 5.28C235.295 4.824 233.699 4.596 233.129 5.052C232.559 5.28 229.595 8.586 229.139 9.384L227.543 12.918C225.149 18.96 224.009 19.188 223.667 23.064C223.667 23.976 223.439 25.23 223.325 25.914C223.097 26.712 222.983 27.852 223.097 28.65C223.097 31.044 222.641 30.588 221.957 34.35C221.615 36.744 221.615 36.972 221.843 42.102C221.957 42.9 222.071 44.04 222.185 44.496C222.641 45.864 222.413 48.03 222.755 50.88C222.869 52.248 222.983 52.59 223.667 53.958C224.123 54.87 224.465 55.668 224.465 55.782C224.465 56.124 225.149 57.378 225.605 57.834C226.175 58.404 226.859 58.632 227.771 58.404C229.139 58.176 230.621 55.668 230.849 53.16C230.849 52.362 231.077 51.336 231.191 50.652C231.647 49.512 231.989 47.574 232.217 45.75C232.445 43.926 232.673 43.356 234.041 41.874C235.979 39.594 237.119 38.682 238.715 38.34C239.513 38.112 239.513 38.112 240.311 38.682C241.337 39.48 242.135 40.392 242.363 41.532L243.047 43.128C243.275 43.584 243.503 44.382 243.617 45.066C243.617 45.75 243.845 46.434 244.187 47.118C244.529 47.916 244.757 48.486 244.871 49.398C244.871 50.196 244.985 50.88 245.099 50.994C245.213 51.222 244.757 51.678 243.845 52.248C242.591 53.046 241.565 54.186 240.425 54.984C239.627 55.554 238.715 56.58 238.373 57.264C238.259 57.492 238.031 57.834 237.803 58.062C237.233 58.632 236.891 59.772 236.891 61.596C236.891 63.078 237.005 63.534 237.233 64.104C237.803 65.358 238.259 65.814 239.513 66.384C240.767 67.068 241.565 67.182 243.389 66.726ZM241.337 62.28C240.995 62.28 240.881 61.938 240.881 61.026C240.881 60.228 241.109 59.544 242.135 58.062C242.933 57.036 244.415 55.44 244.643 55.554L244.415 56.922C244.073 59.202 242.249 62.28 241.337 62.28ZM275.715 53.616C278.907 53.274 281.073 52.59 283.581 51.108L286.317 49.284C287.001 48.942 288.027 48.03 288.711 47.46C289.851 46.32 289.965 46.206 291.561 44.154C292.131 43.47 292.815 42.558 293.271 42.216C294.069 41.304 295.893 39.252 296.349 38.568C296.805 38.112 296.805 37.542 296.463 37.2C295.665 36.516 294.981 36.972 290.877 40.962C290.307 41.418 289.851 41.874 289.737 41.874C289.623 41.874 289.053 42.33 288.483 42.9C286.431 44.838 284.835 46.32 284.151 46.776L282.897 47.688C281.985 48.486 279.249 49.398 277.767 49.398C277.311 49.398 276.741 49.284 275.829 48.828C274.347 48.03 273.321 46.89 273.093 45.75L272.637 44.268C272.295 43.584 272.295 43.128 272.181 41.418V39.024C272.067 38.226 272.979 37.2 274.803 36.06C277.197 34.464 277.197 34.236 278.907 32.982C279.477 32.64 280.047 32.07 280.161 31.842C280.389 31.5 280.731 31.158 281.073 30.816C281.871 30.246 282.099 30.018 282.783 28.878C284.151 26.826 283.467 29.106 286.317 22.95C286.431 22.608 286.773 21.81 286.887 21.24L287.343 19.188C287.571 18.504 287.685 17.364 287.685 16.338C287.685 14.742 287.685 14.628 287.229 13.944C286.659 13.146 284.721 11.55 283.695 10.98C283.011 10.638 282.327 10.638 281.073 10.752C280.275 10.866 278.109 11.55 276.855 12.234C276.285 12.576 275.259 12.918 274.689 13.146C273.435 13.488 271.269 14.856 270.471 15.654C270.129 15.996 269.673 16.566 269.445 17.136C268.305 19.188 266.595 20.556 266.253 22.494C266.139 22.836 265.797 23.52 265.455 24.09C265.113 24.66 264.657 25.686 264.429 26.256C264.315 26.826 263.859 27.624 263.631 28.08C263.061 28.992 261.921 33.21 261.807 34.92C261.693 36.402 262.035 36.858 262.491 40.05C262.719 41.988 263.631 44.952 264.315 46.434C265.113 47.802 266.367 49.854 266.823 50.196C267.279 50.766 269.331 52.02 270.471 52.59C270.927 52.818 271.953 53.16 272.751 53.388C274.119 53.844 274.233 53.844 275.715 53.616ZM275.145 30.93C274.917 30.93 274.917 30.93 275.259 29.676C275.601 27.852 276.399 26.142 277.083 25.116C277.767 24.204 278.337 22.95 278.337 22.38C278.337 21.81 279.021 21.012 279.819 20.556C280.845 19.872 281.529 19.188 282.441 17.934C283.125 17.022 283.581 16.908 283.809 17.478C283.923 17.592 283.923 18.162 283.923 18.846C283.923 19.758 283.695 20.1 282.783 22.038C281.757 24.204 280.617 25.8 279.021 27.396C275.943 30.36 275.373 30.93 275.145 30.93ZM105.051 128.746C105.621 128.518 106.419 127.72 106.533 127.036C106.647 126.466 106.875 126.238 107.901 123.844C108.471 122.362 108.585 122.134 108.585 120.652C108.585 117.688 108.927 114.382 109.155 113.47L109.497 111.646C109.611 109.936 110.409 106.972 111.435 104.008C111.777 102.982 112.233 101.044 112.461 100.246C112.461 99.79 112.917 98.764 113.259 97.852L113.943 96.142C113.943 95.914 115.653 92.608 116.337 91.582C116.793 90.898 117.363 89.758 117.705 89.074C118.047 88.276 118.617 87.478 118.959 87.022C119.301 86.68 119.643 86.11 119.757 85.768L120.555 84.742C121.239 84.172 121.239 84.4 120.783 85.996C120.555 86.68 120.327 88.048 120.327 89.302C119.871 95.23 119.301 93.976 118.503 98.65C118.275 100.588 118.161 100.702 118.389 102.526C118.731 104.464 118.617 104.464 118.275 105.604C117.933 106.63 117.933 106.972 117.933 109.48C118.047 112.216 118.047 112.33 118.389 113.128C118.731 113.812 118.845 114.268 118.959 116.434C119.187 118.486 119.187 119.17 119.643 120.196C120.099 121.564 120.555 122.362 120.783 122.59L121.125 123.388C121.695 125.098 122.607 125.44 125.115 127.15C126.027 127.834 128.535 128.176 129.447 127.834C129.675 127.834 130.359 127.264 131.043 126.694C132.183 125.782 132.639 125.326 133.665 123.73C135.033 121.678 135.261 121.222 135.375 119.512C135.489 118.258 135.147 117.574 134.463 117.346C133.779 117.118 133.323 117.574 132.981 118.714C132.183 120.994 129.561 124.186 128.763 123.844C128.649 123.844 128.307 123.502 128.193 123.046C127.851 122.476 127.737 122.134 127.737 119.056C127.623 116.32 127.737 115.636 127.965 114.838C128.079 114.382 128.193 113.47 128.193 112.786C128.193 111.76 128.193 111.304 128.535 110.62C128.991 109.708 128.991 109.594 128.991 106.63V103.666L130.131 101.5C130.131 100.36 130.131 96.028 130.245 95.8L130.473 93.862C130.473 92.494 130.587 91.696 130.815 91.012C131.385 89.644 131.271 88.276 130.815 86.566C130.473 85.654 130.359 84.97 130.359 84.172C130.359 83.488 130.245 82.69 130.131 82.234C129.903 81.664 128.991 80.068 127.851 78.472C127.281 77.56 125.913 76.99 124.773 76.99C123.405 76.99 121.581 77.674 120.783 78.586C120.441 79.042 120.099 79.384 120.099 79.498C120.099 79.612 119.757 79.954 119.415 80.41C118.959 80.866 118.503 81.55 118.389 82.006C118.161 82.348 117.819 82.918 117.477 83.26C117.135 83.602 116.793 83.944 116.793 84.058C116.793 84.286 116.565 84.628 116.337 84.97C114.969 86.794 114.057 88.96 112.689 91.354C111.435 93.406 110.409 95.8 109.725 97.738L108.813 100.018L108.585 100.702C108.357 99.448 108.243 98.992 108.471 97.282C108.585 95.914 108.585 95.572 108.357 93.862C108.129 92.38 108.015 91.468 108.129 90.328C108.129 89.188 108.129 88.162 107.901 87.022C107.787 85.996 107.673 84.856 107.673 84.4C107.673 83.83 107.559 82.918 107.445 82.348C107.217 81.55 107.217 80.866 107.217 79.84C107.331 78.7 107.331 78.358 107.103 77.674L106.305 75.622C105.735 74.026 104.823 72.886 104.025 72.658C103.227 72.316 102.201 72.202 101.631 72.43L100.719 72.886C100.035 73.684 98.4395 78.928 98.4395 80.41C98.4395 80.752 98.2115 81.55 98.0975 82.12C97.7555 83.146 97.7555 83.374 97.8695 86.68C97.8695 89.872 97.8695 90.442 97.6415 92.038C97.2995 93.634 97.2995 93.976 97.5275 94.888C97.7555 96.598 97.6415 98.65 97.0715 102.868C96.8435 104.236 96.8435 104.806 96.9575 105.49C97.0715 105.946 97.0715 107.314 97.0715 108.682C96.9575 109.936 97.0715 111.874 97.1855 113.014C97.9835 122.248 97.6415 122.134 98.4395 123.616C99.0095 124.756 100.377 126.922 101.175 127.834C102.087 128.86 103.797 129.202 105.051 128.746ZM148.276 126.922C149.074 126.922 150.214 126.808 150.67 126.694L152.038 126.466C152.722 126.352 154.318 125.44 155.23 124.642C156.256 123.844 157.738 121.792 158.65 120.31C160.474 116.89 160.246 115.978 161.386 113.128C161.614 112.444 161.842 111.532 161.956 110.962L162.298 109.024C162.526 107.998 162.64 105.832 162.526 103.096C162.526 101.728 161.728 98.536 161.044 97.396C160.816 96.826 160.588 96.37 160.588 96.256C160.588 96.142 160.36 95.572 160.018 94.888C159.22 93.178 157.168 91.696 155.344 91.126C155.116 91.126 154.888 90.898 154.774 90.67C154.204 89.188 153.976 88.846 152.95 88.048L151.24 86.794C150.328 86.452 148.96 86.452 147.478 86.908L145.312 87.478C144.4 87.706 144.058 87.934 143.374 88.618C141.664 90.328 140.41 91.924 139.84 93.178C139.498 93.862 138.814 94.888 138.472 95.458C137.218 97.054 136.42 98.536 135.964 100.018C135.508 101.158 135.508 101.5 135.394 104.35C135.28 108.454 135.508 107.998 136.078 112.786L136.42 115.408C136.534 116.662 137.788 117.916 139.84 121.45C142.006 124.87 142.69 125.554 145.198 126.352C146.566 126.808 147.022 126.922 148.276 126.922ZM150.784 119.512C150.556 119.512 150.1 119.17 149.758 118.714L149.074 118.03L148.732 115.75C148.618 114.268 148.504 112.786 148.504 111.418C148.504 110.164 148.504 108.796 148.39 108.112C148.276 107.086 148.276 106.744 148.732 105.718C148.96 105.148 149.188 103.894 149.302 103.21C149.644 101.5 149.872 100.93 150.67 99.676C151.354 98.536 151.81 97.396 152.038 96.142C152.152 94.66 152.38 94.66 152.95 95.914L153.634 97.396C154.432 98.65 155.23 100.474 155.23 100.702L155.686 102.754C156.142 104.35 156.142 104.806 156.142 106.516C156.028 107.656 156.142 108.796 156.142 109.138C156.256 109.366 156.142 110.164 156.028 110.962L155.572 113.014C155.572 113.356 155.458 113.926 155.23 114.154L154.774 115.636C154.546 116.434 154.204 116.89 153.634 117.46C153.292 117.916 152.836 118.372 152.722 118.6C152.494 119.056 151.24 119.626 150.784 119.512ZM172.624 124.186C173.308 124.3 175.132 123.73 175.93 123.16C176.614 122.818 177.526 121.45 178.096 119.968C178.666 118.372 178.438 119.284 179.578 116.548L180.376 114.724C180.604 115.294 180.946 116.206 181.402 117.118C181.63 117.46 181.858 117.916 181.858 118.03C181.858 118.6 182.77 119.968 183.796 120.994C184.708 122.02 185.05 122.134 187.33 122.932C189.496 123.616 191.434 123.16 193.144 121.564C193.828 120.994 194.398 119.74 194.512 118.828C194.512 118.258 194.74 117.688 195.424 115.864C195.994 114.61 195.994 113.47 195.538 107.884C195.082 102.982 195.082 102.526 194.512 100.132C193.714 97.168 193.144 96.028 191.89 94.888C191.206 94.318 190.978 94.204 190.522 94.318C190.066 94.318 189.838 94.432 189.61 94.774C189.268 95.116 189.268 95.23 189.496 97.624C189.838 100.702 190.066 106.744 189.838 107.998C189.838 108.568 189.724 109.252 189.838 109.594C189.838 109.822 189.61 110.62 189.382 111.304C189.154 112.102 188.926 113.128 188.812 114.04C188.698 116.092 188.584 116.434 188.356 116.548C188.014 116.662 186.304 113.014 185.62 110.278C185.278 109.366 184.366 108.112 183.454 107.77C182.77 107.542 181.744 107.656 181.06 108.112C180.376 108.568 180.034 109.48 180.034 110.734C179.92 111.874 179.236 113.356 177.754 115.978C177.184 116.776 174.676 119.626 174.562 119.512C174.562 119.398 174.562 118.942 174.676 118.372C175.018 116.434 174.676 115.066 175.132 113.584C175.702 112.216 175.702 111.532 175.588 110.164C175.474 109.138 175.588 108.682 175.816 107.884C176.272 106.516 176.272 105.832 176.614 103.894C177.07 101.614 177.184 100.132 176.956 99.448C176.842 98.878 176.956 98.422 177.07 97.966C177.298 97.054 177.184 95.686 176.842 95.002C176.386 94.204 175.36 93.178 174.676 93.064C173.992 92.836 172.966 92.95 172.396 93.178C171.598 93.634 171.142 94.318 169.546 97.396C167.95 100.474 167.608 101.158 167.38 102.184C167.266 102.526 167.038 103.324 166.81 103.78C166.582 104.464 166.354 105.262 166.354 106.288L166.012 109.252C165.898 110.164 165.898 110.848 166.012 111.304C166.354 112.786 166.468 114.724 167.152 116.434C167.494 117.118 167.836 118.03 167.836 118.6C167.95 119.056 168.292 119.854 168.52 120.424C168.862 121.45 168.976 121.564 170.458 122.818C171.598 123.844 172.168 124.186 172.624 124.186Z" fill="#1E1E1E"/>
</svg>
