<svg width="17" height="17" viewBox="0 0 17 17" fill="none" xmlns="http://www.w3.org/2000/svg">
<path d="M15.6719 2.75586H11.6543V1.99219C11.6543 0.893695 10.7606 0 9.66211 0H7.33789C6.2394 0 5.3457 0.893695 5.3457 1.99219V2.75586H1.32812C0.961363 2.75586 0.664062 3.05316 0.664062 3.41992C0.664062 3.78668 0.961363 4.08398 1.32812 4.08398H2.01583L2.82512 14.5757C2.82535 14.5788 2.82562 14.5819 2.82588 14.585C2.88618 15.2465 3.18959 15.8575 3.6802 16.3054C4.17081 16.7533 4.80685 17 5.47114 17H11.5289C12.9123 17 14.0495 15.9696 14.1741 14.6033C14.2074 14.238 13.9383 13.915 13.5731 13.8817C13.2075 13.8484 12.8848 14.1174 12.8515 14.4827C12.7897 15.1606 12.2211 15.6719 11.5289 15.6719H5.47114C4.78128 15.6719 4.21358 15.1549 4.1489 14.4685L3.3479 4.08398H13.6521L13.0849 11.4372C13.0567 11.8029 13.3303 12.1222 13.696 12.1504C13.7134 12.1517 13.7306 12.1524 13.7478 12.1524C14.0913 12.1524 14.3823 11.8876 14.4091 11.5393L14.9842 4.08398H15.6719C16.0386 4.08398 16.3359 3.78668 16.3359 3.41992C16.3359 3.05316 16.0386 2.75586 15.6719 2.75586ZM10.3262 2.75586H6.67383V1.99219C6.67383 1.62602 6.97173 1.32812 7.33789 1.32812H9.66211C10.0283 1.32812 10.3262 1.62602 10.3262 1.99219V2.75586Z" fill="black"/>
<path d="M5.48232 5.41279C5.11592 5.42879 4.83187 5.73878 4.84787 6.10521L5.1799 13.7065C5.19548 14.063 5.48942 14.3416 5.84284 14.3416C5.8526 14.3416 5.86246 14.3414 5.87232 14.3409C6.23872 14.3249 6.52277 14.015 6.50677 13.6485L6.17474 6.0472C6.15873 5.68084 5.84815 5.39632 5.48232 5.41279Z" fill="black"/>
<path d="M10.8245 6.04719L10.4925 13.6485C10.4765 14.0149 10.7605 14.3249 11.1269 14.3409C11.1368 14.3414 11.1466 14.3416 11.1564 14.3416C11.5098 14.3416 11.8038 14.063 11.8193 13.7065L12.1514 6.1052C12.1674 5.7388 11.8833 5.42879 11.5169 5.41278C11.1511 5.39641 10.8405 5.6808 10.8245 6.04719Z" fill="black"/>
<path d="M7.83594 6.07617V13.6775C7.83594 14.0442 8.13324 14.3415 8.5 14.3415C8.86676 14.3415 9.16406 14.0442 9.16406 13.6775V6.07617C9.16406 5.70941 8.86676 5.41211 8.5 5.41211C8.13324 5.41211 7.83594 5.70941 7.83594 6.07617Z" fill="black"/>
</svg>
