<svg width="14" height="11" viewBox="0 0 14 11" fill="none" xmlns="http://www.w3.org/2000/svg">
<path d="M13.0506 1.81942C12.5801 2.0258 12.0788 2.16259 11.5562 2.22901C12.0939 1.90798 12.5042 1.40352 12.6972 0.79547C12.1959 1.09435 11.6424 1.30547 11.0525 1.42328C10.5765 0.916447 9.89808 0.602539 9.15799 0.602539C7.72208 0.602539 6.56607 1.76803 6.56607 3.19682C6.56607 3.4024 6.58347 3.60008 6.62617 3.78827C4.46993 3.6831 2.56198 2.64966 1.28025 1.07538C1.05648 1.46361 0.925229 1.90798 0.925229 2.38636C0.925229 3.28459 1.38779 4.08082 2.07728 4.5418C1.66058 4.53389 1.25179 4.41292 0.905461 4.22236C0.905461 4.23027 0.905461 4.24055 0.905461 4.25082C0.905461 5.5112 1.80449 6.55808 2.98342 6.79925C2.7723 6.85697 2.54221 6.88464 2.30342 6.88464C2.13737 6.88464 1.96974 6.87515 1.81239 6.84036C2.14844 7.86748 3.10202 8.6226 4.23589 8.64711C3.35347 9.33739 2.23304 9.7533 1.02011 9.7533C0.807415 9.7533 0.603414 9.74381 0.399414 9.71772C1.5483 10.4586 2.90988 10.8816 4.37821 10.8816C9.15087 10.8816 11.7602 6.92813 11.7602 3.50124C11.7602 3.38659 11.7562 3.27589 11.7507 3.16599C12.2654 2.80068 12.6979 2.34445 13.0506 1.81942Z" fill="#4F647A"/>
</svg>
