<svg width="20" height="20" viewBox="0 0 20 20" fill="none" xmlns="http://www.w3.org/2000/svg">
<g clip-path="url(#clip0)">
<path d="M19.5468 3.70237C19.2326 3.84173 18.9096 3.95934 18.5795 4.05483C18.9703 3.61289 19.2682 3.09289 19.4501 2.52386C19.4909 2.39631 19.4486 2.2567 19.3438 2.17328C19.239 2.08979 19.0936 2.07979 18.9783 2.14812C18.2773 2.56386 17.521 2.86263 16.7281 3.03734C15.9293 2.25683 14.8444 1.81263 13.7229 1.81263C11.3554 1.81263 9.42937 3.73863 9.42937 6.10599C9.42937 6.29244 9.44118 6.47786 9.46453 6.6607C6.52679 6.40276 3.79563 4.95883 1.92014 2.65825C1.8533 2.57625 1.75034 2.53205 1.64492 2.5405C1.53943 2.54876 1.44466 2.60825 1.39137 2.69967C1.01098 3.35237 0.809885 4.09889 0.809885 4.85844C0.809885 5.89295 1.17924 6.8745 1.83169 7.64147C1.6333 7.57276 1.44079 7.48689 1.25705 7.38489C1.1584 7.32999 1.03801 7.33082 0.940014 7.38702C0.841949 7.44321 0.780465 7.54657 0.777885 7.65953C0.777433 7.67857 0.777433 7.6976 0.777433 7.71689C0.777433 9.26108 1.60853 10.6513 2.87918 11.4091C2.77001 11.3982 2.66092 11.3824 2.55253 11.3617C2.44079 11.3403 2.32588 11.3795 2.25053 11.4647C2.17505 11.5499 2.15008 11.6686 2.18485 11.777C2.65518 13.2453 3.86608 14.3254 5.32995 14.6547C4.11582 15.4151 2.72737 15.8135 1.26982 15.8135C0.965691 15.8135 0.65982 15.7956 0.360465 15.7602C0.211756 15.7425 0.0695621 15.8303 0.0189169 15.9717C-0.0317283 16.1132 0.0219492 16.2709 0.148465 16.352C2.02092 17.5526 4.18601 18.1872 6.40956 18.1872C10.7808 18.1872 13.5153 16.1259 15.0395 14.3967C16.9401 12.2405 18.0302 9.3865 18.0302 6.56657C18.0302 6.44876 18.0284 6.32979 18.0248 6.21121C18.7747 5.64624 19.4203 4.9625 19.9456 4.17663C20.0254 4.05728 20.0168 3.89954 19.9243 3.78966C19.832 3.67973 19.6781 3.64418 19.5468 3.70237Z" fill="#939BB0"/>
</g>
<defs>
<clipPath id="clip0">
<rect width="20" height="20" fill="white"/>
</clipPath>
</defs>
</svg>
