<svg width="18" height="21" viewBox="0 0 18 21" fill="none" xmlns="http://www.w3.org/2000/svg">
<path d="M16.8984 4.92188H14.3987C14.0728 2.15422 11.7131 0 8.85938 0C6.00563 0 3.64592 2.15422 3.32005 4.92188H0.820312C0.367254 4.92188 0 5.28913 0 5.74219V20.1797C0 20.6327 0.367254 21 0.820312 21H16.8984C17.3515 21 17.7188 20.6327 17.7188 20.1797V5.74219C17.7188 5.28913 17.3515 4.92188 16.8984 4.92188ZM8.85938 1.64062C10.807 1.64062 12.4285 3.06202 12.7419 4.92188H4.97688C5.29024 3.06202 6.91179 1.64062 8.85938 1.64062ZM16.0781 19.3594H1.64062V6.5625H3.28125V9.02344C3.28125 9.4765 3.6485 9.84375 4.10156 9.84375C4.55462 9.84375 4.92188 9.4765 4.92188 9.02344V6.5625H12.7969V9.02344C12.7969 9.4765 13.1641 9.84375 13.6172 9.84375C14.0702 9.84375 14.4375 9.4765 14.4375 9.02344V6.5625H16.0781V19.3594Z" fill="#4F647A"/>
</svg>
